<?xml version="1.0" encoding="utf-8"?>
<!-- Generator: Adobe Illustrator 19.1.0, SVG Export Plug-In . SVG Version: 6.00 Build 0)  -->
<svg version="1.1" xmlns="http://www.w3.org/2000/svg" xmlns:xlink="http://www.w3.org/1999/xlink" x="0px" y="0px"
	 viewBox="0 0 360 360" enable-background="new 0 0 360 360" xml:space="preserve">
<g id="bg">
	<rect x="0.5" fill="#F9E531" width="360" height="360"/>
	
		<radialGradient id="SVGID_1_" cx="178.3592" cy="307.6555" r="99.4506" gradientTransform="matrix(1.4397 0 0 1 -78.0275 0)" gradientUnits="userSpaceOnUse">
		<stop  offset="0" style="stop-color:#754C28"/>
		<stop  offset="1" style="stop-color:#FFFFFF;stop-opacity:0.5"/>
	</radialGradient>
	<ellipse opacity="0.1" fill="url(#SVGID_1_)" cx="178.8" cy="307.7" rx="134.2" ry="4.4"/>
	<radialGradient id="SVGID_2_" cx="180.8971" cy="309.383" r="99.4506" gradientUnits="userSpaceOnUse">
		<stop  offset="0" style="stop-color:#603813"/>
		<stop  offset="1" style="stop-color:#FFFFFF"/>
	</radialGradient>
	<ellipse opacity="0.1" fill="url(#SVGID_2_)" cx="180.9" cy="309.4" rx="93.3" ry="4.4"/>
</g>
<g id="Layer_2">
</g>
<g id="Layer_3">
</g>
<g id="Layer_10">
</g>
<g id="Layer_4">
</g>
<g id="Layer_5">
	<g>
		<g>
			<g>
				<path fill="#FFC2DE" d="M220,166.1c0-67.4-19.2-92.2-42.2-92.2s-41.1,24.7-41.1,92.2v133.3H220V166.1z"/>
			</g>
		</g>
	</g>
	<g>
		<g>
			<g>
				<path fill="#FFFEE6" d="M211.4,141.2c0,42.7-14.1,56.5-32.4,56.5s-33.7-13.8-33.7-56.5s14.4-58.3,32.6-58.3
					S211.4,98.5,211.4,141.2z"/>
			</g>
		</g>
	</g>
	<g>
		<g>
			<g>
				<g>
					<path fill="#FFC2DE" d="M178,73.9c-9,0-16.8,8.6-21.1,29.8h42.6C195,82.5,187,73.9,178,73.9z"/>
				</g>
			</g>
		</g>
	</g>
	<g>
		<g>
			<g>
				<g>
					<ellipse fill="#5E5E5E" cx="172.6" cy="120.2" rx="2.4" ry="3.8"/>
				</g>
			</g>
		</g>
		<g>
			<g>
				<g>
					<ellipse fill="#5E5E5E" cx="183.5" cy="120.2" rx="2.4" ry="3.8"/>
				</g>
			</g>
		</g>
	</g>
	<g>
		<g>
			<g>
				<g>
					<path fill="#FF6300" d="M176.1,308.4h-9.3v-1.9c0-1.1,0.9-2,2-2h7.3V308.4z"/>
				</g>
			</g>
		</g>
		<g>
			<g>
				<g>
					<path fill="#FF6300" d="M182.4,308.4h9.3v-1.9c0-1.1-0.9-2-2-2h-7.3V308.4z"/>
				</g>
			</g>
		</g>
	</g>
	<g>
		<g>
			<g>
				<polyline fill="#005CFF" points="176.1,193.5 176.1,304.5 172.4,304.5 172.4,193.5 				"/>
			</g>
		</g>
	</g>
	<g>
		<g>
			<g>
				<polyline fill="#005CFF" points="186,193.5 186,304.5 182.4,304.5 182.4,193.5 				"/>
			</g>
		</g>
	</g>
	<g>
		<g>
			<g>
				<g>
					<path fill="#005CFF" d="M179,197.6c13.9,0,25.4-8,30.1-30.7h-61.3C152.9,189.6,165.1,197.6,179,197.6z"/>
				</g>
			</g>
		</g>
	</g>
	<g>
		<g>
			<g>
				<path fill="#563200" d="M120.4,257.4c-0.6,0-1-0.4-1-1v-4.7c0-0.6,0.4-1,1-1s1,0.4,1,1v4.7C121.4,256.9,121,257.4,120.4,257.4z"
					/>
			</g>
		</g>
	</g>
	<g>
		<g>
			<g>
				<rect x="205.1" y="168" fill="#005CFF" width="3.6" height="42.5"/>
			</g>
		</g>
	</g>
	<g>
		<g>
			<g>
				<ellipse fill="#FFFEE6" cx="206.9" cy="208.3" rx="4" ry="3.8"/>
			</g>
		</g>
	</g>
	<g>
		<g>
			<g>
				<g>
					<rect x="149.5" y="168" fill="#005CFF" width="3.6" height="42.5"/>
				</g>
			</g>
		</g>
		<g>
			<g>
				<g>
					<ellipse fill="#FFFEE6" cx="151.3" cy="209.3" rx="4" ry="3.8"/>
				</g>
			</g>
		</g>
	</g>
	<g>
		<g>
			<g>
				<rect x="114.4" y="256.4" fill="#FF6300" width="12" height="52"/>
			</g>
		</g>
	</g>
	<g>
		<g>
			<g>
				<rect x="236.7" y="266.4" fill="#FF6300" width="42" height="42"/>
			</g>
		</g>
	</g>
	<g>
		<g>
			<g>
				<path fill="#563200" d="M100.4,237.4c-0.6,0-1-0.4-1-1v-4.7c0-0.6,0.4-1,1-1s1,0.4,1,1v4.7C101.4,236.9,101,237.4,100.4,237.4z"
					/>
			</g>
		</g>
	</g>
	<g>
		<g>
			<g>
				<rect x="94.4" y="236.4" fill="#FF6300" width="12" height="72"/>
			</g>
		</g>
	</g>
</g>
<g id="Layer_6">
</g>
<g id="Layer_7">
</g>
<g id="Layer_8">
</g>
<g id="Layer_11">
</g>
<g id="Layer_9">
</g>
</svg>
