<?xml version="1.0" encoding="utf-8"?>
<!-- Generator: Adobe Illustrator 19.1.0, SVG Export Plug-In . SVG Version: 6.00 Build 0)  -->
<svg version="1.1" xmlns="http://www.w3.org/2000/svg" xmlns:xlink="http://www.w3.org/1999/xlink" x="0px" y="0px"
	 viewBox="0 0 360 360" enable-background="new 0 0 360 360" xml:space="preserve">
<g id="bg">
	<g>
		<g>
			<rect fill="#F4EFE9" width="360" height="360"/>
		</g>
	</g>
</g>
<g id="Layer_2">
</g>
<g id="Layer_3">
</g>
<g id="Layer_10">
</g>
<g id="Layer_4">
</g>
<g id="Layer_5">
	<g opacity="0.8">
		<defs>
			<rect id="SVGID_13_" x="528" y="0" opacity="0.8" width="360" height="360"/>
		</defs>
		<clipPath id="SVGID_2_">
			<use xlink:href="#SVGID_13_"  overflow="visible"/>
		</clipPath>
		<g clip-path="url(#SVGID_2_)">
			<g>
				<g>
					<g>
						<polygon fill="#F5E3DD" points="306.1,-22.2 288.6,7.4 306.1,37 323.5,7.4 						"/>
					</g>
				</g>
			</g>
			<g>
				<g>
					<g>
						<polygon fill="#F5E3DD" points="306.1,92.2 288.6,121.9 306.1,151.5 323.5,121.9 						"/>
					</g>
				</g>
			</g>
			<g>
				<g>
					<g>
						<polygon fill="#F5E3DD" points="306.1,206.7 288.6,236.3 306.1,265.9 323.5,236.3 						"/>
					</g>
				</g>
			</g>
			<g>
				<g>
					<g>
						<polygon fill="#F5E3DD" points="306.1,321.1 288.6,350.8 306.1,380.4 323.5,350.8 						"/>
					</g>
				</g>
			</g>
		</g>
	</g>
</g>
<g id="Layer_6">
</g>
<g id="Layer_7">
	<g opacity="0.8">
		<g>
			<defs>
				<rect id="SVGID_143_" width="360" height="360"/>
			</defs>
			<clipPath id="SVGID_4_">
				<use xlink:href="#SVGID_143_"  overflow="visible"/>
			</clipPath>
			<g clip-path="url(#SVGID_4_)">
				<g>
					<defs>
						<rect id="SVGID_145_" x="253.2" y="-6.5" width="192.8" height="157.2"/>
					</defs>
					<clipPath id="SVGID_6_">
						<use xlink:href="#SVGID_145_"  overflow="visible"/>
					</clipPath>
					<g clip-path="url(#SVGID_6_)">
						<path fill="#ECE7E2" d="M367.8,145.5c0-5-4.1-9.1-9.1-9.1s-9.1,4.1-9.1,9.1c0,0.4,0.1,0.9,0.1,1.3c0,0-0.1,0-0.1,0
							c0,0-0.1,0-0.1,0c0.1-0.4,0.1-0.8,0.1-1.3c0-5-4.1-9.1-9.1-9.1s-9.1,4.1-9.1,9.1c0,0.1,0,0.3,0,0.4c0,0.3,0,0.6,0,0.8
							c0,10.1,8.2,18.2,18.2,18.2c10.1,0,18.2-8.2,18.2-18.2c0-0.3,0-0.6,0-0.8C367.8,145.7,367.8,145.6,367.8,145.5z"/>
					</g>
					<g clip-path="url(#SVGID_6_)">
						<path fill="#ECE7E2" d="M271.4,106.2c0-5-4.1-9.1-9.1-9.1s-9.1,4.1-9.1,9.1c0,0.4,0.1,0.9,0.1,1.3c0,0-0.1,0-0.1,0
							c0,0-0.1,0-0.1,0c0.1-0.4,0.1-0.8,0.1-1.3c0-5-4.1-9.1-9.1-9.1c-5,0-9.1,4.1-9.1,9.1c0,0.1,0,0.3,0,0.4c0,0.3,0,0.6,0,0.8
							c0,10.1,8.2,18.2,18.2,18.2s18.2-8.2,18.2-18.2c0-0.3,0-0.6,0-0.8C271.4,106.4,271.4,106.3,271.4,106.2z"/>
					</g>
					<g clip-path="url(#SVGID_6_)">
						<path fill="#ECE7E2" d="M367.8,66.9c0-5-4.1-9.1-9.1-9.1s-9.1,4.1-9.1,9.1c0,0.4,0.1,0.9,0.1,1.3c0,0-0.1,0-0.1,0
							c0,0-0.1,0-0.1,0c0.1-0.4,0.1-0.8,0.1-1.3c0-5-4.1-9.1-9.1-9.1s-9.1,4.1-9.1,9.1c0,0.1,0,0.3,0,0.4c0,0.3,0,0.6,0,0.8
							c0,10.1,8.2,18.2,18.2,18.2c10.1,0,18.2-8.2,18.2-18.2c0-0.3,0-0.6,0-0.8C367.8,67.2,367.8,67,367.8,66.9z"/>
					</g>
					<g clip-path="url(#SVGID_6_)">
						<path fill="#ECE7E2" d="M271.4,27.6c0-5-4.1-9.1-9.1-9.1s-9.1,4.1-9.1,9.1c0,0.4,0.1,0.9,0.1,1.3c0,0-0.1,0-0.1,0
							c0,0-0.1,0-0.1,0c0.1-0.4,0.1-0.8,0.1-1.3c0-5-4.1-9.1-9.1-9.1c-5,0-9.1,4.1-9.1,9.1c0,0.1,0,0.3,0,0.4c0,0.3,0,0.6,0,0.8
							c0,10.1,8.2,18.2,18.2,18.2s18.2-8.2,18.2-18.2c0-0.3,0-0.6,0-0.8C271.4,27.9,271.4,27.7,271.4,27.6z"/>
					</g>
					<g clip-path="url(#SVGID_6_)">
						<path fill="#ECE7E2" d="M367.8-11.7c0-5-4.1-9.1-9.1-9.1s-9.1,4.1-9.1,9.1c0,0.4,0.1,0.9,0.1,1.3c0,0-0.1,0-0.1,0
							c0,0-0.1,0-0.1,0c0.1-0.4,0.1-0.8,0.1-1.3c0-5-4.1-9.1-9.1-9.1s-9.1,4.1-9.1,9.1c0,0.1,0,0.3,0,0.4c0,0.3,0,0.6,0,0.8
							c0,10.1,8.2,18.2,18.2,18.2c10.1,0,18.2-8.2,18.2-18.2c0-0.3,0-0.6,0-0.8C367.8-11.4,367.8-11.6,367.8-11.7z"/>
					</g>
				</g>
			</g>
			<g clip-path="url(#SVGID_4_)">
				<g>
					<defs>
						<rect id="SVGID_147_" x="253.2" y="150.6" width="192.8" height="157.2"/>
					</defs>
					<clipPath id="SVGID_8_">
						<use xlink:href="#SVGID_147_"  overflow="visible"/>
					</clipPath>
					<g clip-path="url(#SVGID_8_)">
						<path fill="#ECE7E2" d="M367.8,302.6c0-5-4.1-9.1-9.1-9.1s-9.1,4.1-9.1,9.1c0,0.4,0.1,0.9,0.1,1.3c0,0-0.1,0-0.1,0
							c0,0-0.1,0-0.1,0c0.1-0.4,0.1-0.8,0.1-1.3c0-5-4.1-9.1-9.1-9.1s-9.1,4.1-9.1,9.1c0,0.1,0,0.3,0,0.4c0,0.3,0,0.6,0,0.8
							c0,10.1,8.2,18.2,18.2,18.2c10.1,0,18.2-8.2,18.2-18.2c0-0.3,0-0.6,0-0.8C367.8,302.9,367.8,302.8,367.8,302.6z"/>
					</g>
					<g clip-path="url(#SVGID_8_)">
						<path fill="#ECE7E2" d="M271.4,263.3c0-5-4.1-9.1-9.1-9.1s-9.1,4.1-9.1,9.1c0,0.4,0.1,0.9,0.1,1.3c0,0-0.1,0-0.1,0
							c0,0-0.1,0-0.1,0c0.1-0.4,0.1-0.8,0.1-1.3c0-5-4.1-9.1-9.1-9.1c-5,0-9.1,4.1-9.1,9.1c0,0.1,0,0.3,0,0.4c0,0.3,0,0.6,0,0.8
							c0,10.1,8.2,18.2,18.2,18.2s18.2-8.2,18.2-18.2c0-0.3,0-0.6,0-0.8C271.4,263.6,271.4,263.5,271.4,263.3z"/>
					</g>
					<g clip-path="url(#SVGID_8_)">
						<path fill="#ECE7E2" d="M367.8,224c0-5-4.1-9.1-9.1-9.1s-9.1,4.1-9.1,9.1c0,0.4,0.1,0.9,0.1,1.3c0,0-0.1,0-0.1,0
							c0,0-0.1,0-0.1,0c0.1-0.4,0.1-0.8,0.1-1.3c0-5-4.1-9.1-9.1-9.1s-9.1,4.1-9.1,9.1c0,0.1,0,0.3,0,0.4c0,0.3,0,0.6,0,0.8
							c0,10.1,8.2,18.2,18.2,18.2c10.1,0,18.2-8.2,18.2-18.2c0-0.3,0-0.6,0-0.8C367.8,224.3,367.8,224.2,367.8,224z"/>
					</g>
					<g clip-path="url(#SVGID_8_)">
						<path fill="#ECE7E2" d="M271.4,184.7c0-5-4.1-9.1-9.1-9.1s-9.1,4.1-9.1,9.1c0,0.4,0.1,0.9,0.1,1.3c0,0-0.1,0-0.1,0
							c0,0-0.1,0-0.1,0c0.1-0.4,0.1-0.8,0.1-1.3c0-5-4.1-9.1-9.1-9.1c-5,0-9.1,4.1-9.1,9.1c0,0.1,0,0.3,0,0.4c0,0.3,0,0.6,0,0.8
							c0,10.1,8.2,18.2,18.2,18.2s18.2-8.2,18.2-18.2c0-0.3,0-0.6,0-0.8C271.4,185,271.4,184.9,271.4,184.7z"/>
					</g>
					<g clip-path="url(#SVGID_8_)">
						<path fill="#ECE7E2" d="M367.8,145.5c0-5-4.1-9.1-9.1-9.1s-9.1,4.1-9.1,9.1c0,0.4,0.1,0.9,0.1,1.3c0,0-0.1,0-0.1,0
							c0,0-0.1,0-0.1,0c0.1-0.4,0.1-0.8,0.1-1.3c0-5-4.1-9.1-9.1-9.1s-9.1,4.1-9.1,9.1c0,0.1,0,0.3,0,0.4c0,0.3,0,0.6,0,0.8
							c0,10.1,8.2,18.2,18.2,18.2c10.1,0,18.2-8.2,18.2-18.2c0-0.3,0-0.6,0-0.8C367.8,145.7,367.8,145.6,367.8,145.5z"/>
					</g>
				</g>
			</g>
			<g clip-path="url(#SVGID_4_)">
				<g>
					<defs>
						<rect id="SVGID_149_" x="253.2" y="307.8" width="192.8" height="157.2"/>
					</defs>
					<clipPath id="SVGID_10_">
						<use xlink:href="#SVGID_149_"  overflow="visible"/>
					</clipPath>
					<g clip-path="url(#SVGID_10_)">
						<path fill="#ECE7E2" d="M271.4,341.9c0-5-4.1-9.1-9.1-9.1s-9.1,4.1-9.1,9.1c0,0.4,0.1,0.9,0.1,1.3c0,0-0.1,0-0.1,0
							c0,0-0.1,0-0.1,0c0.1-0.4,0.1-0.8,0.1-1.3c0-5-4.1-9.1-9.1-9.1c-5,0-9.1,4.1-9.1,9.1c0,0.1,0,0.3,0,0.4c0,0.3,0,0.6,0,0.8
							c0,10.1,8.2,18.2,18.2,18.2s18.2-8.2,18.2-18.2c0-0.3,0-0.6,0-0.8C271.4,342.2,271.4,342.1,271.4,341.9z"/>
					</g>
					<g clip-path="url(#SVGID_10_)">
						<path fill="#ECE7E2" d="M367.8,302.6c0-5-4.1-9.1-9.1-9.1s-9.1,4.1-9.1,9.1c0,0.4,0.1,0.9,0.1,1.3c0,0-0.1,0-0.1,0
							c0,0-0.1,0-0.1,0c0.1-0.4,0.1-0.8,0.1-1.3c0-5-4.1-9.1-9.1-9.1s-9.1,4.1-9.1,9.1c0,0.1,0,0.3,0,0.4c0,0.3,0,0.6,0,0.8
							c0,10.1,8.2,18.2,18.2,18.2c10.1,0,18.2-8.2,18.2-18.2c0-0.3,0-0.6,0-0.8C367.8,302.9,367.8,302.8,367.8,302.6z"/>
					</g>
				</g>
			</g>
			<g clip-path="url(#SVGID_4_)">
				<g>
					<defs>
						<rect id="SVGID_151_" x="60.4" y="-6.5" width="192.8" height="157.2"/>
					</defs>
					<clipPath id="SVGID_12_">
						<use xlink:href="#SVGID_151_"  overflow="visible"/>
					</clipPath>
					<g clip-path="url(#SVGID_12_)">
						<path fill="#ECE7E2" d="M271.4,106.2c0-5-4.1-9.1-9.1-9.1s-9.1,4.1-9.1,9.1c0,0.4,0.1,0.9,0.1,1.3c0,0-0.1,0-0.1,0
							c0,0-0.1,0-0.1,0c0.1-0.4,0.1-0.8,0.1-1.3c0-5-4.1-9.1-9.1-9.1c-5,0-9.1,4.1-9.1,9.1c0,0.1,0,0.3,0,0.4c0,0.3,0,0.6,0,0.8
							c0,10.1,8.2,18.2,18.2,18.2s18.2-8.2,18.2-18.2c0-0.3,0-0.6,0-0.8C271.4,106.4,271.4,106.3,271.4,106.2z"/>
					</g>
					<g clip-path="url(#SVGID_12_)">
						<path fill="#ECE7E2" d="M175,145.5c0-5-4.1-9.1-9.1-9.1c-5,0-9.1,4.1-9.1,9.1c0,0.4,0.1,0.9,0.1,1.3c0,0-0.1,0-0.1,0
							c0,0-0.1,0-0.1,0c0.1-0.4,0.1-0.8,0.1-1.3c0-5-4.1-9.1-9.1-9.1s-9.1,4.1-9.1,9.1c0,0.1,0,0.3,0,0.4c0,0.3,0,0.6,0,0.8
							c0,10.1,8.2,18.2,18.2,18.2c10.1,0,18.2-8.2,18.2-18.2c0-0.3,0-0.6,0-0.8C174.9,145.7,175,145.6,175,145.5z"/>
					</g>
					<g clip-path="url(#SVGID_12_)">
						<path fill="#ECE7E2" d="M78.6,106.2c0-5-4.1-9.1-9.1-9.1s-9.1,4.1-9.1,9.1c0,0.4,0.1,0.9,0.1,1.3c0,0-0.1,0-0.1,0
							c0,0-0.1,0-0.1,0c0.1-0.4,0.1-0.8,0.1-1.3c0-5-4.1-9.1-9.1-9.1s-9.1,4.1-9.1,9.1c0,0.1,0,0.3,0,0.4c0,0.3,0,0.6,0,0.8
							c0,10.1,8.2,18.2,18.2,18.2s18.2-8.2,18.2-18.2c0-0.3,0-0.6,0-0.8C78.5,106.4,78.6,106.3,78.6,106.2z"/>
					</g>
					<g clip-path="url(#SVGID_12_)">
						<path fill="#ECE7E2" d="M271.4,27.6c0-5-4.1-9.1-9.1-9.1s-9.1,4.1-9.1,9.1c0,0.4,0.1,0.9,0.1,1.3c0,0-0.1,0-0.1,0
							c0,0-0.1,0-0.1,0c0.1-0.4,0.1-0.8,0.1-1.3c0-5-4.1-9.1-9.1-9.1c-5,0-9.1,4.1-9.1,9.1c0,0.1,0,0.3,0,0.4c0,0.3,0,0.6,0,0.8
							c0,10.1,8.2,18.2,18.2,18.2s18.2-8.2,18.2-18.2c0-0.3,0-0.6,0-0.8C271.4,27.9,271.4,27.7,271.4,27.6z"/>
					</g>
					<g clip-path="url(#SVGID_12_)">
						<path fill="#ECE7E2" d="M175,66.9c0-5-4.1-9.1-9.1-9.1c-5,0-9.1,4.1-9.1,9.1c0,0.4,0.1,0.9,0.1,1.3c0,0-0.1,0-0.1,0
							c0,0-0.1,0-0.1,0c0.1-0.4,0.1-0.8,0.1-1.3c0-5-4.1-9.1-9.1-9.1s-9.1,4.1-9.1,9.1c0,0.1,0,0.3,0,0.4c0,0.3,0,0.6,0,0.8
							c0,10.1,8.2,18.2,18.2,18.2c10.1,0,18.2-8.2,18.2-18.2c0-0.3,0-0.6,0-0.8C174.9,67.2,175,67,175,66.9z"/>
					</g>
					<g clip-path="url(#SVGID_12_)">
						<path fill="#ECE7E2" d="M78.6,27.6c0-5-4.1-9.1-9.1-9.1s-9.1,4.1-9.1,9.1c0,0.4,0.1,0.9,0.1,1.3c0,0-0.1,0-0.1,0
							c0,0-0.1,0-0.1,0c0.1-0.4,0.1-0.8,0.1-1.3c0-5-4.1-9.1-9.1-9.1s-9.1,4.1-9.1,9.1c0,0.1,0,0.3,0,0.4c0,0.3,0,0.6,0,0.8
							c0,10.1,8.2,18.2,18.2,18.2s18.2-8.2,18.2-18.2c0-0.3,0-0.6,0-0.8C78.5,27.9,78.6,27.7,78.6,27.6z"/>
					</g>
					<g clip-path="url(#SVGID_12_)">
						<path fill="#ECE7E2" d="M175-11.7c0-5-4.1-9.1-9.1-9.1c-5,0-9.1,4.1-9.1,9.1c0,0.4,0.1,0.9,0.1,1.3c0,0-0.1,0-0.1,0
							c0,0-0.1,0-0.1,0c0.1-0.4,0.1-0.8,0.1-1.3c0-5-4.1-9.1-9.1-9.1s-9.1,4.1-9.1,9.1c0,0.1,0,0.3,0,0.4c0,0.3,0,0.6,0,0.8
							c0,10.1,8.2,18.2,18.2,18.2c10.1,0,18.2-8.2,18.2-18.2c0-0.3,0-0.6,0-0.8C174.9-11.4,175-11.6,175-11.7z"/>
					</g>
				</g>
			</g>
			<g clip-path="url(#SVGID_4_)">
				<g>
					<defs>
						<rect id="SVGID_153_" x="60.4" y="150.6" width="192.8" height="157.2"/>
					</defs>
					<clipPath id="SVGID_14_">
						<use xlink:href="#SVGID_153_"  overflow="visible"/>
					</clipPath>
					<g clip-path="url(#SVGID_14_)">
						<path fill="#ECE7E2" d="M271.4,263.3c0-5-4.1-9.1-9.1-9.1s-9.1,4.1-9.1,9.1c0,0.4,0.1,0.9,0.1,1.3c0,0-0.1,0-0.1,0
							c0,0-0.1,0-0.1,0c0.1-0.4,0.1-0.8,0.1-1.3c0-5-4.1-9.1-9.1-9.1c-5,0-9.1,4.1-9.1,9.1c0,0.1,0,0.3,0,0.4c0,0.3,0,0.6,0,0.8
							c0,10.1,8.2,18.2,18.2,18.2s18.2-8.2,18.2-18.2c0-0.3,0-0.6,0-0.8C271.4,263.6,271.4,263.5,271.4,263.3z"/>
					</g>
					<g clip-path="url(#SVGID_14_)">
						<path fill="#ECE7E2" d="M175,302.6c0-5-4.1-9.1-9.1-9.1c-5,0-9.1,4.1-9.1,9.1c0,0.4,0.1,0.9,0.1,1.3c0,0-0.1,0-0.1,0
							c0,0-0.1,0-0.1,0c0.1-0.4,0.1-0.8,0.1-1.3c0-5-4.1-9.1-9.1-9.1s-9.1,4.1-9.1,9.1c0,0.1,0,0.3,0,0.4c0,0.3,0,0.6,0,0.8
							c0,10.1,8.2,18.2,18.2,18.2c10.1,0,18.2-8.2,18.2-18.2c0-0.3,0-0.6,0-0.8C174.9,302.9,175,302.8,175,302.6z"/>
					</g>
					<g clip-path="url(#SVGID_14_)">
						<path fill="#ECE7E2" d="M78.6,263.3c0-5-4.1-9.1-9.1-9.1s-9.1,4.1-9.1,9.1c0,0.4,0.1,0.9,0.1,1.3c0,0-0.1,0-0.1,0
							c0,0-0.1,0-0.1,0c0.1-0.4,0.1-0.8,0.1-1.3c0-5-4.1-9.1-9.1-9.1s-9.1,4.1-9.1,9.1c0,0.1,0,0.3,0,0.4c0,0.3,0,0.6,0,0.8
							c0,10.1,8.2,18.2,18.2,18.2s18.2-8.2,18.2-18.2c0-0.3,0-0.6,0-0.8C78.5,263.6,78.6,263.5,78.6,263.3z"/>
					</g>
					<g clip-path="url(#SVGID_14_)">
						<path fill="#ECE7E2" d="M271.4,184.7c0-5-4.1-9.1-9.1-9.1s-9.1,4.1-9.1,9.1c0,0.4,0.1,0.9,0.1,1.3c0,0-0.1,0-0.1,0
							c0,0-0.1,0-0.1,0c0.1-0.4,0.1-0.8,0.1-1.3c0-5-4.1-9.1-9.1-9.1c-5,0-9.1,4.1-9.1,9.1c0,0.1,0,0.3,0,0.4c0,0.3,0,0.6,0,0.8
							c0,10.1,8.2,18.2,18.2,18.2s18.2-8.2,18.2-18.2c0-0.3,0-0.6,0-0.8C271.4,185,271.4,184.9,271.4,184.7z"/>
					</g>
					<g clip-path="url(#SVGID_14_)">
						<path fill="#ECE7E2" d="M175,224c0-5-4.1-9.1-9.1-9.1c-5,0-9.1,4.1-9.1,9.1c0,0.4,0.1,0.9,0.1,1.3c0,0-0.1,0-0.1,0
							c0,0-0.1,0-0.1,0c0.1-0.4,0.1-0.8,0.1-1.3c0-5-4.1-9.1-9.1-9.1s-9.1,4.1-9.1,9.1c0,0.1,0,0.3,0,0.4c0,0.3,0,0.6,0,0.8
							c0,10.1,8.2,18.2,18.2,18.2c10.1,0,18.2-8.2,18.2-18.2c0-0.3,0-0.6,0-0.8C174.9,224.3,175,224.2,175,224z"/>
					</g>
					<g clip-path="url(#SVGID_14_)">
						<path fill="#ECE7E2" d="M78.6,184.7c0-5-4.1-9.1-9.1-9.1s-9.1,4.1-9.1,9.1c0,0.4,0.1,0.9,0.1,1.3c0,0-0.1,0-0.1,0
							c0,0-0.1,0-0.1,0c0.1-0.4,0.1-0.8,0.1-1.3c0-5-4.1-9.1-9.1-9.1s-9.1,4.1-9.1,9.1c0,0.1,0,0.3,0,0.4c0,0.3,0,0.6,0,0.8
							c0,10.1,8.2,18.2,18.2,18.2s18.2-8.2,18.2-18.2c0-0.3,0-0.6,0-0.8C78.5,185,78.6,184.9,78.6,184.7z"/>
					</g>
					<g clip-path="url(#SVGID_14_)">
						<path fill="#ECE7E2" d="M175,145.5c0-5-4.1-9.1-9.1-9.1c-5,0-9.1,4.1-9.1,9.1c0,0.4,0.1,0.9,0.1,1.3c0,0-0.1,0-0.1,0
							c0,0-0.1,0-0.1,0c0.1-0.4,0.1-0.8,0.1-1.3c0-5-4.1-9.1-9.1-9.1s-9.1,4.1-9.1,9.1c0,0.1,0,0.3,0,0.4c0,0.3,0,0.6,0,0.8
							c0,10.1,8.2,18.2,18.2,18.2c10.1,0,18.2-8.2,18.2-18.2c0-0.3,0-0.6,0-0.8C174.9,145.7,175,145.6,175,145.5z"/>
					</g>
				</g>
			</g>
			<g clip-path="url(#SVGID_4_)">
				<g>
					<defs>
						<rect id="SVGID_155_" x="60.4" y="307.8" width="192.8" height="157.2"/>
					</defs>
					<clipPath id="SVGID_16_">
						<use xlink:href="#SVGID_155_"  overflow="visible"/>
					</clipPath>
					<g clip-path="url(#SVGID_16_)">
						<path fill="#ECE7E2" d="M271.4,341.9c0-5-4.1-9.1-9.1-9.1s-9.1,4.1-9.1,9.1c0,0.4,0.1,0.9,0.1,1.3c0,0-0.1,0-0.1,0
							c0,0-0.1,0-0.1,0c0.1-0.4,0.1-0.8,0.1-1.3c0-5-4.1-9.1-9.1-9.1c-5,0-9.1,4.1-9.1,9.1c0,0.1,0,0.3,0,0.4c0,0.3,0,0.6,0,0.8
							c0,10.1,8.2,18.2,18.2,18.2s18.2-8.2,18.2-18.2c0-0.3,0-0.6,0-0.8C271.4,342.2,271.4,342.1,271.4,341.9z"/>
					</g>
					<g clip-path="url(#SVGID_16_)">
						<path fill="#ECE7E2" d="M78.6,341.9c0-5-4.1-9.1-9.1-9.1s-9.1,4.1-9.1,9.1c0,0.4,0.1,0.9,0.1,1.3c0,0-0.1,0-0.1,0
							c0,0-0.1,0-0.1,0c0.1-0.4,0.1-0.8,0.1-1.3c0-5-4.1-9.1-9.1-9.1s-9.1,4.1-9.1,9.1c0,0.1,0,0.3,0,0.4c0,0.3,0,0.6,0,0.8
							c0,10.1,8.2,18.2,18.2,18.2s18.2-8.2,18.2-18.2c0-0.3,0-0.6,0-0.8C78.5,342.2,78.6,342.1,78.6,341.9z"/>
					</g>
					<g clip-path="url(#SVGID_16_)">
						<path fill="#ECE7E2" d="M175,302.6c0-5-4.1-9.1-9.1-9.1c-5,0-9.1,4.1-9.1,9.1c0,0.4,0.1,0.9,0.1,1.3c0,0-0.1,0-0.1,0
							c0,0-0.1,0-0.1,0c0.1-0.4,0.1-0.8,0.1-1.3c0-5-4.1-9.1-9.1-9.1s-9.1,4.1-9.1,9.1c0,0.1,0,0.3,0,0.4c0,0.3,0,0.6,0,0.8
							c0,10.1,8.2,18.2,18.2,18.2c10.1,0,18.2-8.2,18.2-18.2c0-0.3,0-0.6,0-0.8C174.9,302.9,175,302.8,175,302.6z"/>
					</g>
				</g>
			</g>
			<g clip-path="url(#SVGID_4_)">
				<g>
					<defs>
						<rect id="SVGID_157_" x="-132.4" y="-6.5" width="192.8" height="157.2"/>
					</defs>
					<clipPath id="SVGID_18_">
						<use xlink:href="#SVGID_157_"  overflow="visible"/>
					</clipPath>
					<g clip-path="url(#SVGID_18_)">
						<path fill="#ECE7E2" d="M78.6,106.2c0-5-4.1-9.1-9.1-9.1s-9.1,4.1-9.1,9.1c0,0.4,0.1,0.9,0.1,1.3c0,0-0.1,0-0.1,0
							c0,0-0.1,0-0.1,0c0.1-0.4,0.1-0.8,0.1-1.3c0-5-4.1-9.1-9.1-9.1s-9.1,4.1-9.1,9.1c0,0.1,0,0.3,0,0.4c0,0.3,0,0.6,0,0.8
							c0,10.1,8.2,18.2,18.2,18.2s18.2-8.2,18.2-18.2c0-0.3,0-0.6,0-0.8C78.5,106.4,78.6,106.3,78.6,106.2z"/>
					</g>
					<g clip-path="url(#SVGID_18_)">
						<path fill="#ECE7E2" d="M78.6,27.6c0-5-4.1-9.1-9.1-9.1s-9.1,4.1-9.1,9.1c0,0.4,0.1,0.9,0.1,1.3c0,0-0.1,0-0.1,0
							c0,0-0.1,0-0.1,0c0.1-0.4,0.1-0.8,0.1-1.3c0-5-4.1-9.1-9.1-9.1s-9.1,4.1-9.1,9.1c0,0.1,0,0.3,0,0.4c0,0.3,0,0.6,0,0.8
							c0,10.1,8.2,18.2,18.2,18.2s18.2-8.2,18.2-18.2c0-0.3,0-0.6,0-0.8C78.5,27.9,78.6,27.7,78.6,27.6z"/>
					</g>
				</g>
			</g>
			<g clip-path="url(#SVGID_4_)">
				<g>
					<defs>
						<rect id="SVGID_159_" x="-132.4" y="150.6" width="192.8" height="157.2"/>
					</defs>
					<clipPath id="SVGID_20_">
						<use xlink:href="#SVGID_159_"  overflow="visible"/>
					</clipPath>
					<g clip-path="url(#SVGID_20_)">
						<path fill="#ECE7E2" d="M78.6,263.3c0-5-4.1-9.1-9.1-9.1s-9.1,4.1-9.1,9.1c0,0.4,0.1,0.9,0.1,1.3c0,0-0.1,0-0.1,0
							c0,0-0.1,0-0.1,0c0.1-0.4,0.1-0.8,0.1-1.3c0-5-4.1-9.1-9.1-9.1s-9.1,4.1-9.1,9.1c0,0.1,0,0.3,0,0.4c0,0.3,0,0.6,0,0.8
							c0,10.1,8.2,18.2,18.2,18.2s18.2-8.2,18.2-18.2c0-0.3,0-0.6,0-0.8C78.5,263.6,78.6,263.5,78.6,263.3z"/>
					</g>
					<g clip-path="url(#SVGID_20_)">
						<path fill="#ECE7E2" d="M78.6,184.7c0-5-4.1-9.1-9.1-9.1s-9.1,4.1-9.1,9.1c0,0.4,0.1,0.9,0.1,1.3c0,0-0.1,0-0.1,0
							c0,0-0.1,0-0.1,0c0.1-0.4,0.1-0.8,0.1-1.3c0-5-4.1-9.1-9.1-9.1s-9.1,4.1-9.1,9.1c0,0.1,0,0.3,0,0.4c0,0.3,0,0.6,0,0.8
							c0,10.1,8.2,18.2,18.2,18.2s18.2-8.2,18.2-18.2c0-0.3,0-0.6,0-0.8C78.5,185,78.6,184.9,78.6,184.7z"/>
					</g>
				</g>
			</g>
			<g clip-path="url(#SVGID_4_)">
				<g>
					<defs>
						<rect id="SVGID_161_" x="-132.4" y="307.8" width="192.8" height="157.2"/>
					</defs>
					<clipPath id="SVGID_22_">
						<use xlink:href="#SVGID_161_"  overflow="visible"/>
					</clipPath>
					<g clip-path="url(#SVGID_22_)">
						<path fill="#ECE7E2" d="M78.6,341.9c0-5-4.1-9.1-9.1-9.1s-9.1,4.1-9.1,9.1c0,0.4,0.1,0.9,0.1,1.3c0,0-0.1,0-0.1,0
							c0,0-0.1,0-0.1,0c0.1-0.4,0.1-0.8,0.1-1.3c0-5-4.1-9.1-9.1-9.1s-9.1,4.1-9.1,9.1c0,0.1,0,0.3,0,0.4c0,0.3,0,0.6,0,0.8
							c0,10.1,8.2,18.2,18.2,18.2s18.2-8.2,18.2-18.2c0-0.3,0-0.6,0-0.8C78.5,342.2,78.6,342.1,78.6,341.9z"/>
					</g>
				</g>
			</g>
		</g>
	</g>
	<g opacity="0.1">
		<g>
			<ellipse cx="180" cy="308.4" rx="61.4" ry="4.4"/>
		</g>
	</g>
	<g>
		<g>
			<g>
				<path fill="#8D5E25" d="M209.2,82.5l-55.3,1.4c0,0,1.8,10.9-17,19.5c-13,6-12.7,25.3-9.7,41S116,163.5,116,163.5
					s50.4,63.2,107.2,12.5C244,157.3,254.5,97,209.2,82.5z"/>
			</g>
		</g>
		<g>
			<g>
				<path fill="#AE7521" d="M125.9,165.3l-0.3-1.5c8.3-1.6,9.1-9,8.4-14.9c-0.3-2-0.5-4-0.8-6c-2.2-15.6-4-29.1,7.8-37.2
					c9.5-6.5,13.8-14.6,13.8-14.7l1.3,0.7c-0.2,0.3-4.4,8.5-14.3,15.3c-11.1,7.6-9.4,20-7.2,35.8c0.3,2,0.6,4,0.8,6
					C136.7,158,133.3,163.9,125.9,165.3z"/>
			</g>
		</g>
		<g>
			<g>
				<ellipse fill="#8D5E25" cx="182.5" cy="82.5" rx="32.5" ry="28.7"/>
			</g>
		</g>
		<g>
			<g>
				<path fill="#AE7521" d="M139.9,135.5c-3-13-1.2-21.2,5.7-26.5c7.3-5.6,10.9-15.1,11-15.2l1.4,0.5c-0.2,0.4-3.8,10-11.5,15.8
					c-6.5,5-8,12.4-5.1,24.9L139.9,135.5z"/>
			</g>
		</g>
		<g>
			<g>
				<g>
					<rect x="175.4" y="226.3" fill="#FFD059" width="3.6" height="72.9"/>
				</g>
			</g>
			<g>
				<g>
					<rect x="185.3" y="226.3" fill="#FFD059" width="3.6" height="72.9"/>
				</g>
			</g>
		</g>
		<g>
			<g>
				<path fill="#FFD059" d="M223.2,156.3c0,11.8-7.2,19.3-8.3,28c-1,7.8,2.7,11.1,2.8,17.6c0.2,25.9-18.8,30.1-34.3,30.2
					c-15,0-35.6-2.2-35.5-30.2c0-4.4,2.9-9.7,2-15.1c-1.5-8.7-9.5-7.2-7.9-30.5c3.7-57.2,17.7-78.3,40.1-78.3S223.2,99,223.2,156.3z
					"/>
			</g>
		</g>
		<g>
			<g>
				<path d="M222.3,136.4c-10.4,22-32.8,37.2-58.7,37.2c-7.4,0-14.5-1.3-21.1-3.5c0.4,6,6.7,11.8,7.5,16.8c1,5.8-3.5,10.5-2,15.1h0
					c0,0,0,0,0,0c16.9,2.4,24.1,27.8,24,29.5c0,0,4.1,0.6,9.9,0.6c5.7,0,10.1-0.5,10.1-0.5c3.4-19.2,25.6-29.6,25.6-29.6
					c1.6-5.2-3.7-10.8-2.8-17.6c1.1-8,8.3-16.8,8.3-28C223.2,149.1,222.9,142.5,222.3,136.4z"/>
			</g>
		</g>
		<g>
			<g>
				<g>
					<path d="M179,303.1h-9.3v-1.9c0-1.1,0.9-2,2-2h7.3V303.1z"/>
				</g>
			</g>
			<g>
				<g>
					<path d="M185.3,303.1h9.3v-1.9c0-1.1-0.9-2-2-2h-7.3V303.1z"/>
				</g>
			</g>
		</g>
		<g>
			<g>
				<rect x="185.3" y="299.4" width="2.1" height="8.8"/>
			</g>
		</g>
		<g>
			<g>
				<rect x="176.9" y="299.4" width="2.1" height="8.8"/>
			</g>
		</g>
		<g>
			<g>
				<path d="M173.2,308.6h1.5v-6.5h-4.9v3.1C169.8,307.1,171.3,308.6,173.2,308.6z"/>
			</g>
		</g>
		<g>
			<g>
				<path d="M193.1,308.6h1.5v-6.5h-4.9v3.1C189.7,307.1,191.2,308.6,193.1,308.6z"/>
			</g>
		</g>
		<g>
			<g>
				<path fill="#FFD059" d="M146,200.7c-0.5,0-0.9-0.2-1.3-0.5l-9.2-9.7c-0.5-0.5-0.6-1.2-0.4-1.8l7.2-18.7c0.3-0.9,1.4-1.3,2.3-1
					c0.9,0.3,1.4,1.4,1,2.3l-6.8,17.6l8.5,8.9c0.7,0.7,0.6,1.8-0.1,2.5C146.9,200.5,146.5,200.7,146,200.7z"/>
			</g>
		</g>
		<g>
			<g>
				
					<ellipse transform="matrix(0.8258 -0.5639 0.5639 0.8258 -86.7321 117.0098)" fill="#FFD059" cx="146" cy="198.9" rx="4" ry="3.8"/>
			</g>
		</g>
		<g>
			<g>
				<path d="M228.8,190.2c-0.1,0-0.1,0-0.2,0c-0.7-0.1-1.2-0.5-1.5-1.1l-9.2-25c-0.3-0.9,0.1-1.9,1-2.2c0.9-0.3,1.9,0.1,2.2,1
					l8,21.6l7.1-11.8c0.5-0.8,1.6-1.1,2.4-0.6s1.1,1.6,0.6,2.4l-9,15C229.9,189.9,229.4,190.2,228.8,190.2z"/>
			</g>
		</g>
		<g>
			<g>
				<g>
					
						<ellipse transform="matrix(-0.9812 -0.1932 0.1932 -0.9812 441.9351 390.3005)" fill="#FFD059" cx="240" cy="173.6" rx="4" ry="3.8"/>
				</g>
			</g>
		</g>
		<g>
			<g>
				<g>
					<ellipse fill="#414042" cx="178.8" cy="115.2" rx="2.1" ry="3.8"/>
				</g>
			</g>
			<g>
				<g>
					<ellipse fill="#414042" cx="186.4" cy="115.2" rx="2.1" ry="3.8"/>
				</g>
			</g>
		</g>
		<g>
			<defs>
				<path id="SVGID_167_" d="M182.1,78c11.3,0,21.6,5.3,29.1,18c2.4-4,3.8-8.6,3.8-13.5c0-15.9-14.6-28.7-32.5-28.7
					S150,66.6,150,82.5c0,5.3,1.6,10.2,4.4,14.5C161.2,83.7,170.5,78,182.1,78z"/>
			</defs>
			<clipPath id="SVGID_24_">
				<use xlink:href="#SVGID_167_"  overflow="visible"/>
			</clipPath>
			<g clip-path="url(#SVGID_24_)">
				<g>
					<path fill="#AE7521" d="M165.8,84.2c-0.1-0.2-7.6-22.6,8.1-32l0.8,1.3c-14.7,8.8-7.5,30-7.5,30.2L165.8,84.2z"/>
				</g>
			</g>
			<g clip-path="url(#SVGID_24_)">
				<g>
					<path fill="#AE7521" d="M164.1,86.1c-9.6-7.7-4.2-25.4-3.9-26.1l1.4,0.5c-0.1,0.2-5.4,17.5,3.5,24.5L164.1,86.1z"/>
				</g>
			</g>
			<g clip-path="url(#SVGID_24_)">
				<g>
					<path fill="#AE7521" d="M199.1,84.2l-1.4-0.5c0.1-0.2,7.2-21.4-7.5-30.2l0.8-1.3C206.7,61.6,199.2,84,199.1,84.2z"/>
				</g>
			</g>
			<g clip-path="url(#SVGID_24_)">
				<g>
					<path fill="#AE7521" d="M200.8,86.1l-0.9-1.2c8.8-7,3.5-24.3,3.5-24.5l1.4-0.5C205,60.7,210.4,78.4,200.8,86.1z"/>
				</g>
			</g>
		</g>
		<g>
			<g>
				<rect x="175.4" y="294.3" width="3.6" height="1.4"/>
			</g>
		</g>
		<g>
			<g>
				<rect x="185.3" y="294.3" width="3.6" height="1.4"/>
			</g>
		</g>
		<g>
			<g>
				<path fill="#AE7521" d="M233.5,142.7l-1.5-0.3c5.4-31-20.2-53.6-20.5-53.8l1-1.1C212.8,87.8,239,110.9,233.5,142.7z"/>
			</g>
		</g>
		<g>
			<g>
				<path fill="#ED1C24" d="M188.5,128.3c0-1.7-1.3-3-3-3s-3,1.3-3,3c0,0.1,0,0.3,0,0.4c0,0,0,0,0,0c0,0,0,0,0,0c0-0.1,0-0.3,0-0.4
					c0-1.7-1.3-3-3-3s-3,1.3-3,3c0,0,0,0.1,0,0.1c0,0.1,0,0.2,0,0.3c0,3.3,2.7,6,6,6s6-2.7,6-6c0-0.1,0-0.2,0-0.3
					C188.5,128.4,188.5,128.4,188.5,128.3z"/>
			</g>
		</g>
	</g>
</g>
<g id="Layer_8">
</g>
<g id="Layer_11">
</g>
<g id="Layer_9">
</g>
</svg>
