<?xml version="1.0" encoding="utf-8"?>
<!-- Generator: Adobe Illustrator 19.1.0, SVG Export Plug-In . SVG Version: 6.00 Build 0)  -->
<svg version="1.1" xmlns="http://www.w3.org/2000/svg" xmlns:xlink="http://www.w3.org/1999/xlink" x="0px" y="0px"
	 viewBox="0 0 889.2 578" enable-background="new 0 0 889.2 578" xml:space="preserve">
<g id="bg">
</g>
<g id="Layer_2">
</g>
<g id="Layer_3">
</g>
<g id="Layer_10">
	<g opacity="0.8">
		<defs>
			<rect id="SVGID_9_" x="986.7" y="769" opacity="0.8" width="360" height="360"/>
		</defs>
		<clipPath id="SVGID_2_">
			<use xlink:href="#SVGID_9_"  overflow="visible"/>
		</clipPath>
		<g clip-path="url(#SVGID_2_)">
			<g>
				<g>
					
						<rect x="960.9" y="457" transform="matrix(0.7071 0.7071 -0.7071 0.7071 809.4485 -462.816)" fill="#E8F0F6" width="5" height="577.3"/>
				</g>
			</g>
			<g>
				<g>
					
						<rect x="977.8" y="474" transform="matrix(0.7071 0.7071 -0.7071 0.7071 826.3896 -469.8329)" fill="#E8F0F6" width="5" height="577.3"/>
				</g>
			</g>
			<g>
				<g>
					
						<rect x="994.8" y="490.9" transform="matrix(0.7071 0.7071 -0.7071 0.7071 843.3304 -476.8504)" fill="#E8F0F6" width="5" height="577.3"/>
				</g>
			</g>
		</g>
	</g>
</g>
<g id="Layer_4">
</g>
<g id="Layer_5">
</g>
<g id="Layer_6">
</g>
<g id="Layer_7">
</g>
<g id="Layer_8">
</g>
<g id="Layer_11">
</g>
<g id="Layer_9">
	<g>
		<g>
			<rect x="-1.4" y="-0.9" fill="#65C296" width="892.1" height="579.7"/>
		</g>
	</g>
	<g opacity="0.2">
		<g>
			<defs>
				<rect id="SVGID_171_" x="-1.4" y="-0.9" width="892.1" height="579.7"/>
			</defs>
			<clipPath id="SVGID_4_">
				<use xlink:href="#SVGID_171_"  overflow="visible"/>
			</clipPath>
			<g clip-path="url(#SVGID_4_)">
				<g>
					<defs>
						<rect id="SVGID_173_" x="364.8" y="-521.1" width="624.4" height="644.6"/>
					</defs>
					<clipPath id="SVGID_6_">
						<use xlink:href="#SVGID_173_"  overflow="visible"/>
					</clipPath>
					<g clip-path="url(#SVGID_6_)">
						<g>
							<g>
								<path fill="#FFFFFF" d="M896.3,85.7c-0.6,0-1.2-0.2-1.7-0.7L878.9,70c-1-1-1-2.5-0.1-3.5c1-1,2.5-1,3.5-0.1l15.7,14.9
									c1,1,1,2.5,0.1,3.5C897.7,85.4,897,85.7,896.3,85.7z"/>
							</g>
							<g>
								<path fill="#FFFFFF" d="M881,86.1c-0.6,0-1.2-0.2-1.7-0.7c-1-1-1-2.5-0.1-3.5l14.9-15.7c1-1,2.5-1,3.5-0.1
									c1,1,1,2.5,0.1,3.5l-14.9,15.7C882.3,85.8,881.7,86.1,881,86.1z"/>
							</g>
						</g>
					</g>
					<g clip-path="url(#SVGID_6_)">
						<g>
							<g>
								<path fill="#FFFFFF" d="M750.8,118.9c-0.6,0-1.2-0.2-1.7-0.7l-15.7-14.9c-1-1-1-2.5-0.1-3.5c1-1,2.5-1,3.5-0.1l15.7,14.9
									c1,1,1,2.5,0.1,3.5C752.1,118.6,751.4,118.9,750.8,118.9z"/>
							</g>
							<g>
								<path fill="#FFFFFF" d="M735.4,119.3c-0.6,0-1.2-0.2-1.7-0.7c-1-1-1-2.5-0.1-3.5l14.9-15.7c1-1,2.5-1,3.5-0.1
									c1,1,1,2.5,0.1,3.5l-14.9,15.7C736.7,119,736.1,119.3,735.4,119.3z"/>
							</g>
						</g>
						<g>
							<g>
								<path fill="#FFFFFF" d="M686.9,12.7c-0.6,0-1.2-0.2-1.7-0.7L669.5-2.9c-1-1-1-2.5-0.1-3.5c1-1,2.5-1,3.5-0.1l15.7,14.9
									c1,1,1,2.5,0.1,3.5C688.2,12.4,687.6,12.7,686.9,12.7z"/>
							</g>
							<g>
								<path fill="#FFFFFF" d="M671.6,13.1c-0.6,0-1.2-0.2-1.7-0.7c-1-1-1-2.5-0.1-3.5l14.9-15.7c1-1,2.5-1,3.5-0.1
									c1,1,1,2.5,0.1,3.5l-14.9,15.7C672.9,12.8,672.2,13.1,671.6,13.1z"/>
							</g>
						</g>
						<g>
							<g>
								<path fill="#FFFFFF" d="M584.1,51.6c-0.6,0-1.2-0.2-1.7-0.7L566.7,36c-1-1-1-2.5-0.1-3.5c1-1,2.5-1,3.5-0.1l15.7,14.9
									c1,1,1,2.5,0.1,3.5C585.5,51.4,584.8,51.6,584.1,51.6z"/>
							</g>
							<g>
								<path fill="#FFFFFF" d="M568.8,52c-0.6,0-1.2-0.2-1.7-0.7c-1-1-1-2.5-0.1-3.5l14.9-15.7c1-1,2.5-1,3.5-0.1
									c1,1,1,2.5,0.1,3.5l-14.9,15.7C570.1,51.8,569.5,52,568.8,52z"/>
							</g>
						</g>
					</g>
					<g clip-path="url(#SVGID_6_)">
						<g>
							<g>
								<path fill="#FFFFFF" d="M473.4,93.1c-0.6,0-1.2-0.2-1.7-0.7L456,77.5c-1-1-1-2.5-0.1-3.5c1-1,2.5-1,3.5-0.1l15.7,14.9
									c1,1,1,2.5,0.1,3.5C474.7,92.9,474.1,93.1,473.4,93.1z"/>
							</g>
							<g>
								<path fill="#FFFFFF" d="M458.1,93.5c-0.6,0-1.2-0.2-1.7-0.7c-1-1-1-2.5-0.1-3.5l14.9-15.7c1-1,2.5-1,3.5-0.1
									c1,1,1,2.5,0.1,3.5l-14.9,15.7C459.4,93.3,458.7,93.5,458.1,93.5z"/>
							</g>
						</g>
					</g>
				</g>
			</g>
			<g clip-path="url(#SVGID_4_)">
				<g>
					<defs>
						<rect id="SVGID_175_" x="364.8" y="123.5" width="624.4" height="644.6"/>
					</defs>
					<clipPath id="SVGID_8_">
						<use xlink:href="#SVGID_175_"  overflow="visible"/>
					</clipPath>
					<g clip-path="url(#SVGID_8_)">
						<g>
							<g>
								<path fill="#FFFFFF" d="M896.3,535.1c-0.6,0-1.2-0.2-1.7-0.7l-15.7-14.9c-1-1-1-2.5-0.1-3.5c1-1,2.5-1,3.5-0.1l15.7,14.9
									c1,1,1,2.5,0.1,3.5C897.7,534.8,897,535.1,896.3,535.1z"/>
							</g>
							<g>
								<path fill="#FFFFFF" d="M881,535.5c-0.6,0-1.2-0.2-1.7-0.7c-1-1-1-2.5-0.1-3.5l14.9-15.7c1-1,2.5-1,3.5-0.1
									c1,1,1,2.5,0.1,3.5l-14.9,15.7C882.3,535.2,881.7,535.5,881,535.5z"/>
							</g>
						</g>
					</g>
					<g clip-path="url(#SVGID_8_)">
						<g>
							<g>
								<path fill="#FFFFFF" d="M374.7,496.1c-0.6,0-1.2-0.2-1.7-0.7l-15.7-14.9c-1-1-1-2.5-0.1-3.5c1-1,2.5-1,3.5-0.1l15.7,14.9
									c1,1,1,2.5,0.1,3.5C376,495.9,375.4,496.1,374.7,496.1z"/>
							</g>
							<g>
								<path fill="#FFFFFF" d="M359.4,496.5c-0.6,0-1.2-0.2-1.7-0.7c-1-1-1-2.5-0.1-3.5l14.9-15.7c0.9-1,2.5-1,3.5-0.1
									c1,1,1,2.5,0.1,3.5l-14.9,15.7C360.7,496.3,360,496.5,359.4,496.5z"/>
							</g>
						</g>
					</g>
					<g clip-path="url(#SVGID_8_)">
						<g>
							<g>
								<path fill="#FFFFFF" d="M896.3,407.9c-0.6,0-1.2-0.2-1.7-0.7l-15.7-14.9c-1-1-1-2.5-0.1-3.5c1-1,2.5-1,3.5-0.1l15.7,14.9
									c1,1,1,2.5,0.1,3.5C897.7,407.7,897,407.9,896.3,407.9z"/>
							</g>
							<g>
								<path fill="#FFFFFF" d="M881,408.3c-0.6,0-1.2-0.2-1.7-0.7c-1-1-1-2.5-0.1-3.5l14.9-15.7c1-1,2.5-1,3.5-0.1
									c1,1,1,2.5,0.1,3.5l-14.9,15.7C882.3,408.1,881.7,408.3,881,408.3z"/>
							</g>
						</g>
						<g>
							<g>
								<path fill="#FFFFFF" d="M896.3,212.8c-0.6,0-1.2-0.2-1.7-0.7l-15.7-14.9c-1-1-1-2.5-0.1-3.5c1-1,2.5-1,3.5-0.1l15.7,14.9
									c1,1,1,2.5,0.1,3.5C897.7,212.5,897,212.8,896.3,212.8z"/>
							</g>
							<g>
								<path fill="#FFFFFF" d="M881,213.2c-0.6,0-1.2-0.2-1.7-0.7c-1-1-1-2.5-0.1-3.5l14.9-15.7c1-1,2.5-1,3.5-0.1
									c1,1,1,2.5,0.1,3.5l-14.9,15.7C882.3,212.9,881.7,213.2,881,213.2z"/>
							</g>
						</g>
					</g>
					<g clip-path="url(#SVGID_8_)">
						<g>
							<g>
								<path fill="#FFFFFF" d="M785.6,576.6c-0.6,0-1.2-0.2-1.7-0.7l-15.7-14.9c-1-1-1-2.5-0.1-3.5c1-1,2.5-1,3.5-0.1l15.7,14.9
									c1,1,1,2.5,0.1,3.5C786.9,576.3,786.3,576.6,785.6,576.6z"/>
							</g>
							<g>
								<path fill="#FFFFFF" d="M770.3,577c-0.6,0-1.2-0.2-1.7-0.7c-1-1-1-2.5-0.1-3.5l14.9-15.7c0.9-1,2.5-1,3.5-0.1
									c1,1,1,2.5,0.1,3.5l-14.9,15.7C771.6,576.7,771,577,770.3,577z"/>
							</g>
						</g>
						<g>
							<g>
								<path fill="#FFFFFF" d="M584.1,569.1c-0.6,0-1.2-0.2-1.7-0.7l-15.7-14.9c-1-1-1-2.5-0.1-3.5c1-1,2.5-1,3.5-0.1l15.7,14.9
									c1,1,1,2.5,0.1,3.5C585.5,568.8,584.8,569.1,584.1,569.1z"/>
							</g>
							<g>
								<path fill="#FFFFFF" d="M568.8,569.5c-0.6,0-1.2-0.2-1.7-0.7c-1-1-1-2.5-0.1-3.5l14.9-15.7c1-1,2.5-1,3.5-0.1
									c1,1,1,2.5,0.1,3.5l-14.9,15.7C570.1,569.2,569.5,569.5,568.8,569.5z"/>
							</g>
						</g>
						<g>
							<g>
								<path fill="#FFFFFF" d="M750.8,441.2c-0.6,0-1.2-0.2-1.7-0.7l-15.7-14.9c-1-1-1-2.5-0.1-3.5c1-1,2.5-1,3.5-0.1l15.7,14.9
									c1,1,1,2.5,0.1,3.5C752.1,440.9,751.4,441.2,750.8,441.2z"/>
							</g>
							<g>
								<path fill="#FFFFFF" d="M735.4,441.6c-0.6,0-1.2-0.2-1.7-0.7c-1-1-1-2.5-0.1-3.5l14.9-15.7c1-1,2.5-1,3.5-0.1
									c1,1,1,2.5,0.1,3.5l-14.9,15.7C736.7,441.3,736.1,441.6,735.4,441.6z"/>
							</g>
						</g>
						<g>
							<g>
								<path fill="#FFFFFF" d="M686.9,335c-0.6,0-1.2-0.2-1.7-0.7l-15.7-14.9c-1-1-1-2.5-0.1-3.5c1-1,2.5-1,3.5-0.1l15.7,14.9
									c1,1,1,2.5,0.1,3.5C688.2,334.7,687.6,335,686.9,335z"/>
							</g>
							<g>
								<path fill="#FFFFFF" d="M671.6,335.4c-0.6,0-1.2-0.2-1.7-0.7c-1-1-1-2.5-0.1-3.5l14.9-15.7c1-1,2.5-1,3.5-0.1
									c1,1,1,2.5,0.1,3.5l-14.9,15.7C672.9,335.1,672.2,335.4,671.6,335.4z"/>
							</g>
						</g>
						<g>
							<g>
								<path fill="#FFFFFF" d="M632.9,475.6c-0.6,0-1.2-0.2-1.7-0.7L615.4,460c-1-1-1-2.5-0.1-3.5c1-1,2.5-1,3.5-0.1l15.7,14.9
									c1,1,1,2.5,0.1,3.5C634.2,475.4,633.5,475.6,632.9,475.6z"/>
							</g>
							<g>
								<path fill="#FFFFFF" d="M617.6,476c-0.6,0-1.2-0.2-1.7-0.7c-1-1-1-2.5-0.1-3.5l14.9-15.7c1-1,2.5-1,3.5-0.1
									c1,1,1,2.5,0.1,3.5l-14.9,15.7C618.9,475.8,618.2,476,617.6,476z"/>
							</g>
						</g>
						<g>
							<g>
								<path fill="#FFFFFF" d="M584.1,373.9c-0.6,0-1.2-0.2-1.7-0.7l-15.7-14.9c-1-1-1-2.5-0.1-3.5c1-1,2.5-1,3.5-0.1l15.7,14.9
									c1,1,1,2.5,0.1,3.5C585.5,373.7,584.8,373.9,584.1,373.9z"/>
							</g>
							<g>
								<path fill="#FFFFFF" d="M568.8,374.3c-0.6,0-1.2-0.2-1.7-0.7c-1-1-1-2.5-0.1-3.5l14.9-15.7c1-1,2.5-1,3.5-0.1
									c1,1,1,2.5,0.1,3.5l-14.9,15.7C570.1,374.1,569.5,374.3,568.8,374.3z"/>
							</g>
						</g>
					</g>
					<g clip-path="url(#SVGID_8_)">
						<g>
							<g>
								<path fill="#FFFFFF" d="M473.4,415.4c-0.6,0-1.2-0.2-1.7-0.7L456,399.8c-1-1-1-2.5-0.1-3.5c1-1,2.5-1,3.5-0.1l15.7,14.9
									c1,1,1,2.5,0.1,3.5C474.7,415.2,474.1,415.4,473.4,415.4z"/>
							</g>
							<g>
								<path fill="#FFFFFF" d="M458.1,415.8c-0.6,0-1.2-0.2-1.7-0.7c-1-1-1-2.5-0.1-3.5l14.9-15.7c1-1,2.5-1,3.5-0.1
									c1,1,1,2.5,0.1,3.5L459.9,415C459.4,415.6,458.7,415.8,458.1,415.8z"/>
							</g>
						</g>
						<g>
							<g>
								<path fill="#FFFFFF" d="M438.5,280.1c-0.6,0-1.2-0.2-1.7-0.7l-15.7-14.9c-1-1-1-2.5-0.1-3.5c1-1,2.5-1,3.5-0.1l15.7,14.9
									c1,1,1,2.5,0.1,3.5C439.9,279.8,439.2,280.1,438.5,280.1z"/>
							</g>
							<g>
								<path fill="#FFFFFF" d="M423.2,280.4c-0.6,0-1.2-0.2-1.7-0.7c-1-1-1-2.5-0.1-3.5l14.9-15.7c1-1,2.5-1,3.5-0.1
									c1,1,1,2.5,0.1,3.5L425,279.7C424.5,280.2,423.9,280.4,423.2,280.4z"/>
							</g>
						</g>
						<g>
							<g>
								<path fill="#FFFFFF" d="M374.7,173.9c-0.6,0-1.2-0.2-1.7-0.7l-15.7-14.9c-1-1-1-2.5-0.1-3.5c1-1,2.5-1,3.5-0.1l15.7,14.9
									c1,1,1,2.5,0.1,3.5C376,173.6,375.4,173.9,374.7,173.9z"/>
							</g>
							<g>
								<path fill="#FFFFFF" d="M359.4,174.3c-0.6,0-1.2-0.2-1.7-0.7c-1-1-1-2.5-0.1-3.5l14.9-15.7c0.9-1,2.5-1,3.5-0.1
									c1,1,1,2.5,0.1,3.5l-14.9,15.7C360.7,174,360,174.3,359.4,174.3z"/>
							</g>
						</g>
					</g>
					<g clip-path="url(#SVGID_8_)">
						<g>
							<g>
								<path fill="#FFFFFF" d="M785.6,254.3c-0.6,0-1.2-0.2-1.7-0.7l-15.7-14.9c-1-1-1-2.5-0.1-3.5c1-1,2.5-1,3.5-0.1l15.7,14.9
									c1,1,1,2.5,0.1,3.5C786.9,254,786.3,254.3,785.6,254.3z"/>
							</g>
							<g>
								<path fill="#FFFFFF" d="M770.3,254.7c-0.6,0-1.2-0.2-1.7-0.7c-1-1-1-2.5-0.1-3.5l14.9-15.7c0.9-1,2.5-1,3.5-0.1
									c1,1,1,2.5,0.1,3.5l-14.9,15.7C771.6,254.4,771,254.7,770.3,254.7z"/>
							</g>
						</g>
						<g>
							<g>
								<path fill="#FFFFFF" d="M584.1,246.8c-0.6,0-1.2-0.2-1.7-0.7l-15.7-14.9c-1-1-1-2.5-0.1-3.5c1-1,2.5-1,3.5-0.1l15.7,14.9
									c1,1,1,2.5,0.1,3.5C585.5,246.5,584.8,246.8,584.1,246.8z"/>
							</g>
							<g>
								<path fill="#FFFFFF" d="M568.8,247.2c-0.6,0-1.2-0.2-1.7-0.7c-1-1-1-2.5-0.1-3.5l14.9-15.7c1-1,2.5-1,3.5-0.1
									c1,1,1,2.5,0.1,3.5l-14.9,15.7C570.1,246.9,569.5,247.2,568.8,247.2z"/>
							</g>
						</g>
						<g>
							<g>
								<path fill="#FFFFFF" d="M632.9,153.3c-0.6,0-1.2-0.2-1.7-0.7l-15.7-14.9c-1-1-1-2.5-0.1-3.5c1-1,2.5-1,3.5-0.1l15.7,14.9
									c1,1,1,2.5,0.1,3.5C634.2,153.1,633.5,153.3,632.9,153.3z"/>
							</g>
							<g>
								<path fill="#FFFFFF" d="M617.6,153.7c-0.6,0-1.2-0.2-1.7-0.7c-1-1-1-2.5-0.1-3.5l14.9-15.7c1-1,2.5-1,3.5-0.1
									c1,1,1,2.5,0.1,3.5L619.4,153C618.9,153.5,618.2,153.7,617.6,153.7z"/>
							</g>
						</g>
					</g>
				</g>
			</g>
			<g clip-path="url(#SVGID_4_)">
				<g>
					<defs>
						<rect id="SVGID_177_" x="-259.6" y="-521.1" width="624.4" height="644.6"/>
					</defs>
					<clipPath id="SVGID_10_">
						<use xlink:href="#SVGID_177_"  overflow="visible"/>
					</clipPath>
					<g clip-path="url(#SVGID_10_)">
						<g>
							<g>
								<path fill="#FFFFFF" d="M271.9,85.7c-0.6,0-1.2-0.2-1.7-0.7L254.5,70c-1-1-1-2.5-0.1-3.5c1-1,2.5-1,3.5-0.1l15.7,14.9
									c1,1,1,2.5,0.1,3.5C273.2,85.4,272.6,85.7,271.9,85.7z"/>
							</g>
							<g>
								<path fill="#FFFFFF" d="M256.6,86.1c-0.6,0-1.2-0.2-1.7-0.7c-1-1-1-2.5-0.1-3.5l14.9-15.7c1-1,2.5-1,3.5-0.1
									c1,1,1,2.5,0.1,3.5l-14.9,15.7C257.9,85.8,257.2,86.1,256.6,86.1z"/>
							</g>
						</g>
					</g>
					<g clip-path="url(#SVGID_10_)">
						<g>
							<g>
								<path fill="#FFFFFF" d="M126.3,118.9c-0.6,0-1.2-0.2-1.7-0.7l-15.7-14.9c-1-1-1-2.5-0.1-3.5c1-1,2.5-1,3.5-0.1l15.7,14.9
									c1,1,1,2.5,0.1,3.5C127.6,118.6,127,118.9,126.3,118.9z"/>
							</g>
							<g>
								<path fill="#FFFFFF" d="M111,119.3c-0.6,0-1.2-0.2-1.7-0.7c-1-1-1-2.5-0.1-3.5l14.9-15.7c1-1,2.5-1,3.5-0.1
									c1,1,1,2.5,0.1,3.5l-14.9,15.7C112.3,119,111.6,119.3,111,119.3z"/>
							</g>
						</g>
						<g>
							<g>
								<path fill="#FFFFFF" d="M62.5,12.7c-0.6,0-1.2-0.2-1.7-0.7L45-2.9c-1-1-1-2.5-0.1-3.5c1-1,2.5-1,3.5-0.1L64.2,8.4
									c1,1,1,2.5,0.1,3.5C63.8,12.4,63.1,12.7,62.5,12.7z"/>
							</g>
							<g>
								<path fill="#FFFFFF" d="M47.1,13.1c-0.6,0-1.2-0.2-1.7-0.7c-1-1-1-2.5-0.1-3.5L60.3-6.8c1-1,2.5-1,3.5-0.1
									c1,1,1,2.5,0.1,3.5L49,12.3C48.5,12.8,47.8,13.1,47.1,13.1z"/>
							</g>
						</g>
					</g>
				</g>
			</g>
			<g clip-path="url(#SVGID_4_)">
				<g>
					<defs>
						<rect id="SVGID_179_" x="-259.6" y="123.5" width="624.4" height="644.6"/>
					</defs>
					<clipPath id="SVGID_12_">
						<use xlink:href="#SVGID_179_"  overflow="visible"/>
					</clipPath>
					<g clip-path="url(#SVGID_12_)">
						<g>
							<g>
								<path fill="#FFFFFF" d="M374.7,496.1c-0.6,0-1.2-0.2-1.7-0.7l-15.7-14.9c-1-1-1-2.5-0.1-3.5c1-1,2.5-1,3.5-0.1l15.7,14.9
									c1,1,1,2.5,0.1,3.5C376,495.9,375.4,496.1,374.7,496.1z"/>
							</g>
							<g>
								<path fill="#FFFFFF" d="M359.4,496.5c-0.6,0-1.2-0.2-1.7-0.7c-1-1-1-2.5-0.1-3.5l14.9-15.7c0.9-1,2.5-1,3.5-0.1
									c1,1,1,2.5,0.1,3.5l-14.9,15.7C360.7,496.3,360,496.5,359.4,496.5z"/>
							</g>
						</g>
						<g>
							<g>
								<path fill="#FFFFFF" d="M271.9,535.1c-0.6,0-1.2-0.2-1.7-0.7l-15.7-14.9c-1-1-1-2.5-0.1-3.5c1-1,2.5-1,3.5-0.1l15.7,14.9
									c1,1,1,2.5,0.1,3.5C273.2,534.8,272.6,535.1,271.9,535.1z"/>
							</g>
							<g>
								<path fill="#FFFFFF" d="M256.6,535.5c-0.6,0-1.2-0.2-1.7-0.7c-1-1-1-2.5-0.1-3.5l14.9-15.7c1-1,2.5-1,3.5-0.1
									c1,1,1,2.5,0.1,3.5l-14.9,15.7C257.9,535.2,257.2,535.5,256.6,535.5z"/>
							</g>
						</g>
					</g>
					<g clip-path="url(#SVGID_12_)">
						<g>
							<g>
								<path fill="#FFFFFF" d="M271.9,407.9c-0.6,0-1.2-0.2-1.7-0.7l-15.7-14.9c-1-1-1-2.5-0.1-3.5c1-1,2.5-1,3.5-0.1l15.7,14.9
									c1,1,1,2.5,0.1,3.5C273.2,407.7,272.6,407.9,271.9,407.9z"/>
							</g>
							<g>
								<path fill="#FFFFFF" d="M256.6,408.3c-0.6,0-1.2-0.2-1.7-0.7c-1-1-1-2.5-0.1-3.5l14.9-15.7c1-1,2.5-1,3.5-0.1
									c1,1,1,2.5,0.1,3.5l-14.9,15.7C257.9,408.1,257.2,408.3,256.6,408.3z"/>
							</g>
						</g>
						<g>
							<g>
								<path fill="#FFFFFF" d="M374.7,173.9c-0.6,0-1.2-0.2-1.7-0.7l-15.7-14.9c-1-1-1-2.5-0.1-3.5c1-1,2.5-1,3.5-0.1l15.7,14.9
									c1,1,1,2.5,0.1,3.5C376,173.6,375.4,173.9,374.7,173.9z"/>
							</g>
							<g>
								<path fill="#FFFFFF" d="M359.4,174.3c-0.6,0-1.2-0.2-1.7-0.7c-1-1-1-2.5-0.1-3.5l14.9-15.7c0.9-1,2.5-1,3.5-0.1
									c1,1,1,2.5,0.1,3.5l-14.9,15.7C360.7,174,360,174.3,359.4,174.3z"/>
							</g>
						</g>
						<g>
							<g>
								<path fill="#FFFFFF" d="M320.7,314.5c-0.6,0-1.2-0.2-1.7-0.7l-15.7-14.9c-1-1-1-2.5-0.1-3.5c1-1,2.5-1,3.5-0.1l15.7,14.9
									c1,1,1,2.5,0.1,3.5C322,314.2,321.3,314.5,320.7,314.5z"/>
							</g>
							<g>
								<path fill="#FFFFFF" d="M305.3,314.9c-0.6,0-1.2-0.2-1.7-0.7c-1-1-1-2.5-0.1-3.5l14.9-15.7c1-1,2.5-1,3.5-0.1
									c1,1,1,2.5,0.1,3.5l-14.9,15.7C306.7,314.6,306,314.9,305.3,314.9z"/>
							</g>
						</g>
						<g>
							<g>
								<path fill="#FFFFFF" d="M271.9,212.8c-0.6,0-1.2-0.2-1.7-0.7l-15.7-14.9c-1-1-1-2.5-0.1-3.5c1-1,2.5-1,3.5-0.1l15.7,14.9
									c1,1,1,2.5,0.1,3.5C273.2,212.5,272.6,212.8,271.9,212.8z"/>
							</g>
							<g>
								<path fill="#FFFFFF" d="M256.6,213.2c-0.6,0-1.2-0.2-1.7-0.7c-1-1-1-2.5-0.1-3.5l14.9-15.7c1-1,2.5-1,3.5-0.1
									c1,1,1,2.5,0.1,3.5l-14.9,15.7C257.9,212.9,257.2,213.2,256.6,213.2z"/>
							</g>
						</g>
					</g>
					<g clip-path="url(#SVGID_12_)">
						<g>
							<g>
								<path fill="#FFFFFF" d="M161.2,576.6c-0.6,0-1.2-0.2-1.7-0.7l-15.7-14.9c-1-1-1-2.5-0.1-3.5c1-1,2.5-1,3.5-0.1l15.7,14.9
									c1,1,1,2.5,0.1,3.5C162.5,576.3,161.8,576.6,161.2,576.6z"/>
							</g>
							<g>
								<path fill="#FFFFFF" d="M145.9,577c-0.6,0-1.2-0.2-1.7-0.7c-1-1-1-2.5-0.1-3.5L159,557c1-1,2.5-1,3.5-0.1c1,1,1,2.5,0.1,3.5
									l-14.9,15.7C147.2,576.7,146.5,577,145.9,577z"/>
							</g>
						</g>
						<g>
							<g>
								<path fill="#FFFFFF" d="M126.3,441.2c-0.6,0-1.2-0.2-1.7-0.7l-15.7-14.9c-1-1-1-2.5-0.1-3.5c1-1,2.5-1,3.5-0.1l15.7,14.9
									c1,1,1,2.5,0.1,3.5C127.6,440.9,127,441.2,126.3,441.2z"/>
							</g>
							<g>
								<path fill="#FFFFFF" d="M111,441.6c-0.6,0-1.2-0.2-1.7-0.7c-1-1-1-2.5-0.1-3.5l14.9-15.7c1-1,2.5-1,3.5-0.1
									c1,1,1,2.5,0.1,3.5l-14.9,15.7C112.3,441.3,111.6,441.6,111,441.6z"/>
							</g>
						</g>
						<g>
							<g>
								<path fill="#FFFFFF" d="M62.5,335c-0.6,0-1.2-0.2-1.7-0.7L45,319.4c-1-1-1-2.5-0.1-3.5c1-1,2.5-1,3.5-0.1l15.7,14.9
									c1,1,1,2.5,0.1,3.5C63.8,334.7,63.1,335,62.5,335z"/>
							</g>
							<g>
								<path fill="#FFFFFF" d="M47.1,335.4c-0.6,0-1.2-0.2-1.7-0.7c-1-1-1-2.5-0.1-3.5l14.9-15.7c1-1,2.5-1,3.5-0.1
									c1,1,1,2.5,0.1,3.5L49,334.6C48.5,335.1,47.8,335.4,47.1,335.4z"/>
							</g>
						</g>
						<g>
							<g>
								<path fill="#FFFFFF" d="M8.4,475.6c-0.6,0-1.2-0.2-1.7-0.7L-9,460c-1-1-1-2.5-0.1-3.5c1-1,2.5-1,3.5-0.1l15.7,14.9
									c1,1,1,2.5,0.1,3.5C9.8,475.4,9.1,475.6,8.4,475.6z"/>
							</g>
							<g>
								<path fill="#FFFFFF" d="M-6.9,476c-0.6,0-1.2-0.2-1.7-0.7c-1-1-1-2.5-0.1-3.5l14.9-15.7c1-1,2.5-1,3.5-0.1
									c1,1,1,2.5,0.1,3.5l-14.9,15.7C-5.6,475.8-6.2,476-6.9,476z"/>
							</g>
						</g>
					</g>
					<g clip-path="url(#SVGID_12_)">
						<g>
							<g>
								<path fill="#FFFFFF" d="M161.2,254.3c-0.6,0-1.2-0.2-1.7-0.7l-15.7-14.9c-1-1-1-2.5-0.1-3.5c1-1,2.5-1,3.5-0.1l15.7,14.9
									c1,1,1,2.5,0.1,3.5C162.5,254,161.8,254.3,161.2,254.3z"/>
							</g>
							<g>
								<path fill="#FFFFFF" d="M145.9,254.7c-0.6,0-1.2-0.2-1.7-0.7c-1-1-1-2.5-0.1-3.5l14.9-15.7c1-1,2.5-1,3.5-0.1
									c1,1,1,2.5,0.1,3.5l-14.9,15.7C147.2,254.4,146.5,254.7,145.9,254.7z"/>
							</g>
						</g>
						<g>
							<g>
								<path fill="#FFFFFF" d="M8.4,153.3c-0.6,0-1.2-0.2-1.7-0.7L-9,137.7c-1-1-1-2.5-0.1-3.5c1-1,2.5-1,3.5-0.1L10.2,149
									c1,1,1,2.5,0.1,3.5C9.8,153.1,9.1,153.3,8.4,153.3z"/>
							</g>
							<g>
								<path fill="#FFFFFF" d="M-6.9,153.7c-0.6,0-1.2-0.2-1.7-0.7c-1-1-1-2.5-0.1-3.5l14.9-15.7c1-1,2.5-1,3.5-0.1
									c1,1,1,2.5,0.1,3.5L-5.1,153C-5.6,153.5-6.2,153.7-6.9,153.7z"/>
							</g>
						</g>
					</g>
				</g>
			</g>
		</g>
	</g>
	<g>
		<g>
			<g>
				<path fill="#65C297" d="M291.6,304.7c0.1,0.1,0.2,0.3,0.3,0.5c0,0,0,0,0,0C291.8,305,291.7,304.9,291.6,304.7z"/>
			</g>
		</g>
		<g>
			<g>
				<path fill="#65C297" d="M592.6,323.2c0.1-0.7,0.2-1.5,0.3-2.2c0.7-4.1,1.3-8.2,2.1-12.3c3.5-19.3,7.8-38.6,8.5-58.2
					c0.4-11.1,0.6-24.4-5-34.3c-10-17.7-34.7-19.9-49-6.3c-8.6,8.1-12.1,20.4-14.3,31.7c-2.1,10.7-3.2,21.6-2.8,32.5
					c0.3,9.1,5.5,17.9,13.3,22.4c-0.7,3.9-1.4,7.9-2,11.8c-16.8-4.5-33.7-8.7-50.3-14c-1.6-0.5-3.3-1.4-5-1.8
					c-0.2-0.1-0.5-0.2-0.7-0.4c-0.5-0.2-0.9-0.5-1.4-0.9c0.4,0.5-0.2,0.5-1.2-0.5c-0.1-0.1-0.4-0.4-0.6-0.7c-0.1,0-0.2-0.1-0.2-0.1
					c0,0,0-0.1,0-0.1c0.1,0,0.1,0.1,0.2,0.1c-0.1-0.2-0.3-0.3-0.4-0.5c-0.2-0.3-0.4-0.6-0.5-0.8c-0.1-0.3-0.2-0.6-0.3-0.8
					c-1.2-3.5-2-7.1-3.2-10.7c-3.9-12-9.9-21.8-20.4-29.1c-9-6.3-21-8.2-31.7-7.1c-21.7,2.3-43.1,10.4-63.1,18.7
					c-10.7,4.4-21.2,9.2-31.5,14.4c-3.4-5.5-7.5-10.5-11.5-15.6c-1.6-2-3.2-4.1-4.9-6.1c-0.8-1-1.5-2.1-2.2-3.1
					c-6.3-8.9-11.6-18.5-16.2-28.4c-0.5-1.2-1-2.5-1.4-3.7c-1-2.7-1.9-5.3-2.8-8c-1.7-5.4-3.1-10.9-4.3-16.4
					c-2.7-13.1-18.8-21.9-31.4-17.8c-13.8,4.5-20.7,17.4-17.8,31.4c4.7,22.2,13.6,44.1,25.9,63.1c3.2,5,6.7,9.7,10.4,14.3
					c2,2.6,4,5.1,6,7.6c0.6,0.8,1.3,1.6,1.9,2.4c0,0,0.1,0.1,0.1,0.1c2.5,3.4,4.3,7.3,6.6,10.8c-1.7-2.7-0.4-1.9,0.2,0.2
					c0,0.1,0,0.2,0.1,0.2c0.1,0.2,0.2,0.3,0.3,0.5c0,0,0,0,0,0c-0.1-0.2-0.2-0.3-0.3-0.5c0.1,0.4,0.2,0.9,0.3,1.4
					c-1.7,9.8,1.3,19.3,9.4,25.6c7.9,6.1,19.6,7.4,28.3,2c9.2-5.7,18.6-11,28.2-15.9c4.8-2.4,9.7-4.8,14.6-7c2.2-1,4.4-2,6.6-2.9
					c1-0.4,1.5-0.7,1.7-0.7c0.8-0.3,1.5-0.5,2.2-0.8c10-4,20.2-7.5,30.6-10.6c4.9-1.5,9.8-2.9,14.8-4c0.5-0.1,0.9-0.2,1.4-0.3
					c0.3,0,0.6,0,0.9-0.1c0.4,1,0.8,2,1,3c3.3,11.5,7.4,22.5,16,31.2c16.4,16.5,42,20.5,63.5,26.5c10.5,2.9,21.1,5.5,31.6,8.6
					c1.5,5.4,3.9,10.5,8.1,14.8c6.9,7,16.4,10.4,26.1,9.1c8.9-1.2,17.8-6.1,22.1-14.4c5.3-10.2,3.5-20.8-1.3-30.5
					c-1.6-3.3-3.7-6.3-6-8.9c0-0.2,0-0.5,0-0.7C592.2,327.9,592.4,325.5,592.6,323.2z M587,244.5c0.1-0.4,0.2-0.7,0.3-1.1
					c0-0.1,0.1-0.2,0.1-0.3c0,0,0.1-0.1,0.1-0.1c0,0,0,0-0.1,0c0.2-0.6,0.6-1.4,0.6-2C587.8,243.6,587.2,244.5,587,244.5z
					 M552,234.4c-0.1,1.2,0,2.5,0.1,3.8C552,237.9,551.8,236.7,552,234.4z"/>
			</g>
		</g>
		<g>
			<g>
				<path fill="#65C297" d="M486.1,291.3c-0.2-0.3-0.8-0.7-1.9-1.3c0,0,0.1,0.1,0.1,0.1C484.9,290.5,485.5,290.9,486.1,291.3z"/>
			</g>
		</g>
	</g>
	<g>
		<g>
			<g>
				<path fill="#FFFFFF" d="M251.3,240.5l-0.1,0.2c-0.2,0.9-0.3,2.2-0.3,4c0,1.8-0.3,3.7-0.7,5.8c-0.4,2.1-1,7-1.6,14.9
					c-0.6,7.8-0.9,13.2-0.9,16.1c0,0.2-0.2,0.4-0.5,0.8c-0.3,0.3-0.6,0.5-1,0.5s-0.7-0.2-1-0.5c-0.3-0.4-0.5-0.9-0.6-1.5
					s-0.2-1.2-0.3-1.7c-0.1-0.9-0.1-1.9-0.1-3c0-1.2-0.1-2.4-0.3-3.6c-0.2-1.2-0.4-2.6-0.7-4.1c-0.3-1.5-0.5-2.8-0.6-3.8
					c-0.1-1-0.6-5.1-1.5-12.2c-2.2-18.8-3.6-28.7-4.2-29.6c0.4-0.7,0.9-1.1,1.5-1.1c0.6,0,1.2,0.5,1.5,1.5s0.7,2.3,0.9,3.8
					c0.2,1.6,0.3,3.1,0.4,4.6c0.1,1.5,0.2,2.9,0.3,4.4c0.1,1.5,0.2,3.3,0.4,5.3c0.2,2.1,0.8,6.6,1.8,13.7c1,7.1,1.7,12,2.1,14.8h0.2
					c0-2.5,0.2-5.4,0.6-8.7c0.4-3.3,0.6-5.3,0.7-6.2c0.1-0.8,0.2-1.9,0.5-3.1c0.2-1.2,0.4-2.2,0.4-2.9c0.1-0.7,0.2-2.7,0.3-5.9
					c0.2-3.3,0.3-5.4,0.4-6.4c0.1-1,0.2-2.1,0.4-3.3c0.2-1.2,0.3-2.1,0.3-2.8l-0.1-1.4c0-0.7,0.4-1.2,1.1-1.6c1.6,0,2.4,0.5,2.4,1.4
					l-0.4,1.1c0,5.9,1.1,13,3.3,21.2c2.2,8.2,3.3,15.2,3.3,20.8l0.2,0.2c0.2-0.6,0.3-2.2,0.4-4.8c0.1-2.6,0.6-6.6,1.2-12
					c0.7-5.4,1.1-9.2,1.2-11.4c0.1-2.2,0.5-5.7,1-10.3c0.6-4.7,0.8-8.3,0.8-10.8l-0.1-1.5c0-1.3,0.7-1.9,2.1-1.9
					c0.3,0,0.7,0.1,1,0.4c0.3,0.2,0.5,0.6,0.5,1c0,0.4-0.3,0.9-0.9,1.4c0.1,0.1,0.1,0.3,0.1,0.5c0,0.3-0.1,0.9-0.3,1.8
					c-0.4,3.1-0.9,9-1.6,17.6c-0.7,8.7-1.6,16.1-2.6,22.3s-1.6,11.2-1.6,15.1v1.2c0,0.6-0.1,1.1-0.3,1.4c-0.2,0.3-0.6,0.5-1.2,0.5
					c-1.2,0-2.2-4.1-2.9-12.3c-0.2-2.5-1-7.2-2.5-14.2c-1.4-7-2.4-12.2-2.8-15.5L251.3,240.5z M259.7,272.4c-0.1,0-0.2,0-0.2,0.1
					L259.7,272.4z"/>
			</g>
			<g>
				<path fill="#FFFFFF" d="M259.7,283.1c-1.2,0-2.5-1.5-3.4-12.8c-0.2-2.4-1-7.2-2.5-14.2c-1.1-5.3-1.9-9.5-2.4-12.8
					c0,0.4,0,0.7,0,1.2c0,1.8-0.3,3.8-0.7,5.9c-0.4,2-1,7-1.6,14.8c-0.6,7.8-0.9,13.2-0.9,16.1c0,0.3-0.2,0.7-0.6,1.1
					c-0.8,0.9-2,0.9-2.7,0c-0.3-0.4-0.6-1-0.7-1.8c-0.1-0.7-0.2-1.3-0.3-1.8c-0.1-0.9-0.1-1.9-0.1-3.1c0-1.1-0.1-2.3-0.3-3.5
					c-0.2-1.2-0.4-2.6-0.7-4.1c-0.3-1.5-0.5-2.8-0.6-3.8c-0.1-1-0.6-5-1.5-12.2c-2.9-24.4-3.8-28.9-4.1-29.4c-0.1-0.2-0.1-0.4,0-0.5
					c0.6-1.1,1.4-1.3,2-1.3c0.9,0,1.5,0.6,2,1.8c0.4,1,0.7,2.3,0.9,4c0.2,1.6,0.3,3.1,0.5,4.6c0.1,1.5,0.2,2.9,0.3,4.4
					c0.1,1.5,0.2,3.2,0.4,5.3c0.2,2.1,0.8,6.6,1.8,13.6c0.6,4,1.1,7.4,1.4,10c0.1-1.2,0.2-2.5,0.4-3.9c0.4-3.3,0.6-5.3,0.7-6.1
					c0.1-0.9,0.2-1.9,0.5-3.1c0.2-1.2,0.4-2.1,0.4-2.8c0.1-0.7,0.2-2.6,0.3-5.9c0.2-3.2,0.3-5.4,0.4-6.4c0.1-1,0.2-2.1,0.4-3.3
					c0.2-1.2,0.2-2.1,0.2-2.7l-0.1-1.4c0-0.6,0.2-1.5,1.4-2c0.1,0,0.1,0,0.2,0c2.4,0,2.9,1,2.9,1.9c0,0.1,0,0.1,0,0.2l-0.4,1
					c0,5.9,1.1,12.9,3.3,21c1.6,5.9,2.6,11.1,3.1,15.7c0.2-2.6,0.6-6.4,1.2-11.4c0.7-5.4,1.1-9.2,1.2-11.4c0.1-2.2,0.5-5.7,1-10.3
					c0.6-4.6,0.8-8.2,0.8-10.7l-0.1-1.5c0-1.6,0.9-2.4,2.6-2.4c0.4,0,0.9,0.2,1.3,0.5c0.5,0.3,0.7,0.8,0.7,1.4c0,0.5-0.3,1-0.8,1.5
					c0,0.1,0,0.2,0,0.3c0,0.4-0.1,1-0.3,1.9c-0.4,3-0.9,8.9-1.6,17.6c-0.7,8.6-1.6,16.2-2.6,22.3c-1,6.2-1.6,11.2-1.6,15v1.2
					c0,0.7-0.1,1.3-0.3,1.7C261.1,282.7,260.7,283.1,259.7,283.1z M251.3,240c0.1,0,0.2,0,0.3,0.1l0.2,0.2c0.1,0.1,0.2,0.2,0.2,0.4
					c0.4,3.3,1.3,8.5,2.8,15.5c1.4,7,2.3,11.8,2.5,14.3c1,11.5,2.2,11.8,2.4,11.8c0.3,0,0.6,0,0.7-0.2c0.1-0.3,0.2-0.7,0.2-1.2v-1.2
					c0-3.9,0.5-9,1.6-15.2c1-6.2,1.9-13.7,2.6-22.3c0.7-8.6,1.2-14.6,1.6-17.7c0.3-1,0.3-1.5,0.3-1.7c0-0.2,0-0.3,0-0.3
					c-0.1-0.2,0-0.5,0.1-0.6c0.3-0.3,0.7-0.6,0.7-1c0-0.3-0.1-0.5-0.3-0.6c-0.3-0.2-0.5-0.3-0.7-0.3c-1.1,0-1.6,0.4-1.6,1.4l0.1,1.5
					c0,2.6-0.3,6.2-0.8,10.9c-0.6,4.6-0.9,8.1-1,10.3c-0.1,2.2-0.5,6.1-1.2,11.4c-0.7,5.4-1.1,9.4-1.2,11.9
					c-0.1,2.6-0.3,4.2-0.5,4.9c0,0.2,0,0.4-0.2,0.5l-0.2,0.1c-0.2,0.1-0.4,0.1-0.5,0c-0.2-0.1-0.3-0.3-0.3-0.4c0-0.1,0-0.1,0-0.2
					c-0.1-0.1-0.1-0.2-0.1-0.3c0-5.6-1.1-12.5-3.3-20.7c-2.2-8.2-3.3-15.4-3.3-21.4c0-0.1,0-0.1,0-0.2l0.4-1c0-0.3-0.2-0.8-1.8-0.8
					c-0.7,0.4-0.8,0.8-0.8,1.1l0.1,1.4c0,0.7-0.1,1.6-0.3,2.9c-0.2,1.2-0.3,2.3-0.4,3.2c-0.1,1-0.2,3.1-0.4,6.3
					c-0.2,3.3-0.3,5.2-0.3,5.9c-0.1,0.7-0.2,1.7-0.5,2.9c-0.2,1.2-0.4,2.2-0.5,3c-0.1,0.8-0.3,2.9-0.7,6.2c-0.4,3.2-0.6,6.1-0.6,8.6
					c0,0.3-0.2,0.5-0.5,0.5h-0.2c-0.3,0-0.5-0.2-0.5-0.4c-0.3-2.8-1-7.8-2-14.8c-1-7-1.6-11.6-1.8-13.7c-0.2-2.1-0.3-3.9-0.4-5.3
					c-0.1-1.5-0.1-2.9-0.3-4.4c-0.1-1.4-0.3-3-0.4-4.5c-0.2-1.5-0.5-2.8-0.8-3.7c-0.3-0.8-0.7-1.2-1.1-1.2c-0.3,0-0.6,0.1-1,0.6
					c0.4,1,1.3,5.3,4.1,29.6c0.8,7.1,1.3,11.2,1.5,12.2c0.1,1,0.4,2.3,0.6,3.8c0.3,1.5,0.5,2.9,0.7,4.1c0.2,1.2,0.3,2.5,0.3,3.7
					c0,1.2,0.1,2.2,0.1,3c0,0.5,0.1,1,0.2,1.7c0.1,0.6,0.3,1,0.5,1.3c0.3,0.3,0.5,0.3,0.6,0.3c0.2,0,0.4-0.1,0.6-0.3
					c0.3-0.3,0.3-0.5,0.3-0.5c0-2.9,0.3-8.3,0.9-16.1c0.6-7.8,1.1-12.8,1.6-14.9c0.4-2,0.7-3.9,0.7-5.7c0-1.8,0.1-3.2,0.3-4.1
					c0,0,0-0.1,0-0.1l0.1-0.2c0.1-0.1,0.2-0.2,0.3-0.3C251.2,240,251.2,240,251.3,240z M259.7,272.6v0.2c0.1,0,0.3-0.1,0.3-0.4
					c0,0-0.1,0.1-0.2,0.1C259.8,272.6,259.7,272.6,259.7,272.6L259.7,272.6z"/>
			</g>
		</g>
		<g>
			<g>
				<path fill="#FFFFFF" d="M286.2,228.6c0,0,0.1-0.1,0.4-0.4c0.3-0.2,0.5-0.4,0.7-0.4c0.2,0,0.7,0.2,1.7,0.5
					c0,4.2,0.2,10.4,0.5,18.7c0.3,8.3,0.5,15,0.5,20c0,5.1,0.2,9.9,0.5,14.5c0,0-1.4,0.1-3,0.1c-0.3-11.8-0.4-19-0.4-21.4l0.1-1
					c0-0.8-0.1-1.8-0.3-3l-1.2-0.3c-0.5,0.2-1,0.2-1.6,0.2l-5.1-0.8l-0.8,0.3l-0.2,10.1l0.2,0.4l0.5,13.4c0,1.4-0.4,2.1-1.3,2.1
					c-1.2,0-1.8-1.6-1.8-4.8l0.2-14.6c0-4.8-0.1-7.4-0.2-7.8c0.3-0.5,0.4-2.3,0.4-5.3l-0.6-18.7c0-0.4,0.1-0.7,0.4-1
					c0.3-0.3,0.6-0.5,1-0.5c1.1,0,1.6,1.5,1.6,4.6l-0.3,19.5c0,0.6,2.1,0.9,6.4,0.9c1,0,1.8-0.2,2.2-0.6c0.5-0.4,0.7-1.4,0.7-3.1
					s-0.2-5-0.5-9.9c-0.4-4.9-0.5-8.6-0.5-11C286.2,228.8,286.2,228.6,286.2,228.6z"/>
			</g>
			<g>
				<path fill="#FFFFFF" d="M287.5,282.2c-0.3,0-0.5-0.2-0.5-0.5c-0.3-11.8-0.4-19-0.4-21.5l0.1-1.1c0-0.7-0.1-1.5-0.2-2.5l-0.8-0.2
					c-0.5,0.1-1,0.2-1.6,0.2l-5.1-0.8l-0.4,0.1l-0.2,9.6l0.1,0.2c0.1,0.1,0.1,0.2,0.1,0.3l0.5,13.4c0,2.3-1.1,2.6-1.8,2.6
					c-2.3,0-2.3-4-2.3-5.3l0.2-14.7c0-6.3-0.1-7.4-0.2-7.6c0-0.1,0-0.3,0-0.4c0.1-0.2,0.3-1.1,0.3-5.1l-0.6-18.7
					c0-0.5,0.2-1,0.5-1.4c0.4-0.4,0.8-0.7,1.3-0.7c1.9,0,2.1,2.9,2.1,5.1l-0.3,19.4c0.2,0.1,1.2,0.5,5.9,0.5c0.9,0,1.5-0.2,1.9-0.5
					c0.1-0.1,0.5-0.6,0.5-2.8c0-1.7-0.2-5-0.5-9.9c-0.4-4.9-0.5-8.6-0.5-11.1v-0.5c0-0.1,0.1-0.3,0.2-0.4l0.4-0.4
					c0.4-0.3,0.7-0.5,1-0.5c0.2,0,0.5,0.1,1.8,0.5c0.2,0.1,0.3,0.3,0.3,0.5c0,4.1,0.2,10.4,0.5,18.7c0.3,8.3,0.5,15,0.5,20.1
					c0,5,0.2,9.9,0.5,14.4c0,0.1,0,0.3-0.1,0.4c-0.1,0.1-0.2,0.2-0.3,0.2C290.5,282.1,289.1,282.2,287.5,282.2z M285.7,255.4
					c0,0,0.1,0,0.1,0l1.2,0.3c0.2,0,0.3,0.2,0.4,0.4c0.2,1.2,0.3,2.2,0.3,3l-0.1,1.1c0,2.4,0.1,9.4,0.4,20.9c0.8,0,1.5,0,1.9-0.1
					c-0.3-4.4-0.5-9.1-0.5-14c0-5-0.2-11.8-0.5-20c-0.3-8-0.5-14.2-0.5-18.3c-0.9-0.3-1.1-0.3-1.2-0.3c0,0-0.1,0-0.4,0.2l-0.2,0.2
					v0.3c0,2.4,0.2,6.1,0.5,11c0.4,4.9,0.5,8.3,0.5,10c0,1.9-0.3,3-0.9,3.5c-0.6,0.5-1.4,0.7-2.5,0.7c-5.8,0-6.9-0.5-6.9-1.4
					l0.3-19.5c0-2.6-0.4-4.1-1.1-4.1c-0.1,0-0.3,0-0.6,0.3c-0.2,0.2-0.3,0.5-0.3,0.7l0.6,18.7c0,3.6-0.2,4.8-0.4,5.4
					c0.1,0.5,0.2,1.9,0.2,7.8l-0.2,14.7c0,2.7,0.5,4.3,1.3,4.3c0.2,0,0.8,0,0.8-1.6l-0.5-13.2l-0.2-0.2c-0.1-0.1-0.1-0.2-0.1-0.3
					l0.2-10.1c0-0.2,0.1-0.4,0.3-0.5l0.8-0.3c0.1,0,0.2,0,0.3,0l5.1,0.8c0.5,0,0.9-0.1,1.4-0.2C285.6,255.4,285.6,255.4,285.7,255.4
					z"/>
			</g>
		</g>
		<g>
			<g>
				<path fill="#FFFFFF" d="M309.2,269.7l-2.1,0.1c-0.8-0.3-1.6-0.5-2.5-0.5c-0.9,0-1.4,0-1.5,0.1c-0.1,0.1-0.1,0.1-0.2,0.3
					c0,0.1-0.1,0.2-0.1,0.3l-0.2,1.6c-0.1,1.4-0.4,3-0.7,4.9c-0.7,3.7-1.5,5.6-2.3,5.6c-0.3,0-0.7-0.1-1.1-0.4
					c-0.4-0.3-0.5-0.6-0.5-0.9c0.7-2,1.4-5,2.1-9.1c0.7-4.1,1.2-6.6,1.4-7.6c0.2-1,0.5-3,1-6.1c0.5-3,0.8-5.1,1-6
					c0.2-1,0.6-3,1.3-6.2c0.7-3.2,1.1-5.3,1.2-6.3c0.1-1,0.3-2.3,0.5-4c0.4-4.2,0.8-6.5,1.1-7l1.1,0.1c0.7,0,1.1-0.2,1.4-0.5
					c0.3,0,0.7,0.1,1,0.3c0.3,0.2,0.5,0.5,0.5,0.9c0,2.6,0.3,7.5,1,14.8c0.7,7.3,1.2,12.1,1.5,14.2c0.4,2.1,0.8,4.3,1.3,6.3
					c0.5,2.1,0.7,3.7,0.7,4.7l-0.4,1.1c0,1.2,0.2,3,0.7,5.3c0.4,2.3,0.7,4,0.7,4.9c0,1-0.2,1.5-0.6,1.8c-1.1,0-1.8-0.2-2-0.5
					c-0.2-0.3-0.4-0.8-0.4-1.5c0-0.7,0-1.5-0.1-2.5c-0.1-1-0.2-1.8-0.3-2.4c-0.1-0.6-0.2-1.5-0.5-2.8c-0.2-1.3-0.4-2.1-0.4-2.5
					C311.8,269.8,310.6,269.7,309.2,269.7z M303.6,265.7c0,0.5,0.6,1,1.9,1.4c2,0.5,4.1,0.8,6.5,0.8h0.8c-0.3-1-0.5-2.2-0.5-3.6
					v-1.8c0-3.3-0.4-8.1-1.2-14.5s-1.3-11-1.3-14.1c-2.8,13.8-4.5,22.3-5.2,25.5S303.6,264.8,303.6,265.7z"/>
			</g>
			<g>
				<path fill="#FFFFFF" d="M316.5,282.8c-1.3,0-2-0.2-2.4-0.7c-0.3-0.4-0.5-1-0.5-1.8c0-0.7,0-1.5-0.1-2.5c-0.1-1-0.2-1.8-0.3-2.4
					c-0.1-0.6-0.2-1.5-0.5-2.8c-0.2-1-0.3-1.7-0.4-2.2c-0.9-0.2-2-0.3-3.1-0.3l-2.1,0.1c-0.1,0-0.1,0-0.2,0
					c-0.7-0.3-1.5-0.4-2.3-0.4c-0.7,0-1.1,0-1.2,0c0,0.1,0,0.1,0,0.2l-0.1,1.5c-0.1,1.4-0.4,3-0.8,4.9c-1,5.3-2,6-2.8,6
					c-0.5,0-0.9-0.2-1.4-0.5c-0.5-0.4-0.7-0.8-0.7-1.3c0-0.1,0-0.1,0-0.2c0.7-2,1.4-5,2.1-9c0.7-4.1,1.2-6.6,1.4-7.6
					c0.2-1,0.5-3,1-6.1l1-6c0.2-1,0.6-3.1,1.3-6.3c0.7-3.2,1.1-5.3,1.2-6.3c0.1-1,0.3-2.3,0.5-4c0.6-5.6,0.9-6.8,1.1-7.1
					c0.1-0.2,0.3-0.3,0.5-0.3l1.1,0.1c0.5,0,0.8-0.1,1.1-0.3c0.1-0.1,0.2-0.1,0.4-0.1c0.4,0,0.9,0.1,1.3,0.4
					c0.4,0.3,0.7,0.8,0.7,1.3c0,2.5,0.3,7.5,1,14.8c0.6,7.3,1.2,12,1.5,14.2c0.4,2.1,0.8,4.2,1.3,6.3c0.5,2.1,0.8,3.7,0.8,4.9
					c0,0.1,0,0.1,0,0.2l-0.4,1c0,1.2,0.2,2.9,0.7,5.1c0.5,2.4,0.7,4,0.7,5c0,1.2-0.3,1.9-0.9,2.2
					C316.6,282.8,316.6,282.8,316.5,282.8z M309.2,269.2c1.4,0,2.7,0.1,3.7,0.4c0.2,0.1,0.3,0.2,0.4,0.4c0.1,0.4,0.2,1.2,0.4,2.5
					c0.2,1.3,0.4,2.2,0.5,2.8c0.1,0.6,0.2,1.4,0.3,2.4c0.1,1,0.1,1.9,0.1,2.6c0,0.7,0.1,1,0.3,1.2c0,0,0.2,0.3,1.5,0.3
					c0.2-0.2,0.3-0.6,0.3-1.3c0-0.9-0.2-2.5-0.7-4.8c-0.4-2.3-0.7-4.2-0.7-5.4c0-0.1,0-0.1,0-0.2l0.4-1c0-1-0.3-2.6-0.7-4.5
					c-0.5-2.1-0.9-4.2-1.3-6.4c-0.4-2.2-0.9-6.9-1.5-14.2c-0.6-7.3-1-12.3-1-14.8c0-0.2-0.1-0.3-0.3-0.5c-0.2-0.1-0.3-0.2-0.5-0.2
					c-0.4,0.3-0.9,0.5-1.6,0.5l-0.8-0.1c-0.2,0.6-0.4,2.1-0.9,6.5c-0.2,1.7-0.3,3-0.5,4c-0.1,1-0.6,3.1-1.3,6.3
					c-0.7,3.2-1.1,5.3-1.3,6.2l-1,6c-0.5,3.1-0.8,5.1-1,6.1c-0.2,1-0.6,3.5-1.4,7.6c-0.7,4-1.4,7.1-2.1,9.1c0,0.1,0.1,0.3,0.4,0.5
					c0.3,0.2,0.5,0.3,0.7,0.3c0,0,0.8-0.1,1.8-5.2c0.4-1.9,0.6-3.5,0.7-4.8l0.2-1.6c0-0.1,0-0.1,0-0.2c0,0,0-0.1,0-0.2
					c0.1-0.3,0.2-0.5,0.4-0.6c0.2-0.1,0.3-0.2,1.8-0.2c0.9,0,1.8,0.2,2.6,0.5L309.2,269.2C309.2,269.2,309.2,269.2,309.2,269.2z
					 M312.8,268.4H312c-2.4,0-4.6-0.3-6.6-0.8c-0.6-0.2-2.3-0.7-2.3-1.8c0-1,0.3-3.1,1-6.4c0.7-3.2,2.4-11.8,5.2-25.5
					c0.1-0.2,0.3-0.4,0.5-0.4c0.3,0,0.4,0.2,0.5,0.5c0.1,3.1,0.5,7.8,1.3,14.1c0.8,6.3,1.2,11.2,1.2,14.5v1.8c0,1.3,0.2,2.5,0.5,3.4
					c0,0.2,0,0.3-0.1,0.4C313.1,268.3,313,268.4,312.8,268.4z M309.5,237.9c-2.3,11.5-3.8,18.7-4.4,21.6c-0.7,3.2-1,5.3-1,6.2
					c0,0.2,0.4,0.6,1.6,0.9c1.9,0.5,4,0.8,6.3,0.8h0.2c-0.2-0.9-0.3-2-0.3-3.1v-1.8c0-3.3-0.4-8.1-1.2-14.4
					C310,244,309.7,240.6,309.5,237.9z"/>
			</g>
		</g>
		<g>
			<g>
				<path fill="#FFFFFF" d="M337.3,231.4l-4.3-0.5l-0.4,0.5l0.2,0.3c-0.1,0.2-0.2,1.7-0.2,4.6c0,2.8,0.4,9.5,1.3,19.9
					c0.9,10.4,1.3,18.2,1.3,23.5c0,0.4-0.2,0.7-0.5,1.1s-0.7,0.5-1.1,0.5l-0.9-0.7l-0.2-5.8l0.2-2.8c0-0.7-0.1-1.4-0.3-1.9
					c0-4.5-0.3-11.1-1-19.8c-0.6-8.7-1-15.1-1-19.2c-4.2,0-6.4-0.5-6.7-1.5c0.2-0.6,0.7-0.9,1.5-0.9l10.9,0.7l1.4-0.1
					c1,0,1.4,0.3,1.4,1c0,0.4-0.2,0.7-0.6,0.9C338,231.3,337.6,231.4,337.3,231.4z"/>
			</g>
			<g>
				<path fill="#FFFFFF" d="M333.7,281.6c-0.1,0-0.2,0-0.3-0.1l-0.9-0.7c-0.1-0.1-0.2-0.2-0.2-0.4l-0.2-5.8l0.2-2.9
					c0-0.6-0.1-1.2-0.3-1.7c0-0.1,0-0.1,0-0.2c0-4.5-0.3-11.1-1-19.8c-0.6-8.3-1-14.6-1-18.8c-4.3,0-6.4-0.6-6.7-1.9
					c0-0.1,0-0.2,0-0.3c0.2-0.6,0.7-1.2,2-1.2l10.9,0.7l1.4-0.1c0,0,0,0,0,0c1.8,0,2,1.1,2,1.5c0,0.4-0.1,0.9-0.8,1.3
					c-0.5,0.3-1,0.5-1.5,0.4l-4.1-0.5l0,0l0,0c0.1,0.1,0.1,0.3,0,0.4c0,0.1-0.1,0.8-0.1,4.3c0,2.8,0.4,9.5,1.3,19.9
					c0.9,10.4,1.3,18.3,1.3,23.5c0,0.5-0.2,1-0.6,1.4S334.2,281.6,333.7,281.6z M333.3,280.2l0.6,0.4c0.2,0,0.4-0.1,0.6-0.3
					c0.2-0.2,0.3-0.4,0.3-0.7c0-5.2-0.4-13-1.3-23.4c-0.9-10.4-1.3-17.1-1.3-19.9c0-3.1,0.1-4.1,0.1-4.5l-0.1-0.1
					c-0.1-0.2-0.1-0.4,0.1-0.5l0.4-0.5c0.1-0.1,0.3-0.2,0.4-0.2l4.3,0.5c0.3,0,0.6-0.1,0.9-0.3c0.3-0.2,0.4-0.4,0.4-0.5
					c0-0.2,0-0.5-0.9-0.5l-1.4,0.1l-10.9-0.7c-0.5,0-0.8,0.2-0.9,0.4c0.3,0.4,1.4,1,6.2,1c0.3,0,0.5,0.2,0.5,0.5
					c0.1,4.1,0.4,10.6,1,19.2c0.6,8.6,1,15.2,1,19.8c0.2,0.6,0.3,1.3,0.3,2l-0.2,2.8L333.3,280.2z"/>
			</g>
		</g>
		<g>
			<g>
				<path fill="#FFFFFF" d="M382.1,232.9l-0.2-2c0-1.1,0.4-1.7,1.1-1.7c0.5,0,0.9,0.2,1.3,0.7c0.3,0.5,0.5,1,0.5,1.6v5.4l-0.4,0.7
					c0,4.2-0.3,12.2-0.9,24.2c-0.6,12-1.1,18.5-1.7,19.6c-0.1,0-0.5,0.1-1.2,0.3c-0.6,0.2-1.1,0.3-1.3,0.3c-0.3,0-0.5-0.2-0.7-0.5
					c-0.2-0.4-0.4-0.8-0.5-1.4c-0.1-0.6-0.2-1-0.3-1.1l0.1-0.2c-0.3-2.2-1-4.7-2.1-7.6s-1.7-4.8-2.1-5.8c-0.2-0.2-0.9-2.2-2.1-6
					c-4.8-14.9-7.8-22.9-9.1-24.1c-0.4,1.6-0.6,3.5-0.6,5.6l0.2,6.3L362,251c0,0.6,0.1,2.5,0.3,5.6h-0.2c0,8.9,0.2,13.8,0.5,14.7
					v7.2c0.2,0.4,0.3,0.8,0.3,1.4c0,1.2-0.5,1.9-1.5,1.9c-1.1,0-1.7-1.4-1.7-4.3l0.3-5.2l-0.5-23l0.5-14.2v-1.4c0-0.7,0-1.2,0.1-1.4
					s0.1-0.5,0.1-0.8c0-0.3,0.1-0.6,0.2-0.8c0.1-0.2,0.2-0.4,0.3-0.6c0.2-0.5,0.5-0.8,0.8-1.1l0.2,0.3l0.8-0.2
					c0.6,0.2,1,0.6,1.1,1.2c0,0.1,0,0.2,0.1,0.4c0.1,0.2,0.1,0.4,0.1,0.4c0.9,3.8,2.8,9.1,5.7,15.9c2.9,6.8,4.7,11.2,5.3,13.1
					c0.6,1.9,1.2,4,1.7,6.2c1.1,4.8,2.3,8.3,3.6,10.5l0.2-0.2C381.5,264.8,382.1,250.3,382.1,232.9z M380.5,281.7
					C380.5,281.7,380.5,281.7,380.5,281.7L380.5,281.7z"/>
			</g>
			<g>
				<path fill="#FFFFFF" d="M379.4,282.4c-0.3,0-0.8-0.1-1.1-0.8c-0.2-0.4-0.4-0.9-0.5-1.5c-0.1-0.7-0.2-0.9-0.3-1
					c-0.1-0.1-0.1-0.3,0-0.4l0-0.1c-0.3-2.1-1-4.6-2-7.4c-1-2.8-1.7-4.7-2-5.7c-0.2-0.3-0.5-1.2-2.2-6c-4.8-15-7.2-21-8.3-23
					c-0.2,1.3-0.4,2.8-0.4,4.4l0.2,6.3l-0.2,3.9c0,0.6,0.1,2.4,0.3,5.5c0,0.1,0,0.3-0.1,0.4c0,0-0.1,0.1-0.1,0.1
					c0,10.6,0.3,13.5,0.5,14.1c0,0.1,0,0.1,0,0.2v7.1c0.2,0.4,0.3,0.9,0.3,1.5c0,2.1-1.2,2.4-2,2.4c-2.2,0-2.2-3.6-2.2-4.8l0.3-5.3
					l-0.5-23l0.5-14.2l0-1.4c0-0.7,0-1.2,0.1-1.5c0-0.2,0.1-0.5,0.1-0.8c0-0.4,0.1-0.7,0.2-0.9l0.3-0.6c0.2-0.5,0.6-1,1-1.3
					c0.2-0.2,0.5-0.2,0.7,0.1l0,0l0.5-0.1c0.1,0,0.2,0,0.3,0c0.8,0.3,1.3,0.8,1.4,1.6c0,0,0,0.1,0,0.1c0,0,0,0.1,0.1,0.3
					c0.1,0.3,0.1,0.4,0.1,0.5c0.9,3.8,2.8,9.1,5.7,15.8c2.9,6.8,4.7,11.2,5.3,13.1c0.6,1.9,1.2,4,1.7,6.2c0.9,3.9,1.9,7,2.9,9.1
					c1.1-11.4,1.7-25.6,1.7-42.3l-0.2-2c0-1.9,1-2.2,1.6-2.2c0.7,0,1.3,0.3,1.7,1c0.4,0.6,0.6,1.2,0.6,1.8v5.4c0,0.1,0,0.2-0.1,0.3
					l-0.3,0.5c0,4.2-0.3,12.3-0.9,24.1c-0.8,16.2-1.4,19.1-1.7,19.8c-0.1,0.1-0.2,0.2-0.4,0.3c-0.1,0-0.5,0.1-1.1,0.3c0,0,0,0,0,0
					c0,0-0.1,0-0.1,0.1c-0.1,0-0.2,0-0.3,0C380,282.4,379.6,282.4,379.4,282.4z M378.4,278.8c0.1,0.2,0.2,0.5,0.3,1.1
					c0.1,0.5,0.2,0.9,0.4,1.2c0.1,0.2,0.2,0.3,0.3,0.3c0.1,0,0.3,0,0.7-0.1c0.1-0.1,0.3-0.1,0.4-0.1c0,0,0,0,0.1,0
					c0.4-0.1,0.7-0.2,0.9-0.2c0.4-1.1,0.9-5.5,1.6-19.2c0.6-11.9,0.9-20,0.9-24.2c0-0.1,0-0.2,0.1-0.3l0.3-0.5v-5.2
					c0-0.5-0.1-0.9-0.4-1.3c-0.3-0.5-0.6-0.5-0.9-0.5c-0.2,0-0.6,0-0.6,1.2l0.2,2c0,0,0,0,0,0c0,17.4-0.6,32-1.8,43.6
					c0,0.1,0,0.2-0.1,0.2l-0.2,0.2c-0.1,0.1-0.3,0.2-0.4,0.2c-0.2,0-0.3-0.1-0.4-0.2c-1.3-2.2-2.5-5.8-3.7-10.6
					c-0.5-2.1-1.1-4.2-1.7-6.1c-0.6-1.9-2.4-6.3-5.3-13.1c-2.9-6.8-4.9-12.2-5.8-16c0,0,0-0.1,0-0.1c0,0,0-0.1-0.1-0.3
					c-0.1-0.3-0.1-0.4-0.1-0.5c-0.1-0.4-0.3-0.6-0.6-0.8l-0.6,0.2c-0.1,0-0.2,0-0.4,0c-0.1,0.2-0.3,0.4-0.4,0.6l-0.3,0.6
					c0,0.1-0.1,0.3-0.1,0.6c0,0.3-0.1,0.6-0.1,0.9c0,0.1-0.1,0.5-0.1,1.3v1.4l-0.5,14.2l0.5,23l-0.3,5.3c0,1.4,0.2,3.8,1.2,3.8
					c0.5,0,1-0.2,1-1.4c0-0.5-0.1-0.9-0.2-1.2c0-0.1-0.1-0.2-0.1-0.2v-7.1c-0.2-0.8-0.5-3.3-0.5-14.8c0-0.2,0.1-0.3,0.2-0.4
					c-0.2-2.9-0.3-4.6-0.3-5.2l0.2-3.9l-0.2-6.3c0-2.2,0.2-4.1,0.6-5.8c0-0.2,0.2-0.3,0.3-0.4c0.2,0,0.4,0,0.5,0.1
					c0.8,0.8,2.7,4.2,9.2,24.3c1.6,4.7,2,5.7,2.1,5.8c0,0,0.1,0.1,0.1,0.1c0.3,1,1,2.9,2,5.7c1.1,2.9,1.8,5.5,2.1,7.7
					C378.5,278.6,378.5,278.7,378.4,278.8L378.4,278.8z"/>
			</g>
		</g>
		<g>
			<g>
				<path fill="#FFFFFF" d="M411,250.7l0.2,9.5c0,12-1.9,19.3-5.8,21.9c-0.9,0.7-2,1-3.2,1c-6.2,0-9.4-9.8-9.4-29.5
					c0-7.6,0.5-14.2,1.6-19.7c0.8-4.1,2-6.1,3.6-6.1c0.4,0,0.7,0.1,1,0.4c0.3,0.3,0.8,0.5,1.3,0.7c0.6,0.2,1.3,0.4,2.3,0.6
					c1,0.2,1.7,0.3,2.1,0.4c1.1,0.2,2.1,1.2,3.1,3.1c2.2,3.8,3.4,9.6,3.4,17.3L411,250.7z M395.3,253.6l0.2,6.3
					c0,5.1,0.6,9.9,1.7,14.5c0.4,1.7,1,3.2,1.9,4.5c0.8,1.3,1.8,1.9,2.8,1.9s2-0.4,2.8-1.2c0.8-0.8,1.4-1.9,1.9-3.3
					c0.5-1.4,0.9-2.8,1.2-4.3s0.5-3.1,0.7-4.9c0.2-2.9,0.3-5.4,0.3-7.7l-0.9-18.9l-0.3-0.6l0.2-0.4c0-2.3-0.7-4.3-2-6.1
					c-1.3-1.7-2.9-2.6-4.8-2.6h-3.4c-0.4,0-0.8,2.4-1.2,7.1c-0.3,4.8-0.6,7.4-0.7,7.9L395.3,253.6z"/>
			</g>
			<g>
				<path fill="#FFFFFF" d="M402.2,283.6c-6.6,0-9.9-9.8-9.9-30c0-7.6,0.5-14.2,1.6-19.8c0.8-4.4,2.2-6.5,4-6.5
					c0.5,0,0.9,0.2,1.4,0.6c0.3,0.2,0.7,0.5,1.2,0.6c0.5,0.2,1.3,0.4,2.2,0.5l2.1,0.4c1.2,0.2,2.4,1.3,3.4,3.3
					c2.3,3.8,3.4,9.7,3.4,17.5c0,0.1,0,0.1,0,0.2l-0.1,0.3l0.2,9.4c0,12.3-2,19.6-6,22.3C404.6,283.3,403.5,283.6,402.2,283.6z
					 M398,228.3c-1.3,0-2.3,2-3.1,5.7c-1,5.5-1.6,12.1-1.6,19.6c0,19.2,3,29,8.9,29c1.1,0,2-0.3,2.9-0.9c3.7-2.5,5.6-9.7,5.6-21.5
					l-0.2-9.5c0-0.1,0-0.1,0-0.2l0.1-0.3c0-7.5-1.1-13.2-3.3-16.9c-0.9-1.7-1.8-2.7-2.7-2.8l-2.1-0.4c-1-0.2-1.8-0.4-2.4-0.6
					c-0.6-0.2-1.1-0.5-1.5-0.8C398.4,228.4,398.2,228.3,398,228.3z M401.9,281.3c-1.2,0-2.3-0.7-3.2-2.1c-0.8-1.3-1.5-2.9-1.9-4.6
					c-1.1-4.6-1.7-9.5-1.7-14.6l-0.2-6.3c0,0,0,0,0,0l0.4-7.5c0.1-0.4,0.2-2.1,0.7-7.9c0.5-7.6,1.1-7.6,1.7-7.6h3.4
					c2,0,3.8,0.9,5.2,2.8c1.4,1.8,2.1,3.9,2.1,6.4c0,0.1,0,0.1,0,0.2L408,240l0.2,0.4c0,0.1,0,0.1,0.1,0.2l0.9,18.9
					c0,2.3-0.1,4.8-0.3,7.7c-0.1,1.8-0.4,3.5-0.7,4.9c-0.3,1.5-0.7,2.9-1.2,4.3c-0.5,1.5-1.2,2.6-2,3.5
					C404.1,280.9,403.1,281.3,401.9,281.3z M395.8,253.6l0.2,6.3c0,5,0.6,9.9,1.7,14.4c0.4,1.7,1,3.1,1.8,4.3
					c0.7,1.1,1.5,1.7,2.4,1.7c0.9,0,1.7-0.3,2.4-1c0.7-0.7,1.3-1.8,1.8-3.1c0.5-1.4,0.8-2.8,1.2-4.2c0.3-1.4,0.5-3,0.7-4.8
					c0.2-2.8,0.3-5.4,0.3-7.6l-0.9-18.8l-0.3-0.5c-0.1-0.1-0.1-0.3,0-0.4l0.1-0.3c0-2.2-0.6-4.1-1.9-5.7c-1.2-1.6-2.6-2.4-4.4-2.4
					h-3.2c-0.2,0.3-0.5,1.7-0.9,6.7c-0.3,4.8-0.6,7.4-0.7,8L395.8,253.6z"/>
			</g>
		</g>
		<g>
			<g>
				<path fill="#FFFFFF" d="M431.8,231.4l-4.3-0.5l-0.4,0.5l0.2,0.3c-0.1,0.2-0.2,1.7-0.2,4.6c0,2.8,0.4,9.5,1.3,19.9
					c0.9,10.4,1.3,18.2,1.3,23.5c0,0.4-0.2,0.7-0.5,1.1s-0.7,0.5-1.1,0.5l-0.9-0.7l-0.2-5.8l0.2-2.8c0-0.7-0.1-1.4-0.3-1.9
					c0-4.5-0.3-11.1-1-19.8c-0.6-8.7-1-15.1-1-19.2c-4.2,0-6.4-0.5-6.7-1.5c0.2-0.6,0.7-0.9,1.5-0.9l10.9,0.7l1.4-0.1
					c1,0,1.4,0.3,1.4,1c0,0.4-0.2,0.7-0.6,0.9C432.6,231.3,432.2,231.4,431.8,231.4z"/>
			</g>
			<g>
				<path fill="#FFFFFF" d="M428.2,281.6c-0.1,0-0.2,0-0.3-0.1l-0.9-0.7c-0.1-0.1-0.2-0.2-0.2-0.4l-0.2-5.8l0.2-2.9
					c0-0.6-0.1-1.2-0.3-1.7c0-0.1,0-0.1,0-0.2c0-4.5-0.3-11.1-1-19.8c-0.6-8.3-1-14.6-1-18.8c-4.3,0-6.4-0.6-6.7-1.9
					c0-0.1,0-0.2,0-0.3c0.2-0.6,0.7-1.2,2-1.2l10.9,0.7l1.4-0.1c0,0,0,0,0,0c1.8,0,2,1.1,2,1.5c0,0.4-0.1,0.9-0.8,1.3
					c-0.5,0.3-1,0.5-1.5,0.4l-4.1-0.5l0,0l0,0c0.1,0.1,0.1,0.3,0,0.4c0,0.1-0.1,0.8-0.1,4.3c0,2.8,0.4,9.5,1.3,19.9
					c0.9,10.4,1.3,18.3,1.3,23.5c0,0.5-0.2,1-0.6,1.4S428.7,281.6,428.2,281.6z M427.8,280.2l0.6,0.4c0.2,0,0.4-0.1,0.6-0.3
					c0.2-0.2,0.3-0.4,0.3-0.7c0-5.2-0.4-13-1.3-23.4c-0.9-10.4-1.3-17.1-1.3-19.9c0-3.1,0.1-4.1,0.1-4.5l-0.1-0.1
					c-0.1-0.2-0.1-0.4,0.1-0.5l0.4-0.5c0.1-0.1,0.3-0.2,0.4-0.2l4.3,0.5c0.3,0,0.6-0.1,0.9-0.3c0.3-0.2,0.4-0.4,0.4-0.5
					c0-0.2,0-0.5-0.9-0.5l-1.4,0.1l-10.9-0.7c-0.5,0-0.8,0.2-0.9,0.4c0.3,0.4,1.4,1,6.2,1c0.3,0,0.5,0.2,0.5,0.5
					c0.1,4.1,0.4,10.6,1,19.2c0.6,8.6,1,15.2,1,19.8c0.2,0.6,0.3,1.3,0.3,2l-0.2,2.8L427.8,280.2z"/>
			</g>
		</g>
		<g>
			<g>
				<path fill="#FFFFFF" d="M467.4,231.4l-4.3-0.5l-0.4,0.5l0.2,0.3c-0.1,0.2-0.2,1.7-0.2,4.6c0,2.8,0.4,9.5,1.3,19.9
					c0.9,10.4,1.3,18.2,1.3,23.5c0,0.4-0.2,0.7-0.5,1.1s-0.7,0.5-1.1,0.5l-0.9-0.7l-0.2-5.8l0.2-2.8c0-0.7-0.1-1.4-0.3-1.9
					c0-4.5-0.3-11.1-1-19.8c-0.6-8.7-1-15.1-1-19.2c-4.2,0-6.4-0.5-6.7-1.5c0.2-0.6,0.7-0.9,1.5-0.9l10.9,0.7l1.4-0.1
					c1,0,1.4,0.3,1.4,1c0,0.4-0.2,0.7-0.6,0.9C468.1,231.3,467.8,231.4,467.4,231.4z"/>
			</g>
			<g>
				<path fill="#FFFFFF" d="M463.8,281.6c-0.1,0-0.2,0-0.3-0.1l-0.9-0.7c-0.1-0.1-0.2-0.2-0.2-0.4l-0.2-5.8l0.2-2.9
					c0-0.6-0.1-1.2-0.3-1.7c0-0.1,0-0.1,0-0.2c0-4.5-0.3-11.1-1-19.8c-0.6-8.3-1-14.6-1-18.8c-4.3,0-6.4-0.6-6.7-1.9
					c0-0.1,0-0.2,0-0.3c0.2-0.6,0.7-1.2,2-1.2l10.9,0.7l1.4-0.1c0,0,0,0,0,0c1.8,0,2,1.1,2,1.5c0,0.4-0.1,0.9-0.8,1.3
					c-0.5,0.3-1,0.5-1.5,0.4l-4.1-0.5l0,0l0,0c0.1,0.1,0.1,0.3,0,0.4c0,0.1-0.1,0.8-0.1,4.3c0,2.8,0.4,9.5,1.3,19.9
					c0.9,10.4,1.3,18.3,1.3,23.5c0,0.5-0.2,1-0.6,1.4S464.3,281.6,463.8,281.6z M463.4,280.2l0.6,0.4c0.2,0,0.4-0.1,0.6-0.3
					c0.2-0.2,0.3-0.4,0.3-0.7c0-5.2-0.4-13-1.3-23.4c-0.9-10.4-1.3-17.1-1.3-19.9c0-3.1,0.1-4.1,0.1-4.5l-0.1-0.1
					c-0.1-0.2-0.1-0.4,0.1-0.5l0.4-0.5c0.1-0.1,0.3-0.2,0.4-0.2l4.3,0.5c0.3,0,0.6-0.1,0.9-0.3c0.3-0.2,0.4-0.4,0.4-0.5
					c0-0.2,0-0.5-0.9-0.5l-1.4,0.1l-10.9-0.7c-0.5,0-0.8,0.2-0.9,0.4c0.3,0.4,1.4,1,6.2,1c0.3,0,0.5,0.2,0.5,0.5
					c0.1,4.1,0.4,10.6,1,19.2c0.6,8.6,1,15.2,1,19.8c0.2,0.6,0.3,1.3,0.3,2l-0.2,2.8L463.4,280.2z"/>
			</g>
		</g>
		<g>
			<g>
				<path fill="#FFFFFF" d="M494.1,250.7l0.2,9.5c0,12-1.9,19.3-5.8,21.9c-0.9,0.7-2,1-3.2,1c-6.2,0-9.4-9.8-9.4-29.5
					c0-7.6,0.5-14.2,1.6-19.7c0.8-4.1,2-6.1,3.6-6.1c0.4,0,0.7,0.1,1,0.4c0.3,0.3,0.8,0.5,1.3,0.7c0.6,0.2,1.3,0.4,2.3,0.6
					c1,0.2,1.7,0.3,2.1,0.4c1.1,0.2,2.1,1.2,3.1,3.1c2.2,3.8,3.4,9.6,3.4,17.3L494.1,250.7z M478.5,253.6l0.2,6.3
					c0,5.1,0.6,9.9,1.7,14.5c0.4,1.7,1,3.2,1.9,4.5c0.8,1.3,1.8,1.9,2.8,1.9s2-0.4,2.8-1.2c0.8-0.8,1.4-1.9,1.9-3.3
					c0.5-1.4,0.9-2.8,1.2-4.3s0.5-3.1,0.7-4.9c0.2-2.9,0.3-5.4,0.3-7.7l-0.9-18.9l-0.3-0.6l0.2-0.4c0-2.3-0.7-4.3-2-6.1
					c-1.3-1.7-2.9-2.6-4.8-2.6h-3.4c-0.4,0-0.8,2.4-1.2,7.1c-0.3,4.8-0.6,7.4-0.7,7.9L478.5,253.6z"/>
			</g>
			<g>
				<path fill="#FFFFFF" d="M485.3,283.6c-6.6,0-9.9-9.8-9.9-30c0-7.6,0.5-14.2,1.6-19.8c0.8-4.4,2.2-6.5,4-6.5
					c0.5,0,0.9,0.2,1.4,0.6c0.3,0.2,0.7,0.5,1.2,0.6c0.5,0.2,1.3,0.4,2.2,0.5l2.1,0.4c1.2,0.2,2.4,1.3,3.4,3.3
					c2.3,3.8,3.4,9.7,3.4,17.5c0,0.1,0,0.1,0,0.2l-0.1,0.3l0.2,9.4c0,12.3-2,19.6-6,22.3C487.8,283.3,486.6,283.6,485.3,283.6z
					 M481.1,228.3c-1.3,0-2.3,2-3.1,5.7c-1,5.5-1.6,12.1-1.6,19.6c0,19.2,3,29,8.9,29c1.1,0,2-0.3,2.9-0.9c3.7-2.5,5.6-9.7,5.6-21.5
					l-0.2-9.5c0-0.1,0-0.1,0-0.2l0.1-0.3c0-7.5-1.1-13.2-3.3-16.9c-0.9-1.7-1.8-2.7-2.7-2.8l-2.1-0.4c-1-0.2-1.8-0.4-2.4-0.6
					c-0.6-0.2-1.1-0.5-1.5-0.8C481.5,228.4,481.3,228.3,481.1,228.3z M485,281.3c-1.2,0-2.3-0.7-3.2-2.1c-0.8-1.3-1.5-2.9-1.9-4.6
					c-1.1-4.6-1.7-9.5-1.7-14.6l-0.2-6.3c0,0,0,0,0,0l0.4-7.5c0.1-0.4,0.2-2.1,0.7-7.9c0.5-7.6,1.1-7.6,1.7-7.6h3.4
					c2,0,3.8,0.9,5.2,2.8c1.4,1.8,2.1,3.9,2.1,6.4c0,0.1,0,0.1,0,0.2l-0.1,0.2l0.2,0.4c0,0.1,0,0.1,0.1,0.2l0.9,18.9
					c0,2.3-0.1,4.8-0.3,7.7c-0.1,1.8-0.4,3.5-0.7,4.9c-0.3,1.5-0.7,2.9-1.2,4.3c-0.5,1.5-1.2,2.6-2,3.5
					C487.2,280.9,486.2,281.3,485,281.3z M479,253.6l0.2,6.3c0,5,0.6,9.9,1.7,14.4c0.4,1.7,1,3.1,1.8,4.3c0.7,1.1,1.5,1.7,2.4,1.7
					c0.9,0,1.7-0.3,2.4-1c0.7-0.7,1.3-1.8,1.8-3.1c0.5-1.4,0.8-2.8,1.2-4.2c0.3-1.4,0.5-3,0.7-4.8c0.2-2.8,0.3-5.4,0.3-7.6
					l-0.9-18.8l-0.3-0.5c-0.1-0.1-0.1-0.3,0-0.4l0.1-0.3c0-2.2-0.6-4.1-1.9-5.7c-1.2-1.6-2.6-2.4-4.4-2.4h-3.2
					c-0.2,0.3-0.5,1.7-0.9,6.7c-0.3,4.8-0.6,7.4-0.7,8L479,253.6z"/>
			</g>
		</g>
		<g>
			<g>
				<path fill="#FFFFFF" d="M527.7,230.6l-1.7-0.5c-0.8,0-1.6,0.3-2.2,1s-1.1,1.5-1.4,2.5c-0.7,1.9-1,3.4-1,4.5s0,1.9,0.1,2.3
					c0.1,0.5,0.1,1,0.3,1.6c0.1,0.6,0.2,1.1,0.3,1.3c0.1,0.3,0.2,0.8,0.4,1.6c0.2,0.8,0.4,1.3,0.4,1.4l0.6,1.4
					c0.5,0.9,1.2,2.1,2,3.5c0.8,1.4,1.5,2.5,1.9,3.2c0.4,0.7,0.9,1.7,1.4,2.9c0.5,1.2,0.9,2.3,1.2,3.2c0.7,2.5,1,4.7,1,6.7
					c0,2-0.1,3.5-0.2,4.7c-0.2,1.2-0.4,2.4-0.9,3.7s-1,2.3-1.6,3.3c-1.4,2.2-3.4,3.3-6,3.3l-0.4,0.2c-1.6-0.3-2.4-0.9-2.6-2l0.4-0.6
					l2.9,0.5c1.2,0,2.3-0.5,3.2-1.4c0.9-1,1.5-2.2,2-3.6c0.8-2.7,1.2-5.2,1.2-7.5s-0.3-4.5-1-6.5c-0.7-2-1.5-3.9-2.4-5.6
					c-0.9-1.7-1.9-3.4-2.8-5.1c-2.3-4.1-3.4-8.1-3.4-12.1c0-2,0.4-4,1.1-5.8c1.3-3.4,3.1-5.1,5.2-5.1c0.6,0,1.3,0.2,2,0.7
					c0.7,0.5,1.1,1,1.1,1.5C528.8,230.4,528.4,230.6,527.7,230.6z M528.3,230.3L528.3,230.3L528.3,230.3
					C528.4,230.3,528.3,230.3,528.3,230.3z"/>
			</g>
			<g>
				<path fill="#FFFFFF" d="M522,283.1C522,283.1,521.9,283.1,522,283.1c-1.9-0.3-2.9-1.1-3.1-2.4c0-0.1,0-0.2,0.1-0.3l0.4-0.6
					c0.1-0.2,0.3-0.3,0.5-0.2l2.9,0.5c1,0,1.9-0.4,2.7-1.3c0.8-0.9,1.5-2,1.9-3.4c0.8-2.6,1.2-5.1,1.2-7.4c0-2.2-0.3-4.4-1-6.4
					c-0.7-2-1.4-3.9-2.4-5.5l-2.8-5.1c-2.3-4.1-3.5-8.3-3.5-12.3c0-2.1,0.4-4.1,1.1-6c1.4-3.6,3.3-5.4,5.7-5.4
					c0.7,0,1.4,0.3,2.2,0.8c0.9,0.6,1.3,1.2,1.3,2c0,0.3-0.2,1.1-1.6,1.1c0,0-0.1,0-0.1,0l-1.6-0.4c-0.7,0-1.2,0.3-1.8,0.8
					c-0.6,0.6-1,1.4-1.3,2.3c-0.6,1.9-1,3.3-1,4.4c0,1.1,0,1.8,0.1,2.3c0,0.4,0.1,1,0.3,1.6c0.1,0.6,0.2,1.1,0.3,1.3
					c0,0.2,0.1,0.6,0.4,1.6c0.3,0.8,0.4,1.3,0.4,1.4l0.6,1.4c0.5,0.9,1.2,2.1,2,3.5c0.8,1.4,1.5,2.5,1.9,3.2
					c0.4,0.7,0.9,1.7,1.5,2.9c0.6,1.2,1,2.3,1.2,3.3c0.7,2.5,1,4.8,1,6.8c0,2-0.1,3.6-0.2,4.8c-0.2,1.2-0.5,2.5-0.9,3.7
					c-0.4,1.3-1,2.4-1.6,3.4c-1.5,2.3-3.6,3.5-6.3,3.5l-0.3,0.1C522.2,283.1,522.1,283.1,522,283.1z M520,280.7c0.1,0.4,0.4,1,2,1.3
					l0.2-0.1c0.1,0,0.1-0.1,0.2-0.1c2.4,0,4.3-1,5.6-3.1c0.6-0.9,1.1-2,1.5-3.2c0.4-1.2,0.7-2.4,0.9-3.6c0.2-1.2,0.2-2.7,0.2-4.7
					c0-1.9-0.3-4.1-1-6.5c-0.2-0.9-0.6-2-1.1-3.1c-0.5-1.2-1-2.1-1.4-2.8c-0.4-0.7-1-1.8-1.9-3.2c-0.8-1.4-1.5-2.6-2-3.5l-0.6-1.5
					c0-0.2-0.2-0.6-0.4-1.4c-0.3-0.8-0.4-1.4-0.5-1.7c-0.1-0.3-0.1-0.7-0.3-1.3c-0.1-0.6-0.2-1.2-0.3-1.7c-0.1-0.5-0.1-1.3-0.1-2.4
					c0-1.2,0.3-2.7,1-4.7c0.3-1,0.8-1.9,1.5-2.7c0.7-0.8,1.6-1.2,2.6-1.2c0,0,0.1,0,0.1,0l1.6,0.4c0,0,0,0,0,0
					c0.1-0.2,0.2-0.3,0.4-0.3c-0.1-0.3-0.4-0.6-0.8-0.9c-0.6-0.4-1.2-0.6-1.7-0.6c-1.9,0-3.5,1.6-4.8,4.8c-0.7,1.8-1.1,3.7-1.1,5.6
					c0,3.9,1.1,7.8,3.3,11.8l2.8,5.1c0.9,1.7,1.8,3.6,2.4,5.7c0.7,2.1,1,4.3,1,6.7c0,2.3-0.4,4.9-1.2,7.7c-0.5,1.5-1.2,2.8-2.1,3.8
					c-1,1.1-2.2,1.6-3.5,1.6l-2.6-0.5L520,280.7z"/>
			</g>
		</g>
		<g>
			<g>
				<path fill="#FFFFFF" d="M549.3,269.7l-2.1,0.1c-0.8-0.3-1.6-0.5-2.5-0.5c-0.9,0-1.4,0-1.5,0.1c-0.1,0.1-0.1,0.1-0.2,0.3
					c0,0.1-0.1,0.2-0.1,0.3l-0.2,1.6c-0.1,1.4-0.4,3-0.7,4.9c-0.7,3.7-1.5,5.6-2.3,5.6c-0.3,0-0.7-0.1-1.1-0.4
					c-0.4-0.3-0.5-0.6-0.5-0.9c0.7-2,1.4-5,2.1-9.1c0.7-4.1,1.2-6.6,1.4-7.6c0.2-1,0.5-3,1-6.1c0.5-3,0.8-5.1,1-6
					c0.2-1,0.6-3,1.3-6.2c0.7-3.2,1.1-5.3,1.2-6.3c0.1-1,0.3-2.3,0.5-4c0.4-4.2,0.8-6.5,1.1-7l1.1,0.1c0.7,0,1.1-0.2,1.4-0.5
					c0.3,0,0.7,0.1,1,0.3c0.3,0.2,0.5,0.5,0.5,0.9c0,2.6,0.3,7.5,1,14.8c0.7,7.3,1.2,12.1,1.5,14.2c0.4,2.1,0.8,4.3,1.3,6.3
					c0.5,2.1,0.7,3.7,0.7,4.7l-0.4,1.1c0,1.2,0.2,3,0.7,5.3c0.4,2.3,0.7,4,0.7,4.9c0,1-0.2,1.5-0.6,1.8c-1.1,0-1.8-0.2-2-0.5
					c-0.2-0.3-0.4-0.8-0.4-1.5c0-0.7,0-1.5-0.1-2.5c-0.1-1-0.2-1.8-0.3-2.4c-0.1-0.6-0.2-1.5-0.5-2.8c-0.2-1.3-0.4-2.1-0.4-2.5
					C551.9,269.8,550.7,269.7,549.3,269.7z M543.7,265.7c0,0.5,0.6,1,1.9,1.4c2,0.5,4.1,0.8,6.5,0.8h0.8c-0.3-1-0.5-2.2-0.5-3.6
					v-1.8c0-3.3-0.4-8.1-1.2-14.5s-1.3-11-1.3-14.1c-2.8,13.8-4.5,22.3-5.2,25.5S543.7,264.8,543.7,265.7z"/>
			</g>
			<g>
				<path fill="#FFFFFF" d="M556.6,282.8c-1.3,0-2-0.2-2.4-0.7c-0.3-0.4-0.5-1-0.5-1.8c0-0.7,0-1.5-0.1-2.5c-0.1-1-0.2-1.8-0.3-2.4
					c-0.1-0.6-0.2-1.5-0.5-2.8c-0.2-1-0.3-1.7-0.4-2.2c-0.9-0.2-2-0.3-3.1-0.3l-2.1,0.1c-0.1,0-0.1,0-0.2,0
					c-0.7-0.3-1.5-0.4-2.3-0.4c-0.7,0-1.1,0-1.2,0c0,0.1,0,0.1,0,0.2l-0.1,1.5c-0.1,1.4-0.4,3-0.8,4.9c-1,5.3-2,6-2.8,6
					c-0.5,0-0.9-0.2-1.4-0.5c-0.5-0.4-0.7-0.8-0.7-1.3c0-0.1,0-0.1,0-0.2c0.7-2,1.4-5,2.1-9c0.7-4.1,1.2-6.6,1.4-7.6
					c0.2-1,0.5-3,1-6.1l1-6c0.2-1,0.6-3.1,1.3-6.3c0.7-3.2,1.1-5.3,1.2-6.3c0.1-1,0.3-2.3,0.5-4c0.6-5.6,0.9-6.8,1.1-7.1
					c0.1-0.2,0.3-0.3,0.5-0.3l1.1,0.1c0.5,0,0.8-0.1,1.1-0.3c0.1-0.1,0.2-0.1,0.4-0.1c0.4,0,0.9,0.1,1.3,0.4
					c0.4,0.3,0.7,0.8,0.7,1.3c0,2.5,0.3,7.5,1,14.8c0.6,7.3,1.2,12,1.5,14.2c0.4,2.1,0.8,4.2,1.3,6.3c0.5,2.1,0.8,3.7,0.8,4.9
					c0,0.1,0,0.1,0,0.2l-0.4,1c0,1.2,0.2,2.9,0.7,5.1c0.5,2.4,0.7,4,0.7,5c0,1.2-0.3,1.9-0.9,2.2
					C556.8,282.8,556.7,282.8,556.6,282.8z M549.3,269.2c1.4,0,2.7,0.1,3.7,0.4c0.2,0.1,0.3,0.2,0.4,0.4c0.1,0.4,0.2,1.2,0.4,2.5
					c0.2,1.3,0.4,2.2,0.5,2.8c0.1,0.6,0.2,1.4,0.3,2.4c0.1,1,0.1,1.9,0.1,2.6c0,0.7,0.1,1,0.3,1.2c0,0,0.2,0.3,1.5,0.3
					c0.2-0.2,0.3-0.6,0.3-1.3c0-0.9-0.2-2.5-0.7-4.8c-0.4-2.3-0.7-4.2-0.7-5.4c0-0.1,0-0.1,0-0.2l0.4-1c0-1-0.3-2.6-0.7-4.5
					c-0.5-2.1-0.9-4.2-1.3-6.4c-0.4-2.2-0.9-6.9-1.5-14.2c-0.6-7.3-1-12.3-1-14.8c0-0.2-0.1-0.3-0.3-0.5c-0.2-0.1-0.3-0.2-0.5-0.2
					c-0.4,0.3-0.9,0.5-1.6,0.5l-0.8-0.1c-0.2,0.6-0.4,2.1-0.9,6.5c-0.2,1.7-0.3,3-0.5,4c-0.1,1-0.6,3.1-1.3,6.3
					c-0.7,3.2-1.1,5.3-1.3,6.2l-1,6c-0.5,3.1-0.8,5.1-1,6.1c-0.2,1-0.6,3.5-1.4,7.6c-0.7,4-1.4,7.1-2.1,9.1c0,0.1,0.1,0.3,0.4,0.5
					c0.3,0.2,0.5,0.3,0.7,0.3c0,0,0.8-0.1,1.8-5.2c0.4-1.9,0.6-3.5,0.7-4.8l0.2-1.6c0-0.1,0-0.1,0-0.2c0,0,0-0.1,0-0.2
					c0.1-0.3,0.2-0.5,0.4-0.6c0.2-0.1,0.3-0.2,1.8-0.2c0.9,0,1.8,0.2,2.6,0.5L549.3,269.2C549.3,269.2,549.3,269.2,549.3,269.2z
					 M552.9,268.4h-0.8c-2.4,0-4.6-0.3-6.6-0.8c-0.6-0.2-2.3-0.7-2.3-1.8c0-1,0.3-3.1,1-6.4c0.7-3.2,2.4-11.8,5.2-25.5
					c0.1-0.2,0.3-0.4,0.5-0.4c0.3,0,0.4,0.2,0.5,0.5c0.1,3.1,0.5,7.8,1.3,14.1c0.8,6.3,1.2,11.2,1.2,14.5v1.8c0,1.3,0.2,2.5,0.5,3.4
					c0,0.2,0,0.3-0.1,0.4C553.2,268.3,553.1,268.4,552.9,268.4z M549.6,237.9c-2.3,11.5-3.8,18.7-4.4,21.6c-0.7,3.2-1,5.3-1,6.2
					c0,0.2,0.4,0.6,1.6,0.9c1.9,0.5,4,0.8,6.3,0.8h0.2c-0.2-0.9-0.3-2-0.3-3.1v-1.8c0-3.3-0.4-8.1-1.2-14.4
					C550.2,244,549.8,240.6,549.6,237.9z"/>
			</g>
		</g>
		<g>
			<g>
				<path fill="#FFFFFF" d="M574.7,264.3l0.1,12.7c0,3.9-0.6,5.8-1.7,5.8c-0.2,0-0.4-0.1-0.7-0.3c-0.3-0.2-0.4-0.4-0.5-0.6
					c0.5-1.3,0.8-6,0.8-14c0-1.6-0.1-3.8-0.3-6.7s-0.3-4.8-0.3-5.7l-0.5-1l0.2-1c-0.7-1.6-1.9-4.9-3.8-10.1
					c-2.7-7.4-4-11.7-4.1-12.9l1.1-0.9c0.5,0.1,1.3,1.8,2.3,5.1c1,3.3,2.1,6.6,3.1,10c1,3.3,1.7,5.1,2.1,5.2l0.3-1.4l-0.2-0.4
					c0.4-0.5,0.9-2.4,1.5-5.7c0.6-3.3,1.3-6.5,2.1-9.5c0.7-3,1.4-4.5,2.1-4.5c0.7,0,1,0.3,1,0.9c0,0.6-0.3,1.9-0.9,3.9
					c-0.6,2-1.1,3.9-1.6,5.5c-0.5,1.7-0.9,3-1.1,3.9c-0.2,0.9-0.5,2.1-0.8,3.4c-0.6,2.6-0.9,5-0.9,7.3c0.3,0.7,0.4,1.1,0.4,1.4
					l-0.5,2.3L574.7,264.3z"/>
			</g>
			<g>
				<path fill="#FFFFFF" d="M573.1,283.3c-0.3,0-0.6-0.1-1-0.4c-0.3-0.3-0.5-0.5-0.7-0.8c-0.1-0.1-0.1-0.3,0-0.4
					c0.3-0.9,0.7-3.9,0.7-13.8c0-1.5-0.1-3.8-0.3-6.6c-0.2-2.8-0.3-4.6-0.3-5.6l-0.5-0.9c-0.1-0.1-0.1-0.2,0-0.3l0.2-0.8
					c-0.7-1.6-1.9-5-3.7-10c-2.7-7.5-4-11.8-4.1-13.1c0-0.2,0.1-0.3,0.2-0.4l1.1-0.9c0.1-0.1,0.2-0.1,0.4-0.1
					c0.6,0.1,1.2,0.6,2.7,5.4c1,3.3,2.1,6.7,3.1,10c0.7,2.2,1.1,3.4,1.4,4.1l0-0.2l-0.1-0.2c-0.1-0.2,0-0.4,0.1-0.5
					c0.2-0.2,0.6-1.1,1.4-5.5c0.6-3.3,1.3-6.5,2.1-9.5c0.8-3.4,1.6-4.9,2.6-4.9c0.9,0,1.5,0.5,1.5,1.4c0,0.6-0.3,1.9-0.9,4
					c-0.6,2-1.1,3.9-1.6,5.5c-0.5,1.7-0.9,2.9-1.1,3.9c-0.2,0.9-0.5,2-0.8,3.4c-0.6,2.5-0.9,4.9-0.9,7.1c0.3,0.7,0.4,1.1,0.4,1.5
					c0,0,0,0.1,0,0.1l-0.5,2.2l0.6,7.2c0,0,0,0,0,0l0.1,12.7C575.3,279.7,575.1,283.3,573.1,283.3z M572.5,281.8
					c0.1,0.1,0.1,0.2,0.3,0.3c0.2,0.2,0.4,0.2,0.4,0.2c0.2,0,1.2-0.3,1.2-5.3l-0.1-12.7l-0.6-7.3c0,0,0-0.1,0-0.1l0.5-2.2
					c0-0.1-0.1-0.4-0.4-1.1c0-0.1,0-0.1,0-0.2c0-2.3,0.3-4.8,1-7.4c0.3-1.4,0.6-2.5,0.8-3.5c0.2-0.9,0.6-2.2,1.1-3.9
					c0.5-1.7,1-3.5,1.6-5.5c0.7-2.4,0.8-3.4,0.8-3.8c0-0.2,0-0.4-0.5-0.4c0,0-0.7,0.2-1.6,4.1c-0.7,3-1.4,6.1-2,9.4
					c-0.7,3.7-1.2,5.1-1.5,5.6l0.1,0.1c0,0.1,0,0.2,0,0.3l-0.3,1.4c0,0.1-0.1,0.2-0.2,0.3c-0.1,0.1-0.3,0.1-0.4,0.1
					c-0.5-0.1-1-0.6-2.5-5.5c-1-3.3-2-6.7-3.1-10c-1-3.3-1.6-4.3-1.9-4.6l-0.6,0.5c0.2,1.1,1,4.2,4,12.5c1.8,5.1,3.1,8.5,3.7,10.1
					c0,0.1,0.1,0.2,0,0.3l-0.2,0.8l0.4,0.9c0,0.1,0.1,0.1,0.1,0.2c0,0.9,0.1,2.7,0.3,5.6c0.2,2.9,0.3,5.1,0.3,6.7
					C573.2,275.6,573,280.2,572.5,281.8z"/>
			</g>
		</g>
		<g>
			<g>
				<path fill="#FFFFFF" d="M612.9,281l-2.7-0.3c-0.4,0-0.9,0.2-1.5,0.4c-0.6,0.3-1.3,0.4-2.1,0.4c-0.8,0-1.3-0.3-1.5-0.8l-1.3,0.1
					c-1.1,0-1.9-0.3-2.2-0.8c0-0.3,0.1-0.6,0.4-0.8c0.3-0.2,0.5-0.4,0.6-0.5h2.3l0.3-0.3l0.3-1.7l-0.6-17.5l0.4-18.7
					c0-3.6-0.1-6.7-0.4-9.3c-0.5-0.2-1.3-0.2-2.4-0.2l-1.9,0.2c-1,0-1.5-0.5-1.5-1.4c0-0.2,0.2-0.5,0.7-0.7c0.5-0.2,0.9-0.3,1.2-0.3
					c7.4,0,11.1,0.8,11.1,2.4c0,0.2-0.1,0.4-0.2,0.6l-1.8,0.2c-0.4-0.3-1.2-0.5-2.3-0.5l-0.4,0.2c0.2,0.5,0.2,1.9,0.2,4.3l-0.2,19
					l0.5,17.5l-0.1,2.5c0,1.2,0.1,2,0.2,2.2l-0.1,0.2c0,0.5,0.6,0.8,1.8,0.8l2.3-0.1c1.6,0,2.4,0.4,2.4,1.1c0,0.5-0.2,0.9-0.5,1.2
					C613.8,280.8,613.4,281,612.9,281z"/>
			</g>
			<g>
				<path fill="#FFFFFF" d="M606.7,282.1c-1,0-1.5-0.4-1.8-0.8l-1,0.1c0,0,0,0,0,0c-1.4,0-2.2-0.4-2.6-1.1c0-0.1-0.1-0.2-0.1-0.2
					c0-0.5,0.2-0.9,0.7-1.2c0.3-0.3,0.5-0.4,0.5-0.4c0.1-0.1,0.2-0.2,0.4-0.2h2.1l0.1-0.1l0.2-1.5l-0.6-17.4l0.4-18.7
					c0-3.4-0.1-6.4-0.4-8.8c-0.5-0.1-1.1-0.1-1.9-0.1l-1.9,0.2c0,0,0,0,0,0c-1.3,0-2.1-0.7-2.1-1.9c0-0.7,0.8-1,1-1.1
					c0.6-0.2,1-0.4,1.4-0.4c8,0,11.6,0.9,11.6,2.9c0,0.2-0.1,0.5-0.2,0.8c-0.1,0.2-0.2,0.3-0.4,0.3l-1.8,0.2c-0.1,0-0.2,0-0.3-0.1
					c-0.2-0.2-0.7-0.3-1.8-0.4c0.1,0.5,0.2,1.6,0.2,4l-0.2,19l0.5,17.5l-0.1,2.5c0,1.6,0.1,1.9,0.2,1.9c0.1,0.1,0.1,0.3,0,0.5l0,0.1
					c0.1,0.1,0.4,0.2,1.2,0.2l2.3-0.1c0,0,0,0,0,0c1.9,0,2.9,0.5,2.9,1.6c0,0.6-0.2,1.1-0.7,1.5c-0.4,0.4-1,0.6-1.6,0.6l-2.7-0.3
					c-0.3,0-0.7,0.1-1.2,0.4C608.3,281.9,607.5,282.1,606.7,282.1z M605.2,280.3c0.2,0,0.4,0.1,0.5,0.3c0.1,0.1,0.2,0.5,1,0.5
					c0.7,0,1.3-0.1,1.8-0.4c0.7-0.3,1.2-0.5,1.7-0.5l2.7,0.3c0.4,0,0.7-0.1,0.9-0.3c0.2-0.2,0.3-0.5,0.3-0.8c0-0.6-1.2-0.6-1.9-0.6
					l-2.3,0.1c0,0,0,0,0,0c-1.5,0-2.3-0.4-2.3-1.3c0-0.1,0-0.1,0-0.2c-0.1-0.3-0.2-0.9-0.2-2.2l0.1-2.5l-0.5-17.5l0.2-19
					c0-3-0.1-3.9-0.2-4.1c-0.1-0.2,0-0.5,0.2-0.6l0.4-0.2c0.1,0,0.2-0.1,0.3-0.1c1.1,0,1.9,0.1,2.4,0.5l1.4-0.1c0-0.1,0-0.1,0-0.2
					c0-0.5-0.8-1.9-10.6-1.9c-0.2,0-0.5,0-1,0.3c-0.4,0.2-0.4,0.3-0.4,0.3c0,0.5,0.2,0.8,1,0.8l1.9-0.2c1.2,0,2,0.1,2.6,0.3
					c0.2,0.1,0.3,0.2,0.4,0.4c0.3,2.6,0.4,5.7,0.4,9.3l-0.4,18.7l0.6,17.5l-0.3,1.8c0,0.1-0.1,0.2-0.1,0.3l-0.3,0.3
					c-0.1,0.1-0.2,0.1-0.4,0.1h-2.1c-0.1,0.1-0.3,0.3-0.5,0.4c-0.1,0.1-0.2,0.2-0.2,0.3c0.3,0.4,1.1,0.5,1.7,0.5L605.2,280.3
					C605.2,280.3,605.2,280.3,605.2,280.3z"/>
			</g>
		</g>
		<g>
			<g>
				<path fill="#FFFFFF" d="M644.4,232.9l-0.2-2c0-1.1,0.4-1.7,1.1-1.7c0.5,0,0.9,0.2,1.3,0.7c0.3,0.5,0.5,1,0.5,1.6v5.4l-0.4,0.7
					c0,4.2-0.3,12.2-0.9,24.2c-0.6,12-1.1,18.5-1.7,19.6c-0.1,0-0.5,0.1-1.2,0.3c-0.6,0.2-1.1,0.3-1.3,0.3c-0.3,0-0.5-0.2-0.7-0.5
					c-0.2-0.4-0.4-0.8-0.5-1.4c-0.1-0.6-0.2-1-0.3-1.1l0.1-0.2c-0.3-2.2-1-4.7-2.1-7.6s-1.7-4.8-2.1-5.8c-0.2-0.2-0.9-2.2-2.1-6
					c-4.8-14.9-7.8-22.9-9.1-24.1c-0.4,1.6-0.6,3.5-0.6,5.6l0.2,6.3l-0.2,3.9c0,0.6,0.1,2.5,0.3,5.6h-0.2c0,8.9,0.2,13.8,0.5,14.7
					v7.2c0.2,0.4,0.3,0.8,0.3,1.4c0,1.2-0.5,1.9-1.5,1.9c-1.1,0-1.7-1.4-1.7-4.3l0.3-5.2l-0.5-23l0.5-14.2v-1.4c0-0.7,0-1.2,0.1-1.4
					s0.1-0.5,0.1-0.8c0-0.3,0.1-0.6,0.2-0.8c0.1-0.2,0.2-0.4,0.3-0.6c0.2-0.5,0.5-0.8,0.8-1.1l0.2,0.3l0.8-0.2
					c0.6,0.2,1,0.6,1.1,1.2c0,0.1,0,0.2,0.1,0.4c0.1,0.2,0.1,0.4,0.1,0.4c0.9,3.8,2.8,9.1,5.7,15.9c2.9,6.8,4.7,11.2,5.3,13.1
					c0.6,1.9,1.2,4,1.7,6.2c1.1,4.8,2.3,8.3,3.6,10.5l0.2-0.2C643.8,264.8,644.4,250.3,644.4,232.9z M642.8,281.7
					C642.8,281.7,642.8,281.7,642.8,281.7L642.8,281.7z"/>
			</g>
			<g>
				<path fill="#FFFFFF" d="M641.7,282.4c-0.3,0-0.8-0.1-1.1-0.8c-0.2-0.4-0.4-0.9-0.5-1.5c-0.1-0.7-0.2-0.9-0.3-1
					c-0.1-0.1-0.1-0.3,0-0.4l0-0.1c-0.3-2.1-1-4.6-2-7.4c-1-2.8-1.7-4.7-2-5.7c-0.2-0.3-0.5-1.2-2.2-6c-4.8-15-7.2-21-8.3-23
					c-0.2,1.3-0.4,2.8-0.4,4.4l0.2,6.3l-0.2,3.9c0,0.6,0.1,2.4,0.3,5.5c0,0.1,0,0.3-0.1,0.4c0,0-0.1,0.1-0.1,0.1
					c0,10.6,0.3,13.5,0.5,14.1c0,0.1,0,0.1,0,0.2v7.1c0.2,0.4,0.3,0.9,0.3,1.5c0,2.1-1.2,2.4-2,2.4c-2.2,0-2.2-3.6-2.2-4.8l0.3-5.3
					l-0.5-23l0.5-14.2l0-1.4c0-0.7,0-1.2,0.1-1.5c0-0.2,0.1-0.5,0.1-0.8c0-0.4,0.1-0.7,0.2-0.9l0.3-0.6c0.2-0.5,0.6-1,1-1.3
					c0.2-0.2,0.5-0.2,0.7,0.1l0,0l0.5-0.1c0.1,0,0.2,0,0.3,0c0.8,0.3,1.3,0.8,1.4,1.6c0,0,0,0.1,0,0.1c0,0,0,0.1,0.1,0.3
					c0.1,0.3,0.1,0.4,0.1,0.5c0.9,3.8,2.8,9.1,5.7,15.8c2.9,6.8,4.7,11.2,5.3,13.1c0.6,1.9,1.2,4,1.7,6.2c0.9,3.9,1.9,7,2.9,9.1
					c1.1-11.4,1.7-25.6,1.7-42.3l-0.2-2c0-1.9,1-2.2,1.6-2.2c0.7,0,1.3,0.3,1.7,1c0.4,0.6,0.6,1.2,0.6,1.8v5.4c0,0.1,0,0.2-0.1,0.3
					l-0.3,0.5c0,4.2-0.3,12.3-0.9,24.1c-0.8,16.2-1.4,19.1-1.7,19.8c-0.1,0.1-0.2,0.2-0.4,0.3c-0.1,0-0.5,0.1-1.1,0.3c0,0,0,0,0,0
					c0,0-0.1,0-0.1,0.1c-0.1,0-0.2,0-0.3,0C642.3,282.4,641.9,282.4,641.7,282.4z M640.7,278.8c0.1,0.2,0.2,0.5,0.3,1.1
					c0.1,0.5,0.2,0.9,0.4,1.2c0.1,0.2,0.2,0.3,0.3,0.3c0.1,0,0.3,0,0.7-0.1c0.1-0.1,0.3-0.1,0.4-0.1c0,0,0,0,0.1,0
					c0.4-0.1,0.7-0.2,0.9-0.2c0.4-1.1,0.9-5.5,1.6-19.2c0.6-11.9,0.9-20,0.9-24.2c0-0.1,0-0.2,0.1-0.3l0.3-0.5v-5.2
					c0-0.5-0.1-0.9-0.4-1.3c-0.3-0.5-0.6-0.5-0.9-0.5c-0.2,0-0.6,0-0.6,1.2l0.2,2c0,0,0,0,0,0c0,17.4-0.6,32-1.8,43.6
					c0,0.1,0,0.2-0.1,0.2l-0.2,0.2c-0.1,0.1-0.2,0.2-0.4,0.2c-0.2,0-0.3-0.1-0.4-0.2c-1.3-2.2-2.5-5.8-3.7-10.6
					c-0.5-2.1-1.1-4.2-1.7-6.1c-0.6-1.9-2.4-6.3-5.3-13.1c-2.9-6.8-4.9-12.2-5.8-16c0,0,0-0.1,0-0.1c0,0,0-0.1-0.1-0.3
					c-0.1-0.3-0.1-0.4-0.1-0.5c-0.1-0.4-0.3-0.6-0.6-0.8l-0.6,0.2c-0.1,0-0.2,0-0.4,0c-0.1,0.2-0.3,0.4-0.4,0.6l-0.3,0.6
					c0,0.1-0.1,0.3-0.1,0.6c0,0.3-0.1,0.6-0.1,0.9c0,0.1-0.1,0.5-0.1,1.3v1.4l-0.5,14.2l0.5,23l-0.3,5.3c0,1.4,0.2,3.8,1.2,3.8
					c0.5,0,1-0.2,1-1.4c0-0.5-0.1-0.9-0.2-1.2c0-0.1-0.1-0.2-0.1-0.2v-7.1c-0.2-0.8-0.5-3.3-0.5-14.8c0-0.2,0.1-0.3,0.2-0.4
					c-0.2-2.9-0.3-4.6-0.3-5.2l0.2-3.9l-0.2-6.3c0-2.2,0.2-4.1,0.6-5.8c0-0.2,0.2-0.3,0.3-0.4c0.2,0,0.4,0,0.5,0.1
					c0.8,0.8,2.7,4.2,9.2,24.3c1.6,4.7,2,5.7,2.1,5.8c0,0,0.1,0.1,0.1,0.1c0.3,1,1,2.9,2,5.7c1.1,2.9,1.8,5.5,2.1,7.7
					C640.8,278.6,640.7,278.7,640.7,278.8L640.7,278.8z"/>
			</g>
		</g>
		<g>
			<g>
				<path fill="#FFFFFF" d="M304.7,345.7l-2.1,0.1c-0.8-0.3-1.6-0.5-2.5-0.5c-0.9,0-1.4,0-1.5,0.1c-0.1,0.1-0.1,0.1-0.2,0.3
					c0,0.1-0.1,0.2-0.1,0.3l-0.2,1.6c-0.1,1.4-0.4,3-0.7,4.9c-0.7,3.7-1.5,5.6-2.3,5.6c-0.3,0-0.7-0.1-1.1-0.4
					c-0.4-0.3-0.5-0.6-0.5-0.9c0.7-2,1.4-5,2.1-9.1c0.7-4.1,1.2-6.6,1.4-7.6c0.2-1,0.5-3,1-6.1c0.5-3,0.8-5.1,1-6
					c0.2-1,0.6-3,1.3-6.2c0.7-3.2,1.1-5.3,1.2-6.3c0.1-1,0.3-2.3,0.5-4c0.4-4.2,0.8-6.5,1.1-7l1.1,0.1c0.7,0,1.1-0.2,1.4-0.5
					c0.3,0,0.7,0.1,1,0.3c0.3,0.2,0.5,0.5,0.5,0.9c0,2.6,0.3,7.5,1,14.8c0.7,7.3,1.2,12.1,1.5,14.2c0.4,2.1,0.8,4.3,1.3,6.3
					c0.5,2.1,0.7,3.7,0.7,4.7l-0.4,1.1c0,1.2,0.2,3,0.7,5.3c0.4,2.3,0.7,4,0.7,4.9c0,1-0.2,1.5-0.6,1.8c-1.1,0-1.8-0.2-2-0.5
					c-0.2-0.3-0.4-0.8-0.4-1.5c0-0.7,0-1.5-0.1-2.5c-0.1-1-0.2-1.8-0.3-2.4c-0.1-0.6-0.2-1.5-0.5-2.8c-0.2-1.3-0.4-2.1-0.4-2.5
					C307.3,345.8,306.1,345.7,304.7,345.7z M299.1,341.7c0,0.5,0.6,1,1.9,1.4c2,0.5,4.1,0.8,6.5,0.8h0.8c-0.3-1-0.5-2.2-0.5-3.6
					v-1.8c0-3.3-0.4-8.1-1.2-14.5s-1.3-11-1.3-14.1c-2.8,13.8-4.5,22.3-5.2,25.5S299.1,340.8,299.1,341.7z"/>
			</g>
			<g>
				<path fill="#FFFFFF" d="M312,358.8c-1.3,0-2-0.2-2.4-0.7c-0.3-0.4-0.5-1-0.5-1.8c0-0.7,0-1.5-0.1-2.5c-0.1-1-0.2-1.8-0.3-2.4
					c-0.1-0.6-0.2-1.5-0.5-2.8c-0.2-1-0.3-1.7-0.4-2.2c-0.9-0.2-2-0.3-3.1-0.3l-2.1,0.1c-0.1,0-0.1,0-0.2,0
					c-0.7-0.3-1.5-0.4-2.3-0.4c-0.7,0-1.1,0-1.2,0c0,0.1,0,0.1,0,0.2l-0.1,1.5c-0.1,1.4-0.4,3-0.8,4.9c-1,5.3-2,6-2.8,6
					c-0.5,0-0.9-0.2-1.4-0.5c-0.5-0.4-0.7-0.8-0.7-1.3c0-0.1,0-0.1,0-0.2c0.7-2,1.4-5,2.1-9c0.7-4.1,1.2-6.6,1.4-7.6
					c0.2-1,0.5-3,1-6.1l1-6c0.2-1,0.6-3.1,1.3-6.3c0.7-3.2,1.1-5.3,1.2-6.3c0.1-1,0.3-2.3,0.5-4c0.6-5.6,0.9-6.8,1.1-7.1
					c0.1-0.2,0.3-0.3,0.5-0.3l1.1,0.1c0.5,0,0.8-0.1,1.1-0.3c0.1-0.1,0.2-0.1,0.4-0.1c0.4,0,0.9,0.1,1.3,0.4
					c0.4,0.3,0.7,0.8,0.7,1.3c0,2.5,0.3,7.5,1,14.8c0.6,7.3,1.2,12,1.5,14.2c0.4,2.1,0.8,4.2,1.3,6.3c0.5,2.1,0.8,3.7,0.8,4.9
					c0,0.1,0,0.1,0,0.2l-0.4,1c0,1.2,0.2,2.9,0.7,5.1c0.5,2.4,0.7,4,0.7,5c0,1.2-0.3,1.9-0.9,2.2C312.2,358.8,312.1,358.8,312,358.8
					z M304.7,345.2c1.4,0,2.7,0.1,3.7,0.4c0.2,0.1,0.3,0.2,0.4,0.4c0.1,0.4,0.2,1.2,0.4,2.5c0.2,1.3,0.4,2.2,0.5,2.8
					c0.1,0.6,0.2,1.4,0.3,2.4c0.1,1,0.1,1.9,0.1,2.6c0,0.7,0.1,1,0.3,1.2c0,0,0.2,0.3,1.5,0.3c0.2-0.2,0.3-0.6,0.3-1.3
					c0-0.9-0.2-2.5-0.7-4.8c-0.4-2.3-0.7-4.2-0.7-5.4c0-0.1,0-0.1,0-0.2l0.4-1c0-1-0.3-2.6-0.7-4.5c-0.5-2.1-0.9-4.2-1.3-6.4
					c-0.4-2.2-0.9-6.9-1.5-14.2c-0.6-7.3-1-12.3-1-14.8c0-0.2-0.1-0.3-0.3-0.5c-0.2-0.1-0.3-0.2-0.5-0.2c-0.4,0.3-0.9,0.5-1.6,0.5
					l-0.8-0.1c-0.2,0.6-0.4,2.1-0.9,6.5c-0.2,1.7-0.3,3-0.5,4c-0.1,1-0.6,3.1-1.3,6.3c-0.7,3.2-1.1,5.3-1.3,6.2l-1,6
					c-0.5,3.1-0.8,5.1-1,6.1c-0.2,1-0.6,3.5-1.4,7.6c-0.7,4-1.4,7.1-2.1,9.1c0,0.1,0.1,0.3,0.4,0.5c0.3,0.2,0.5,0.3,0.7,0.3
					c0,0,0.8-0.1,1.8-5.2c0.4-1.9,0.6-3.5,0.7-4.8l0.2-1.6c0-0.1,0-0.1,0-0.2c0,0,0-0.1,0-0.2c0.1-0.3,0.2-0.5,0.4-0.6
					c0.2-0.1,0.3-0.2,1.8-0.2c0.9,0,1.8,0.2,2.6,0.5L304.7,345.2C304.7,345.2,304.7,345.2,304.7,345.2z M308.3,344.4h-0.8
					c-2.4,0-4.6-0.3-6.6-0.8c-0.6-0.2-2.3-0.7-2.3-1.8c0-1,0.3-3.1,1-6.4c0.7-3.2,2.4-11.8,5.2-25.5c0.1-0.2,0.3-0.4,0.5-0.4
					c0.3,0,0.4,0.2,0.5,0.5c0.1,3.1,0.5,7.8,1.3,14.1c0.8,6.3,1.2,11.2,1.2,14.5v1.8c0,1.3,0.2,2.5,0.5,3.4c0,0.2,0,0.3-0.1,0.4
					C308.6,344.3,308.5,344.4,308.3,344.4z M305,313.9c-2.3,11.5-3.8,18.7-4.4,21.6c-0.7,3.2-1,5.3-1,6.2c0,0.2,0.4,0.6,1.6,0.9
					c1.9,0.5,4,0.8,6.3,0.8h0.2c-0.2-0.9-0.3-2-0.3-3.1v-1.8c0-3.3-0.4-8.1-1.2-14.4C305.6,320,305.2,316.6,305,313.9z"/>
			</g>
		</g>
		<g>
			<g>
				<path fill="#FFFFFF" d="M343.1,308.9l-0.2-2c0-1.1,0.4-1.7,1.1-1.7c0.5,0,0.9,0.2,1.3,0.7c0.3,0.5,0.5,1,0.5,1.6v5.4l-0.4,0.7
					c0,4.2-0.3,12.2-0.9,24.2c-0.6,12-1.1,18.5-1.7,19.6c-0.1,0-0.5,0.1-1.2,0.3c-0.6,0.2-1.1,0.3-1.3,0.3c-0.3,0-0.5-0.2-0.7-0.5
					c-0.2-0.4-0.4-0.8-0.5-1.4c-0.1-0.6-0.2-1-0.3-1.1l0.1-0.2c-0.3-2.2-1-4.7-2.1-7.6s-1.7-4.8-2.1-5.8c-0.2-0.2-0.9-2.2-2.1-6
					c-4.8-14.9-7.8-22.9-9.1-24.1c-0.4,1.6-0.6,3.5-0.6,5.6l0.2,6.3l-0.2,3.9c0,0.6,0.1,2.5,0.3,5.6H323c0,8.9,0.2,13.8,0.5,14.7
					v7.2c0.2,0.4,0.3,0.8,0.3,1.4c0,1.2-0.5,1.9-1.5,1.9c-1.1,0-1.7-1.4-1.7-4.3l0.3-5.2l-0.5-23L321,311v-1.4c0-0.7,0-1.2,0.1-1.4
					s0.1-0.5,0.1-0.8c0-0.3,0.1-0.6,0.2-0.8c0.1-0.2,0.2-0.4,0.3-0.6c0.2-0.5,0.5-0.8,0.8-1.1l0.2,0.3l0.8-0.2
					c0.6,0.2,1,0.6,1.1,1.2c0,0.1,0,0.2,0.1,0.4c0.1,0.2,0.1,0.4,0.1,0.4c0.9,3.8,2.8,9.1,5.7,15.9c2.9,6.8,4.7,11.2,5.3,13.1
					c0.6,1.9,1.2,4,1.7,6.2c1.1,4.8,2.3,8.3,3.6,10.5l0.2-0.2C342.5,340.8,343.1,326.3,343.1,308.9z M341.4,357.7
					C341.5,357.7,341.5,357.7,341.4,357.7L341.4,357.7z"/>
			</g>
			<g>
				<path fill="#FFFFFF" d="M340.4,358.4c-0.3,0-0.8-0.1-1.1-0.8c-0.2-0.4-0.4-0.9-0.5-1.5c-0.1-0.7-0.2-0.9-0.3-1
					c-0.1-0.1-0.1-0.3,0-0.4l0-0.1c-0.3-2.1-1-4.6-2-7.4c-1-2.8-1.7-4.7-2-5.7c-0.2-0.3-0.5-1.2-2.2-6c-4.8-15-7.2-21-8.3-23
					c-0.2,1.3-0.4,2.8-0.4,4.4l0.2,6.3l-0.2,3.9c0,0.6,0.1,2.4,0.3,5.5c0,0.1,0,0.3-0.1,0.4c0,0-0.1,0.1-0.1,0.1
					c0,10.6,0.3,13.5,0.5,14.1c0,0.1,0,0.1,0,0.2v7.1c0.2,0.4,0.3,0.9,0.3,1.5c0,2.1-1.2,2.4-2,2.4c-2.2,0-2.2-3.6-2.2-4.8l0.3-5.3
					l-0.5-23l0.5-14.2l0-1.4c0-0.7,0-1.2,0.1-1.5c0-0.2,0.1-0.5,0.1-0.8c0-0.4,0.1-0.7,0.2-0.9l0.3-0.6c0.2-0.5,0.6-1,1-1.3
					c0.2-0.2,0.5-0.2,0.7,0.1l0,0l0.5-0.1c0.1,0,0.2,0,0.3,0c0.8,0.3,1.3,0.8,1.4,1.6c0,0,0,0.1,0,0.1c0,0,0,0.1,0.1,0.3
					c0.1,0.3,0.1,0.4,0.1,0.5c0.9,3.8,2.8,9.1,5.7,15.8c2.9,6.8,4.7,11.2,5.3,13.1c0.6,1.9,1.2,4,1.7,6.2c0.9,3.9,1.9,7,2.9,9.1
					c1.1-11.4,1.7-25.6,1.7-42.3l-0.2-2c0-1.9,1-2.2,1.6-2.2c0.7,0,1.3,0.3,1.7,1c0.4,0.6,0.6,1.2,0.6,1.8v5.4c0,0.1,0,0.2-0.1,0.3
					l-0.3,0.5c0,4.2-0.3,12.3-0.9,24.1c-0.8,16.2-1.4,19.1-1.7,19.8c-0.1,0.1-0.2,0.2-0.4,0.3c-0.1,0-0.5,0.1-1.1,0.3c0,0,0,0,0,0
					c0,0-0.1,0-0.1,0.1c-0.1,0-0.2,0-0.3,0C340.9,358.4,340.6,358.4,340.4,358.4z M339.4,354.8c0.1,0.2,0.2,0.5,0.3,1.1
					c0.1,0.5,0.2,0.9,0.4,1.2c0.1,0.2,0.2,0.3,0.3,0.3c0.1,0,0.3,0,0.7-0.1c0.1-0.1,0.3-0.1,0.4-0.1c0,0,0,0,0.1,0
					c0.4-0.1,0.7-0.2,0.9-0.2c0.4-1.1,0.9-5.5,1.6-19.2c0.6-11.9,0.9-20,0.9-24.2c0-0.1,0-0.2,0.1-0.3l0.3-0.5v-5.2
					c0-0.5-0.1-0.9-0.4-1.3c-0.3-0.5-0.6-0.5-0.9-0.5c-0.2,0-0.6,0-0.6,1.2l0.2,2c0,0,0,0,0,0c0,17.4-0.6,32-1.8,43.6
					c0,0.1,0,0.2-0.1,0.2l-0.2,0.2c-0.1,0.1-0.2,0.2-0.4,0.2c-0.2,0-0.3-0.1-0.4-0.2c-1.3-2.2-2.5-5.8-3.7-10.6
					c-0.5-2.1-1.1-4.2-1.7-6.1c-0.6-1.9-2.4-6.3-5.3-13.1c-2.9-6.8-4.9-12.2-5.8-16c0,0,0-0.1,0-0.1c0,0,0-0.1-0.1-0.3
					c-0.1-0.3-0.1-0.4-0.1-0.5c-0.1-0.4-0.3-0.6-0.6-0.8l-0.6,0.2c-0.1,0-0.2,0-0.4,0c-0.1,0.2-0.3,0.4-0.4,0.6l-0.3,0.6
					c0,0.1-0.1,0.3-0.1,0.6c0,0.3-0.1,0.6-0.1,0.9c0,0.1-0.1,0.5-0.1,1.3v1.4l-0.5,14.2l0.5,23l-0.3,5.3c0,1.4,0.2,3.8,1.2,3.8
					c0.5,0,1-0.2,1-1.4c0-0.5-0.1-0.9-0.2-1.2c0-0.1-0.1-0.2-0.1-0.2v-7.1c-0.2-0.8-0.5-3.3-0.5-14.8c0-0.2,0.1-0.3,0.2-0.4
					c-0.2-2.9-0.3-4.6-0.3-5.2l0.2-3.9l-0.2-6.3c0-2.2,0.2-4.1,0.6-5.8c0-0.2,0.2-0.3,0.3-0.4c0.2,0,0.4,0,0.5,0.1
					c0.8,0.8,2.7,4.2,9.2,24.3c1.6,4.7,2,5.7,2.1,5.8c0,0,0.1,0.1,0.1,0.1c0.3,1,1,2.9,2,5.7c1.1,2.9,1.8,5.5,2.1,7.7
					C339.4,354.6,339.4,354.7,339.4,354.8L339.4,354.8z"/>
			</g>
		</g>
		<g>
			<g>
				<path fill="#FFFFFF" d="M383,357l-2.7-0.3c-0.4,0-0.9,0.2-1.5,0.4c-0.6,0.3-1.3,0.4-2.1,0.4c-0.8,0-1.3-0.3-1.5-0.8l-1.3,0.1
					c-1.1,0-1.9-0.3-2.2-0.8c0-0.3,0.1-0.6,0.4-0.8c0.3-0.2,0.5-0.4,0.6-0.5h2.3l0.3-0.3l0.3-1.7l-0.6-17.5l0.4-18.7
					c0-3.6-0.1-6.7-0.4-9.3c-0.5-0.2-1.3-0.2-2.4-0.2l-1.9,0.2c-1,0-1.5-0.5-1.5-1.4c0-0.2,0.2-0.5,0.7-0.7c0.5-0.2,0.9-0.3,1.2-0.3
					c7.4,0,11.1,0.8,11.1,2.4c0,0.2-0.1,0.4-0.2,0.6l-1.8,0.2c-0.4-0.3-1.2-0.5-2.3-0.5l-0.4,0.2c0.2,0.5,0.2,1.9,0.2,4.3l-0.2,19
					l0.5,17.5l-0.1,2.5c0,1.2,0.1,2,0.2,2.2l-0.1,0.2c0,0.5,0.6,0.8,1.8,0.8l2.3-0.1c1.6,0,2.4,0.4,2.4,1.1c0,0.5-0.2,0.9-0.5,1.2
					C383.9,356.8,383.5,357,383,357z"/>
			</g>
			<g>
				<path fill="#FFFFFF" d="M376.8,358.1c-1,0-1.5-0.4-1.8-0.8l-1,0.1c0,0,0,0,0,0c-1.4,0-2.2-0.4-2.6-1.1c0-0.1-0.1-0.2-0.1-0.2
					c0-0.5,0.2-0.9,0.7-1.2c0.3-0.3,0.5-0.4,0.5-0.4c0.1-0.1,0.2-0.2,0.4-0.2h2.1l0.1-0.1l0.2-1.5l-0.6-17.4l0.4-18.7
					c0-3.4-0.1-6.4-0.4-8.8c-0.5-0.1-1.1-0.1-1.9-0.1l-1.9,0.2c0,0,0,0,0,0c-1.3,0-2.1-0.7-2.1-1.9c0-0.7,0.8-1,1-1.1
					c0.6-0.2,1-0.4,1.4-0.4c8,0,11.6,0.9,11.6,2.9c0,0.2-0.1,0.5-0.2,0.8c-0.1,0.2-0.2,0.3-0.4,0.3l-1.8,0.2c-0.1,0-0.2,0-0.3-0.1
					c-0.2-0.2-0.7-0.3-1.8-0.4c0.1,0.5,0.2,1.6,0.2,4l-0.2,19l0.5,17.5l-0.1,2.5c0,1.6,0.1,1.9,0.2,1.9c0.1,0.1,0.1,0.3,0,0.5l0,0.1
					c0.1,0.1,0.4,0.2,1.2,0.2l2.3-0.1c0,0,0,0,0,0c1.9,0,2.9,0.5,2.9,1.6c0,0.6-0.2,1.1-0.7,1.5s-1,0.6-1.6,0.6l-2.7-0.3
					c-0.3,0-0.7,0.1-1.2,0.4C378.5,357.9,377.7,358.1,376.8,358.1z M375.3,356.3c0.2,0,0.4,0.1,0.5,0.3c0.1,0.1,0.2,0.5,1,0.5
					c0.7,0,1.3-0.1,1.8-0.4c0.7-0.3,1.2-0.5,1.7-0.5l2.7,0.3c0.4,0,0.7-0.1,0.9-0.3c0.2-0.2,0.3-0.5,0.3-0.8c0-0.6-1.2-0.6-1.9-0.6
					l-2.3,0.1c0,0,0,0,0,0c-1.5,0-2.3-0.4-2.3-1.3c0-0.1,0-0.1,0-0.2c-0.1-0.3-0.2-0.9-0.2-2.2l0.1-2.5l-0.5-17.5l0.2-19
					c0-3-0.1-3.9-0.2-4.1c-0.1-0.2,0-0.5,0.2-0.6l0.4-0.2c0.1,0,0.2-0.1,0.3-0.1c1.1,0,1.9,0.1,2.4,0.5l1.4-0.1c0-0.1,0-0.1,0-0.2
					c0-0.5-0.8-1.9-10.6-1.9c-0.2,0-0.5,0-1,0.3c-0.4,0.2-0.4,0.3-0.4,0.3c0,0.5,0.2,0.8,1,0.8l1.9-0.2c1.2,0,2,0.1,2.6,0.3
					c0.2,0.1,0.3,0.2,0.4,0.4c0.3,2.6,0.4,5.7,0.4,9.3l-0.4,18.7l0.6,17.5l-0.3,1.8c0,0.1-0.1,0.2-0.1,0.3l-0.3,0.3
					c-0.1,0.1-0.2,0.1-0.4,0.1h-2.1c-0.1,0.1-0.3,0.3-0.5,0.4c-0.1,0.1-0.2,0.2-0.2,0.3c0.3,0.4,1.1,0.5,1.7,0.5L375.3,356.3
					C375.3,356.3,375.3,356.3,375.3,356.3z"/>
			</g>
		</g>
		<g>
			<g>
				<path fill="#FFFFFF" d="M414.6,308.9l-0.2-2c0-1.1,0.4-1.7,1.1-1.7c0.5,0,0.9,0.2,1.3,0.7c0.3,0.5,0.5,1,0.5,1.6v5.4l-0.4,0.7
					c0,4.2-0.3,12.2-0.9,24.2c-0.6,12-1.1,18.5-1.7,19.6c-0.1,0-0.5,0.1-1.2,0.3c-0.6,0.2-1.1,0.3-1.3,0.3c-0.3,0-0.5-0.2-0.7-0.5
					c-0.2-0.4-0.4-0.8-0.5-1.4c-0.1-0.6-0.2-1-0.3-1.1l0.1-0.2c-0.3-2.2-1-4.7-2.1-7.6s-1.7-4.8-2.1-5.8c-0.2-0.2-0.9-2.2-2.1-6
					c-4.8-14.9-7.8-22.9-9.1-24.1c-0.4,1.6-0.6,3.5-0.6,5.6l0.2,6.3l-0.2,3.9c0,0.6,0.1,2.5,0.3,5.6h-0.2c0,8.9,0.2,13.8,0.5,14.7
					v7.2c0.2,0.4,0.3,0.8,0.3,1.4c0,1.2-0.5,1.9-1.5,1.9c-1.1,0-1.7-1.4-1.7-4.3l0.3-5.2l-0.5-23l0.5-14.2v-1.4c0-0.7,0-1.2,0.1-1.4
					s0.1-0.5,0.1-0.8c0-0.3,0.1-0.6,0.2-0.8c0.1-0.2,0.2-0.4,0.3-0.6c0.2-0.5,0.5-0.8,0.8-1.1l0.2,0.3l0.8-0.2
					c0.6,0.2,1,0.6,1.1,1.2c0,0.1,0,0.2,0.1,0.4c0.1,0.2,0.1,0.4,0.1,0.4c0.9,3.8,2.8,9.1,5.7,15.9c2.9,6.8,4.7,11.2,5.3,13.1
					c0.6,1.9,1.2,4,1.7,6.2c1.1,4.8,2.3,8.3,3.6,10.5l0.2-0.2C414,340.8,414.6,326.3,414.6,308.9z M412.9,357.7
					C412.9,357.7,413,357.7,412.9,357.7L412.9,357.7z"/>
			</g>
			<g>
				<path fill="#FFFFFF" d="M411.8,358.4c-0.3,0-0.8-0.1-1.1-0.8c-0.2-0.4-0.4-0.9-0.5-1.5c-0.1-0.7-0.2-0.9-0.3-1
					c-0.1-0.1-0.1-0.3,0-0.4l0-0.1c-0.3-2.1-1-4.6-2-7.4c-1-2.8-1.7-4.7-2-5.7c-0.2-0.3-0.5-1.2-2.2-6c-4.8-15-7.2-21-8.3-23
					c-0.2,1.3-0.4,2.8-0.4,4.4l0.2,6.3l-0.2,3.9c0,0.6,0.1,2.4,0.3,5.5c0,0.1,0,0.3-0.1,0.4c0,0-0.1,0.1-0.1,0.1
					c0,10.6,0.3,13.5,0.5,14.1c0,0.1,0,0.1,0,0.2v7.1c0.2,0.4,0.3,0.9,0.3,1.5c0,2.1-1.2,2.4-2,2.4c-2.2,0-2.2-3.6-2.2-4.8l0.3-5.3
					l-0.5-23L392,311l0-1.4c0-0.7,0-1.2,0.1-1.5c0-0.2,0.1-0.5,0.1-0.8c0-0.4,0.1-0.7,0.2-0.9l0.3-0.6c0.2-0.5,0.6-1,1-1.3
					c0.2-0.2,0.5-0.2,0.7,0.1l0,0l0.5-0.1c0.1,0,0.2,0,0.3,0c0.8,0.3,1.3,0.8,1.4,1.6c0,0,0,0.1,0,0.1c0,0,0,0.1,0.1,0.3
					c0.1,0.3,0.1,0.4,0.1,0.5c0.9,3.8,2.8,9.1,5.7,15.8c2.9,6.8,4.7,11.2,5.3,13.1c0.6,1.9,1.2,4,1.7,6.2c0.9,3.9,1.9,7,2.9,9.1
					c1.1-11.4,1.7-25.6,1.7-42.3l-0.2-2c0-1.9,1-2.2,1.6-2.2c0.7,0,1.3,0.3,1.7,1c0.4,0.6,0.6,1.2,0.6,1.8v5.4c0,0.1,0,0.2-0.1,0.3
					l-0.3,0.5c0,4.2-0.3,12.3-0.9,24.1c-0.8,16.2-1.4,19.1-1.7,19.8c-0.1,0.1-0.2,0.2-0.4,0.3c-0.1,0-0.5,0.1-1.1,0.3c0,0,0,0,0,0
					c0,0-0.1,0-0.1,0.1c-0.1,0-0.2,0-0.3,0C412.4,358.4,412.1,358.4,411.8,358.4z M410.8,354.8c0.1,0.2,0.2,0.5,0.3,1.1
					c0.1,0.5,0.2,0.9,0.4,1.2c0.1,0.2,0.2,0.3,0.3,0.3c0.1,0,0.3,0,0.7-0.1c0.1-0.1,0.3-0.1,0.4-0.1c0,0,0,0,0.1,0
					c0.4-0.1,0.7-0.2,0.9-0.2c0.4-1.1,0.9-5.5,1.6-19.2c0.6-11.9,0.9-20,0.9-24.2c0-0.1,0-0.2,0.1-0.3l0.3-0.5v-5.2
					c0-0.5-0.1-0.9-0.4-1.3c-0.3-0.5-0.6-0.5-0.9-0.5c-0.2,0-0.6,0-0.6,1.2l0.2,2c0,0,0,0,0,0c0,17.4-0.6,32-1.8,43.6
					c0,0.1,0,0.2-0.1,0.2L413,353c-0.1,0.1-0.3,0.2-0.4,0.2c-0.2,0-0.3-0.1-0.4-0.2c-1.3-2.2-2.5-5.8-3.7-10.6
					c-0.5-2.1-1.1-4.2-1.7-6.1c-0.6-1.9-2.4-6.3-5.3-13.1c-2.9-6.8-4.9-12.2-5.8-16c0,0,0-0.1,0-0.1c0,0,0-0.1-0.1-0.3
					c-0.1-0.3-0.1-0.4-0.1-0.5c-0.1-0.4-0.3-0.6-0.6-0.8l-0.6,0.2c-0.1,0-0.2,0-0.4,0c-0.1,0.2-0.3,0.4-0.4,0.6l-0.3,0.6
					c0,0.1-0.1,0.3-0.1,0.6c0,0.3-0.1,0.6-0.1,0.9c0,0.1-0.1,0.5-0.1,1.3v1.4l-0.5,14.2l0.5,23l-0.3,5.3c0,1.4,0.2,3.8,1.2,3.8
					c0.5,0,1-0.2,1-1.4c0-0.5-0.1-0.9-0.2-1.2c0-0.1-0.1-0.2-0.1-0.2v-7.1c-0.2-0.8-0.5-3.3-0.5-14.8c0-0.2,0.1-0.3,0.2-0.4
					c-0.2-2.9-0.3-4.6-0.3-5.2l0.2-3.9l-0.2-6.3c0-2.2,0.2-4.1,0.6-5.8c0-0.2,0.2-0.3,0.3-0.4c0.2,0,0.4,0,0.5,0.1
					c0.8,0.8,2.7,4.2,9.2,24.3c1.6,4.7,2,5.7,2.1,5.8c0,0,0.1,0.1,0.1,0.1c0.3,1,1,2.9,2,5.7c1.1,2.9,1.8,5.5,2.1,7.7
					C410.9,354.6,410.9,354.7,410.8,354.8L410.8,354.8z"/>
			</g>
		</g>
		<g>
			<g>
				<path fill="#FFFFFF" d="M437.9,307.4l-4.3-0.5l-0.4,0.5l0.2,0.3c-0.1,0.2-0.2,1.7-0.2,4.6c0,2.8,0.4,9.5,1.3,19.9
					c0.9,10.4,1.3,18.2,1.3,23.5c0,0.4-0.2,0.7-0.5,1.1s-0.7,0.5-1.1,0.5l-0.9-0.7l-0.2-5.8l0.2-2.8c0-0.7-0.1-1.4-0.3-1.9
					c0-4.5-0.3-11.1-1-19.8c-0.6-8.7-1-15.1-1-19.2c-4.2,0-6.4-0.5-6.7-1.5c0.2-0.6,0.7-0.9,1.5-0.9l10.9,0.7l1.4-0.1
					c1,0,1.4,0.3,1.4,1c0,0.4-0.2,0.7-0.6,0.9C438.7,307.3,438.3,307.4,437.9,307.4z"/>
			</g>
			<g>
				<path fill="#FFFFFF" d="M434.3,357.6c-0.1,0-0.2,0-0.3-0.1l-0.9-0.7c-0.1-0.1-0.2-0.2-0.2-0.4l-0.2-5.8l0.2-2.9
					c0-0.6-0.1-1.2-0.3-1.7c0-0.1,0-0.1,0-0.2c0-4.5-0.3-11.1-1-19.8c-0.6-8.3-1-14.6-1-18.8c-4.3,0-6.4-0.6-6.7-1.9
					c0-0.1,0-0.2,0-0.3c0.2-0.6,0.7-1.2,2-1.2l10.9,0.7l1.4-0.1c0,0,0,0,0,0c1.8,0,2,1.1,2,1.5c0,0.4-0.1,0.9-0.8,1.3
					c-0.5,0.3-1,0.5-1.5,0.4l-4.1-0.5l0,0l0,0c0.1,0.1,0.1,0.3,0,0.4c0,0.1-0.1,0.8-0.1,4.3c0,2.8,0.4,9.5,1.3,19.9
					c0.9,10.4,1.3,18.3,1.3,23.5c0,0.5-0.2,1-0.6,1.4S434.9,357.6,434.3,357.6z M433.9,356.2l0.6,0.4c0.2,0,0.4-0.1,0.6-0.3
					c0.2-0.2,0.3-0.4,0.3-0.7c0-5.2-0.4-13-1.3-23.4c-0.9-10.4-1.3-17.1-1.3-19.9c0-3.1,0.1-4.1,0.1-4.5l-0.1-0.1
					c-0.1-0.2-0.1-0.4,0.1-0.5l0.4-0.5c0.1-0.1,0.3-0.2,0.4-0.2l4.3,0.5c0.3,0,0.6-0.1,0.9-0.3c0.3-0.2,0.4-0.4,0.4-0.5
					c0-0.2,0-0.5-0.9-0.5l-1.4,0.1l-10.9-0.7c-0.5,0-0.8,0.2-0.9,0.4c0.3,0.4,1.4,1,6.2,1c0.3,0,0.5,0.2,0.5,0.5
					c0.1,4.1,0.4,10.6,1,19.2c0.6,8.6,1,15.2,1,19.8c0.2,0.6,0.3,1.3,0.3,2l-0.2,2.8L433.9,356.2z"/>
			</g>
		</g>
		<g>
			<g>
				<path fill="#FFFFFF" d="M447.1,357l0.1-2l-0.3-0.3c0.4-1.1,0.6-2.2,0.6-3.3l-0.4-10.5l0.5-24.1l-0.3-9.6c0-1.5,0.8-2.3,2.3-2.3
					c0.6,0,1,0.2,1.3,0.5c0.2,0.1,1,0.2,2.3,0.3c3.3,0.4,5,1,5,2c0,0.4-0.5,0.9-1.5,1.5c-2.9-1-5.1-1.5-6.5-1.5l-0.4,0.5
					c0.1,0.8,0.1,1.9,0.1,3.4l-0.3,12.4c0,1.5,0.4,2.2,1.1,2.2l2.7-0.2c2,0,3.1,0.5,3.1,1.4c0,0.5-0.1,1-0.4,1.4
					c-0.3,0.4-0.8,0.6-1.5,0.6s-1.2-0.2-1.6-0.6l-2.6-0.4h-0.4l-0.4,0.4v0.2c0.1,1.4,0.2,3.5,0.2,6.3l-0.2,11.4
					c0,5.3,0.4,8.3,1.1,8.8c0.5,0.4,1.3,0.6,2.6,0.6l3-0.2c1.6,0,2.3,0.4,2.3,1.1c0,1-1.2,1.4-3.5,1.4h-6.6
					C447.7,358.6,447.2,358.1,447.1,357z"/>
			</g>
			<g>
				<path fill="#FFFFFF" d="M455.3,359.1h-6.6c-1.3,0-2-0.8-2.1-2.1c0,0,0,0,0-0.1l0.1-1.8l-0.1-0.2c-0.1-0.1-0.2-0.3-0.1-0.5
					c0.4-1,0.6-2.1,0.6-3.1l-0.4-10.5l0.5-24.1l-0.3-9.5c0-1.8,1-2.8,2.8-2.8c0.7,0,1.2,0.2,1.6,0.6c0.2,0,0.8,0.1,2.1,0.3
					c3.7,0.4,5.4,1.2,5.5,2.4c0,0.7-0.5,1.3-1.8,2c-0.1,0.1-0.3,0.1-0.4,0c-2.7-0.9-4.8-1.4-6.1-1.5l-0.1,0.1c0,0.8,0.1,1.9,0.1,3.3
					l-0.3,12.4c0,0.8,0.1,1.7,0.6,1.7l2.7-0.2c0,0,0,0,0,0c2.4,0,3.6,0.6,3.6,1.9c0,0.7-0.2,1.3-0.5,1.7c-0.4,0.6-1,0.9-1.9,0.9
					c-0.8,0-1.4-0.2-1.8-0.7l-2.4-0.4l-0.1,0l-0.1,0.1c0.1,1.4,0.2,3.5,0.2,6.3l-0.2,11.4c0,7.2,0.7,8.3,0.9,8.4
					c0.3,0.2,0.9,0.5,2.3,0.5l2.9-0.2c0,0,0,0,0,0c1.9,0,2.9,0.5,2.9,1.6C459.3,359.1,456.3,359.1,455.3,359.1z M447.6,357
					c0.1,1,0.6,1.2,1.1,1.2h6.6c0.9,0,3-0.1,3-0.9c0-0.3-0.7-0.6-1.8-0.6l-2.9,0.2c0,0,0,0,0,0c-1.4,0-2.4-0.2-2.9-0.7
					c-0.6-0.5-1.3-1.9-1.3-9.2l0.2-11.4c0-2.8-0.1-4.9-0.2-6.3l0-0.3c0-0.1,0.1-0.3,0.1-0.4l0.4-0.4c0.1-0.1,0.2-0.1,0.4-0.1h0.4
					l2.7,0.4c0.1,0,0.2,0.1,0.3,0.2c0.2,0.3,0.6,0.4,1.2,0.4c0.8,0,1-0.3,1-0.4c0.2-0.3,0.3-0.7,0.3-1.2c0-0.8-1.5-0.9-2.6-0.9
					l-2.7,0.2c0,0,0,0,0,0c-0.8,0-1.7-0.5-1.7-2.7l0.3-12.4c0-1.5,0-2.6-0.1-3.4c0-0.1,0-0.3,0.1-0.4l0.4-0.5
					c0.1-0.1,0.2-0.2,0.4-0.2c1.4,0.1,3.5,0.5,6.4,1.5c1.1-0.7,1.1-1,1.1-1c0-0.2-0.4-1-4.6-1.5c-1.8-0.2-2.2-0.3-2.4-0.3
					c-0.1,0-0.2-0.1-0.3-0.2c-0.2-0.2-0.5-0.3-0.9-0.3c-1.3,0-1.8,0.5-1.8,1.8l0.3,9.6l-0.5,24.1l0.4,10.5c0,1.1-0.2,2.2-0.5,3.2
					l0.1,0.1c0.1,0.1,0.1,0.2,0.1,0.3L447.6,357z"/>
			</g>
		</g>
		<g>
			<g>
				<path fill="#FFFFFF" d="M466,307.3c0-2,0.6-3,1.8-3c2.6,0,4.8,0.7,6.4,2c1.7,1.3,2.5,3.2,2.5,5.8v5.8c0,2.1-1,5-3.1,8.8
					c-0.7,1.3-1.1,2-1.1,2.1s1,4.3,3,12.7c2,8.3,3.1,12.6,3.2,12.9c0.1,0.3,0.4,0.8,0.8,1.6c0.4,0.8,0.6,1.5,0.6,2.1
					s-0.3,0.9-0.9,0.9l-1.2-0.4c-1.2-1.4-2.6-6.6-4.1-15.6c-1.4-8.7-2.7-13-3.7-13H470c-1.2,0-1.8,0.4-1.8,1.1
					c0,2.9,0.2,7.8,0.5,14.6c0.3,6.8,0.6,10.6,0.9,11.4l-0.6,1.3h-1.2l-0.6-0.6C466.4,334.6,466,317.8,466,307.3z M468.3,308.4
					l0.3,19.4l0.2,0.2c1,0,1.9-0.5,2.7-1.6c0.8-1.1,1.4-2.3,1.8-3.8c0.9-3.1,1.3-5.5,1.3-7.1c0-1.6-0.1-2.8-0.2-3.7
					c-0.1-0.8-0.3-1.7-0.7-2.6c-0.7-1.9-2.2-2.8-4.6-2.8c-0.3,0-0.5,0.2-0.7,0.7C468.4,307.5,468.3,308,468.3,308.4z"/>
			</g>
			<g>
				<path fill="#FFFFFF" d="M479.3,359.5c-0.1,0-0.1,0-0.2,0L478,359c-0.1,0-0.2-0.1-0.2-0.1c-1.3-1.5-2.7-6.7-4.2-15.9
					c-1.8-11.2-2.9-12.5-3.2-12.6l-0.3,0c-1.3,0-1.3,0.4-1.3,0.6c0,2.9,0.2,7.8,0.5,14.5c0.4,8.4,0.7,10.7,0.8,11.3
					c0,0.1,0,0.2,0,0.3l-0.6,1.3c-0.1,0.2-0.3,0.3-0.5,0.3h-1.2c-0.1,0-0.3-0.1-0.4-0.2l-0.6-0.6c-0.1-0.1-0.1-0.2-0.1-0.3
					c-0.9-23-1.3-40-1.3-50.4c0-2.9,1.2-3.5,2.3-3.5c2.7,0,5,0.7,6.8,2.1c1.8,1.4,2.7,3.5,2.7,6.2v5.8c0,2.2-1,5.1-3.2,9.1
					c-0.7,1.3-0.9,1.7-1,1.9c0.1,0.5,0.8,3.3,3,12.5c2.5,10.2,3.1,12.6,3.2,12.8c0.1,0.2,0.4,0.8,0.8,1.6c0.5,0.9,0.7,1.7,0.7,2.4
					C480.7,358.9,480.2,359.5,479.3,359.5z M478.4,358.1l1,0.3c0.3,0,0.3-0.1,0.3-0.4c0-0.5-0.2-1.2-0.6-1.9
					c-0.4-0.9-0.7-1.4-0.8-1.7c-0.1-0.1-0.2-0.4-3.2-12.9c-3-12.5-3-12.7-3-12.8c0-0.2,0-0.3,1.1-2.3c2-3.7,3.1-6.6,3.1-8.6V312
					c0-2.4-0.8-4.2-2.3-5.4c-1.6-1.2-3.7-1.9-6.1-1.9c-0.3,0-1.3,0-1.3,2.5c0,10.4,0.4,27.3,1.3,50.2l0.3,0.3h0.6l0.4-0.9
					c-0.1-0.6-0.4-2.5-0.8-11.3c-0.3-6.8-0.5-11.7-0.5-14.6c0-0.6,0.3-1.6,2.3-1.6h0.3c0.9,0,2.1,1,4.2,13.5
					C476.3,353.6,477.6,357.1,478.4,358.1z M468.8,328.4c-0.1,0-0.3-0.1-0.4-0.1l-0.2-0.2c-0.1-0.1-0.1-0.2-0.1-0.3l-0.3-19.4
					c0,0,0,0,0,0c0-0.4,0.1-0.9,0.3-1.5c0.3-0.9,0.8-1.1,1.2-1.1c2.6,0,4.3,1.1,5,3.1c0.4,0.9,0.6,1.9,0.7,2.7
					c0.1,0.8,0.2,2.1,0.2,3.7c0,1.7-0.4,4-1.3,7.2c-0.4,1.6-1.1,2.9-1.9,4C471,327.8,469.9,328.4,468.8,328.4z M468.8,308.4l0.3,19
					c0.7-0.1,1.4-0.6,2-1.4c0.8-1,1.4-2.2,1.8-3.7c0.8-3.1,1.3-5.4,1.3-7c0-1.6-0.1-2.8-0.2-3.6c-0.1-0.8-0.3-1.6-0.6-2.5
					c-0.6-1.7-2-2.5-4.1-2.5c0,0-0.1,0.1-0.2,0.4C468.9,307.6,468.8,308,468.8,308.4z"/>
			</g>
		</g>
		<g>
			<g>
				<path fill="#FFFFFF" d="M507,303.1c0.6,0.2,0.9,0.5,0.9,1c0,0.5-0.1,1.1-0.2,1.9c-0.1,0.8-0.3,1.7-0.5,2.7
					c-0.2,1-0.4,1.8-0.5,2.3c-0.1,0.6-0.6,2.6-1.4,6.1c-0.8,3.5-1.3,6.2-1.6,8.1c-0.3,1.9-0.6,4.6-0.9,8c-0.3,3.5-0.6,5.8-0.7,6.9
					c-0.2,1.1-0.5,2.7-1,4.7c-0.5,2-0.8,3.2-0.9,3.8c-0.1,0.6-0.2,1.3-0.2,2.2c-0.1,0.9-0.1,1.7-0.2,2.5c-0.1,0.8-0.3,1.6-0.5,2.4
					c-0.4,1.8-1.2,2.7-2.5,2.7l-0.9-0.7c0-8.7-2.4-23.5-7.1-44.4c-0.1-0.4-0.3-1.2-0.7-2.5c-1-3.5-1.5-5.4-1.5-5.7s0.1-0.5,0.4-0.7
					s0.5-0.4,0.8-0.4c0.3,0,0.6,0.2,0.9,0.7c0.3,0.5,0.6,1.1,0.8,1.8c0.2,0.7,0.4,1.5,0.5,2.2s0.3,1.4,0.4,2.1
					c0.1,0.7,0.3,1.5,0.5,2.2c0.2,0.8,0.4,1.8,0.8,3.2c0.3,1.4,0.6,2.7,0.8,3.8c0.2,1.1,0.5,2.5,0.8,4.1c0.3,1.6,0.5,2.9,0.7,3.8
					c0.2,0.9,0.4,2.3,0.7,4.1c0.3,1.8,0.5,3.1,0.6,3.8c0.1,0.7,0.3,2.1,0.6,4.1c0.3,2,0.5,3.3,0.5,3.8c0.1,0.5,0.3,1.9,0.6,4.1
					c0.3,2.2,0.5,3.5,0.6,3.9c1.1-3.6,2-8.7,2.7-15.4c0.7-6.6,1.8-13.4,3.2-20.4s2.2-11.2,2.5-12.6L507,303.1z M495.3,314.4v0.2
					h-0.1C495.2,314.4,495.2,314.4,495.3,314.4z M497.5,352.1l-0.1,0.2l0.1,0.2V352.1z"/>
			</g>
			<g>
				<path fill="#FFFFFF" d="M496.6,359.1c-0.1,0-0.2,0-0.3-0.1l-0.9-0.7c-0.1-0.1-0.2-0.2-0.2-0.4c0-8.6-2.4-23.5-7.1-44.3
					c-0.1-0.4-0.3-1.2-0.7-2.5c-1.5-5.4-1.5-5.7-1.5-5.8c0-0.4,0.2-0.7,0.5-1.1c0.7-0.7,1.7-0.8,2.4,0.4c0.3,0.5,0.6,1.2,0.9,1.9
					c0.2,0.8,0.4,1.5,0.6,2.2c0.2,0.7,0.3,1.4,0.4,2.1c0.1,0.7,0.3,1.4,0.5,2.2c0.2,0.8,0.5,1.8,0.8,3.2c0.3,1.4,0.6,2.7,0.8,3.8
					c0.2,1.2,0.5,2.5,0.8,4.1c0.3,1.6,0.5,2.9,0.7,3.8c0.2,0.9,0.4,2.3,0.7,4.1c0.3,1.8,0.5,3,0.6,3.8c0.1,0.7,0.3,2.1,0.6,4.1
					c0.3,2,0.5,3.3,0.5,3.8c0.1,0.5,0.3,1.9,0.6,4.1l0.2,1.5c0.8-3.4,1.5-7.7,2.1-12.9c0.7-6.6,1.8-13.5,3.2-20.5
					c1.4-7,2.2-11.2,2.5-12.5c0-0.2,0.1-0.3,0.3-0.4l1.1-0.4c0.1,0,0.2,0,0.3,0c1.1,0.3,1.3,1.1,1.3,1.5c0,0.5-0.1,1.2-0.2,2
					c-0.1,0.8-0.3,1.7-0.6,2.7c-0.2,1-0.4,1.8-0.5,2.3c-0.1,0.6-0.6,2.6-1.4,6.1c-0.8,3.5-1.3,6.2-1.6,8c-0.3,1.9-0.6,4.5-0.9,8
					c-0.3,3.5-0.6,5.8-0.7,7c-0.2,1.2-0.5,2.8-1,4.7c-0.5,2-0.8,3.2-0.9,3.8c-0.1,0.6-0.2,1.3-0.2,2.1c-0.1,0.9-0.1,1.8-0.2,2.6
					c-0.1,0.8-0.3,1.7-0.5,2.5C499,358.5,497.7,359.1,496.6,359.1z M496.2,357.6l0.6,0.5c0.5,0,1.4-0.3,1.8-2.3
					c0.2-0.8,0.4-1.6,0.5-2.4c0.1-0.8,0.2-1.6,0.2-2.5c0.1-0.9,0.1-1.7,0.2-2.3c0.1-0.6,0.4-1.8,0.9-3.8c0.5-1.9,0.8-3.5,1-4.6
					c0.2-1.1,0.4-3.5,0.7-6.9c0.3-3.5,0.7-6.2,0.9-8.1c0.3-1.9,0.8-4.6,1.6-8.1c0.8-3.5,1.2-5.5,1.4-6.1c0.1-0.6,0.3-1.3,0.5-2.4
					c0.2-1,0.4-1.9,0.5-2.6c0.1-0.8,0.2-1.4,0.2-1.8c0-0.1,0-0.3-0.4-0.5l-0.6,0.3c-0.3,1.6-1.1,5.7-2.4,12.3
					c-1.4,7-2.5,13.8-3.2,20.4c-0.7,6.6-1.7,11.8-2.8,15.4c0,0,0,0.1-0.1,0.1v0.3c0,0.2-0.2,0.4-0.4,0.5c-0.2,0-0.5-0.1-0.6-0.3
					l-0.1-0.2c-0.1-0.1-0.1-0.3,0-0.4l0.1-0.2c0,0,0,0,0,0l-0.6-3.8c-0.3-2.2-0.5-3.6-0.6-4.1c-0.1-0.5-0.2-1.8-0.5-3.8
					c-0.3-2-0.5-3.4-0.6-4.1c-0.1-0.7-0.3-2-0.6-3.8c-0.3-1.8-0.5-3.1-0.7-4.1c-0.2-0.9-0.4-2.2-0.7-3.8c-0.3-1.6-0.6-3-0.8-4.1
					c-0.2-1.1-0.5-2.4-0.8-3.8c-0.3-1.4-0.6-2.5-0.8-3.2c-0.2-0.8-0.4-1.5-0.5-2.2c-0.1-0.7-0.3-1.4-0.4-2.1
					c-0.2-0.7-0.3-1.4-0.5-2.1c-0.2-0.7-0.4-1.2-0.7-1.6c-0.3-0.5-0.5-0.5-0.5-0.5c-0.1,0-0.2,0-0.4,0.2c-0.1,0.1-0.2,0.2-0.2,0.3
					c0,0.1,0.2,0.9,1.5,5.5c0.4,1.3,0.6,2.2,0.7,2.5C493.8,334,496.2,348.9,496.2,357.6z M495.3,315c-0.3,0-0.6-0.2-0.6-0.5
					c0-0.5,0.3-0.7,0.6-0.7c0.3,0,0.5,0.2,0.5,0.5v0.2C495.8,314.8,495.6,315,495.3,315z M495.3,314.5v0.3c0.3,0,0.4-0.2,0.4-0.3
					L495.3,314.5z"/>
			</g>
		</g>
		<g>
			<g>
				<path fill="#FFFFFF" d="M528,357l-2.7-0.3c-0.4,0-0.9,0.2-1.5,0.4c-0.6,0.3-1.3,0.4-2.1,0.4c-0.8,0-1.3-0.3-1.5-0.8l-1.3,0.1
					c-1.1,0-1.9-0.3-2.2-0.8c0-0.3,0.1-0.6,0.4-0.8c0.3-0.2,0.5-0.4,0.6-0.5h2.3l0.3-0.3l0.3-1.7l-0.6-17.5l0.4-18.7
					c0-3.6-0.1-6.7-0.4-9.3c-0.5-0.2-1.3-0.2-2.4-0.2l-1.9,0.2c-1,0-1.5-0.5-1.5-1.4c0-0.2,0.2-0.5,0.7-0.7c0.5-0.2,0.9-0.3,1.2-0.3
					c7.4,0,11.1,0.8,11.1,2.4c0,0.2-0.1,0.4-0.2,0.6l-1.8,0.2c-0.4-0.3-1.2-0.5-2.3-0.5l-0.4,0.2c0.2,0.5,0.2,1.9,0.2,4.3l-0.2,19
					l0.5,17.5l-0.1,2.5c0,1.2,0.1,2,0.2,2.2l-0.1,0.2c0,0.5,0.6,0.8,1.8,0.8l2.3-0.1c1.6,0,2.4,0.4,2.4,1.1c0,0.5-0.2,0.9-0.5,1.2
					C528.9,356.8,528.5,357,528,357z"/>
			</g>
			<g>
				<path fill="#FFFFFF" d="M521.8,358.1c-1,0-1.5-0.4-1.8-0.8l-1,0.1c0,0,0,0,0,0c-1.4,0-2.2-0.4-2.6-1.1c0-0.1-0.1-0.2-0.1-0.2
					c0-0.5,0.2-0.9,0.7-1.2c0.3-0.3,0.5-0.4,0.5-0.4c0.1-0.1,0.2-0.2,0.4-0.2h2.1l0.1-0.1l0.2-1.5l-0.6-17.4l0.4-18.7
					c0-3.4-0.1-6.4-0.4-8.8c-0.5-0.1-1.1-0.1-1.9-0.1l-1.9,0.2c0,0,0,0,0,0c-1.3,0-2.1-0.7-2.1-1.9c0-0.7,0.8-1,1-1.1
					c0.6-0.2,1-0.4,1.4-0.4c8,0,11.6,0.9,11.6,2.9c0,0.2-0.1,0.5-0.2,0.8c-0.1,0.2-0.2,0.3-0.4,0.3l-1.8,0.2c-0.1,0-0.2,0-0.3-0.1
					c-0.2-0.2-0.7-0.3-1.8-0.4c0.1,0.5,0.2,1.6,0.2,4l-0.2,19l0.5,17.5l-0.1,2.5c0,1.6,0.1,1.9,0.2,1.9c0.1,0.1,0.1,0.3,0,0.5l0,0.1
					c0.1,0.1,0.4,0.2,1.2,0.2l2.3-0.1c0,0,0,0,0,0c1.9,0,2.9,0.5,2.9,1.6c0,0.6-0.2,1.1-0.7,1.5c-0.4,0.4-1,0.6-1.6,0.6l-2.7-0.3
					c-0.3,0-0.7,0.1-1.2,0.4C523.4,357.9,522.7,358.1,521.8,358.1z M520.3,356.3c0.2,0,0.4,0.1,0.5,0.3c0.1,0.1,0.2,0.5,1,0.5
					c0.7,0,1.3-0.1,1.8-0.4c0.7-0.3,1.2-0.5,1.7-0.5l2.7,0.3c0.4,0,0.7-0.1,0.9-0.3c0.2-0.2,0.3-0.5,0.3-0.8c0-0.6-1.2-0.6-1.9-0.6
					l-2.3,0.1c0,0,0,0,0,0c-1.5,0-2.3-0.4-2.3-1.3c0-0.1,0-0.1,0-0.2c-0.1-0.3-0.2-0.9-0.2-2.2l0.1-2.5l-0.5-17.5l0.2-19
					c0-3-0.1-3.9-0.2-4.1c-0.1-0.2,0-0.5,0.2-0.6l0.4-0.2c0.1,0,0.2-0.1,0.3-0.1c1.1,0,1.9,0.1,2.4,0.5l1.4-0.1c0-0.1,0-0.1,0-0.2
					c0-0.5-0.8-1.9-10.6-1.9c-0.2,0-0.5,0-1,0.3c-0.4,0.2-0.4,0.3-0.4,0.3c0,0.5,0.2,0.8,1,0.8l1.9-0.2c1.1,0,2,0.1,2.6,0.3
					c0.2,0.1,0.3,0.2,0.4,0.4c0.3,2.6,0.4,5.7,0.4,9.3l-0.4,18.7l0.6,17.5l-0.3,1.8c0,0.1-0.1,0.2-0.1,0.3l-0.3,0.3
					c-0.1,0.1-0.2,0.1-0.4,0.1H518c-0.1,0.1-0.3,0.3-0.5,0.4c-0.1,0.1-0.2,0.2-0.2,0.3c0.3,0.4,1.1,0.5,1.7,0.5L520.3,356.3
					C520.3,356.3,520.3,356.3,520.3,356.3z"/>
			</g>
		</g>
		<g>
			<g>
				<path fill="#FFFFFF" d="M537.1,357l0.1-2l-0.3-0.3c0.4-1.1,0.6-2.2,0.6-3.3l-0.4-10.5l0.5-24.1l-0.3-9.6c0-1.5,0.8-2.3,2.3-2.3
					c0.6,0,1,0.2,1.3,0.5c0.2,0.1,1,0.2,2.3,0.3c3.3,0.4,5,1,5,2c0,0.4-0.5,0.9-1.5,1.5c-2.9-1-5.1-1.5-6.5-1.5l-0.4,0.5
					c0.1,0.8,0.1,1.9,0.1,3.4l-0.3,12.4c0,1.5,0.4,2.2,1.1,2.2l2.7-0.2c2,0,3.1,0.5,3.1,1.4c0,0.5-0.1,1-0.4,1.4
					c-0.3,0.4-0.8,0.6-1.5,0.6s-1.2-0.2-1.6-0.6l-2.6-0.4h-0.4l-0.4,0.4v0.2c0.1,1.4,0.2,3.5,0.2,6.3l-0.2,11.4
					c0,5.3,0.4,8.3,1.1,8.8c0.5,0.4,1.3,0.6,2.6,0.6l3-0.2c1.6,0,2.3,0.4,2.3,1.1c0,1-1.2,1.4-3.5,1.4h-6.6
					C537.8,358.6,537.2,358.1,537.1,357z"/>
			</g>
			<g>
				<path fill="#FFFFFF" d="M545.4,359.1h-6.6c-1.3,0-2-0.8-2.1-2.1c0,0,0,0,0-0.1l0.1-1.8l-0.1-0.2c-0.1-0.1-0.2-0.3-0.1-0.5
					c0.4-1,0.6-2.1,0.6-3.1l-0.4-10.5l0.5-24.1l-0.3-9.5c0-1.8,1-2.8,2.8-2.8c0.7,0,1.2,0.2,1.6,0.6c0.2,0,0.8,0.1,2.1,0.3
					c3.7,0.4,5.4,1.2,5.5,2.4c0,0.7-0.5,1.3-1.8,2c-0.1,0.1-0.3,0.1-0.4,0c-2.7-0.9-4.8-1.4-6.1-1.5l-0.1,0.1c0,0.8,0.1,1.9,0.1,3.3
					l-0.3,12.4c0,0.8,0.1,1.7,0.6,1.7l2.7-0.2c0,0,0,0,0,0c2.4,0,3.6,0.6,3.6,1.9c0,0.7-0.2,1.3-0.5,1.7c-0.4,0.6-1,0.9-1.9,0.9
					c-0.8,0-1.4-0.2-1.8-0.7l-2.4-0.4l-0.1,0l-0.1,0.1c0.1,1.4,0.2,3.5,0.2,6.3l-0.2,11.4c0,7.2,0.7,8.3,0.9,8.4
					c0.3,0.2,0.9,0.5,2.3,0.5l2.9-0.2c0,0,0,0,0,0c1.9,0,2.9,0.5,2.9,1.6C549.3,359.1,546.3,359.1,545.4,359.1z M537.6,357
					c0.1,1,0.6,1.2,1.1,1.2h6.6c0.9,0,3-0.1,3-0.9c0-0.3-0.7-0.6-1.8-0.6l-2.9,0.2c0,0,0,0,0,0c-1.4,0-2.4-0.2-2.9-0.7
					c-0.6-0.5-1.3-1.9-1.3-9.2l0.2-11.4c0-2.8-0.1-4.9-0.2-6.3l0-0.3c0-0.1,0.1-0.3,0.1-0.4l0.4-0.4c0.1-0.1,0.2-0.1,0.4-0.1h0.4
					l2.7,0.4c0.1,0,0.2,0.1,0.3,0.2c0.2,0.3,0.6,0.4,1.2,0.4c0.8,0,1-0.3,1-0.4c0.2-0.3,0.3-0.7,0.3-1.2c0-0.8-1.5-0.9-2.6-0.9
					l-2.7,0.2c0,0,0,0,0,0c-0.8,0-1.7-0.5-1.7-2.7l0.3-12.4c0-1.5,0-2.6-0.1-3.4c0-0.1,0-0.3,0.1-0.4l0.4-0.5
					c0.1-0.1,0.2-0.2,0.4-0.2c1.4,0.1,3.5,0.5,6.4,1.5c1.1-0.7,1.1-1,1.1-1c0-0.2-0.4-1-4.6-1.5c-1.8-0.2-2.2-0.3-2.4-0.3
					c-0.1,0-0.2-0.1-0.3-0.2c-0.2-0.2-0.5-0.3-0.9-0.3c-1.3,0-1.8,0.5-1.8,1.8l0.3,9.6l-0.5,24.1l0.4,10.5c0,1.1-0.2,2.2-0.5,3.2
					l0.1,0.1c0.1,0.1,0.1,0.2,0.1,0.3L537.6,357z"/>
			</g>
		</g>
		<g>
			<g>
				<path fill="#FFFFFF" d="M575.2,360.3c-0.9,0-1.4-1.2-1.4-3.6c-0.1-1.4-0.4-3.4-0.9-6c-0.5-2.6-0.8-4.3-0.9-5.1
					c-0.1-0.8-0.4-3.7-0.8-8.8c-1-12.6-2-19.4-2.9-20.3c-0.5,6-0.8,9.7-0.8,11.1c0,1.4-0.1,3.1-0.3,5.4c-0.2,2.2-0.6,5.1-1.2,8.7
					s-0.9,5.6-0.9,6.1c-0.1,0.5-0.2,1.2-0.3,2.3c-0.1,1-0.2,2-0.4,2.9c-0.1,0.9-0.3,1.9-0.5,3c-0.4,2.3-1,3.5-1.6,3.5
					c-0.8,0-1.4-1.2-1.9-3.6s-0.8-5.8-1-10.2c-0.3-4.4-0.4-7.1-0.5-8c-0.1-0.9-0.4-2.9-0.9-6.1s-0.7-5.4-0.8-6.7
					c-0.1-1.3-0.2-2.9-0.3-4.9c-0.1-2-0.2-3.6-0.3-4.8c-0.2-3.5-0.7-6.3-1.6-8.6c0.2-0.4,0.6-0.6,1.1-0.6c0.5,0,0.8,0.2,1.1,0.5
					c0.2,0.3,0.4,0.8,0.5,1.3c0.1,0.6,0.1,1.1,0.2,1.6c0.1,1,0.1,2.1,0.2,3.2c0.1,1.2,0.7,6.3,1.8,15.3c1.1,9.1,1.7,16,1.8,20.9
					c0.2,0.4,0.3,1.1,0.4,2.2s0.3,1.8,0.4,2.1h0.1c0.6-3.9,1-6.5,1.1-7.7c0.1-1.2,0.3-2.7,0.6-4.6c0.3-1.9,0.4-3.3,0.5-4.4
					c0.1-1,0.2-2.4,0.4-3.9c0.2-2.4,0.4-5.3,0.5-8.8c0.1-3.4,0.3-6.1,0.6-8.2c0.3-2.1,0.4-3.4,0.4-4.1l1.4-0.6
					c0.3,0,0.7,0.1,0.9,0.3c0.3,0.2,0.4,0.4,0.4,0.7c0,0.3-0.1,0.5-0.2,0.8c2.4,8.3,3.9,17.9,4.5,28.8c0.2,4.2,0.7,7.2,1.4,9.2
					c0.7-2,1.3-6.6,1.7-14c0.4-7.4,0.6-12.5,0.6-15.4s0.2-5.7,0.5-8.5c0.4-2.8,0.5-4.6,0.5-5.6s-0.1-1.6-0.3-2
					c0-0.8,0.5-1.2,1.6-1.2c0.4,0,0.7,0.1,0.9,0.2c0.1,0.1,0.2,0.6,0.2,1.5c0,0.9-0.1,1.8-0.4,2.7l0.2,0.5c-0.5,2.1-0.7,4-0.7,5.7
					c0,1.7,0.1,2.6,0.2,2.7l-0.5,1.6l0.2,0.5c-0.2,0.3-0.2,0.6-0.2,0.8s0.1,0.8,0.2,1.7l-0.2,0.4c0,1.9-0.2,6.1-0.6,12.6
					c-0.4,6.5-0.7,10.2-0.8,11.2c-0.1,1-0.3,2-0.6,3.2c-0.3,1.1-0.4,2-0.4,2.6C577.3,357.3,576.6,360.3,575.2,360.3z M575.4,350.6
					L575.4,350.6L575.4,350.6C575.4,350.7,575.4,350.6,575.4,350.6z"/>
			</g>
			<g>
				<path fill="#FFFFFF" d="M575.2,360.8c-1.9,0-1.9-3.1-1.9-4.1c-0.1-1.3-0.4-3.4-0.9-5.9c-0.5-2.6-0.8-4.3-0.9-5.1
					c-0.1-0.8-0.4-3.8-0.8-8.8c-0.9-10.7-1.6-15.8-2.1-18.1c-0.4,4.7-0.6,7.7-0.6,8.8c0,1.4-0.1,3.2-0.3,5.4
					c-0.2,2.2-0.6,5.2-1.2,8.7c-0.5,3.5-0.9,5.6-0.9,6c-0.1,0.5-0.1,1.2-0.3,2.2c-0.1,1-0.2,2-0.4,3c-0.1,0.9-0.3,1.9-0.5,3
					c-0.5,2.7-1.1,3.9-2.1,3.9c-1.5,0-2-2.3-2.3-4c-0.4-2.4-0.8-5.9-1-10.3c-0.3-4.4-0.4-7.1-0.5-8c-0.1-0.9-0.4-2.9-0.9-6.1
					c-0.5-3.2-0.8-5.4-0.8-6.7c-0.1-1.3-0.2-2.9-0.3-4.9c-0.1-2-0.2-3.6-0.3-4.8c-0.2-3.4-0.7-6.3-1.6-8.5c-0.1-0.1,0-0.3,0-0.4
					c0.3-0.6,0.8-0.9,1.5-0.9c0.8,0,1.3,0.4,1.5,0.7c0.3,0.4,0.5,0.9,0.6,1.5c0.1,0.6,0.2,1.1,0.2,1.6c0.1,1,0.1,2.1,0.2,3.2
					c0.1,1.1,0.7,6.3,1.8,15.3c1.1,9,1.7,16,1.8,20.8c0.1,0.4,0.2,0.9,0.3,1.7c0.4-2.4,0.6-4.1,0.7-5c0.1-1.2,0.3-2.7,0.6-4.6
					c0.3-1.9,0.4-3.3,0.5-4.4l0.4-3.9c0.2-2.4,0.4-5.3,0.5-8.7c0.1-3.4,0.3-6.2,0.6-8.3c0.3-2,0.4-3.4,0.4-4.1
					c0-0.2,0.1-0.4,0.3-0.5l1.4-0.6c0.1,0,0.1,0,0.2,0c0.4,0,0.8,0.1,1.2,0.4c0.5,0.4,0.6,0.8,0.6,1.1c0,0.3-0.1,0.5-0.2,0.8
					c2.4,8.2,3.9,17.9,4.4,28.7c0.1,3.1,0.4,5.5,0.9,7.4c0.5-2.4,0.9-6.5,1.2-12.2c0.4-7.3,0.6-12.5,0.6-15.3c0-2.9,0.2-5.8,0.5-8.5
					c0.3-2.7,0.5-4.6,0.5-5.5c0-1.2-0.1-1.6-0.2-1.7c0-0.1-0.1-0.2-0.1-0.3c0-0.5,0.2-1.8,2.1-1.8c0.6,0,0.9,0.1,1.2,0.3
					c0.3,0.2,0.4,0.6,0.4,1.9c0,0.9-0.1,1.8-0.4,2.7l0.1,0.4c0,0.1,0,0.2,0,0.3c-0.5,2.1-0.7,3.9-0.7,5.6c0,2,0.1,2.4,0.1,2.5
					c0.1,0.1,0.1,0.2,0,0.4l-0.4,1.4l0.2,0.4c0.1,0.1,0.1,0.3,0,0.4c-0.2,0.3-0.2,0.5-0.2,0.5c0,0.1,0,0.4,0.2,1.6
					c0,0.1,0,0.3-0.1,0.4l-0.2,0.2c0,2-0.2,6.2-0.6,12.5c-0.4,6.4-0.7,10.2-0.8,11.2c-0.1,1-0.3,2.1-0.6,3.2
					c-0.3,1.1-0.4,1.9-0.4,2.5C577.8,357.9,577,360.8,575.2,360.8z M568.4,316c0.1,0,0.3,0.1,0.4,0.1c0.7,0.7,1.7,3.7,3.1,20.6
					c0.4,5,0.7,8,0.8,8.8c0.1,0.8,0.4,2.5,0.9,5.1c0.5,2.6,0.8,4.6,0.9,6.1c0,1.9,0.3,3.1,0.9,3.1c0.4,0,1.6-0.6,1.6-8.2
					c0-0.7,0.1-1.6,0.4-2.7c0.3-1.1,0.5-2.1,0.6-3.1c0.1-1,0.4-4.7,0.8-11.2c0.4-6.4,0.6-10.7,0.6-12.6c0-0.1,0-0.2,0.1-0.3l0.1-0.2
					c-0.2-1.1-0.2-1.4-0.2-1.6c0-0.2,0.1-0.5,0.2-0.8l-0.1-0.3c0-0.1-0.1-0.2,0-0.3l0.4-1.4c-0.1-0.3-0.1-1-0.1-2.8
					c0-1.7,0.2-3.6,0.7-5.6l-0.1-0.4c0-0.1,0-0.2,0-0.3c0.2-0.9,0.4-1.8,0.4-2.6c0-0.7,0-1-0.1-1.1c-0.1,0-0.2,0-0.5,0
					c-1,0-1.1,0.4-1.1,0.6c0.2,0.4,0.3,1.1,0.3,2.1c0,1-0.2,2.9-0.5,5.7c-0.3,2.7-0.5,5.6-0.5,8.4c0,2.9-0.2,8.1-0.6,15.4
					c-0.4,7.4-1,12-1.7,14c0.1,0.1,0.1,0.2,0.1,0.3c0,0.3-0.2,0.5-0.5,0.5s-0.6-0.2-0.6-0.5c0-0.1,0-0.1,0-0.2c0,0,0,0,0,0
					c-0.8-2-1.3-5.2-1.4-9.4c-0.5-10.8-2-20.5-4.4-28.7c0-0.1,0-0.3,0-0.4c0.1-0.2,0.1-0.4,0.1-0.6c0-0.1-0.1-0.2-0.2-0.3
					c-0.2-0.1-0.4-0.2-0.6-0.2l-1,0.5c0,0.8-0.2,2.1-0.4,3.9c-0.3,2-0.5,4.8-0.6,8.1c-0.1,3.4-0.3,6.4-0.5,8.8l-0.4,3.9
					c-0.1,1.1-0.3,2.6-0.6,4.5c-0.3,1.9-0.5,3.4-0.6,4.6c-0.1,1.2-0.5,3.8-1.1,7.7c0,0.2-0.2,0.4-0.5,0.4c-0.2,0-0.4-0.1-0.5-0.3
					c-0.2-0.4-0.4-1.2-0.5-2.3c-0.1-1.3-0.3-1.8-0.4-2c0-0.1,0-0.1,0-0.2c-0.1-4.8-0.7-11.8-1.8-20.8c-1.1-9.2-1.7-14.2-1.8-15.4
					c-0.1-1.2-0.1-2.2-0.2-3.2c0-0.5-0.1-1-0.2-1.5c-0.1-0.5-0.2-0.9-0.4-1.1c-0.1-0.1-0.2-0.3-0.7-0.3c-0.2,0-0.4,0.1-0.5,0.2
					c0.8,2.3,1.3,5.2,1.5,8.5c0.1,1.2,0.2,2.8,0.3,4.8c0.1,2,0.2,3.6,0.3,4.9c0.1,1.3,0.4,3.5,0.8,6.6c0.5,3.1,0.8,5.2,0.9,6.1
					c0.1,0.9,0.3,3.6,0.5,8c0.3,4.4,0.6,7.8,1,10.2c0.5,3,1.2,3.2,1.4,3.2c0,0,0.6,0,1.1-3.1c0.2-1.1,0.4-2.1,0.5-3
					c0.1-0.9,0.3-1.9,0.4-2.9c0.1-1,0.2-1.8,0.3-2.3c0.1-0.5,0.4-2.5,0.9-6.1c0.5-3.5,0.9-6.4,1.1-8.6c0.2-2.2,0.3-4,0.3-5.3
					c0-1.4,0.3-5,0.8-11.1c0-0.2,0.1-0.4,0.3-0.4C568.3,316,568.3,316,568.4,316z M574.9,350.7c0,0.2,0.2,0.4,0.4,0.4v-0.3l0,0
					c-0.1,0-0.2,0-0.3-0.1H574.9z"/>
			</g>
		</g>
		<g>
			<g>
				<g>
					<path fill="#FFFFFF" d="M356.2,291.2c27.8-0.9,55.6-2,83.4-3.3c1.9-0.1,1.9-3.1,0-3c-27.8,1.3-55.6,2.4-83.4,3.3
						C354.3,288.2,354.3,291.2,356.2,291.2L356.2,291.2z"/>
				</g>
			</g>
		</g>
	</g>
</g>
</svg>
