<?xml version="1.0" encoding="utf-8"?>
<!-- Generator: Adobe Illustrator 19.1.0, SVG Export Plug-In . SVG Version: 6.00 Build 0)  -->
<svg version="1.1" xmlns="http://www.w3.org/2000/svg" xmlns:xlink="http://www.w3.org/1999/xlink" x="0px" y="0px"
	 viewBox="0 0 360 360" enable-background="new 0 0 360 360" xml:space="preserve">
<g id="bg">
	<g>
		<g>
			<rect x="0" fill="#FEECE7" width="360" height="360"/>
		</g>
	</g>
	<g opacity="0.1">
		<g>
			<ellipse cx="180" cy="308.4" rx="46.5" ry="4.4"/>
		</g>
	</g>
</g>
<g id="Layer_2">
</g>
<g id="Layer_3">
</g>
<g id="Layer_10">
</g>
<g id="Layer_4">
</g>
<g id="Layer_5">
</g>
<g id="Layer_6">
</g>
<g id="Layer_7">
	<g opacity="0.8">
		<defs>
			<rect id="SVGID_163_" x="0" opacity="0.8" width="360" height="360"/>
		</defs>
		<clipPath id="SVGID_2_">
			<use xlink:href="#SVGID_163_"  overflow="visible"/>
		</clipPath>
		<g clip-path="url(#SVGID_2_)">
			<g>
				<path fill="#F5E3DF" d="M118.3,46.6l-4.7-1.6c8.1-23.3,33.7-35.6,57-27.5l-1.6,4.7C148.2,15,125.5,25.9,118.3,46.6z"/>
			</g>
		</g>
		<g clip-path="url(#SVGID_2_)">
			<g>
				<path fill="#F5E3DF" d="M115.1,179.1l-4.2-2.8c5.9-8.8,8-19.4,5.9-29.8c-2.1-10.4-8.1-19.4-17-25.2l2.8-4.2
					c10,6.6,16.7,16.7,19.1,28.4C124.1,157.2,121.7,169.1,115.1,179.1z"/>
			</g>
		</g>
		<g clip-path="url(#SVGID_2_)">
			<g>
				<path fill="#F5E3DF" d="M-10,71.5c-3.1,0-6.2-0.3-9.4-1l1.1-4.9c10.4,2.2,21,0.3,29.9-5.5c8.9-5.8,15-14.6,17.3-25l4.9,1
					C29.2,57.1,10.6,71.5-10,71.5z"/>
			</g>
		</g>
		<g clip-path="url(#SVGID_2_)">
			<g>
				<path fill="#F5E3DF" d="M16.4,334.3c-8.7,0-17.2-2.5-24.6-7.5c-9.9-6.6-16.7-16.7-19.1-28.4l4.9-1c2.1,10.4,8.1,19.4,17,25.2
					c8.8,5.9,19.4,7.9,29.8,5.8l1,4.9C22.4,334,19.4,334.3,16.4,334.3z"/>
			</g>
		</g>
		<g clip-path="url(#SVGID_2_)">
			<g>
				<path fill="#F5E3DF" d="M153.3,230.7l-4.7-1.6c3.9-11.3,12-20.4,22.8-25.6c10.8-5.2,22.9-5.9,34.2-1.9l-1.6,4.7
					c-10-3.5-20.8-2.9-30.4,1.7S156.8,220.7,153.3,230.7z"/>
			</g>
		</g>
		<g clip-path="url(#SVGID_2_)">
			<g>
				<path fill="#F5E3DF" d="M143.9,369.8l-4.2-2.8c12.1-18.2,7.2-42.9-11.1-55.1l2.8-4.2C152,321.5,157.6,349.3,143.9,369.8z"/>
			</g>
		</g>
		<g clip-path="url(#SVGID_2_)">
			<g>
				<path fill="#F5E3DF" d="M46.3,255c-23.9-6.2-38.2-30.7-32-54.5l4.8,1.3c-5.5,21.2,7.2,42.9,28.4,48.4L46.3,255z"/>
			</g>
		</g>
		<g clip-path="url(#SVGID_2_)">
			<g>
				<path fill="#F5E3DF" d="M344,380.1c-0.7-21.4-18.4-38.3-39.7-38.3c-0.5,0-0.9,0-1.4,0l-0.2-5c24.6-0.9,45.4,18.5,46.3,43.1
					L344,380.1z"/>
			</g>
		</g>
		<g clip-path="url(#SVGID_2_)">
			<g>
				<path fill="#F5E3DF" d="M278.5,282.6c-3.1,0-6.2-0.3-9.4-1l1.1-4.9c21.4,4.6,42.6-9.1,47.2-30.5l4.9,1.1
					C317.7,268.2,299.2,282.6,278.5,282.6z"/>
			</g>
		</g>
		<g clip-path="url(#SVGID_2_)">
			<g>
				<path fill="#F5E3DF" d="M336.9,40.2l-4.8-1.3c5.8-21.1-6.7-43-27.9-48.8l1.3-4.8C329.4-8.2,343.4,16.4,336.9,40.2z"/>
			</g>
		</g>
		<g clip-path="url(#SVGID_2_)">
			<g>
				<path fill="#F5E3DF" d="M253.3,97.3l-4.2-2.8c12.1-18.2,7.2-42.9-11.1-55.1l2.8-4.2C261.4,49,267,76.8,253.3,97.3z"/>
			</g>
		</g>
		<g clip-path="url(#SVGID_2_)">
			<g>
				<path fill="#F5E3DF" d="M363,178.8c-20.8,0-39.5-14.7-43.8-35.9l4.9-1c4.3,21.5,25.3,35.4,46.8,31.1l1,4.9
					C368.9,178.5,365.9,178.8,363,178.8z"/>
			</g>
		</g>
	</g>
	<g>
		<g>
			<g>
				<g>
					<g>
						<g>
							<path fill="#F8A79E" d="M175.9,309.2h-9.3v-1.9c0-1.1,0.9-2,2-2h7.3V309.2z"/>
						</g>
					</g>
				</g>
				<g>
					<g>
						<g>
							<path fill="#F8A79E" d="M182.2,309.2h9.3v-1.9c0-1.1-0.9-2-2-2h-7.3V309.2z"/>
						</g>
					</g>
				</g>
			</g>
			<g>
				<g>
					<g>
						<polyline fill="#F8A79E" points="175.9,194.4 175.9,305.3 172.2,305.3 172.2,194.4 						"/>
					</g>
				</g>
			</g>
			<g>
				<g>
					<g>
						<polyline fill="#F8A79E" points="185.8,194.4 185.8,305.3 182.2,305.3 182.2,194.4 						"/>
					</g>
				</g>
			</g>
			<g>
				<g>
					<g>
						<g>
							<path fill="#523E6B" d="M183.4,213.6c-1.7,0-3.1-1.4-3.1-3.1h0.5c0,1.4,1.2,2.6,2.6,2.6V213.6z"/>
						</g>
					</g>
				</g>
				<g>
					<g>
						<g>
							<path fill="#523E6B" d="M183.1,224.6v-0.5c0.7,0,1.2-0.4,1.2-0.8h0.5C184.8,224,184,224.6,183.1,224.6z"/>
						</g>
					</g>
				</g>
				<g>
					<g>
						<g>
							<path fill="#523E6B" d="M187.6,220.3c-1.7,0-3.2-1.3-3.2-3h0.5c0,1.4,1.2,2.5,2.7,2.5V220.3z"/>
						</g>
					</g>
				</g>
				<g>
					<g>
						<g>
							<path fill="#523E6B" d="M180.4,231.9v-0.5c1,0,1.9-0.5,1.9-1h0.5C182.8,231.2,181.8,231.9,180.4,231.9z"/>
						</g>
					</g>
				</g>
				<g>
					<g>
						<g>
							<path fill="#523E6B" d="M185.2,237.7c-0.8,0-1.5-0.7-1.5-1.6h0.5c0,0.6,0.4,1.1,1,1.1V237.7z"/>
						</g>
					</g>
				</g>
				<g>
					<g>
						<g>
							<path fill="#523E6B" d="M187,246.6c-0.1-0.8-0.9-1.4-1.9-1.2l-0.1-0.5c1.2-0.2,2.3,0.6,2.4,1.7L187,246.6z"/>
						</g>
					</g>
				</g>
			</g>
			<g>
				<g>
					<g>
						<g>
							<path fill="#523E6B" d="M173.3,261.7c-1.7,0-3.1-1.4-3.1-3.1h0.5c0,1.4,1.2,2.6,2.6,2.6V261.7z"/>
						</g>
					</g>
				</g>
				<g>
					<g>
						<g>
							<path fill="#523E6B" d="M173,272.7v-0.5c0.7,0,1.2-0.4,1.2-0.8h0.5C174.7,272.1,173.9,272.7,173,272.7z"/>
						</g>
					</g>
				</g>
				<g>
					<g>
						<g>
							<path fill="#523E6B" d="M177.5,268.3c-1.7,0-3.2-1.3-3.2-3h0.5c0,1.4,1.2,2.5,2.7,2.5V268.3z"/>
						</g>
					</g>
				</g>
				<g>
					<g>
						<g>
							<path fill="#523E6B" d="M170.3,279.9v-0.5c1,0,1.9-0.5,1.9-1h0.5C172.7,279.2,171.7,279.9,170.3,279.9z"/>
						</g>
					</g>
				</g>
				<g>
					<g>
						<g>
							<path fill="#523E6B" d="M175.1,285.7c-0.8,0-1.5-0.7-1.5-1.6h0.5c0,0.6,0.4,1.1,1,1.1V285.7z"/>
						</g>
					</g>
				</g>
				<g>
					<g>
						<g>
							<path fill="#523E6B" d="M176.8,294.6c-0.1-0.8-1-1.4-1.9-1.2l-0.1-0.5c1.2-0.2,2.3,0.6,2.4,1.7L176.8,294.6z"/>
						</g>
					</g>
				</g>
			</g>
			<g>
				<g>
					<g>
						<g>
							<path fill="#523E6B" d="M172.9,234.5V234c0.7,0,1.2-0.4,1.2-0.8h0.5C174.6,234,173.8,234.5,172.9,234.5z"/>
						</g>
					</g>
				</g>
				<g>
					<g>
						<g>
							<path fill="#523E6B" d="M177.3,244.1c-1.7,0-3.2-1.3-3.2-3h0.5c0,1.4,1.2,2.5,2.7,2.5V244.1z"/>
						</g>
					</g>
				</g>
				<g>
					<g>
						<g>
							<path fill="#523E6B" d="M170.4,248.3v-0.5c1,0,1.9-0.5,1.9-1h0.5C172.8,247.7,171.7,248.3,170.4,248.3z"/>
						</g>
					</g>
				</g>
				<g>
					<g>
						<g>
							<path fill="#523E6B" d="M174.9,254.9c-0.8,0-1.5-0.7-1.5-1.6h0.5c0,0.6,0.4,1.1,1,1.1V254.9z"/>
						</g>
					</g>
				</g>
				<g>
					<g>
						<g>
							<path fill="#523E6B" d="M170.8,222.8v-0.5c1.4,0,2.5-1.1,2.5-2.5h0.5C173.9,221.5,172.5,222.8,170.8,222.8z"/>
						</g>
					</g>
				</g>
			</g>
			<g>
				<g>
					<g>
						<g>
							<path fill="#523E6B" d="M187.7,263.7c-1.7,0-3.1-1.4-3.1-3.1h0.5c0,1.4,1.2,2.6,2.6,2.6V263.7z"/>
						</g>
					</g>
				</g>
				<g>
					<g>
						<g>
							<path fill="#523E6B" d="M182.9,268.7v-0.5c0.7,0,1.2-0.4,1.2-0.8h0.5C184.6,268.1,183.8,268.7,182.9,268.7z"/>
						</g>
					</g>
				</g>
				<g>
					<g>
						<g>
							<path fill="#523E6B" d="M187.2,278.3c-1.7,0-3.2-1.3-3.2-3h0.5c0,1.4,1.2,2.5,2.7,2.5V278.3z"/>
						</g>
					</g>
				</g>
				<g>
					<g>
						<g>
							<path fill="#523E6B" d="M180.4,282.4v-0.5c1,0,1.9-0.5,1.9-1h0.5C182.7,281.8,181.7,282.4,180.4,282.4z"/>
						</g>
					</g>
				</g>
				<g>
					<g>
						<g>
							<path fill="#523E6B" d="M184.8,289c-0.8,0-1.5-0.7-1.5-1.6h0.5c0,0.6,0.4,1.1,1,1.1V289z"/>
						</g>
					</g>
				</g>
				<g>
					<g>
						<g>
							<path fill="#523E6B" d="M180.8,256.9v-0.5c1.4,0,2.5-1.1,2.5-2.5h0.5C183.9,255.6,182.5,256.9,180.8,256.9z"/>
						</g>
					</g>
				</g>
			</g>
		</g>
		<g>
			<g>
				<g>
					<ellipse fill="#F8A79E" cx="177.2" cy="137.7" rx="44.4" ry="53.7"/>
				</g>
			</g>
		</g>
		<g>
			<g>
				<g>
					<g>
						<ellipse fill="#58595B" cx="173.5" cy="118.3" rx="1.8" ry="3.7"/>
					</g>
				</g>
			</g>
			<g>
				<g>
					<g>
						<ellipse fill="#58595B" cx="180.9" cy="118.3" rx="1.8" ry="3.7"/>
					</g>
				</g>
			</g>
		</g>
		<g>
			<g>
				<g>
					<g>
						<path fill="#523E6B" d="M165.2,150c0,1.2,0,2.3,0,3.5c-0.1,1.7,0.3,3.2,1,4.6c0.5,1.5,1.3,2.8,2.5,3.9c1.1,1.2,2.4,2,3.9,2.5
							c1.4,0.8,3,1.1,4.6,1c3.1-0.1,6.3-1.2,8.5-3.5c2.2-2.3,3.5-5.2,3.5-8.5c0-1.2,0-2.3,0-3.5c0.1-1.7-0.3-3.2-1-4.6
							c-0.5-1.5-1.3-2.8-2.5-3.9c-1.1-1.2-2.4-2-3.9-2.5c-1.4-0.8-3-1.1-4.6-1c-3.1,0.1-6.3,1.2-8.5,3.5
							C166.5,143.9,165.2,146.8,165.2,150L165.2,150z"/>
					</g>
				</g>
			</g>
		</g>
		<g>
			<defs>
				<ellipse id="SVGID_165_" cx="177.2" cy="180.6" rx="44.4" ry="53.7"/>
			</defs>
			<clipPath id="SVGID_4_">
				<use xlink:href="#SVGID_165_"  overflow="visible"/>
			</clipPath>
			<g clip-path="url(#SVGID_4_)">
				<g>
					<g>
						<path fill="#523E6B" d="M221.6,135.2c-0.2-5.8-1.2-11.4-2.8-16.6c-5.5,6.9-8.8,15.7-8.8,25.2c0,0.1,0,0.2,0,0.3
							c-7.3-10.1-19.3-16.8-32.7-16.8c-12.8,0-24.2,6-31.6,15.3c-0.7-9.1-4.4-17.3-10.1-23.7c-1.5,5-2.5,10.4-2.7,16.1l0,0v0
							c0,0.8-0.1,1.7-0.1,2.6c0,0.7,0,1.4,0.1,2.1c0,0-1.9,40.7,0,54.1c1.4,9.6,11.4,30.4,28.3,28.7c5.4-0.5,8.3,0.1,12.5,3.9
							c4.2,3.9,7.9,0.1,7.9,0.1s-1.4,0.2-1.7-1.3c-0.2-1.2,0.7-2.5,1.7-3.3c3.1-2.5,10-2.9,15.2-2.2c15.9,2.3,20-14.3,23-25.4
							C223.9,179,221.6,135.1,221.6,135.2L221.6,135.2z M184.6,149.7c0,4.1-3.3,7.4-7.4,7.4s-7.4-3.3-7.4-7.4v-4.6
							c0-4.1,3.3-7.4,7.4-7.4s7.4,3.3,7.4,7.4V149.7z"/>
					</g>
				</g>
			</g>
		</g>
		<g>
			<g>
				<g>
					<g>
						<path fill="#CE8049" d="M238.2,179l1.1-2c-2.1-0.9-4.4-1.8-4.4-1.8c2.2-4.2,3.8-7.4,3.8-7.4l-2-0.7c-1.3,2.2-4.6,9.1-4.6,9.1
							l-17.8,3.6l-0.5,3.4l8.9-2.7l3.9,1.5l1.4-0.4l-3.3-1.7l9.3-2.8C237.1,178.9,238.2,179,238.2,179z"/>
					</g>
				</g>
			</g>
			<g>
				<g>
					<g>
						<polygon fill="#CE8049" points="187.6,190 190.5,189.2 189.9,190.1 191,190.1 192,188.8 206.3,185.1 206.7,181.5 197.9,184.5 
							195.3,184.1 193.9,184.5 195.8,185.2 186.6,188.1 						"/>
					</g>
				</g>
			</g>
		</g>
	</g>
</g>
<g id="Layer_8">
</g>
<g id="Layer_11">
</g>
<g id="Layer_9">
</g>
</svg>
