<?xml version="1.0" encoding="utf-8"?>
<!-- Generator: Adobe Illustrator 19.1.0, SVG Export Plug-In . SVG Version: 6.00 Build 0)  -->
<svg version="1.1" xmlns="http://www.w3.org/2000/svg" xmlns:xlink="http://www.w3.org/1999/xlink" x="0px" y="0px"
	 viewBox="0 0 360 360" enable-background="new 0 0 360 360" xml:space="preserve">
<g id="bg">
	<rect fill="#FFC2DE" width="360" height="360"/>
	<radialGradient id="SVGID_1_" cx="180.8971" cy="309.383" r="99.4506" gradientUnits="userSpaceOnUse">
		<stop  offset="0" style="stop-color:#603813"/>
		<stop  offset="1" style="stop-color:#FFFFFF"/>
	</radialGradient>
	<ellipse opacity="0.1" fill="url(#SVGID_1_)" cx="180.9" cy="309.4" rx="93.3" ry="4.4"/>
</g>
<g id="Layer_2">
</g>
<g id="Layer_3">
</g>
<g id="Layer_10">
</g>
<g id="Layer_4">
</g>
<g id="Layer_5">
</g>
<g id="Layer_6">
</g>
<g id="Layer_7">
	<g>
		<g>
			<g>
				<path fill="#005CFF" d="M209.2,82.5l-55.3,1.4c0,0,1.8,10.9-17,19.5c-13,6-12.7,25.3-9.7,41S116,163.5,116,163.5
					s50.4,63.2,107.2,12.5C244,157.3,254.5,97,209.2,82.5z"/>
			</g>
		</g>
	</g>
	<g>
		<g>
			<g>
				<path fill="#003E99" d="M155.5,91.3c0,0-0.5,1.3-1.8,3.3c-0.6,1-1.5,2.2-2.5,3.5c-1,1.3-2.3,2.7-3.7,4.2
					c-1.5,1.4-3.1,2.9-5.1,4.3c-0.9,0.7-1.8,1.5-2.7,2.2c-0.8,0.9-1.7,1.6-2.3,2.7c-0.8,0.9-1.3,2.1-1.9,3.2
					c-0.2,0.6-0.4,1.2-0.7,1.8c-0.2,0.6-0.3,1.2-0.5,1.8c-0.6,2.5-0.9,5.1-0.9,7.8c0,2.7,0.2,5.3,0.4,8c0.3,2.6,0.6,5.2,0.9,7.8
					c0.3,2.5,0.6,4.9,0.8,7.3c0.2,2.3,0.2,4.7-0.3,6.7c-0.4,2.1-1.3,3.9-2.4,5.2c-1.1,1.3-2.4,2.1-3.5,2.7c-0.3,0.1-0.5,0.2-0.8,0.3
					c-0.3,0.1-0.5,0.2-0.7,0.2c-0.4,0.1-0.8,0.2-1.1,0.3c-0.6,0.1-1,0.2-1,0.2s0.3-0.1,0.9-0.3c0.3-0.1,0.7-0.2,1.1-0.4
					c0.4-0.2,0.9-0.4,1.4-0.7c1-0.6,2.1-1.5,3-2.8c0.9-1.3,1.6-3,1.9-4.9c0.1-1,0.2-2,0.2-3.1c0-1.1-0.1-2.1-0.3-3.3
					c-0.4-2.3-0.7-4.7-1.1-7.2c-0.4-2.5-0.8-5.1-1.1-7.8c-0.3-2.7-0.5-5.4-0.5-8.2c0-2.8,0.3-5.6,1-8.2c0.2-0.7,0.3-1.3,0.6-2
					c0.3-0.6,0.5-1.3,0.8-1.9c0.7-1.2,1.3-2.4,2.2-3.4c0.7-1.1,1.8-2,2.7-2.9c1-0.8,1.9-1.4,2.9-2.2c1.9-1.3,3.6-2.6,5.1-3.9
					c3-2.6,5.3-5.2,6.7-7.1C154.8,92.5,155.5,91.3,155.5,91.3z"/>
			</g>
		</g>
	</g>
	<g>
		<g>
			<g>
				<ellipse fill="#005CFF" cx="182.5" cy="82.5" rx="32.5" ry="28.7"/>
			</g>
		</g>
	</g>
	<g>
		<g>
			<g>
				<path fill="#003E99" d="M157.3,94.1c0,0-0.2,0.7-0.6,1.9c-0.5,1.2-1.2,2.9-2.3,4.9c-0.5,1-1.2,2-1.9,3.1
					c-0.8,1.1-1.6,2.2-2.5,3.2c-0.9,1.1-2,2.1-3.2,3c-0.5,0.4-1.1,0.9-1.6,1.4l-0.7,0.7c-0.2,0.3-0.4,0.5-0.7,0.8
					c-0.5,0.5-0.8,1.1-1.2,1.7c-0.3,0.6-0.7,1.2-0.9,1.8c-0.6,1.3-0.9,2.6-1.2,3.9c-0.2,1.3-0.4,2.6-0.4,3.8c0,0.6,0,1.2,0,1.8
					c0,0.6,0,1.2,0,1.7c0.1,2.2,0.3,4,0.4,5.3c0.1,1.3,0.2,2,0.2,2s-0.2-0.7-0.6-1.9c-0.2-0.6-0.4-1.4-0.6-2.3
					c-0.2-0.9-0.4-1.9-0.6-3c-0.1-0.6-0.2-1.1-0.2-1.7c-0.1-0.6-0.1-1.2-0.1-1.9c-0.1-1.3,0-2.7,0.2-4.1c0.2-1.4,0.5-2.9,1.1-4.3
					c0.3-0.7,0.7-1.4,1-2.1c0.4-0.6,0.8-1.3,1.3-1.9c0.3-0.3,0.5-0.6,0.8-0.9l0.9-0.8c0.6-0.6,1.1-0.9,1.7-1.5
					c1.1-0.9,2.2-1.7,3.1-2.7c1-0.9,1.8-1.9,2.6-2.9c0.8-1,1.5-1.9,2.1-2.8c1.3-1.8,2.2-3.4,2.9-4.5
					C156.9,94.8,157.3,94.1,157.3,94.1z"/>
			</g>
		</g>
	</g>
	<g>
		<g>
			<g>
				<g>
					<rect x="175.4" y="226.3" fill="#FFFEE6" width="3.6" height="72.9"/>
				</g>
			</g>
		</g>
		<g>
			<g>
				<g>
					<rect x="185.3" y="226.3" fill="#FFFEE6" width="3.6" height="72.9"/>
				</g>
			</g>
		</g>
	</g>
	<g>
		<g>
			<g>
				<path fill="#FFFEE6" d="M223.2,156.3c0,11.8-7.2,19.3-8.3,28c-1,7.8,2.7,11.1,2.8,17.6c0.2,25.9-18.8,30.1-34.3,30.2
					c-15,0-35.6-2.2-35.5-30.2c0-4.4,2.9-9.7,2-15.1c-1.5-8.7-9.5-7.2-7.9-30.5c3.7-57.2,17.7-78.3,40.1-78.3S223.2,99,223.2,156.3z
					"/>
			</g>
		</g>
	</g>
	<g>
		<g>
			<g>
				<path fill="#5E5E5E" d="M222.3,136.4c-10.4,22-32.8,37.2-58.7,37.2c-7.4,0-14.5-1.3-21.1-3.5c0.4,6,6.7,11.8,7.5,16.8
					c1,5.8-3.5,10.5-2,15.1h0c0,0,0,0,0,0c16.9,2.4,24.1,27.8,24,29.5c0,0,4.1,0.6,9.9,0.6c5.7,0,10.1-0.5,10.1-0.5
					c3.4-19.2,25.6-29.6,25.6-29.6c1.6-5.2-3.7-10.8-2.8-17.6c1.1-8,8.3-16.8,8.3-28C223.2,149.1,222.9,142.5,222.3,136.4z"/>
			</g>
		</g>
	</g>
	<g>
		<g>
			<g>
				<g>
					<path fill="#5E5E5E" d="M179,303.1h-9.3v-1.9c0-1.1,0.9-2,2-2h7.3V303.1z"/>
				</g>
			</g>
		</g>
		<g>
			<g>
				<g>
					<path fill="#5E5E5E" d="M185.3,303.1h9.3v-1.9c0-1.1-0.9-2-2-2h-7.3V303.1z"/>
				</g>
			</g>
		</g>
	</g>
	<g>
		<g>
			<g>
				<rect x="176.9" y="299.4" fill="#5E5E5E" width="2.1" height="8.8"/>
			</g>
		</g>
	</g>
	<g>
		<g>
			<g>
				<path fill="#5E5E5E" d="M173.2,308.6h1.5v-6.5h-4.9v3.1C169.8,307.1,171.3,308.6,173.2,308.6z"/>
			</g>
		</g>
	</g>
	<g>
		<g>
			<g>
				<g>
					<rect x="185.3" y="299.4" fill="#5E5E5E" width="2.1" height="8.8"/>
				</g>
			</g>
		</g>
		<g>
			<g>
				<g>
					<path fill="#5E5E5E" d="M189.7,302.1v3.1c0,1.9,1.5,3.4,3.4,3.4h1.5v-6.5H189.7z"/>
				</g>
			</g>
		</g>
	</g>
	<g>
		<g>
			<g>
				<g>
					<path fill="#FFFEE6" d="M146,200.7c-0.5,0-0.9-0.2-1.3-0.5l-9.2-9.7c-0.5-0.5-0.6-1.2-0.4-1.8l7.2-18.7c0.3-0.9,1.4-1.3,2.3-1
						c0.9,0.3,1.4,1.4,1,2.3l-6.8,17.6l8.5,8.9c0.7,0.7,0.6,1.8-0.1,2.5C146.9,200.5,146.5,200.7,146,200.7z"/>
				</g>
			</g>
		</g>
	</g>
	<g>
		<g>
			<g>
				
					<ellipse transform="matrix(0.8258 -0.5639 0.5639 0.8258 -86.7321 117.0098)" fill="#FFFEE6" cx="146" cy="198.9" rx="4" ry="3.8"/>
			</g>
		</g>
	</g>
	<g>
		<g>
			<g>
				<g>
					<path fill="#5E5E5E" d="M228.8,190.2c-0.1,0-0.1,0-0.2,0c-0.7-0.1-1.2-0.5-1.5-1.1l-9.2-25c-0.3-0.9,0.1-1.9,1-2.2
						c0.9-0.3,1.9,0.1,2.2,1l8,21.6l7.1-11.8c0.5-0.8,1.6-1.1,2.4-0.6s1.1,1.6,0.6,2.4l-9,15C229.9,189.9,229.4,190.2,228.8,190.2z"
						/>
				</g>
			</g>
		</g>
	</g>
	<g>
		<g>
			<g>
				<g>
					
						<ellipse transform="matrix(-0.9812 -0.1932 0.1932 -0.9812 441.9351 390.3005)" fill="#FFFEE6" cx="240" cy="173.6" rx="4" ry="3.8"/>
				</g>
			</g>
		</g>
	</g>
	<g>
		<g>
			<g>
				<g>
					<ellipse fill="#5E5E5E" cx="178.8" cy="115.2" rx="2.1" ry="3.8"/>
				</g>
			</g>
		</g>
		<g>
			<g>
				<g>
					<ellipse fill="#5E5E5E" cx="186.4" cy="115.2" rx="2.1" ry="3.8"/>
				</g>
			</g>
		</g>
	</g>
	<g>
		<defs>
			<path id="SVGID_29_" d="M182.1,78c11.3,0,21.6,5.3,29.1,18c2.4-4,3.8-8.6,3.8-13.5c0-15.9-14.6-28.7-32.5-28.7S150,66.6,150,82.5
				c0,5.3,1.6,10.2,4.4,14.5C161.2,83.7,170.5,78,182.1,78z"/>
		</defs>
		<clipPath id="SVGID_2_">
			<use xlink:href="#SVGID_29_"  overflow="visible"/>
		</clipPath>
		<g clip-path="url(#SVGID_2_)">
			<g>
				<g>
					<path fill="#003E99" d="M166.5,83.9c0,0-1-1.9-1.8-5.2c-0.4-1.6-0.7-3.5-0.9-5.6c-0.1-1-0.1-2.1,0-3.2c0-1.1,0.2-2.2,0.3-3.3
						c0.2-1.1,0.5-2.2,0.8-3.3c0.2-0.5,0.4-1,0.6-1.5c0.2-0.5,0.5-1,0.7-1.5c0.5-0.9,1.1-1.8,1.7-2.6c0.6-0.8,1.2-1.4,1.8-2
						c0.6-0.6,1.2-1,1.8-1.4c0.6-0.4,1.1-0.7,1.5-0.9c0.9-0.4,1.4-0.7,1.4-0.7s-0.4,0.4-1.1,1c-0.4,0.3-0.7,0.7-1.2,1.2
						c-0.4,0.5-1,1-1.4,1.6c-0.5,0.6-1,1.3-1.5,2.1c-0.5,0.8-0.9,1.6-1.3,2.5c-0.4,0.9-0.7,1.8-1,2.8c-0.3,1-0.5,2-0.7,3
						c-0.2,1-0.3,2.1-0.4,3.1c-0.1,1-0.1,2.1-0.1,3c0,1,0,2,0.1,2.9c0.1,0.9,0.1,1.8,0.2,2.6C166.1,81.8,166.5,83.9,166.5,83.9z"/>
				</g>
			</g>
		</g>
		<g clip-path="url(#SVGID_2_)">
			<g>
				<g>
					<path fill="#003E99" d="M160.8,60.2c0,0-0.2,1.7-0.4,4.2c-0.1,1.3-0.2,2.7-0.3,4.3c0,0.8,0,1.6,0,2.4c0,0.8,0,1.6,0.1,2.4
						c0,0.8,0.1,1.6,0.2,2.4c0.1,0.8,0.2,1.6,0.4,2.3c0.2,0.7,0.4,1.4,0.6,2.1c0.2,0.6,0.5,1.3,0.8,1.8c0.3,0.5,0.5,1,0.8,1.5
						c0.3,0.4,0.5,0.8,0.7,1.1c0.5,0.6,0.7,0.9,0.7,0.9s-0.4-0.2-1-0.6c-0.3-0.2-0.7-0.5-1.1-0.9c-0.2-0.2-0.4-0.4-0.6-0.6
						c-0.2-0.2-0.4-0.5-0.6-0.7c-0.4-0.5-0.8-1.1-1.1-1.8c-0.4-0.7-0.7-1.4-0.9-2.2c-0.2-0.8-0.5-1.6-0.6-2.5
						c-0.2-0.9-0.3-1.7-0.3-2.6c-0.1-1.7,0-3.5,0.2-5.1c0.1-0.8,0.2-1.6,0.4-2.3c0.1-0.7,0.3-1.4,0.5-2
						C160,61.7,160.8,60.2,160.8,60.2z"/>
				</g>
			</g>
		</g>
		<g clip-path="url(#SVGID_2_)">
			<g>
				<g>
					<path fill="#003E99" d="M198.4,83.9c0,0,0.4-2.2,0.7-5.4c0.1-0.8,0.1-1.7,0.2-2.6c0.1-0.9,0.1-1.9,0.1-2.9c0-1-0.1-2-0.1-3
						c-0.1-1-0.2-2.1-0.4-3.1c-0.2-1-0.4-2-0.7-3c-0.3-1-0.6-1.9-1-2.8c-0.4-0.9-0.8-1.7-1.3-2.5c-0.5-0.8-1-1.5-1.5-2.1
						c-0.5-0.6-1-1.1-1.4-1.6c-0.5-0.4-0.9-0.9-1.2-1.2c-0.7-0.6-1.1-1-1.1-1s0.5,0.2,1.4,0.7c0.4,0.2,0.9,0.5,1.5,0.9
						c0.5,0.4,1.2,0.8,1.8,1.4c0.6,0.6,1.3,1.2,1.8,2c0.6,0.8,1.2,1.6,1.7,2.6c0.2,0.5,0.5,1,0.7,1.5c0.2,0.5,0.4,1,0.6,1.5
						c0.4,1.1,0.6,2.2,0.8,3.3c0.2,1.1,0.3,2.2,0.3,3.3c0.1,1.1,0,2.2,0,3.2c-0.1,2.1-0.5,4-0.9,5.6C199.4,82,198.4,83.9,198.4,83.9
						z"/>
				</g>
			</g>
		</g>
		<g clip-path="url(#SVGID_2_)">
			<g>
				<g>
					<path fill="#003E99" d="M204,60.2c0,0,0.8,1.5,1.5,4c0.2,0.6,0.4,1.3,0.5,2c0.1,0.7,0.3,1.5,0.4,2.3c0.2,1.6,0.3,3.3,0.2,5.1
						c-0.1,0.9-0.2,1.7-0.3,2.6c-0.1,0.9-0.4,1.7-0.6,2.5c-0.3,0.8-0.6,1.5-0.9,2.2c-0.3,0.7-0.8,1.3-1.1,1.8
						c-0.2,0.3-0.4,0.5-0.6,0.7c-0.2,0.2-0.4,0.4-0.6,0.6c-0.4,0.4-0.8,0.6-1.1,0.9c-0.6,0.4-1,0.6-1,0.6s0.3-0.3,0.7-0.9
						c0.2-0.3,0.5-0.7,0.7-1.1c0.3-0.4,0.5-0.9,0.8-1.5c0.3-0.6,0.5-1.2,0.8-1.8c0.2-0.7,0.4-1.4,0.6-2.1c0.2-0.7,0.3-1.5,0.4-2.3
						c0.1-0.8,0.2-1.6,0.2-2.4c0.1-0.8,0.1-1.6,0.1-2.4c0-0.8,0-1.6,0-2.4c-0.1-1.5-0.2-3-0.3-4.3C204.2,61.9,204,60.2,204,60.2z"/>
				</g>
			</g>
		</g>
	</g>
	<g>
		<g>
			<g>
				<rect x="175.4" y="294.3" fill="#FF6300" width="3.6" height="1.4"/>
			</g>
		</g>
	</g>
	<g>
		<g>
			<g>
				<rect x="185.3" y="294.3" fill="#FF6300" width="3.6" height="1.4"/>
			</g>
		</g>
	</g>
	<g>
		<g>
			<g>
				<path fill="#003E99" d="M212,88.1c0,0,3.1,2.3,6.9,6.6c1,1.1,2,2.3,3,3.6c1,1.3,2,2.7,3,4.2c1,1.5,1.9,3.1,2.8,4.8
					c0.9,1.7,1.7,3.4,2.4,5.2c0.7,1.8,1.4,3.6,1.9,5.4c0.3,0.9,0.5,1.8,0.7,2.7c0.2,0.9,0.4,1.8,0.6,2.7c0.1,0.9,0.3,1.8,0.4,2.6
					c0.1,0.9,0.2,1.7,0.2,2.5c0,0.8,0.1,1.6,0.1,2.4c0,0.8,0,1.5,0,2.2c0,1.4-0.2,2.8-0.3,3.9c-0.2,1.2-0.3,2.2-0.5,3
					c-0.4,1.6-0.6,2.6-0.6,2.6s0.1-0.9,0.2-2.6c0.1-0.8,0-1.8,0.1-3c0-0.6,0-1.2,0-1.8c0-0.6,0-1.3-0.1-2c-0.1-0.7-0.1-1.4-0.2-2.2
					c-0.1-0.8-0.2-1.5-0.3-2.3c-0.1-0.8-0.3-1.6-0.4-2.4c-0.2-0.8-0.3-1.7-0.5-2.5c-0.2-0.9-0.4-1.7-0.6-2.6
					c-0.3-0.9-0.5-1.7-0.8-2.6c-0.6-1.7-1.2-3.5-1.9-5.2c-0.7-1.7-1.5-3.4-2.3-5.1c-0.4-0.8-0.9-1.6-1.3-2.4
					c-0.5-0.8-0.9-1.6-1.3-2.3c-1.8-3-3.7-5.7-5.3-8C214.7,90.8,212,88.1,212,88.1z"/>
			</g>
		</g>
	</g>
	<g>
		<g>
			<g>
				<path fill="#FF6300" d="M188.5,128.3c0-1.7-1.3-3-3-3s-3,1.3-3,3c0,0.1,0,0.3,0,0.4c0,0,0,0,0,0c0,0,0,0,0,0c0-0.1,0-0.3,0-0.4
					c0-1.7-1.3-3-3-3s-3,1.3-3,3c0,0,0,0.1,0,0.1c0,0.1,0,0.2,0,0.3c0,3.3,2.7,6,6,6s6-2.7,6-6c0-0.1,0-0.2,0-0.3
					C188.5,128.4,188.5,128.4,188.5,128.3z"/>
			</g>
		</g>
	</g>
	<g>
		<g>
			<g>
				<path fill="#FF6300" d="M250.6,177.4c-5.9,0-10.7-4.8-10.7-10.7s4.8-10.7,10.7-10.7c5.9,0,10.7,4.8,10.7,10.7
					S256.5,177.4,250.6,177.4z M250.6,160.1c-3.7,0-6.7,3-6.7,6.7c0,3.7,3,6.7,6.7,6.7c3.7,0,6.7-3,6.7-6.7
					C257.3,163.1,254.3,160.1,250.6,160.1z"/>
			</g>
		</g>
	</g>
	<g>
		<g>
			<g>
				<polygon fill="#F9E531" points="258.4,158.5 258.4,144 267.1,144 273.4,151.3 273.4,158.5 				"/>
			</g>
		</g>
	</g>
	<g>
		<g>
			<g>
				<rect x="260.8" y="132.7" fill="#FF6300" width="4" height="6.4"/>
			</g>
		</g>
	</g>
	<g>
		<g>
			<g>
				<rect x="278.6" y="154.3" fill="#FF6300" width="6.4" height="4"/>
			</g>
		</g>
	</g>
	<g>
		<g>
			<g>
				
					<rect x="276.2" y="136.2" transform="matrix(0.6626 0.749 -0.749 0.6626 199.4056 -160.864)" fill="#FF6300" width="4" height="9.5"/>
			</g>
		</g>
	</g>
	<g opacity="0.1">
		<g>
			<defs>
				<ellipse id="SVGID_31_" cx="180.9" cy="309.4" rx="93.3" ry="4.4"/>
			</defs>
			<clipPath id="SVGID_3_">
				<use xlink:href="#SVGID_31_"  overflow="visible"/>
			</clipPath>
			<g clip-path="url(#SVGID_3_)">
				<g>
					<rect x="87.6" y="304.9" fill="#FFFFFF" width="186.5" height="8.9"/>
				</g>
			</g>
			<g clip-path="url(#SVGID_3_)">
				<g>
					<polygon fill="#FFFFFF" points="275.1,309.4 275.1,314.8 86.6,314.8 86.6,303.9 275.1,303.9 					"/>
				</g>
			</g>
			<g clip-path="url(#SVGID_3_)">
				<g>
					<polygon fill="#FEFEFE" points="275.1,309.4 275.1,314.8 86.6,314.8 86.6,303.9 275.1,303.9 					"/>
				</g>
			</g>
			<g clip-path="url(#SVGID_3_)">
				<g>
					<polygon fill="#FEFDFD" points="275.1,309.4 275.1,314.8 86.6,314.8 86.6,303.9 275.1,303.9 					"/>
				</g>
			</g>
			<g clip-path="url(#SVGID_3_)">
				<g>
					<polygon fill="#FDFCFC" points="275.1,309.4 275.1,314.8 86.6,314.8 86.6,303.9 275.1,303.9 					"/>
				</g>
			</g>
			<g clip-path="url(#SVGID_3_)">
				<g>
					<polygon fill="#FCFCFB" points="275.1,309.4 275.1,314.8 86.6,314.8 86.6,303.9 275.1,303.9 					"/>
				</g>
			</g>
			<g clip-path="url(#SVGID_3_)">
				<g>
					<polygon fill="#FCFBFA" points="275.1,309.4 275.1,314.8 86.6,314.8 86.6,303.9 275.1,303.9 					"/>
				</g>
			</g>
			<g clip-path="url(#SVGID_3_)">
				<g>
					<polygon fill="#FBFAF9" points="275.1,309.4 275.1,314.8 86.6,314.8 86.6,303.9 275.1,303.9 					"/>
				</g>
			</g>
			<g clip-path="url(#SVGID_3_)">
				<g>
					<polygon fill="#FAF9F8" points="275.1,309.4 275.1,314.8 86.6,314.8 86.6,303.9 275.1,303.9 					"/>
				</g>
			</g>
			<g clip-path="url(#SVGID_3_)">
				<g>
					<polygon fill="#FAF8F7" points="275.1,309.4 275.1,314.8 86.6,314.8 86.6,303.9 275.1,303.9 					"/>
				</g>
			</g>
			<g clip-path="url(#SVGID_3_)">
				<g>
					<polygon fill="#F9F7F6" points="275.1,309.4 275.1,314.8 86.6,314.8 86.6,303.9 275.1,303.9 					"/>
				</g>
			</g>
			<g clip-path="url(#SVGID_3_)">
				<g>
					<polygon fill="#F8F7F5" points="275.1,309.4 275.1,314.8 86.6,314.8 86.6,303.9 275.1,303.9 					"/>
				</g>
			</g>
			<g clip-path="url(#SVGID_3_)">
				<g>
					<polygon fill="#F8F6F4" points="275.1,309.4 275.1,314.8 86.6,314.8 86.6,303.9 275.1,303.9 					"/>
				</g>
			</g>
			<g clip-path="url(#SVGID_3_)">
				<g>
					<path fill="#F7F5F3" d="M275.3,309.4c0,3.3-0.2,6.5-0.5,9.7v-4.2H87v4.2c-0.3-3.2-0.5-6.4-0.5-9.7s0.2-6.5,0.5-9.7v4.2h187.8
						v-4.2C275.1,302.9,275.3,306.1,275.3,309.4z"/>
				</g>
			</g>
			<g clip-path="url(#SVGID_3_)">
				<g>
					<path fill="#F6F4F2" d="M274.9,309.4c0,3.2-0.2,6.4-0.5,9.6v-4.2h-187v4.2c-0.3-3.2-0.5-6.4-0.5-9.6s0.2-6.4,0.5-9.6v4.2h187
						v-4.2C274.7,302.9,274.9,306.1,274.9,309.4z"/>
				</g>
			</g>
			<g clip-path="url(#SVGID_3_)">
				<g>
					<path fill="#F6F3F1" d="M274.4,309.4c0,3.2-0.2,6.4-0.5,9.6v-4.1H87.8v4.1c-0.3-3.1-0.5-6.3-0.5-9.6s0.2-6.4,0.5-9.6v4.1H274
						v-4.1C274.3,303,274.4,306.2,274.4,309.4z"/>
				</g>
			</g>
			<g clip-path="url(#SVGID_3_)">
				<g>
					<path fill="#F5F2F0" d="M274,309.4c0,3.2-0.2,6.4-0.5,9.5v-4.1H88.2v4.1c-0.3-3.1-0.5-6.3-0.5-9.5s0.2-6.4,0.5-9.5v4.1h185.3
						v-4.1C273.9,303,274,306.2,274,309.4z"/>
				</g>
			</g>
			<g clip-path="url(#SVGID_3_)">
				<g>
					<path fill="#F4F1EF" d="M273.6,309.4c0,3.2-0.2,6.4-0.5,9.5v-4H88.7v4c-0.3-3.1-0.5-6.3-0.5-9.5s0.2-6.4,0.5-9.5v4h184.5v-4
						C273.4,303,273.6,306.2,273.6,309.4z"/>
				</g>
			</g>
			<g clip-path="url(#SVGID_3_)">
				<g>
					<path fill="#F3F1EE" d="M273.2,309.4c0,3.2-0.2,6.3-0.5,9.4v-4H89.1v4c-0.3-3.1-0.5-6.3-0.5-9.4s0.2-6.3,0.5-9.4v4h183.6v-4
						C273,303,273.2,306.2,273.2,309.4z"/>
				</g>
			</g>
			<g clip-path="url(#SVGID_3_)">
				<g>
					<path fill="#F3F0ED" d="M272.8,309.4c0,3.2-0.2,6.3-0.5,9.4v-4H89.5v4c-0.3-3.1-0.5-6.2-0.5-9.4s0.2-6.3,0.5-9.4v4h182.8v-4
						C272.6,303.1,272.8,306.2,272.8,309.4z"/>
				</g>
			</g>
			<g clip-path="url(#SVGID_3_)">
				<g>
					<path fill="#F2EFEC" d="M272.3,309.4c0,3.2-0.2,6.3-0.5,9.3v-3.9H89.9v3.9c-0.3-3.1-0.5-6.2-0.5-9.3s0.2-6.3,0.5-9.3v3.9h181.9
						V300C272.2,303.1,272.3,306.2,272.3,309.4z"/>
				</g>
			</g>
			<g clip-path="url(#SVGID_3_)">
				<g>
					<path fill="#F1EEEB" d="M271.9,309.4c0,3.1-0.2,6.2-0.5,9.3v-3.9H90.3v3.9c-0.3-3.1-0.5-6.2-0.5-9.3s0.2-6.2,0.5-9.3v3.9h181.1
						v-3.9C271.8,303.1,271.9,306.2,271.9,309.4z"/>
				</g>
			</g>
			<g clip-path="url(#SVGID_3_)">
				<g>
					<path fill="#F1EDEA" d="M271.5,309.4c0,3.1-0.2,6.2-0.5,9.3v-3.8H90.8v3.8c-0.3-3-0.5-6.1-0.5-9.3s0.2-6.2,0.5-9.3v3.8H271
						v-3.8C271.3,303.2,271.5,306.3,271.5,309.4z"/>
				</g>
			</g>
			<g clip-path="url(#SVGID_3_)">
				<g>
					<path fill="#F0ECE9" d="M271.1,309.4c0,3.1-0.2,6.2-0.5,9.2v-3.8H91.2v3.8c-0.3-3-0.5-6.1-0.5-9.2s0.2-6.2,0.5-9.2v3.8h179.4
						v-3.8C270.9,303.2,271.1,306.3,271.1,309.4z"/>
				</g>
			</g>
			<g clip-path="url(#SVGID_3_)">
				<g>
					<path fill="#EFECE8" d="M270.7,309.4c0,3.1-0.2,6.2-0.5,9.2v-3.7H91.6v3.7c-0.3-3-0.5-6.1-0.5-9.2s0.2-6.2,0.5-9.2v3.7h178.6
						v-3.7C270.5,303.2,270.7,306.3,270.7,309.4z"/>
				</g>
			</g>
			<g clip-path="url(#SVGID_3_)">
				<g>
					<path fill="#EFEBE7" d="M270.2,309.4c0,3.1-0.2,6.1-0.5,9.1v-3.7H92v3.7c-0.3-3-0.5-6.1-0.5-9.1s0.2-6.1,0.5-9.1v3.7h177.8
						v-3.7C270.1,303.3,270.2,306.3,270.2,309.4z"/>
				</g>
			</g>
			<g clip-path="url(#SVGID_3_)">
				<g>
					<path fill="#EEEAE6" d="M269.8,309.4c0,3.1-0.2,6.1-0.5,9.1v-3.7H92.4v3.7c-0.3-3-0.5-6-0.5-9.1s0.2-6.1,0.5-9.1v3.7h176.9
						v-3.7C269.7,303.3,269.8,306.3,269.8,309.4z"/>
				</g>
			</g>
			<g clip-path="url(#SVGID_3_)">
				<g>
					<path fill="#EDE9E5" d="M269.4,309.4c0,3.1-0.2,6.1-0.5,9v-3.6H92.9v3.6c-0.3-3-0.5-6-0.5-9s0.2-6.1,0.5-9v3.6h176.1v-3.6
						C269.2,303.3,269.4,306.3,269.4,309.4z"/>
				</g>
			</g>
			<g clip-path="url(#SVGID_3_)">
				<g>
					<path fill="#EDE8E4" d="M269,309.4c0,3-0.2,6-0.5,9v-3.6H93.3v3.6c-0.3-3-0.5-6-0.5-9s0.2-6,0.5-9v3.6h175.2v-3.6
						C268.8,303.3,269,306.3,269,309.4z"/>
				</g>
			</g>
			<g clip-path="url(#SVGID_3_)">
				<g>
					<path fill="#ECE7E3" d="M268.5,309.4c0,3-0.2,6-0.5,9v-3.5H93.7v3.5c-0.3-2.9-0.5-5.9-0.5-9s0.2-6,0.5-9v3.5h174.4v-3.5
						C268.4,303.4,268.5,306.4,268.5,309.4z"/>
				</g>
			</g>
			<g clip-path="url(#SVGID_3_)">
				<g>
					<path fill="#EBE6E2" d="M268.1,309.4c0,3-0.2,6-0.5,8.9v-3.5H94.1v3.5c-0.3-2.9-0.5-5.9-0.5-8.9s0.2-6,0.5-8.9v3.5h173.6v-3.5
						C268,303.4,268.1,306.4,268.1,309.4z"/>
				</g>
			</g>
			<g clip-path="url(#SVGID_3_)">
				<g>
					<path fill="#EBE6E1" d="M267.7,309.4c0,3-0.2,6-0.4,8.9v-3.4H94.5v3.4c-0.3-2.9-0.4-5.9-0.4-8.9s0.2-6,0.4-8.9v3.4h172.7v-3.4
						C267.6,303.4,267.7,306.4,267.7,309.4z"/>
				</g>
			</g>
			<g clip-path="url(#SVGID_3_)">
				<g>
					<path fill="#EAE5E0" d="M267.3,309.4c0,3-0.2,5.9-0.4,8.8v-3.4H95v3.4c-0.3-2.9-0.4-5.9-0.4-8.8s0.2-5.9,0.4-8.8v3.4h171.9
						v-3.4C267.1,303.5,267.3,306.4,267.3,309.4z"/>
				</g>
			</g>
			<g clip-path="url(#SVGID_3_)">
				<g>
					<path fill="#E9E4DF" d="M266.9,309.4c0,3-0.2,5.9-0.4,8.8v-3.4h-171v3.4c-0.3-2.9-0.4-5.8-0.4-8.8s0.2-5.9,0.4-8.8v3.4h171
						v-3.4C266.7,303.5,266.9,306.4,266.9,309.4z"/>
				</g>
			</g>
			<g clip-path="url(#SVGID_3_)">
				<g>
					<path fill="#E9E3DE" d="M266.4,309.4c0,3-0.1,5.9-0.4,8.7v-3.3H95.8v3.3c-0.3-2.9-0.4-5.8-0.4-8.7s0.1-5.9,0.4-8.7v3.3H266
						v-3.3C266.3,303.5,266.4,306.4,266.4,309.4z"/>
				</g>
			</g>
			<g clip-path="url(#SVGID_3_)">
				<g>
					<path fill="#E8E2DD" d="M266,309.4c0,2.9-0.1,5.8-0.4,8.7v-3.3H96.2v3.3c-0.3-2.9-0.4-5.8-0.4-8.7s0.1-5.8,0.4-8.7v3.3h169.4
						v-3.3C265.9,303.5,266,306.4,266,309.4z"/>
				</g>
			</g>
			<g clip-path="url(#SVGID_3_)">
				<g>
					<path fill="#E7E1DC" d="M265.6,309.4c0,2.9-0.1,5.8-0.4,8.7v-3.2H96.6v3.2c-0.3-2.8-0.4-5.7-0.4-8.7s0.1-5.8,0.4-8.7v3.2h168.5
						v-3.2C265.5,303.6,265.6,306.5,265.6,309.4z"/>
				</g>
			</g>
			<g clip-path="url(#SVGID_3_)">
				<g>
					<path fill="#E7E1DB" d="M265.2,309.4c0,2.9-0.1,5.8-0.4,8.6v-3.2H97.1v3.2c-0.3-2.8-0.4-5.7-0.4-8.6c0-2.9,0.1-5.8,0.4-8.6v3.2
						h167.7v-3.2C265,303.6,265.2,306.5,265.2,309.4z"/>
				</g>
			</g>
			<g clip-path="url(#SVGID_3_)">
				<g>
					<path fill="#E6E0DA" d="M264.8,309.4c0,2.9-0.1,5.8-0.4,8.6v-3.1H97.5v3.1c-0.3-2.8-0.4-5.7-0.4-8.6s0.1-5.8,0.4-8.6v3.1h166.9
						v-3.1C264.6,303.6,264.8,306.5,264.8,309.4z"/>
				</g>
			</g>
			<g clip-path="url(#SVGID_3_)">
				<g>
					<path fill="#E5DFD9" d="M264.3,309.4c0,2.9-0.1,5.7-0.4,8.5v-3.1h-166v3.1c-0.3-2.8-0.4-5.7-0.4-8.5s0.1-5.7,0.4-8.5v3.1h166
						v-3.1C264.2,303.7,264.3,306.5,264.3,309.4z"/>
				</g>
			</g>
			<g clip-path="url(#SVGID_3_)">
				<g>
					<path fill="#E5DED8" d="M263.9,309.4c0,2.9-0.1,5.7-0.4,8.5v-3.1H98.3v3.1c-0.3-2.8-0.4-5.6-0.4-8.5s0.1-5.7,0.4-8.5v3.1h165.2
						v-3.1C263.8,303.7,263.9,306.5,263.9,309.4z"/>
				</g>
			</g>
			<g clip-path="url(#SVGID_3_)">
				<g>
					<path fill="#E4DDD7" d="M263.5,309.4c0,2.9-0.1,5.7-0.4,8.4v-3H98.7v3c-0.3-2.8-0.4-5.6-0.4-8.4s0.1-5.7,0.4-8.4v3h164.3v-3
						C263.3,303.7,263.5,306.5,263.5,309.4z"/>
				</g>
			</g>
			<g clip-path="url(#SVGID_3_)">
				<g>
					<path fill="#E3DCD6" d="M263.1,309.4c0,2.8-0.1,5.6-0.4,8.4v-3H99.1v3c-0.3-2.8-0.4-5.6-0.4-8.4s0.1-5.6,0.4-8.4v3h163.5v-3
						C262.9,303.7,263.1,306.5,263.1,309.4z"/>
				</g>
			</g>
			<g clip-path="url(#SVGID_3_)">
				<g>
					<path fill="#E3DBD5" d="M262.6,309.4c0,2.8-0.1,5.6-0.4,8.4v-2.9H99.6v2.9c-0.3-2.7-0.4-5.5-0.4-8.4s0.1-5.6,0.4-8.4v2.9h162.7
						V301C262.5,303.8,262.6,306.6,262.6,309.4z"/>
				</g>
			</g>
			<g clip-path="url(#SVGID_3_)">
				<g>
					<path fill="#E2DBD4" d="M262.2,309.4c0,2.8-0.1,5.6-0.4,8.3v-2.9H100v2.9c-0.3-2.7-0.4-5.5-0.4-8.3s0.1-5.6,0.4-8.3v2.9h161.8
						v-2.9C262.1,303.8,262.2,306.6,262.2,309.4z"/>
				</g>
			</g>
			<g clip-path="url(#SVGID_3_)">
				<g>
					<path fill="#E1DAD3" d="M261.8,309.4c0,2.8-0.1,5.6-0.4,8.3v-2.8h-161v2.8c-0.3-2.7-0.4-5.5-0.4-8.3s0.1-5.6,0.4-8.3v2.8h161
						v-2.8C261.7,303.8,261.8,306.6,261.8,309.4z"/>
				</g>
			</g>
			<g clip-path="url(#SVGID_3_)">
				<g>
					<path fill="#E1D9D2" d="M261.4,309.4c0,2.8-0.1,5.5-0.4,8.2v-2.8H100.8v2.8c-0.3-2.7-0.4-5.5-0.4-8.2s0.1-5.5,0.4-8.2v2.8H261
						v-2.8C261.2,303.9,261.4,306.6,261.4,309.4z"/>
				</g>
			</g>
			<g clip-path="url(#SVGID_3_)">
				<g>
					<path fill="#E0D8D1" d="M261,309.4c0,2.8-0.1,5.5-0.4,8.2v-2.8H101.2v2.8c-0.3-2.7-0.4-5.4-0.4-8.2s0.1-5.5,0.4-8.2v2.8h159.3
						v-2.8C260.8,303.9,261,306.6,261,309.4z"/>
				</g>
			</g>
			<g clip-path="url(#SVGID_3_)">
				<g>
					<path fill="#DFD7D0" d="M260.5,309.4c0,2.7-0.1,5.5-0.4,8.1v-2.7H101.7v2.7c-0.3-2.7-0.4-5.4-0.4-8.1c0-2.7,0.1-5.5,0.4-8.1
						v2.7h158.5v-2.7C260.4,303.9,260.5,306.6,260.5,309.4z"/>
				</g>
			</g>
			<g clip-path="url(#SVGID_3_)">
				<g>
					<path fill="#DFD6CF" d="M260.1,309.4c0,2.7-0.1,5.4-0.4,8.1v-2.7H102.1v2.7c-0.3-2.7-0.4-5.4-0.4-8.1s0.1-5.4,0.4-8.1v2.7
						h157.6v-2.7C260,303.9,260.1,306.6,260.1,309.4z"/>
				</g>
			</g>
			<g clip-path="url(#SVGID_3_)">
				<g>
					<path fill="#DED6CE" d="M259.7,309.4c0,2.7-0.1,5.4-0.4,8.1v-2.6H102.5v2.6c-0.3-2.6-0.4-5.3-0.4-8.1s0.1-5.4,0.4-8.1v2.6
						h156.8v-2.6C259.6,304,259.7,306.7,259.7,309.4z"/>
				</g>
			</g>
			<g clip-path="url(#SVGID_3_)">
				<g>
					<path fill="#DDD5CD" d="M259.3,309.4c0,2.7-0.1,5.4-0.4,8v-2.6h-156v2.6c-0.3-2.6-0.4-5.3-0.4-8s0.1-5.4,0.4-8v2.6h156v-2.6
						C259.1,304,259.3,306.7,259.3,309.4z"/>
				</g>
			</g>
			<g clip-path="url(#SVGID_3_)">
				<g>
					<path fill="#DCD4CC" d="M258.9,309.4c0,2.7-0.1,5.4-0.4,8v-2.5H103.3v2.5c-0.3-2.6-0.4-5.3-0.4-8s0.1-5.4,0.4-8v2.5h155.1v-2.5
						C258.7,304,258.9,306.7,258.9,309.4z"/>
				</g>
			</g>
			<g clip-path="url(#SVGID_3_)">
				<g>
					<path fill="#DCD3CB" d="M258.4,309.4c0,2.7-0.1,5.3-0.4,7.9v-2.5H103.8v2.5c-0.3-2.6-0.4-5.3-0.4-7.9s0.1-5.3,0.4-7.9v2.5H258
						v-2.5C258.3,304.1,258.4,306.7,258.4,309.4z"/>
				</g>
			</g>
			<g clip-path="url(#SVGID_3_)">
				<g>
					<path fill="#DBD2CA" d="M258,309.4c0,2.7-0.1,5.3-0.4,7.9v-2.5H104.2v2.5c-0.3-2.6-0.4-5.2-0.4-7.9s0.1-5.3,0.4-7.9v2.5h153.4
						v-2.5C257.9,304.1,258,306.7,258,309.4z"/>
				</g>
			</g>
			<g clip-path="url(#SVGID_3_)">
				<g>
					<path fill="#DAD1C9" d="M257.6,309.4c0,2.6-0.1,5.3-0.4,7.8v-2.4H104.6v2.4c-0.3-2.6-0.4-5.2-0.4-7.8s0.1-5.3,0.4-7.8v2.4
						h152.6v-2.4C257.5,304.1,257.6,306.7,257.6,309.4z"/>
				</g>
			</g>
			<g clip-path="url(#SVGID_3_)">
				<g>
					<path fill="#DAD0C8" d="M257.2,309.4c0,2.6-0.1,5.2-0.4,7.8v-2.4H105v2.4c-0.3-2.6-0.4-5.2-0.4-7.8s0.1-5.2,0.4-7.8v2.4h151.8
						v-2.4C257,304.1,257.2,306.8,257.2,309.4z"/>
				</g>
			</g>
			<g clip-path="url(#SVGID_3_)">
				<g>
					<path fill="#D9D0C7" d="M256.7,309.4c0,2.6-0.1,5.2-0.4,7.8v-2.3H105.4v2.3c-0.3-2.5-0.4-5.1-0.4-7.8s0.1-5.2,0.4-7.8v2.3
						h150.9v-2.3C256.6,304.2,256.7,306.8,256.7,309.4z"/>
				</g>
			</g>
			<g clip-path="url(#SVGID_3_)">
				<g>
					<path fill="#D8CFC6" d="M256.3,309.4c0,2.6-0.1,5.2-0.4,7.7v-2.3H105.9v2.3c-0.3-2.5-0.4-5.1-0.4-7.7s0.1-5.2,0.4-7.7v2.3
						h150.1v-2.3C256.2,304.2,256.3,306.8,256.3,309.4z"/>
				</g>
			</g>
			<g clip-path="url(#SVGID_3_)">
				<g>
					<path fill="#D8CEC5" d="M255.9,309.4c0,2.6-0.1,5.1-0.4,7.7v-2.2H106.3v2.2c-0.3-2.5-0.4-5.1-0.4-7.7c0-2.6,0.1-5.1,0.4-7.7
						v2.2h149.2v-2.2C255.8,304.2,255.9,306.8,255.9,309.4z"/>
				</g>
			</g>
			<g clip-path="url(#SVGID_3_)">
				<g>
					<path fill="#D7CDC4" d="M255.5,309.4c0,2.6-0.1,5.1-0.4,7.6v-2.2H106.7v2.2c-0.3-2.5-0.4-5.1-0.4-7.6s0.1-5.1,0.4-7.6v2.2
						h148.4v-2.2C255.4,304.3,255.5,306.8,255.5,309.4z"/>
				</g>
			</g>
			<g clip-path="url(#SVGID_3_)">
				<g>
					<path fill="#D6CCC3" d="M255.1,309.4c0,2.6-0.1,5.1-0.4,7.6v-2.1H107.1v2.1c-0.3-2.5-0.4-5-0.4-7.6s0.1-5.1,0.4-7.6v2.1h147.6
						v-2.1C254.9,304.3,255.1,306.8,255.1,309.4z"/>
				</g>
			</g>
			<g clip-path="url(#SVGID_3_)">
				<g>
					<path fill="#D6CBC2" d="M254.6,309.4c0,2.5-0.1,5.1-0.4,7.5v-2.1H107.5v2.1c-0.3-2.5-0.4-5-0.4-7.5s0.1-5.1,0.4-7.5v2.1h146.7
						v-2.1C254.5,304.3,254.6,306.8,254.6,309.4z"/>
				</g>
			</g>
			<g clip-path="url(#SVGID_3_)">
				<g>
					<path fill="#D5CAC1" d="M254.2,309.4c0,2.5-0.1,5-0.4,7.5v-2.1H108v2.1c-0.3-2.5-0.4-5-0.4-7.5s0.1-5,0.4-7.5v2.1h145.9v-2.1
						C254.1,304.4,254.2,306.9,254.2,309.4z"/>
				</g>
			</g>
			<g clip-path="url(#SVGID_3_)">
				<g>
					<path fill="#D4CAC0" d="M253.8,309.4c0,2.5-0.1,5-0.4,7.5v-2H108.4v2c-0.2-2.5-0.4-4.9-0.4-7.5s0.1-5,0.4-7.5v2h145.1v-2
						C253.7,304.4,253.8,306.9,253.8,309.4z"/>
				</g>
			</g>
			<g clip-path="url(#SVGID_3_)">
				<g>
					<path fill="#D4C9BF" d="M253.4,309.4c0,2.5-0.1,5-0.4,7.4v-2H108.8v2c-0.2-2.4-0.4-4.9-0.4-7.4s0.1-5,0.4-7.4v2H253v-2
						C253.3,304.4,253.4,306.9,253.4,309.4z"/>
				</g>
			</g>
			<g clip-path="url(#SVGID_3_)">
				<g>
					<path fill="#D3C8BE" d="M253,309.4c0,2.5-0.1,4.9-0.4,7.4v-1.9H109.2v1.9c-0.2-2.4-0.4-4.9-0.4-7.4s0.1-4.9,0.4-7.4v1.9h143.4
						V302C252.8,304.4,253,306.9,253,309.4z"/>
				</g>
			</g>
			<g clip-path="url(#SVGID_3_)">
				<g>
					<path fill="#D2C7BD" d="M252.5,309.4c0,2.5-0.1,4.9-0.4,7.3v-1.9H109.6v1.9c-0.2-2.4-0.4-4.9-0.4-7.3s0.1-4.9,0.4-7.3v1.9
						h142.5v-1.9C252.4,304.5,252.5,306.9,252.5,309.4z"/>
				</g>
			</g>
			<g clip-path="url(#SVGID_3_)">
				<g>
					<path fill="#D2C6BC" d="M252.1,309.4c0,2.5-0.1,4.9-0.4,7.3v-1.8H110v1.8c-0.2-2.4-0.4-4.8-0.4-7.3s0.1-4.9,0.4-7.3v1.8h141.7
						v-1.8C252,304.5,252.1,306.9,252.1,309.4z"/>
				</g>
			</g>
			<g clip-path="url(#SVGID_3_)">
				<g>
					<path fill="#D1C5BB" d="M251.7,309.4c0,2.4-0.1,4.9-0.4,7.2v-1.8H110.5v1.8c-0.2-2.4-0.4-4.8-0.4-7.2s0.1-4.9,0.4-7.2v1.8
						h140.9v-1.8C251.6,304.5,251.7,306.9,251.7,309.4z"/>
				</g>
			</g>
			<g clip-path="url(#SVGID_3_)">
				<g>
					<path fill="#D0C5BA" d="M251.3,309.4c0,2.4-0.1,4.8-0.4,7.2v-1.8h-140v1.8c-0.2-2.4-0.4-4.8-0.4-7.2c0-2.4,0.1-4.8,0.4-7.2v1.8
						h140v-1.8C251.1,304.6,251.3,307,251.3,309.4z"/>
				</g>
			</g>
			<g clip-path="url(#SVGID_3_)">
				<g>
					<path fill="#D0C4B9" d="M250.8,309.4c0,2.4-0.1,4.8-0.4,7.2v-1.7H111.3v1.7c-0.2-2.4-0.4-4.7-0.4-7.2s0.1-4.8,0.4-7.2v1.7
						h139.2v-1.7C250.7,304.6,250.8,307,250.8,309.4z"/>
				</g>
			</g>
			<g clip-path="url(#SVGID_3_)">
				<g>
					<path fill="#CFC3B8" d="M250.4,309.4c0,2.4-0.1,4.8-0.4,7.1v-1.7H111.7v1.7c-0.2-2.3-0.4-4.7-0.4-7.1s0.1-4.8,0.4-7.1v1.7
						h138.3v-1.7C250.3,304.6,250.4,307,250.4,309.4z"/>
				</g>
			</g>
			<g clip-path="url(#SVGID_3_)">
				<g>
					<path fill="#CEC2B7" d="M250,309.4c0,2.4-0.1,4.7-0.4,7.1v-1.6H112.1v1.6c-0.2-2.3-0.4-4.7-0.4-7.1s0.1-4.7,0.4-7.1v1.6h137.5
						v-1.6C249.9,304.6,250,307,250,309.4z"/>
				</g>
			</g>
			<g clip-path="url(#SVGID_3_)">
				<g>
					<path fill="#CEC1B6" d="M249.6,309.4c0,2.4-0.1,4.7-0.4,7v-1.6H112.6v1.6c-0.2-2.3-0.4-4.7-0.4-7s0.1-4.7,0.4-7v1.6h136.7v-1.6
						C249.5,304.7,249.6,307,249.6,309.4z"/>
				</g>
			</g>
			<g clip-path="url(#SVGID_3_)">
				<g>
					<path fill="#CDC0B5" d="M249.2,309.4c0,2.4-0.1,4.7-0.4,7v-1.5H113v1.5c-0.2-2.3-0.4-4.6-0.4-7s0.1-4.7,0.4-7v1.5h135.8v-1.5
						C249,304.7,249.2,307,249.2,309.4z"/>
				</g>
			</g>
			<g clip-path="url(#SVGID_3_)">
				<g>
					<path fill="#CCBFB4" d="M248.7,309.4c0,2.3-0.1,4.7-0.4,6.9v-1.5h-135v1.5c-0.2-2.3-0.4-4.6-0.4-6.9s0.1-4.7,0.4-6.9v1.5h135
						v-1.5C248.6,304.7,248.7,307,248.7,309.4z"/>
				</g>
			</g>
			<g clip-path="url(#SVGID_3_)">
				<g>
					<path fill="#CCBFB3" d="M248.3,309.4c0,2.3-0.1,4.6-0.3,6.9v-1.5H113.8v1.5c-0.2-2.3-0.3-4.6-0.3-6.9s0.1-4.6,0.3-6.9v1.5H248
						v-1.5C248.2,304.8,248.3,307.1,248.3,309.4z"/>
				</g>
			</g>
			<g clip-path="url(#SVGID_3_)">
				<g>
					<path fill="#CBBEB2" d="M247.9,309.4c0,2.3-0.1,4.6-0.3,6.9v-1.4H114.2v1.4c-0.2-2.3-0.3-4.5-0.3-6.9s0.1-4.6,0.3-6.9v1.4
						h133.3v-1.4C247.8,304.8,247.9,307.1,247.9,309.4z"/>
				</g>
			</g>
			<g clip-path="url(#SVGID_3_)">
				<g>
					<path fill="#CABDB1" d="M247.5,309.4c0,2.3-0.1,4.6-0.3,6.8v-1.4H114.7v1.4c-0.2-2.2-0.3-4.5-0.3-6.8s0.1-4.6,0.3-6.8v1.4
						h132.5v-1.4C247.4,304.8,247.5,307.1,247.5,309.4z"/>
				</g>
			</g>
			<g clip-path="url(#SVGID_3_)">
				<g>
					<path fill="#CABCB0" d="M247.1,309.4c0,2.3-0.1,4.5-0.3,6.8v-1.3H115.1v1.3c-0.2-2.2-0.3-4.5-0.3-6.8s0.1-4.5,0.3-6.8v1.3
						h131.6v-1.3C246.9,304.8,247.1,307.1,247.1,309.4z"/>
				</g>
			</g>
			<g clip-path="url(#SVGID_3_)">
				<g>
					<path fill="#C9BBAF" d="M246.6,309.4c0,2.3-0.1,4.5-0.3,6.7v-1.3H115.5v1.3c-0.2-2.2-0.3-4.5-0.3-6.7s0.1-4.5,0.3-6.7v1.3
						h130.8v-1.3C246.5,304.9,246.6,307.1,246.6,309.4z"/>
				</g>
			</g>
			<g clip-path="url(#SVGID_3_)">
				<g>
					<path fill="#C8BAAE" d="M246.2,309.4c0,2.3-0.1,4.5-0.3,6.7v-1.2h-130v1.2c-0.2-2.2-0.3-4.4-0.3-6.7s0.1-4.5,0.3-6.7v1.2h130
						v-1.2C246.1,304.9,246.2,307.1,246.2,309.4z"/>
				</g>
			</g>
			<g clip-path="url(#SVGID_3_)">
				<g>
					<path fill="#C8BAAD" d="M245.8,309.4c0,2.2-0.1,4.5-0.3,6.6v-1.2H116.3v1.2c-0.2-2.2-0.3-4.4-0.3-6.6s0.1-4.5,0.3-6.6v1.2
						h129.1v-1.2C245.7,304.9,245.8,307.1,245.8,309.4z"/>
				</g>
			</g>
			<g clip-path="url(#SVGID_3_)">
				<g>
					<path fill="#C7B9AC" d="M245.4,309.4c0,2.2-0.1,4.4-0.3,6.6v-1.2H116.8v1.2c-0.2-2.2-0.3-4.4-0.3-6.6s0.1-4.4,0.3-6.6v1.2H245
						v-1.2C245.3,305,245.4,307.2,245.4,309.4z"/>
				</g>
			</g>
			<g clip-path="url(#SVGID_3_)">
				<g>
					<path fill="#C6B8AB" d="M245,309.4c0,2.2-0.1,4.4-0.3,6.5v-1.1H117.2v1.1c-0.2-2.2-0.3-4.3-0.3-6.5s0.1-4.4,0.3-6.5v1.1h127.4
						v-1.1C244.8,305,245,307.2,245,309.4z"/>
				</g>
			</g>
			<g clip-path="url(#SVGID_3_)">
				<g>
					<path fill="#C5B7AA" d="M244.5,309.4c0,2.2-0.1,4.4-0.3,6.5v-1.1H117.6v1.1c-0.2-2.1-0.3-4.3-0.3-6.5s0.1-4.4,0.3-6.5v1.1
						h126.6v-1.1C244.4,305,244.5,307.2,244.5,309.4z"/>
				</g>
			</g>
			<g clip-path="url(#SVGID_3_)">
				<g>
					<path fill="#C5B6A9" d="M244.1,309.4c0,2.2-0.1,4.3-0.3,6.5v-1H118v1c-0.2-2.1-0.3-4.3-0.3-6.5s0.1-4.3,0.3-6.5v1h125.8v-1
						C244,305,244.1,307.2,244.1,309.4z"/>
				</g>
			</g>
			<g clip-path="url(#SVGID_3_)">
				<g>
					<path fill="#C4B5A8" d="M243.7,309.4c0,2.2-0.1,4.3-0.3,6.4v-1H118.4v1c-0.2-2.1-0.3-4.3-0.3-6.4s0.1-4.3,0.3-6.4v1h124.9v-1
						C243.6,305.1,243.7,307.2,243.7,309.4z"/>
				</g>
			</g>
			<g clip-path="url(#SVGID_3_)">
				<g>
					<path fill="#C3B4A7" d="M243.3,309.4c0,2.2-0.1,4.3-0.3,6.4v-0.9H118.9v0.9c-0.2-2.1-0.3-4.2-0.3-6.4s0.1-4.3,0.3-6.4v0.9
						h124.1V303C243.2,305.1,243.3,307.2,243.3,309.4z"/>
				</g>
			</g>
			<g clip-path="url(#SVGID_3_)">
				<g>
					<path fill="#C3B4A6" d="M242.8,309.4c0,2.1-0.1,4.3-0.3,6.3v-0.9H119.3v0.9c-0.2-2.1-0.3-4.2-0.3-6.3s0.1-4.3,0.3-6.3v0.9
						h123.3V303C242.7,305.1,242.8,307.2,242.8,309.4z"/>
				</g>
			</g>
			<g clip-path="url(#SVGID_3_)">
				<g>
					<path fill="#C2B3A5" d="M242.4,309.4c0,4.2-0.4,8.4-1.2,12.4v-7H120.6v7c-0.8-4-1.2-8.2-1.2-12.4s0.4-8.4,1.2-12.4v7h120.5v-7
						C242,301,242.4,305.1,242.4,309.4z"/>
				</g>
			</g>
			<g clip-path="url(#SVGID_3_)">
				<g>
					<path fill="#C1B2A4" d="M242,309.4c0,4.2-0.4,8.3-1.2,12.3v-6.9H121v6.9c-0.8-4-1.2-8.1-1.2-12.3s0.4-8.3,1.2-12.3v6.9h119.7
						v-6.9C241.6,301,242,305.2,242,309.4z"/>
				</g>
			</g>
			<g clip-path="url(#SVGID_3_)">
				<g>
					<path fill="#C1B1A3" d="M241.6,309.4c0,4.2-0.4,8.3-1.2,12.2v-6.8H121.4v6.8c-0.8-4-1.2-8-1.2-12.2s0.4-8.3,1.2-12.2v6.8h118.9
						v-6.8C241.2,301.1,241.6,305.2,241.6,309.4z"/>
				</g>
			</g>
			<g clip-path="url(#SVGID_3_)">
				<g>
					<path fill="#C0B0A2" d="M241.2,309.4c0,4.2-0.4,8.2-1.2,12.1v-6.7H121.9v6.7c-0.8-3.9-1.2-8-1.2-12.1s0.4-8.2,1.2-12.1v6.7
						h118.1v-6.7C240.7,301.2,241.2,305.2,241.2,309.4z"/>
				</g>
			</g>
			<g clip-path="url(#SVGID_3_)">
				<g>
					<path fill="#BFAFA1" d="M240.7,309.4c0,4.1-0.4,8.2-1.2,12.1v-6.6H122.3v6.6c-0.8-3.9-1.2-7.9-1.2-12.1s0.4-8.2,1.2-12.1v6.6
						h117.2v-6.6C240.3,301.2,240.7,305.3,240.7,309.4z"/>
				</g>
			</g>
			<g clip-path="url(#SVGID_3_)">
				<g>
					<path fill="#BFAFA0" d="M240.3,309.4c0,4.1-0.4,8.1-1.2,12v-6.5H122.7v6.5c-0.8-3.9-1.2-7.9-1.2-12s0.4-8.1,1.2-12v6.5h116.4
						v-6.5C239.9,301.3,240.3,305.3,240.3,309.4z"/>
				</g>
			</g>
			<g clip-path="url(#SVGID_3_)">
				<g>
					<path fill="#BEAE9F" d="M239.9,309.4c0,4.1-0.4,8-1.2,11.9v-6.5H123.1v6.5c-0.8-3.8-1.2-7.8-1.2-11.9c0-4.1,0.4-8,1.2-11.9v6.5
						h115.6v-6.5C239.5,301.3,239.9,305.3,239.9,309.4z"/>
				</g>
			</g>
			<g clip-path="url(#SVGID_3_)">
				<g>
					<path fill="#BDAD9E" d="M239.5,309.4c0,4-0.4,8-1.2,11.8v-6.4H123.5v6.4c-0.8-3.8-1.2-7.8-1.2-11.8s0.4-8,1.2-11.8v6.4h114.8
						v-6.4C239.1,301.4,239.5,305.3,239.5,309.4z"/>
				</g>
			</g>
			<g clip-path="url(#SVGID_3_)">
				<g>
					<path fill="#BDAC9D" d="M239.1,309.4c0,4-0.4,7.9-1.2,11.7v-6.3H123.9v6.3c-0.8-3.8-1.2-7.7-1.2-11.7s0.4-7.9,1.2-11.7v6.3
						h113.9v-6.3C238.6,301.4,239.1,305.4,239.1,309.4z"/>
				</g>
			</g>
			<g clip-path="url(#SVGID_3_)">
				<g>
					<path fill="#BCAB9C" d="M238.6,309.4c0,4-0.4,7.9-1.2,11.6v-6.2H124.3v6.2c-0.8-3.8-1.2-7.6-1.2-11.6s0.4-7.9,1.2-11.6v6.2
						h113.1v-6.2C238.2,301.5,238.6,305.4,238.6,309.4z"/>
				</g>
			</g>
			<g clip-path="url(#SVGID_3_)">
				<g>
					<path fill="#BBAA9B" d="M238.2,309.4c0,4-0.4,7.8-1.2,11.6v-6.1H124.8v6.1c-0.8-3.7-1.2-7.6-1.2-11.6s0.4-7.8,1.2-11.6v6.1H237
						v-6.1C237.8,301.6,238.2,305.4,238.2,309.4z"/>
				</g>
			</g>
			<g clip-path="url(#SVGID_3_)">
				<g>
					<path fill="#BBA99A" d="M237.8,309.4c0,3.9-0.4,7.8-1.2,11.5v-6H125.2v6c-0.8-3.7-1.2-7.5-1.2-11.5s0.4-7.8,1.2-11.5v6h111.5
						v-6C237.4,301.6,237.8,305.5,237.8,309.4z"/>
				</g>
			</g>
			<g clip-path="url(#SVGID_3_)">
				<g>
					<path fill="#BAA999" d="M237.4,309.4c0,3.9-0.4,7.7-1.1,11.4v-5.9H125.6v5.9c-0.8-3.7-1.1-7.5-1.1-11.4s0.4-7.7,1.1-11.4v5.9
						h110.6V298C237,301.7,237.4,305.5,237.4,309.4z"/>
				</g>
			</g>
			<g clip-path="url(#SVGID_3_)">
				<g>
					<path fill="#B9A898" d="M236.9,309.4c0,3.9-0.4,7.6-1.1,11.3v-5.9H126v5.9c-0.7-3.6-1.1-7.4-1.1-11.3s0.4-7.6,1.1-11.3v5.9
						h109.8v-5.9C236.6,301.7,236.9,305.5,236.9,309.4z"/>
				</g>
			</g>
			<g clip-path="url(#SVGID_3_)">
				<g>
					<path fill="#B9A797" d="M236.5,309.4c0,3.8-0.4,7.6-1.1,11.2v-5.8h-109v5.8c-0.7-3.6-1.1-7.4-1.1-11.2s0.4-7.6,1.1-11.2v5.8
						h109v-5.8C236.1,301.8,236.5,305.5,236.5,309.4z"/>
				</g>
			</g>
			<g clip-path="url(#SVGID_3_)">
				<g>
					<path fill="#B8A696" d="M236.1,309.4c0,3.8-0.4,7.5-1.1,11.1v-5.7H126.8v5.7c-0.7-3.6-1.1-7.3-1.1-11.1s0.4-7.5,1.1-11.1v5.7
						H235v-5.7C235.7,301.9,236.1,305.6,236.1,309.4z"/>
				</g>
			</g>
			<g clip-path="url(#SVGID_3_)">
				<g>
					<path fill="#B7A595" d="M235.7,309.4c0,3.8-0.4,7.5-1.1,11v-5.6H127.2v5.6c-0.7-3.6-1.1-7.3-1.1-11s0.4-7.5,1.1-11v5.6h107.3
						v-5.6C235.3,301.9,235.7,305.6,235.7,309.4z"/>
				</g>
			</g>
			<g clip-path="url(#SVGID_3_)">
				<g>
					<path fill="#B7A494" d="M235.3,309.4c0,3.8-0.4,7.4-1.1,11v-5.5H127.6v5.5c-0.7-3.5-1.1-7.2-1.1-11c0-3.8,0.4-7.4,1.1-11v5.5
						h106.5v-5.5C234.9,302,235.3,305.6,235.3,309.4z"/>
				</g>
			</g>
			<g clip-path="url(#SVGID_3_)">
				<g>
					<path fill="#B6A493" d="M234.8,309.4c0,3.7-0.4,7.4-1.1,10.9v-5.4H128.1v5.4c-0.7-3.5-1.1-7.1-1.1-10.9s0.4-7.4,1.1-10.9v5.4
						h105.7v-5.4C234.5,302,234.8,305.7,234.8,309.4z"/>
				</g>
			</g>
			<g clip-path="url(#SVGID_3_)">
				<g>
					<path fill="#B5A392" d="M234.4,309.4c0,3.7-0.4,7.3-1.1,10.8v-5.4H128.5v5.4c-0.7-3.5-1.1-7.1-1.1-10.8s0.4-7.3,1.1-10.8v5.4
						h104.9v-5.4C234,302.1,234.4,305.7,234.4,309.4z"/>
				</g>
			</g>
			<g clip-path="url(#SVGID_3_)">
				<g>
					<path fill="#B5A291" d="M234,309.4c0,3.7-0.4,7.2-1.1,10.7v-5.3h-104v5.3c-0.7-3.5-1.1-7-1.1-10.7s0.4-7.2,1.1-10.7v5.3h104
						v-5.3C233.6,302.1,234,305.7,234,309.4z"/>
				</g>
			</g>
			<g clip-path="url(#SVGID_3_)">
				<g>
					<path fill="#B4A190" d="M233.6,309.4c0,3.6-0.4,7.2-1.1,10.6v-5.2H129.3v5.2c-0.7-3.4-1.1-7-1.1-10.6s0.4-7.2,1.1-10.6v5.2
						h103.2v-5.2C233.2,302.2,233.6,305.7,233.6,309.4z"/>
				</g>
			</g>
			<g clip-path="url(#SVGID_3_)">
				<g>
					<path fill="#B3A08F" d="M233.2,309.4c0,3.6-0.4,7.1-1.1,10.5v-5.1H129.7v5.1c-0.7-3.4-1.1-6.9-1.1-10.5s0.4-7.1,1.1-10.5v5.1
						h102.4v-5.1C232.8,302.3,233.2,305.8,233.2,309.4z"/>
				</g>
			</g>
			<g clip-path="url(#SVGID_3_)">
				<g>
					<path fill="#B39F8E" d="M232.7,309.4c0,3.6-0.4,7.1-1.1,10.4v-5H130.1v5c-0.7-3.4-1.1-6.9-1.1-10.4s0.4-7.1,1.1-10.4v5h101.6
						v-5C232.4,302.3,232.7,305.8,232.7,309.4z"/>
				</g>
			</g>
			<g clip-path="url(#SVGID_3_)">
				<g>
					<path fill="#B29E8D" d="M232.3,309.4c0,3.5-0.4,7-1,10.4v-4.9H130.5v4.9c-0.7-3.3-1-6.8-1-10.4s0.4-7,1-10.4v4.9h100.7V299
						C231.9,302.4,232.3,305.8,232.3,309.4z"/>
				</g>
			</g>
			<g clip-path="url(#SVGID_3_)">
				<g>
					<path fill="#B19E8C" d="M231.9,309.4c0,3.5-0.4,7-1,10.3v-4.8h-99.9v4.8c-0.7-3.3-1-6.8-1-10.3s0.4-7,1-10.3v4.8h99.9v-4.8
						C231.5,302.4,231.9,305.9,231.9,309.4z"/>
				</g>
			</g>
			<g clip-path="url(#SVGID_3_)">
				<g>
					<path fill="#B19D8B" d="M231.5,309.4c0,3.5-0.4,6.9-1,10.2v-4.8h-99.1v4.8c-0.7-3.3-1-6.7-1-10.2s0.4-6.9,1-10.2v4.8h99.1v-4.8
						C231.1,302.5,231.5,305.9,231.5,309.4z"/>
				</g>
			</g>
			<g clip-path="url(#SVGID_3_)">
				<g>
					<path fill="#B09C8A" d="M231,309.4c0,3.5-0.4,6.8-1,10.1v-4.7h-98.3v4.7c-0.7-3.3-1-6.6-1-10.1s0.4-6.8,1-10.1v4.7H230v-4.7
						C230.7,302.5,231,305.9,231,309.4z"/>
				</g>
			</g>
			<g clip-path="url(#SVGID_3_)">
				<g>
					<path fill="#AF9B88" d="M230.6,309.4c0,3.4-0.3,6.8-1,10v-4.6h-97.4v4.6c-0.7-3.2-1-6.6-1-10c0-3.4,0.3-6.8,1-10v4.6h97.4v-4.6
						C230.3,302.6,230.6,306,230.6,309.4z"/>
				</g>
			</g>
			<g clip-path="url(#SVGID_3_)">
				<g>
					<path fill="#AE9A87" d="M230.2,309.4c0,3.4-0.3,6.7-1,9.9v-4.5h-96.6v4.5c-0.7-3.2-1-6.5-1-9.9s0.3-6.7,1-9.9v4.5h96.6v-4.5
						C229.9,302.7,230.2,306,230.2,309.4z"/>
				</g>
			</g>
			<g clip-path="url(#SVGID_3_)">
				<g>
					<path fill="#AE9986" d="M229.8,309.4c0,3.4-0.3,6.7-1,9.9v-4.4H133v4.4c-0.7-3.2-1-6.5-1-9.9s0.3-6.7,1-9.9v4.4h95.8v-4.4
						C229.4,302.7,229.8,306,229.8,309.4z"/>
				</g>
			</g>
			<g clip-path="url(#SVGID_3_)">
				<g>
					<path fill="#AD9985" d="M229.4,309.4c0,3.3-0.3,6.6-1,9.8v-4.3h-95v4.3c-0.6-3.2-1-6.4-1-9.8s0.3-6.6,1-9.8v4.3h95v-4.3
						C229,302.8,229.4,306,229.4,309.4z"/>
				</g>
			</g>
			<g clip-path="url(#SVGID_3_)">
				<g>
					<path fill="#AC9884" d="M228.9,309.4c0,3.3-0.3,6.6-1,9.7v-4.2h-94.1v4.2c-0.6-3.1-1-6.4-1-9.7s0.3-6.6,1-9.7v4.2H228v-4.2
						C228.6,302.8,228.9,306.1,228.9,309.4z"/>
				</g>
			</g>
			<g clip-path="url(#SVGID_3_)">
				<g>
					<path fill="#AC9783" d="M228.5,309.4c0,3.3-0.3,6.5-1,9.6v-4.2h-93.3v4.2c-0.6-3.1-1-6.3-1-9.6s0.3-6.5,1-9.6v4.2h93.3v-4.2
						C228.2,302.9,228.5,306.1,228.5,309.4z"/>
				</g>
			</g>
			<g clip-path="url(#SVGID_3_)">
				<g>
					<path fill="#AB9682" d="M228.1,309.4c0,3.3-0.3,6.4-1,9.5v-4.1h-92.5v4.1c-0.6-3.1-1-6.3-1-9.5s0.3-6.4,1-9.5v4.1h92.5v-4.1
						C227.8,302.9,228.1,306.1,228.1,309.4z"/>
				</g>
			</g>
			<g clip-path="url(#SVGID_3_)">
				<g>
					<path fill="#AA9581" d="M227.7,309.4c0,3.2-0.3,6.4-1,9.4v-4h-91.7v4c-0.6-3-1-6.2-1-9.4s0.3-6.4,1-9.4v4h91.7v-4
						C227.3,303,227.7,306.2,227.7,309.4z"/>
				</g>
			</g>
			<g clip-path="url(#SVGID_3_)">
				<g>
					<path fill="#AA9480" d="M227.3,309.4c0,3.2-0.3,6.3-0.9,9.3v-3.9h-90.8v3.9c-0.6-3-0.9-6.1-0.9-9.3s0.3-6.3,0.9-9.3v3.9h90.8
						V300C226.9,303.1,227.3,306.2,227.3,309.4z"/>
				</g>
			</g>
			<g clip-path="url(#SVGID_3_)">
				<g>
					<path fill="#A9937F" d="M226.8,309.4c0,3.2-0.3,6.3-0.9,9.3v-3.8h-90v3.8c-0.6-3-0.9-6.1-0.9-9.3s0.3-6.3,0.9-9.3v3.8h90v-3.8
						C226.5,303.1,226.8,306.2,226.8,309.4z"/>
				</g>
			</g>
			<g clip-path="url(#SVGID_3_)">
				<g>
					<path fill="#A8937E" d="M226.4,309.4c0,3.1-0.3,6.2-0.9,9.2v-3.7h-89.2v3.7c-0.6-3-0.9-6-0.9-9.2s0.3-6.2,0.9-9.2v3.7h89.2
						v-3.7C226.1,303.2,226.4,306.2,226.4,309.4z"/>
				</g>
			</g>
			<g clip-path="url(#SVGID_3_)">
				<g>
					<path fill="#A8927D" d="M226,309.4c0,3.1-0.3,6.2-0.9,9.1v-3.7h-88.3v3.7c-0.6-2.9-0.9-6-0.9-9.1s0.3-6.2,0.9-9.1v3.7h88.3
						v-3.7C225.7,303.2,226,306.3,226,309.4z"/>
				</g>
			</g>
			<g clip-path="url(#SVGID_3_)">
				<g>
					<path fill="#A7917C" d="M225.6,309.4c0,3.1-0.3,6.1-0.9,9v-3.6h-87.5v3.6c-0.6-2.9-0.9-5.9-0.9-9s0.3-6.1,0.9-9v3.6h87.5v-3.6
						C225.3,303.3,225.6,306.3,225.6,309.4z"/>
				</g>
			</g>
			<g clip-path="url(#SVGID_3_)">
				<g>
					<path fill="#A6907B" d="M225.1,309.4c0,3.1-0.3,6-0.9,8.9v-3.5h-86.7v3.5c-0.6-2.9-0.9-5.9-0.9-8.9s0.3-6,0.9-8.9v3.5h86.7
						v-3.5C224.8,303.3,225.1,306.3,225.1,309.4z"/>
				</g>
			</g>
			<g clip-path="url(#SVGID_3_)">
				<g>
					<path fill="#A68F7A" d="M224.7,309.4c0,3-0.3,6-0.9,8.8v-3.4H138v3.4c-0.6-2.9-0.9-5.8-0.9-8.8s0.3-6,0.9-8.8v3.4h85.9v-3.4
						C224.4,303.4,224.7,306.4,224.7,309.4z"/>
				</g>
			</g>
			<g clip-path="url(#SVGID_3_)">
				<g>
					<path fill="#A58E79" d="M224.3,309.4c0,3-0.3,5.9-0.9,8.7v-3.3h-85v3.3c-0.6-2.8-0.9-5.8-0.9-8.7s0.3-5.9,0.9-8.7v3.3h85v-3.3
						C224,303.5,224.3,306.4,224.3,309.4z"/>
				</g>
			</g>
			<g clip-path="url(#SVGID_3_)">
				<g>
					<path fill="#A48E78" d="M223.9,309.4c0,3-0.3,5.9-0.9,8.7v-3.2h-84.2v3.2c-0.6-2.8-0.9-5.7-0.9-8.7s0.3-5.9,0.9-8.7v3.2H223
						v-3.2C223.6,303.5,223.9,306.4,223.9,309.4z"/>
				</g>
			</g>
			<g clip-path="url(#SVGID_3_)">
				<g>
					<path fill="#A48D77" d="M223.5,309.4c0,2.9-0.3,5.8-0.9,8.6v-3.1h-83.4v3.1c-0.6-2.8-0.9-5.6-0.9-8.6s0.3-5.8,0.9-8.6v3.1h83.4
						v-3.1C223.2,303.6,223.5,306.4,223.5,309.4z"/>
				</g>
			</g>
			<g clip-path="url(#SVGID_3_)">
				<g>
					<path fill="#A38C76" d="M223,309.4c0,2.9-0.3,5.7-0.9,8.5v-3.1h-82.6v3.1c-0.6-2.7-0.9-5.6-0.9-8.5c0-2.9,0.3-5.7,0.9-8.5v3.1
						h82.6v-3.1C222.7,303.6,223,306.5,223,309.4z"/>
				</g>
			</g>
			<g clip-path="url(#SVGID_3_)">
				<g>
					<path fill="#A28B75" d="M222.6,309.4c0,2.9-0.3,5.7-0.8,8.4v-3H140v3c-0.6-2.7-0.8-5.5-0.8-8.4s0.3-5.7,0.8-8.4v3h81.7v-3
						C222.3,303.7,222.6,306.5,222.6,309.4z"/>
				</g>
			</g>
			<g clip-path="url(#SVGID_3_)">
				<g>
					<path fill="#A28A74" d="M222.2,309.4c0,2.9-0.3,5.6-0.8,8.3v-2.9h-80.9v2.9c-0.6-2.7-0.8-5.5-0.8-8.3s0.3-5.6,0.8-8.3v2.9h80.9
						v-2.9C221.9,303.7,222.2,306.5,222.2,309.4z"/>
				</g>
			</g>
			<g clip-path="url(#SVGID_3_)">
				<g>
					<path fill="#A18973" d="M221.8,309.4c0,2.8-0.3,5.6-0.8,8.2v-2.8h-80.1v2.8c-0.5-2.7-0.8-5.4-0.8-8.2s0.3-5.6,0.8-8.2v2.8h80.1
						v-2.8C221.5,303.8,221.8,306.6,221.8,309.4z"/>
				</g>
			</g>
			<g clip-path="url(#SVGID_3_)">
				<g>
					<path fill="#A08872" d="M221.4,309.4c0,2.8-0.3,5.5-0.8,8.2v-2.7h-79.3v2.7c-0.5-2.6-0.8-5.4-0.8-8.2s0.3-5.5,0.8-8.2v2.7h79.3
						v-2.7C221.1,303.9,221.4,306.6,221.4,309.4z"/>
				</g>
			</g>
			<g clip-path="url(#SVGID_3_)">
				<g>
					<path fill="#A08871" d="M220.9,309.4c0,2.8-0.3,5.5-0.8,8.1v-2.6h-78.4v2.6c-0.5-2.6-0.8-5.3-0.8-8.1s0.3-5.5,0.8-8.1v2.6h78.4
						v-2.6C220.7,303.9,220.9,306.6,220.9,309.4z"/>
				</g>
			</g>
			<g clip-path="url(#SVGID_3_)">
				<g>
					<path fill="#9F8770" d="M220.5,309.4c0,2.7-0.3,5.4-0.8,8v-2.5h-77.6v2.5c-0.5-2.6-0.8-5.2-0.8-8s0.3-5.4,0.8-8v2.5h77.6v-2.5
						C220.2,304,220.5,306.6,220.5,309.4z"/>
				</g>
			</g>
			<g clip-path="url(#SVGID_3_)">
				<g>
					<path fill="#9E866F" d="M220.1,309.4c0,2.7-0.3,5.3-0.8,7.9v-2.5h-76.8v2.5c-0.5-2.6-0.8-5.2-0.8-7.9s0.3-5.3,0.8-7.9v2.5h76.8
						v-2.5C219.8,304,220.1,306.7,220.1,309.4z"/>
				</g>
			</g>
			<g clip-path="url(#SVGID_3_)">
				<g>
					<path fill="#9E856E" d="M219.7,309.4c0,2.7-0.3,5.3-0.8,7.8v-2.4h-76v2.4c-0.5-2.5-0.8-5.1-0.8-7.8s0.3-5.3,0.8-7.8v2.4h76
						v-2.4C219.4,304.1,219.7,306.7,219.7,309.4z"/>
				</g>
			</g>
			<g clip-path="url(#SVGID_3_)">
				<g>
					<path fill="#9D846D" d="M219.2,309.4c0,2.6-0.3,5.2-0.8,7.7v-2.3h-75.1v2.3c-0.5-2.5-0.8-5.1-0.8-7.7s0.3-5.2,0.8-7.7v2.3h75.1
						v-2.3C219,304.2,219.2,306.7,219.2,309.4z"/>
				</g>
			</g>
			<g clip-path="url(#SVGID_3_)">
				<g>
					<path fill="#9C836C" d="M218.8,309.4c0,2.6-0.3,5.2-0.8,7.6v-2.2h-74.3v2.2c-0.5-2.5-0.8-5-0.8-7.6s0.3-5.2,0.8-7.6v2.2h74.3
						v-2.2C218.6,304.2,218.8,306.8,218.8,309.4z"/>
				</g>
			</g>
			<g clip-path="url(#SVGID_3_)">
				<g>
					<path fill="#9C836B" d="M218.4,309.4c0,2.6-0.3,5.1-0.8,7.6v-2.1h-73.5v2.1c-0.5-2.4-0.8-5-0.8-7.6c0-2.6,0.3-5.1,0.8-7.6v2.1
						h73.5v-2.1C218.1,304.3,218.4,306.8,218.4,309.4z"/>
				</g>
			</g>
			<g clip-path="url(#SVGID_3_)">
				<g>
					<path fill="#9B826A" d="M218,309.4c0,2.6-0.3,5.1-0.8,7.5v-2h-72.7v2c-0.5-2.4-0.8-4.9-0.8-7.5s0.3-5.1,0.8-7.5v2h72.7v-2
						C217.7,304.3,218,306.8,218,309.4z"/>
				</g>
			</g>
			<g clip-path="url(#SVGID_3_)">
				<g>
					<path fill="#9A8169" d="M217.6,309.4c0,2.5-0.3,5-0.7,7.4v-2H145v2c-0.5-2.4-0.7-4.9-0.7-7.4s0.3-5,0.7-7.4v2h71.8v-2
						C217.3,304.4,217.6,306.9,217.6,309.4z"/>
				</g>
			</g>
			<g clip-path="url(#SVGID_3_)">
				<g>
					<path fill="#9A8068" d="M217.1,309.4c0,2.5-0.3,4.9-0.7,7.3v-1.9h-71v1.9c-0.5-2.4-0.7-4.8-0.7-7.3s0.3-4.9,0.7-7.3v1.9h71
						v-1.9C216.9,304.4,217.1,306.9,217.1,309.4z"/>
				</g>
			</g>
			<g clip-path="url(#SVGID_3_)">
				<g>
					<path fill="#997F67" d="M216.7,309.4c0,2.5-0.3,4.9-0.7,7.2v-1.8h-70.2v1.8c-0.5-2.3-0.7-4.7-0.7-7.2s0.3-4.9,0.7-7.2v1.8H216
						v-1.8C216.5,304.5,216.7,306.9,216.7,309.4z"/>
				</g>
			</g>
			<g clip-path="url(#SVGID_3_)">
				<g>
					<path fill="#987E66" d="M216.3,309.4c0,2.4-0.2,4.8-0.7,7.1v-1.7h-69.4v1.7c-0.5-2.3-0.7-4.7-0.7-7.1s0.2-4.8,0.7-7.1v1.7h69.4
						v-1.7C216,304.6,216.3,306.9,216.3,309.4z"/>
				</g>
			</g>
			<g clip-path="url(#SVGID_3_)">
				<g>
					<path fill="#977D65" d="M215.9,309.4c0,2.4-0.2,4.8-0.7,7v-1.6h-68.5v1.6c-0.5-2.3-0.7-4.6-0.7-7s0.2-4.8,0.7-7v1.6h68.5v-1.6
						C215.6,304.6,215.9,307,215.9,309.4z"/>
				</g>
			</g>
			<g clip-path="url(#SVGID_3_)">
				<g>
					<path fill="#977D64" d="M215.5,309.4c0,2.4-0.2,4.7-0.7,7v-1.5H147v1.5c-0.5-2.2-0.7-4.6-0.7-7s0.2-4.7,0.7-7v1.5h67.7v-1.5
						C215.2,304.7,215.5,307,215.5,309.4z"/>
				</g>
			</g>
			<g clip-path="url(#SVGID_3_)">
				<g>
					<path fill="#967C63" d="M215,309.4c0,2.4-0.2,4.7-0.7,6.9v-1.4h-66.9v1.4c-0.5-2.2-0.7-4.5-0.7-6.9s0.2-4.7,0.7-6.9v1.4h66.9
						v-1.4C214.8,304.7,215,307,215,309.4z"/>
				</g>
			</g>
			<g clip-path="url(#SVGID_3_)">
				<g>
					<path fill="#957B62" d="M214.6,309.4c0,2.3-0.2,4.6-0.7,6.8v-1.4h-66.1v1.4c-0.4-2.2-0.7-4.5-0.7-6.8s0.2-4.6,0.7-6.8v1.4h66.1
						v-1.4C214.4,304.8,214.6,307.1,214.6,309.4z"/>
				</g>
			</g>
			<g clip-path="url(#SVGID_3_)">
				<g>
					<path fill="#957A61" d="M214.2,309.4c0,2.3-0.2,4.5-0.7,6.7v-1.3h-65.2v1.3c-0.4-2.2-0.7-4.4-0.7-6.7s0.2-4.5,0.7-6.7v1.3h65.2
						v-1.3C214,304.8,214.2,307.1,214.2,309.4z"/>
				</g>
			</g>
			<g clip-path="url(#SVGID_3_)">
				<g>
					<path fill="#947960" d="M213.8,309.4c0,2.3-0.2,4.5-0.7,6.6v-1.2h-64.4v1.2c-0.4-2.1-0.7-4.4-0.7-6.6s0.2-4.5,0.7-6.6v1.2h64.4
						v-1.2C213.5,304.9,213.8,307.1,213.8,309.4z"/>
				</g>
			</g>
			<g clip-path="url(#SVGID_3_)">
				<g>
					<path fill="#93785F" d="M213.3,309.4c0,2.2-0.2,4.4-0.7,6.5v-1.1h-63.6v1.1c-0.4-2.1-0.7-4.3-0.7-6.5s0.2-4.4,0.7-6.5v1.1h63.6
						v-1.1C213.1,305,213.3,307.1,213.3,309.4z"/>
				</g>
			</g>
			<g clip-path="url(#SVGID_3_)">
				<g>
					<path fill="#93785E" d="M212.9,309.4c0,2.2-0.2,4.4-0.7,6.5v-1h-62.8v1c-0.4-2.1-0.7-4.2-0.7-6.5s0.2-4.4,0.7-6.5v1h62.8v-1
						C212.7,305,212.9,307.2,212.9,309.4z"/>
				</g>
			</g>
			<g clip-path="url(#SVGID_3_)">
				<g>
					<path fill="#92775D" d="M212.5,309.4c0,4.4-0.9,8.5-2.5,12.3v-6.9h-58.2v6.9c-1.6-3.8-2.5-7.9-2.5-12.3s0.9-8.5,2.5-12.3v6.9
						H210v-6.9C211.6,300.9,212.5,305,212.5,309.4z"/>
				</g>
			</g>
			<g clip-path="url(#SVGID_3_)">
				<g>
					<path fill="#91765C" d="M212.1,309.4c0,4.3-0.9,8.4-2.5,12.1v-6.7h-57.5v6.7c-1.6-3.7-2.5-7.8-2.5-12.1s0.9-8.4,2.5-12.1v6.7
						h57.5v-6.7C211.2,301,212.1,305.1,212.1,309.4z"/>
				</g>
			</g>
			<g clip-path="url(#SVGID_3_)">
				<g>
					<path fill="#91755B" d="M211.7,309.4c0,4.2-0.9,8.3-2.4,12v-6.5h-56.7v6.5c-1.6-3.7-2.4-7.7-2.4-12s0.9-8.3,2.4-12v6.5h56.7
						v-6.5C210.8,301.1,211.7,305.1,211.7,309.4z"/>
				</g>
			</g>
			<g clip-path="url(#SVGID_3_)">
				<g>
					<path fill="#90745A" d="M211.2,309.4c0,4.2-0.8,8.2-2.4,11.8v-6.4h-55.9v6.4c-1.5-3.6-2.4-7.6-2.4-11.8s0.8-8.2,2.4-11.8v6.4
						h55.9v-6.4C210.4,301.2,211.2,305.2,211.2,309.4z"/>
				</g>
			</g>
			<g clip-path="url(#SVGID_3_)">
				<g>
					<path fill="#8F7359" d="M210.8,309.4c0,4.1-0.8,8.1-2.4,11.6v-6.2h-55.1v6.2c-1.5-3.6-2.4-7.5-2.4-11.6s0.8-8.1,2.4-11.6v6.2
						h55.1v-6.2C210,301.3,210.8,305.3,210.8,309.4z"/>
				</g>
			</g>
			<g clip-path="url(#SVGID_3_)">
				<g>
					<path fill="#8F7258" d="M210.4,309.4c0,4.1-0.8,8-2.3,11.5v-6h-54.4v6c-1.5-3.5-2.3-7.4-2.3-11.5c0-4.1,0.8-8,2.3-11.5v6h54.4
						v-6C209.6,301.4,210.4,305.3,210.4,309.4z"/>
				</g>
			</g>
			<g clip-path="url(#SVGID_3_)">
				<g>
					<path fill="#8E7257" d="M210,309.4c0,4-0.8,7.8-2.3,11.3v-5.9h-53.6v5.9c-1.5-3.5-2.3-7.3-2.3-11.3s0.8-7.8,2.3-11.3v5.9h53.6
						v-5.9C209.2,301.5,210,305.4,210,309.4z"/>
				</g>
			</g>
			<g clip-path="url(#SVGID_3_)">
				<g>
					<path fill="#8D7156" d="M209.6,309.4c0,4-0.8,7.7-2.3,11.2v-5.7h-52.8v5.7c-1.5-3.4-2.3-7.2-2.3-11.2s0.8-7.7,2.3-11.2v5.7
						h52.8v-5.7C208.8,301.7,209.6,305.4,209.6,309.4z"/>
				</g>
			</g>
			<g clip-path="url(#SVGID_3_)">
				<g>
					<path fill="#8D7055" d="M209.1,309.4c0,3.9-0.8,7.6-2.2,11v-5.6h-52v5.6c-1.4-3.4-2.2-7.1-2.2-11s0.8-7.6,2.2-11v5.6h52v-5.6
						C208.3,301.8,209.1,305.5,209.1,309.4z"/>
				</g>
			</g>
			<g clip-path="url(#SVGID_3_)">
				<g>
					<path fill="#8C6F54" d="M208.7,309.4c0,3.8-0.8,7.5-2.2,10.8v-5.4h-51.3v5.4c-1.4-3.3-2.2-7-2.2-10.8s0.8-7.5,2.2-10.8v5.4
						h51.3v-5.4C207.9,301.9,208.7,305.5,208.7,309.4z"/>
				</g>
			</g>
			<g clip-path="url(#SVGID_3_)">
				<g>
					<path fill="#8B6E53" d="M208.3,309.4c0,3.8-0.8,7.4-2.2,10.7v-5.2h-50.5v5.2c-1.4-3.3-2.2-6.9-2.2-10.7s0.8-7.4,2.2-10.7v5.2
						h50.5v-5.2C207.5,302,208.3,305.6,208.3,309.4z"/>
				</g>
			</g>
			<g clip-path="url(#SVGID_3_)">
				<g>
					<path fill="#8B6D52" d="M207.9,309.4c0,3.7-0.8,7.3-2.1,10.5v-5.1H156v5.1c-1.4-3.2-2.1-6.8-2.1-10.5s0.8-7.3,2.1-10.5v5.1
						h49.7v-5.1C207.1,302.1,207.9,305.7,207.9,309.4z"/>
				</g>
			</g>
			<g clip-path="url(#SVGID_3_)">
				<g>
					<path fill="#8A6D51" d="M207.4,309.4c0,3.7-0.7,7.2-2.1,10.3v-4.9h-48.9v4.9c-1.3-3.2-2.1-6.7-2.1-10.3s0.7-7.2,2.1-10.3v4.9
						h48.9V299C206.7,302.2,207.4,305.7,207.4,309.4z"/>
				</g>
			</g>
			<g clip-path="url(#SVGID_3_)">
				<g>
					<path fill="#896C50" d="M207,309.4c0,3.6-0.7,7-2.1,10.2v-4.7h-48.1v4.7c-1.3-3.1-2.1-6.6-2.1-10.2s0.7-7,2.1-10.2v4.7H205
						v-4.7C206.3,302.3,207,305.8,207,309.4z"/>
				</g>
			</g>
			<g clip-path="url(#SVGID_3_)">
				<g>
					<path fill="#896B4F" d="M206.6,309.4c0,3.5-0.7,6.9-2,10v-4.6h-47.4v4.6c-1.3-3.1-2-6.5-2-10s0.7-6.9,2-10v4.6h47.4v-4.6
						C205.9,302.5,206.6,305.8,206.6,309.4z"/>
				</g>
			</g>
			<g clip-path="url(#SVGID_3_)">
				<g>
					<path fill="#886A4E" d="M206.2,309.4c0,3.5-0.7,6.8-2,9.8v-4.4h-46.6v4.4c-1.3-3-2-6.4-2-9.8s0.7-6.8,2-9.8v4.4h46.6v-4.4
						C205.5,302.6,206.2,305.9,206.2,309.4z"/>
				</g>
			</g>
			<g clip-path="url(#SVGID_3_)">
				<g>
					<path fill="#87694D" d="M205.8,309.4c0,3.4-0.7,6.7-2,9.7v-4.2H158v4.2c-1.3-3-2-6.2-2-9.7c0-3.4,0.7-6.7,2-9.7v4.2h45.8v-4.2
						C205.1,302.7,205.8,306,205.8,309.4z"/>
				</g>
			</g>
			<g clip-path="url(#SVGID_3_)">
				<g>
					<path fill="#87684C" d="M205.3,309.4c0,3.4-0.7,6.6-1.9,9.5v-4.1h-45v4.1c-1.2-2.9-1.9-6.1-1.9-9.5s0.7-6.6,1.9-9.5v4.1h45
						v-4.1C204.7,302.8,205.3,306,205.3,309.4z"/>
				</g>
			</g>
			<g clip-path="url(#SVGID_3_)">
				<g>
					<path fill="#86674B" d="M204.9,309.4c0,3.3-0.7,6.5-1.9,9.3v-3.9h-44.3v3.9c-1.2-2.9-1.9-6-1.9-9.3s0.7-6.5,1.9-9.3v3.9H203
						V300C204.2,302.9,204.9,306.1,204.9,309.4z"/>
				</g>
			</g>
			<g clip-path="url(#SVGID_3_)">
				<g>
					<path fill="#85674A" d="M204.5,309.4c0,3.3-0.7,6.4-1.9,9.2v-3.8h-43.5v3.8c-1.2-2.8-1.9-5.9-1.9-9.2s0.7-6.4,1.9-9.2v3.8h43.5
						v-3.8C203.8,303,204.5,306.1,204.5,309.4z"/>
				</g>
			</g>
			<g clip-path="url(#SVGID_3_)">
				<g>
					<path fill="#856649" d="M204.1,309.4c0,3.2-0.6,6.2-1.8,9v-3.6h-42.7v3.6c-1.2-2.8-1.8-5.8-1.8-9s0.6-6.2,1.8-9v3.6h42.7v-3.6
						C203.4,303.1,204.1,306.2,204.1,309.4z"/>
				</g>
			</g>
			<g clip-path="url(#SVGID_3_)">
				<g>
					<path fill="#846548" d="M203.7,309.4c0,3.1-0.6,6.1-1.8,8.9v-3.4h-41.9v3.4c-1.2-2.7-1.8-5.7-1.8-8.9s0.6-6.1,1.8-8.9v3.4h41.9
						v-3.4C203,303.2,203.7,306.2,203.7,309.4z"/>
				</g>
			</g>
			<g clip-path="url(#SVGID_3_)">
				<g>
					<path fill="#836447" d="M203.2,309.4c0,3.1-0.6,6-1.8,8.7v-3.3h-41.2v3.3c-1.1-2.7-1.8-5.6-1.8-8.7s0.6-6,1.8-8.7v3.3h41.2
						v-3.3C202.6,303.4,203.2,306.3,203.2,309.4z"/>
				</g>
			</g>
			<g clip-path="url(#SVGID_3_)">
				<g>
					<path fill="#836346" d="M202.8,309.4c0,3-0.6,5.9-1.7,8.5v-3.1h-40.4v3.1c-1.1-2.6-1.7-5.5-1.7-8.5s0.6-5.9,1.7-8.5v3.1h40.4
						v-3.1C202.2,303.5,202.8,306.4,202.8,309.4z"/>
				</g>
			</g>
			<g clip-path="url(#SVGID_3_)">
				<g>
					<path fill="#826245" d="M202.4,309.4c0,3-0.6,5.8-1.7,8.4v-2.9h-39.6v2.9c-1.1-2.6-1.7-5.4-1.7-8.4s0.6-5.8,1.7-8.4v2.9h39.6
						V301C201.8,303.6,202.4,306.4,202.4,309.4z"/>
				</g>
			</g>
			<g clip-path="url(#SVGID_3_)">
				<g>
					<path fill="#816144" d="M202,309.4c0,2.9-0.6,5.7-1.7,8.2v-2.8h-38.8v2.8c-1.1-2.5-1.7-5.3-1.7-8.2c0-2.9,0.6-5.7,1.7-8.2v2.8
						h38.8v-2.8C201.4,303.7,202,306.5,202,309.4z"/>
				</g>
			</g>
			<g clip-path="url(#SVGID_3_)">
				<g>
					<path fill="#806143" d="M201.5,309.4c0,2.9-0.6,5.6-1.6,8v-2.6h-38.1v2.6c-1-2.5-1.6-5.2-1.6-8s0.6-5.6,1.6-8v2.6h38.1v-2.6
						C201,303.8,201.5,306.5,201.5,309.4z"/>
				</g>
			</g>
			<g clip-path="url(#SVGID_3_)">
				<g>
					<path fill="#806042" d="M201.1,309.4c0,2.8-0.6,5.5-1.6,7.9v-2.4h-37.3v2.4c-1-2.4-1.6-5.1-1.6-7.9s0.6-5.5,1.6-7.9v2.4h37.3
						v-2.4C200.6,303.9,201.1,306.6,201.1,309.4z"/>
				</g>
			</g>
			<g clip-path="url(#SVGID_3_)">
				<g>
					<path fill="#7F5F41" d="M200.7,309.4c0,2.7-0.6,5.3-1.6,7.7v-2.3h-36.5v2.3c-1-2.4-1.6-5-1.6-7.7s0.6-5.3,1.6-7.7v2.3h36.5
						v-2.3C200.1,304,200.7,306.6,200.7,309.4z"/>
				</g>
			</g>
			<g clip-path="url(#SVGID_3_)">
				<g>
					<path fill="#7E5E40" d="M200.3,309.4c0,2.7-0.5,5.2-1.5,7.5v-2.1H163v2.1c-1-2.3-1.5-4.9-1.5-7.5s0.5-5.2,1.5-7.5v2.1h35.7
						v-2.1C199.7,304.2,200.3,306.7,200.3,309.4z"/>
				</g>
			</g>
			<g clip-path="url(#SVGID_3_)">
				<g>
					<path fill="#7E5D3F" d="M199.9,309.4c0,2.6-0.5,5.1-1.5,7.4v-1.9h-34.9v1.9c-1-2.3-1.5-4.8-1.5-7.4s0.5-5.1,1.5-7.4v1.9h34.9
						V302C199.3,304.3,199.9,306.8,199.9,309.4z"/>
				</g>
			</g>
			<g clip-path="url(#SVGID_3_)">
				<g>
					<path fill="#7D5C3E" d="M199.4,309.4c0,2.6-0.5,5-1.5,7.2v-1.8h-34.2v1.8c-0.9-2.2-1.5-4.7-1.5-7.2s0.5-5,1.5-7.2v1.8H198v-1.8
						C198.9,304.4,199.4,306.8,199.4,309.4z"/>
				</g>
			</g>
			<g clip-path="url(#SVGID_3_)">
				<g>
					<path fill="#7C5C3D" d="M199,309.4c0,2.5-0.5,4.9-1.4,7.1v-1.6h-33.4v1.6c-0.9-2.2-1.4-4.6-1.4-7.1s0.5-4.9,1.4-7.1v1.6h33.4
						v-1.6C198.5,304.5,199,306.9,199,309.4z"/>
				</g>
			</g>
			<g clip-path="url(#SVGID_3_)">
				<g>
					<path fill="#7C5B3C" d="M198.6,309.4c0,2.4-0.5,4.8-1.4,6.9v-1.5h-32.6v1.5c-0.9-2.1-1.4-4.4-1.4-6.9s0.5-4.8,1.4-6.9v1.5h32.6
						v-1.5C198.1,304.6,198.6,306.9,198.6,309.4z"/>
				</g>
			</g>
			<g clip-path="url(#SVGID_3_)">
				<g>
					<path fill="#7B5A3B" d="M198.2,309.4c0,4.8-1.9,9.1-5.1,12.2v-6.8h-24.4v6.8c-3.1-3.1-5.1-7.4-5.1-12.2s1.9-9.1,5.1-12.2v6.8
						h24.4v-6.8C196.2,300.3,198.2,304.6,198.2,309.4z"/>
				</g>
			</g>
			<g clip-path="url(#SVGID_3_)">
				<g>
					<path fill="#7A593A" d="M197.8,309.4c0,4.7-1.9,8.9-4.9,11.9v-6.5H169v6.5c-3.1-3.1-4.9-7.3-4.9-11.9s1.9-8.9,4.9-11.9v6.5
						h23.8v-6.5C195.9,300.5,197.8,304.7,197.8,309.4z"/>
				</g>
			</g>
			<g clip-path="url(#SVGID_3_)">
				<g>
					<path fill="#7A5839" d="M197.3,309.4c0,4.5-1.8,8.6-4.8,11.6v-6.2h-23.2v6.2c-3-3-4.8-7.1-4.8-11.6s1.8-8.6,4.8-11.6v6.2h23.2
						v-6.2C195.5,300.7,197.3,304.8,197.3,309.4z"/>
				</g>
			</g>
			<g clip-path="url(#SVGID_3_)">
				<g>
					<path fill="#795738" d="M196.9,309.4c0,4.4-1.8,8.4-4.7,11.3v-5.9h-22.6v5.9c-2.9-2.9-4.7-6.9-4.7-11.3s1.8-8.4,4.7-11.3v5.9
						h22.6v-5.9C195.1,301,196.9,305,196.9,309.4z"/>
				</g>
			</g>
			<g clip-path="url(#SVGID_3_)">
				<g>
					<path fill="#785637" d="M196.5,309.4c0,4.3-1.7,8.2-4.6,11v-5.6h-22.1v5.6c-2.8-2.8-4.6-6.7-4.6-11s1.7-8.2,4.6-11v5.6h22.1
						v-5.6C194.7,301.2,196.5,305.1,196.5,309.4z"/>
				</g>
			</g>
			<g clip-path="url(#SVGID_3_)">
				<g>
					<path fill="#785636" d="M196.1,309.4c0,4.2-1.7,8-4.4,10.7v-5.3h-21.5v5.3c-2.7-2.7-4.4-6.5-4.4-10.7s1.7-8,4.4-10.7v5.3h21.5
						v-5.3C194.4,301.4,196.1,305.2,196.1,309.4z"/>
				</g>
			</g>
			<g clip-path="url(#SVGID_3_)">
				<g>
					<path fill="#775535" d="M195.6,309.4c0,4.1-1.7,7.8-4.3,10.4v-5h-20.9v5c-2.7-2.7-4.3-6.4-4.3-10.4c0-4.1,1.7-7.8,4.3-10.4v5
						h20.9v-5C194,301.6,195.6,305.3,195.6,309.4z"/>
				</g>
			</g>
			<g clip-path="url(#SVGID_3_)">
				<g>
					<path fill="#765434" d="M195.2,309.4c0,4-1.6,7.5-4.2,10.1v-4.7h-20.3v4.7c-2.6-2.6-4.2-6.2-4.2-10.1s1.6-7.5,4.2-10.1v4.7H191
						v-4.7C193.6,301.8,195.2,305.4,195.2,309.4z"/>
				</g>
			</g>
			<g clip-path="url(#SVGID_3_)">
				<g>
					<path fill="#765333" d="M194.8,309.4c0,3.8-1.6,7.3-4.1,9.8v-4.4h-19.7v4.4c-2.5-2.5-4.1-6-4.1-9.8s1.6-7.3,4.1-9.8v4.4h19.7
						v-4.4C193.2,302.1,194.8,305.5,194.8,309.4z"/>
				</g>
			</g>
			<g clip-path="url(#SVGID_3_)">
				<g>
					<path fill="#755232" d="M194.4,309.4c0,3.7-1.5,7.1-3.9,9.5v-4.1h-19.1v4.1c-2.4-2.4-3.9-5.8-3.9-9.5s1.5-7.1,3.9-9.5v4.1h19.1
						v-4.1C192.9,302.3,194.4,305.7,194.4,309.4z"/>
				</g>
			</g>
			<g clip-path="url(#SVGID_3_)">
				<g>
					<path fill="#745131" d="M194,309.4c0,3.6-1.5,6.9-3.8,9.2v-3.8h-18.5v3.8c-2.4-2.4-3.8-5.6-3.8-9.2s1.5-6.9,3.8-9.2v3.8h18.5
						v-3.8C192.5,302.5,194,305.8,194,309.4z"/>
				</g>
			</g>
			<g clip-path="url(#SVGID_3_)">
				<g>
					<path fill="#745130" d="M193.5,309.4c0,3.5-1.4,6.7-3.7,8.9v-3.5H172v3.5c-2.3-2.3-3.7-5.4-3.7-8.9s1.4-6.7,3.7-8.9v3.5h17.9
						v-3.5C192.1,302.7,193.5,305.9,193.5,309.4z"/>
				</g>
			</g>
			<g clip-path="url(#SVGID_3_)">
				<g>
					<circle fill="#73502F" cx="180.9" cy="309.4" r="12.2"/>
				</g>
			</g>
			<g clip-path="url(#SVGID_3_)">
				<g>
					<circle fill="#724F2E" cx="180.9" cy="309.4" r="11.8"/>
				</g>
			</g>
			<g clip-path="url(#SVGID_3_)">
				<g>
					<circle fill="#724E2D" cx="180.9" cy="309.4" r="11.4"/>
				</g>
			</g>
			<g clip-path="url(#SVGID_3_)">
				<g>
					<circle fill="#714D2C" cx="180.9" cy="309.4" r="11"/>
				</g>
			</g>
			<g clip-path="url(#SVGID_3_)">
				<g>
					<circle fill="#704C2B" cx="180.9" cy="309.4" r="10.5"/>
				</g>
			</g>
			<g clip-path="url(#SVGID_3_)">
				<g>
					<circle fill="#704B2A" cx="180.9" cy="309.4" r="10.1"/>
				</g>
			</g>
			<g clip-path="url(#SVGID_3_)">
				<g>
					<circle fill="#6F4B29" cx="180.9" cy="309.4" r="9.7"/>
				</g>
			</g>
			<g clip-path="url(#SVGID_3_)">
				<g>
					<circle fill="#6E4A28" cx="180.9" cy="309.4" r="9.3"/>
				</g>
			</g>
			<g clip-path="url(#SVGID_3_)">
				<g>
					<circle fill="#6E4927" cx="180.9" cy="309.4" r="8.8"/>
				</g>
			</g>
			<g clip-path="url(#SVGID_3_)">
				<g>
					<circle fill="#6D4826" cx="180.9" cy="309.4" r="8.4"/>
				</g>
			</g>
			<g clip-path="url(#SVGID_3_)">
				<g>
					<circle fill="#6C4725" cx="180.9" cy="309.4" r="8"/>
				</g>
			</g>
			<g clip-path="url(#SVGID_3_)">
				<g>
					<circle fill="#6C4624" cx="180.9" cy="309.4" r="7.6"/>
				</g>
			</g>
			<g clip-path="url(#SVGID_3_)">
				<g>
					<circle fill="#6B4623" cx="180.9" cy="309.4" r="7.2"/>
				</g>
			</g>
			<g clip-path="url(#SVGID_3_)">
				<g>
					<circle fill="#6A4522" cx="180.9" cy="309.4" r="6.7"/>
				</g>
			</g>
			<g clip-path="url(#SVGID_3_)">
				<g>
					<circle fill="#694421" cx="180.9" cy="309.4" r="6.3"/>
				</g>
			</g>
			<g clip-path="url(#SVGID_3_)">
				<g>
					<circle fill="#694320" cx="180.9" cy="309.4" r="5.9"/>
				</g>
			</g>
			<g clip-path="url(#SVGID_3_)">
				<g>
					<circle fill="#68421F" cx="180.9" cy="309.4" r="5.5"/>
				</g>
			</g>
			<g clip-path="url(#SVGID_3_)">
				<g>
					<circle fill="#67411E" cx="180.9" cy="309.4" r="5.1"/>
				</g>
			</g>
			<g clip-path="url(#SVGID_3_)">
				<g>
					<circle fill="#67401D" cx="180.9" cy="309.4" r="4.6"/>
				</g>
			</g>
			<g clip-path="url(#SVGID_3_)">
				<g>
					<circle fill="#66401C" cx="180.9" cy="309.4" r="4.2"/>
				</g>
			</g>
			<g clip-path="url(#SVGID_3_)">
				<g>
					<circle fill="#653F1B" cx="180.9" cy="309.4" r="3.8"/>
				</g>
			</g>
			<g clip-path="url(#SVGID_3_)">
				<g>
					<circle fill="#653E1A" cx="180.9" cy="309.4" r="3.4"/>
				</g>
			</g>
			<g clip-path="url(#SVGID_3_)">
				<g>
					<circle fill="#643D19" cx="180.9" cy="309.4" r="2.9"/>
				</g>
			</g>
			<g clip-path="url(#SVGID_3_)">
				<g>
					<circle fill="#633C18" cx="180.9" cy="309.4" r="2.5"/>
				</g>
			</g>
			<g clip-path="url(#SVGID_3_)">
				<g>
					<circle fill="#633B17" cx="180.9" cy="309.4" r="2.1"/>
				</g>
			</g>
			<g clip-path="url(#SVGID_3_)">
				<g>
					<circle fill="#623B16" cx="180.9" cy="309.4" r="1.7"/>
				</g>
			</g>
			<g clip-path="url(#SVGID_3_)">
				<g>
					<circle fill="#613A15" cx="180.9" cy="309.4" r="1.3"/>
				</g>
			</g>
			<g clip-path="url(#SVGID_3_)">
				<g>
					<circle fill="#613914" cx="180.9" cy="309.4" r="0.8"/>
				</g>
			</g>
			<g clip-path="url(#SVGID_3_)">
				<g>
					<circle fill="#603813" cx="180.9" cy="309.4" r="0.4"/>
				</g>
			</g>
		</g>
	</g>
</g>
<g id="Layer_8">
</g>
<g id="Layer_11">
</g>
<g id="Layer_9">
</g>
</svg>
