<?xml version="1.0" encoding="utf-8"?>
<!-- Generator: Adobe Illustrator 19.1.0, SVG Export Plug-In . SVG Version: 6.00 Build 0)  -->
<svg version="1.1" xmlns="http://www.w3.org/2000/svg" xmlns:xlink="http://www.w3.org/1999/xlink" x="0px" y="0px"
	 viewBox="0 0 360 360" enable-background="new 0 0 360 360" xml:space="preserve">
<g id="bg">
	<g>
		<g>
			<rect fill="#ECF4F9" width="360" height="360"/>
		</g>
	</g>
</g>
<g id="Layer_2">
</g>
<g id="Layer_3">
</g>
<g id="Layer_10">
	<g opacity="0.8">
		<defs>
			<rect id="SVGID_9_" x="0" opacity="0.8" width="360" height="360"/>
		</defs>
		<clipPath id="SVGID_2_">
			<use xlink:href="#SVGID_9_"  overflow="visible"/>
		</clipPath>
		<g clip-path="url(#SVGID_2_)">
			<g>
				<g>
					
						<rect x="-25.8" y="-311.9" transform="matrix(0.7071 0.7071 -0.7071 0.7071 -23.2927 9.6482)" fill="#E8F0F6" width="5" height="577.3"/>
				</g>
			</g>
			<g>
				<g>
					
						<rect x="-8.9" y="-295" transform="matrix(0.7071 0.7071 -0.7071 0.7071 -6.3517 2.6312)" fill="#E8F0F6" width="5" height="577.3"/>
				</g>
			</g>
			<g>
				<g>
					
						<rect x="8.1" y="-278" transform="matrix(0.7071 0.7071 -0.7071 0.7071 10.5891 -4.3862)" fill="#E8F0F6" width="5" height="577.3"/>
				</g>
			</g>
			<g>
				<g>
					
						<rect x="25" y="-261.1" transform="matrix(0.7071 0.7071 -0.7071 0.7071 27.5304 -11.4033)" fill="#E8F0F6" width="5" height="577.3"/>
				</g>
			</g>
			<g>
				<g>
					
						<rect x="42" y="-244.2" transform="matrix(0.7071 0.7071 -0.7071 0.7071 44.4715 -18.4204)" fill="#E8F0F6" width="5" height="577.3"/>
				</g>
			</g>
			<g>
				<g>
					
						<rect x="58.9" y="-227.2" transform="matrix(0.7071 0.7071 -0.7071 0.7071 61.4124 -25.4378)" fill="#E8F0F6" width="5" height="577.3"/>
				</g>
			</g>
			<g>
				<g>
					
						<rect x="75.9" y="-210.3" transform="matrix(0.7071 0.7071 -0.7071 0.7071 78.3537 -32.455)" fill="#E8F0F6" width="5" height="577.3"/>
				</g>
			</g>
			<g>
				<g>
					
						<rect x="92.8" y="-193.3" transform="matrix(0.7071 0.7071 -0.7071 0.7071 95.2948 -39.4721)" fill="#E8F0F6" width="5" height="577.3"/>
				</g>
			</g>
			<g>
				<g>
					
						<rect x="109.7" y="-176.4" transform="matrix(0.7071 0.7071 -0.7071 0.7071 112.2356 -46.4895)" fill="#E8F0F6" width="5" height="577.3"/>
				</g>
			</g>
			<g>
				<g>
					
						<rect x="126.7" y="-159.5" transform="matrix(0.7071 0.7071 -0.7071 0.7071 129.1769 -53.5067)" fill="#E8F0F6" width="5" height="577.3"/>
				</g>
			</g>
			<g>
				<g>
					
						<rect x="143.6" y="-142.5" transform="matrix(0.7071 0.7071 -0.7071 0.7071 146.1177 -60.5239)" fill="#E8F0F6" width="5" height="577.3"/>
				</g>
			</g>
			<g>
				<g>
					
						<rect x="160.6" y="-125.6" transform="matrix(0.7071 0.7071 -0.7071 0.7071 163.0588 -67.5412)" fill="#E8F0F6" width="5" height="577.3"/>
				</g>
			</g>
			<g>
				<g>
					
						<rect x="177.5" y="-108.6" transform="matrix(0.7071 0.7071 -0.7071 0.7071 180 -74.5584)" fill="#E8F0F6" width="5" height="577.3"/>
				</g>
			</g>
			<g>
				<g>
					
						<rect x="194.4" y="-91.7" transform="matrix(0.7071 0.7071 -0.7071 0.7071 196.9409 -81.5756)" fill="#E8F0F6" width="5" height="577.3"/>
				</g>
			</g>
			<g>
				<g>
					
						<rect x="211.4" y="-74.8" transform="matrix(0.7071 0.7071 -0.7071 0.7071 213.8821 -88.5929)" fill="#E8F0F6" width="5" height="577.3"/>
				</g>
			</g>
			<g>
				<g>
					
						<rect x="228.3" y="-57.8" transform="matrix(0.7071 0.7071 -0.7071 0.7071 230.8232 -95.6101)" fill="#E8F0F6" width="5" height="577.3"/>
				</g>
			</g>
			<g>
				<g>
					
						<rect x="245.3" y="-40.9" transform="matrix(0.7071 0.7071 -0.7071 0.7071 247.7642 -102.6273)" fill="#E8F0F6" width="5" height="577.3"/>
				</g>
			</g>
			<g>
				<g>
					
						<rect x="279.1" y="-7" transform="matrix(0.7071 0.7071 -0.7071 0.7071 281.6465 -116.6618)" fill="#E8F0F6" width="5" height="577.3"/>
				</g>
			</g>
			<g>
				<g>
					
						<rect x="262.2" y="-23.9" transform="matrix(0.7071 0.7071 -0.7071 0.7071 264.7053 -109.6445)" fill="#E8F0F6" width="5" height="577.3"/>
				</g>
			</g>
			<g>
				<g>
					
						<rect x="296.1" y="10" transform="matrix(0.7071 0.7071 -0.7071 0.7071 298.5874 -123.679)" fill="#E8F0F6" width="5" height="577.3"/>
				</g>
			</g>
			<g>
				<g>
					
						<rect x="313" y="26.9" transform="matrix(0.7071 0.7071 -0.7071 0.7071 315.5286 -130.6962)" fill="#E8F0F6" width="5" height="577.3"/>
				</g>
			</g>
			<g>
				<g>
					
						<rect x="330" y="43.8" transform="matrix(0.7071 0.7071 -0.7071 0.7071 332.4697 -137.7135)" fill="#E8F0F6" width="5" height="577.3"/>
				</g>
			</g>
			<g>
				<g>
					
						<rect x="346.9" y="60.8" transform="matrix(0.7071 0.7071 -0.7071 0.7071 349.4106 -144.7306)" fill="#E8F0F6" width="5" height="577.3"/>
				</g>
			</g>
			<g>
				<g>
					
						<rect x="363.9" y="77.7" transform="matrix(0.7071 0.7071 -0.7071 0.7071 366.3518 -151.7479)" fill="#E8F0F6" width="5" height="577.3"/>
				</g>
			</g>
			<g>
				<g>
					
						<rect x="380.8" y="94.7" transform="matrix(0.7071 0.7071 -0.7071 0.7071 383.293 -158.7652)" fill="#E8F0F6" width="5" height="577.3"/>
				</g>
			</g>
		</g>
	</g>
</g>
<g id="Layer_4">
</g>
<g id="Layer_5">
	<g opacity="0.8">
		<defs>
			<rect id="SVGID_13_" x="-496.5" y="478" opacity="0.8" width="360" height="360"/>
		</defs>
		<clipPath id="SVGID_4_">
			<use xlink:href="#SVGID_13_"  overflow="visible"/>
		</clipPath>
	</g>
	<g opacity="0.1">
		<g>
			<g>
				<ellipse cx="180" cy="308.4" rx="104.1" ry="4.4"/>
			</g>
		</g>
	</g>
	<g>
		<g>
			<g>
				<g>
					<path fill="#563200" d="M220,168.1c0-67.4-19.2-92.2-42.2-92.2s-41.1,24.7-41.1,92.2v133.3H220V168.1z"/>
				</g>
			</g>
		</g>
		<g>
			<g>
				<g>
					<path fill="#FAA95D" d="M211.4,143.2c0,42.7-14.1,56.5-32.4,56.5s-33.7-13.8-33.7-56.5s14.4-58.3,32.6-58.3
						S211.4,100.5,211.4,143.2z"/>
				</g>
			</g>
		</g>
		<g>
			<g>
				<g>
					<g>
						<path fill="#563200" d="M178,75.9c-9,0-16.8,8.6-21.1,29.8h42.6C195,84.5,187,75.9,178,75.9z"/>
					</g>
				</g>
			</g>
		</g>
		<g>
			<g>
				<g>
					<g>
						<ellipse fill="#414042" cx="172.6" cy="122.2" rx="2.4" ry="3.8"/>
					</g>
				</g>
			</g>
			<g>
				<g>
					<g>
						<ellipse fill="#414042" cx="183.5" cy="122.2" rx="2.4" ry="3.8"/>
					</g>
				</g>
			</g>
		</g>
		<g>
			<g>
				<g>
					<g>
						<path fill="#8D3938" d="M176.1,310.4h-9.3v-1.9c0-1.1,0.9-2,2-2h7.3V310.4z"/>
					</g>
				</g>
			</g>
			<g>
				<g>
					<g>
						<path fill="#8D3938" d="M182.4,310.4h9.3v-1.9c0-1.1-0.9-2-2-2h-7.3V310.4z"/>
					</g>
				</g>
			</g>
		</g>
		<g>
			<g>
				<g>
					<polyline fill="#52B2DA" points="176.1,195.5 176.1,306.5 172.4,306.5 172.4,195.5 					"/>
				</g>
			</g>
		</g>
		<g>
			<g>
				<g>
					<polyline fill="#52B2DA" points="186,195.5 186,306.5 182.4,306.5 182.4,195.5 					"/>
				</g>
			</g>
		</g>
		<g>
			<g>
				<g>
					<g>
						<path fill="#52B2DA" d="M179,199.6c13.9,0,25.4-8,30.1-30.7h-61.3C152.9,191.6,165.1,199.6,179,199.6z"/>
					</g>
				</g>
			</g>
		</g>
		<g>
			<g>
				<g>
					<g>
						<rect x="101.4" y="235.2" fill="#52B2DA" width="9.5" height="73.2"/>
					</g>
				</g>
			</g>
			<g>
				<g>
					<g>
						<rect x="105.2" y="230.5" fill="#563200" width="2" height="4.7"/>
					</g>
				</g>
			</g>
			<g>
				<g>
					<g>
						<g>
							<rect x="101.4" y="241.7" fill="#438EA9" width="9.5" height="2.2"/>
						</g>
					</g>
				</g>
				<g>
					<g>
						<g>
							<rect x="101.4" y="245.3" fill="#438EA9" width="9.5" height="0.5"/>
						</g>
					</g>
				</g>
				<g>
					<g>
						<g>
							<rect x="101.4" y="246.7" fill="#438EA9" width="9.5" height="0.5"/>
						</g>
					</g>
				</g>
				<g>
					<g>
						<g>
							<rect x="101.4" y="248.2" fill="#438EA9" width="9.5" height="0.5"/>
						</g>
					</g>
				</g>
			</g>
		</g>
		<g>
			<g>
				<g>
					<path fill="#52B2DA" d="M254.6,308.4h-6.5c-1.3,0-2.4-1.1-2.4-2.4v-47.2c0-1.3,1.1-2.4,2.4-2.4h6.5c1.3,0,2.4,1.1,2.4,2.4V306
						C257,307.4,255.9,308.4,254.6,308.4z"/>
				</g>
			</g>
		</g>
		<g>
			<g>
				<g>
					<path fill="#52B2DA" d="M240.2,308.4h-4.7c-1.3,0-2.4-1.1-2.4-2.4v-62.8c0-1.3,1.1-2.4,2.4-2.4h4.7c1.3,0,2.4,1.1,2.4,2.4V306
						C242.6,307.4,241.5,308.4,240.2,308.4z"/>
				</g>
			</g>
		</g>
		<g>
			<g>
				<g>
					<rect x="250.3" y="251.7" fill="#563200" width="2" height="4.7"/>
				</g>
			</g>
		</g>
		<g>
			<g>
				<g>
					<rect x="236.9" y="236.2" fill="#563200" width="2" height="4.7"/>
				</g>
			</g>
		</g>
		<g>
			<g>
				<g>
					<rect x="237.4" y="240.9" fill="#438EA9" width="1" height="67.6"/>
				</g>
			</g>
		</g>
		<g>
			<g>
				<g>
					<rect x="250.8" y="256.4" fill="#438EA9" width="1" height="52"/>
				</g>
			</g>
		</g>
		<g>
			<g>
				<g>
					<rect x="254.3" y="256.4" fill="#52B2DA" width="4.3" height="26"/>
				</g>
			</g>
		</g>
		<g>
			<g>
				<g>
					<rect x="251.3" y="281.9" fill="#438EA9" width="7.3" height="1"/>
				</g>
			</g>
		</g>
		<g>
			<g>
				<g>
					<g>
						<rect x="114.4" y="256.4" fill="#52B2DA" width="12" height="52"/>
					</g>
				</g>
			</g>
			<g>
				<g>
					<g>
						<rect x="119.4" y="251.7" fill="#563200" width="2" height="4.7"/>
					</g>
				</g>
			</g>
			<g>
				<g>
					<g>
						<g>
							<rect x="114.4" y="263.8" fill="#438EA9" width="12" height="2.2"/>
						</g>
					</g>
				</g>
				<g>
					<g>
						<g>
							<rect x="114.4" y="267.3" fill="#438EA9" width="12" height="0.5"/>
						</g>
					</g>
				</g>
				<g>
					<g>
						<g>
							<rect x="114.4" y="268.7" fill="#438EA9" width="12" height="0.5"/>
						</g>
					</g>
				</g>
				<g>
					<g>
						<g>
							<rect x="114.4" y="270.2" fill="#438EA9" width="12" height="0.5"/>
						</g>
					</g>
				</g>
			</g>
		</g>
	</g>
	<g>
		<g>
			<g>
				<g>
					<rect x="205.1" y="170.6" fill="#52B2DA" width="3.6" height="40.9"/>
				</g>
			</g>
		</g>
		<g>
			<g>
				<g>
					<ellipse fill="#FAA95D" cx="206.9" cy="210.3" rx="4" ry="3.8"/>
				</g>
			</g>
		</g>
	</g>
	<g>
		<g>
			<g>
				<g>
					<rect x="148.5" y="170.6" fill="#52B2DA" width="3.6" height="40.9"/>
				</g>
			</g>
		</g>
		<g>
			<g>
				<g>
					<ellipse fill="#FAA95D" cx="150.3" cy="210.3" rx="4" ry="3.8"/>
				</g>
			</g>
		</g>
	</g>
</g>
<g id="Layer_6">
</g>
<g id="Layer_7">
</g>
<g id="Layer_8">
</g>
<g id="Layer_11">
</g>
<g id="Layer_9">
</g>
</svg>
