<?xml version="1.0" encoding="utf-8"?>
<!-- Generator: Adobe Illustrator 19.1.0, SVG Export Plug-In . SVG Version: 6.00 Build 0)  -->
<svg version="1.1" xmlns="http://www.w3.org/2000/svg" xmlns:xlink="http://www.w3.org/1999/xlink" x="0px" y="0px"
	 viewBox="0 0 360 360" enable-background="new 0 0 360 360" xml:space="preserve">
<g id="bg">
	<g>
		<g>
			<rect fill="#FBE2E1" width="360" height="360"/>
		</g>
	</g>
</g>
<g id="Layer_2">
</g>
<g id="Layer_3">
</g>
<g id="Layer_10">
	<g opacity="0.8">
		<defs>
			<rect id="SVGID_9_" x="-474" opacity="0.8" width="360" height="360"/>
		</defs>
		<clipPath id="SVGID_2_">
			<use xlink:href="#SVGID_9_"  overflow="visible"/>
		</clipPath>
		<g clip-path="url(#SVGID_2_)">
			<g>
				<g>
					
						<rect x="-194.9" y="-7" transform="matrix(0.7071 0.7071 -0.7071 0.7071 142.8005 218.542)" fill="#E8F0F6" width="5" height="577.3"/>
				</g>
			</g>
			<g>
				<g>
					
						<rect x="-178" y="10" transform="matrix(0.7071 0.7071 -0.7071 0.7071 159.7414 211.5249)" fill="#E8F0F6" width="5" height="577.3"/>
				</g>
			</g>
			<g>
				<g>
					
						<rect x="-161" y="26.9" transform="matrix(0.7071 0.7071 -0.7071 0.7071 176.6826 204.5076)" fill="#E8F0F6" width="5" height="577.3"/>
				</g>
			</g>
			<g>
				<g>
					
						<rect x="-144.1" y="43.8" transform="matrix(0.7071 0.7071 -0.7071 0.7071 193.6237 197.4904)" fill="#E8F0F6" width="5" height="577.3"/>
				</g>
			</g>
			<g>
				<g>
					
						<rect x="-127.1" y="60.8" transform="matrix(0.7071 0.7071 -0.7071 0.7071 210.5647 190.4732)" fill="#E8F0F6" width="5" height="577.3"/>
				</g>
			</g>
			<g>
				<g>
					
						<rect x="-110.2" y="77.7" transform="matrix(0.7071 0.7071 -0.7071 0.7071 227.5058 183.4559)" fill="#E8F0F6" width="5" height="577.3"/>
				</g>
			</g>
			<g>
				<g>
					
						<rect x="-93.3" y="94.7" transform="matrix(0.7071 0.7071 -0.7071 0.7071 244.447 176.4387)" fill="#E8F0F6" width="5" height="577.3"/>
				</g>
			</g>
		</g>
	</g>
</g>
<g id="Layer_4">
</g>
<g id="Layer_5">
</g>
<g id="Layer_6">
</g>
<g id="Layer_7">
</g>
<g id="Layer_8">
	<g opacity="0.8">
		<defs>
			<rect id="SVGID_169_" opacity="0.8" width="360" height="360"/>
		</defs>
		<clipPath id="SVGID_4_">
			<use xlink:href="#SVGID_169_"  overflow="visible"/>
		</clipPath>
		<g clip-path="url(#SVGID_4_)">
			<g>
				<g>
					<rect x="3.8" y="-10.2" fill="#F5DDDB" width="5" height="380.5"/>
				</g>
			</g>
			<g>
				<g>
					<rect x="19.6" y="-10.2" fill="#F5DDDB" width="5" height="380.5"/>
				</g>
			</g>
			<g>
				<g>
					<rect x="35.4" y="-10.2" fill="#F5DDDB" width="5" height="380.5"/>
				</g>
			</g>
			<g>
				<g>
					<rect x="51.2" y="-10.2" fill="#F5DDDB" width="5" height="380.5"/>
				</g>
			</g>
			<g>
				<g>
					<rect x="67" y="-10.2" fill="#F5DDDB" width="5" height="380.5"/>
				</g>
			</g>
			<g>
				<g>
					<rect x="82.8" y="-10.2" fill="#F5DDDB" width="5" height="380.5"/>
				</g>
			</g>
			<g>
				<g>
					<rect x="98.5" y="-10.2" fill="#F5DDDB" width="5" height="380.5"/>
				</g>
			</g>
			<g>
				<g>
					<rect x="114.3" y="-10.2" fill="#F5DDDB" width="5" height="380.5"/>
				</g>
			</g>
			<g>
				<g>
					<rect x="130.1" y="-10.2" fill="#F5DDDB" width="5" height="380.5"/>
				</g>
			</g>
			<g>
				<g>
					<rect x="145.9" y="-10.2" fill="#F5DDDB" width="5" height="380.5"/>
				</g>
			</g>
			<g>
				<g>
					<rect x="161.7" y="-10.2" fill="#F5DDDB" width="5" height="380.5"/>
				</g>
			</g>
			<g>
				<g>
					<rect x="177.5" y="-10.2" fill="#F5DDDB" width="5" height="380.5"/>
				</g>
			</g>
			<g>
				<g>
					<rect x="193.3" y="-10.2" fill="#F5DDDB" width="5" height="380.5"/>
				</g>
			</g>
			<g>
				<g>
					<rect x="209.1" y="-10.2" fill="#F5DDDB" width="5" height="380.5"/>
				</g>
			</g>
			<g>
				<g>
					<rect x="224.9" y="-10.2" fill="#F5DDDB" width="5" height="380.5"/>
				</g>
			</g>
			<g>
				<g>
					<rect x="240.7" y="-10.2" fill="#F5DDDB" width="5" height="380.5"/>
				</g>
			</g>
			<g>
				<g>
					<rect x="272.2" y="-10.2" fill="#F5DDDB" width="5" height="380.5"/>
				</g>
			</g>
			<g>
				<g>
					<rect x="256.5" y="-10.2" fill="#F5DDDB" width="5" height="380.5"/>
				</g>
			</g>
			<g>
				<g>
					<rect x="288" y="-10.2" fill="#F5DDDB" width="5" height="380.5"/>
				</g>
			</g>
			<g>
				<g>
					<rect x="303.8" y="-10.2" fill="#F5DDDB" width="5" height="380.5"/>
				</g>
			</g>
			<g>
				<g>
					<rect x="319.6" y="-10.2" fill="#F5DDDB" width="5" height="380.5"/>
				</g>
			</g>
			<g>
				<g>
					<rect x="335.4" y="-10.2" fill="#F5DDDB" width="5" height="380.5"/>
				</g>
			</g>
			<g>
				<g>
					<rect x="351.2" y="-10.2" fill="#F5DDDB" width="5" height="380.5"/>
				</g>
			</g>
		</g>
	</g>
	<g opacity="0.1">
		<g>
			<ellipse cx="180" cy="308.4" rx="70.4" ry="4.4"/>
		</g>
	</g>
	<g>
		<g>
			<g>
				<g>
					<path fill="#E95470" d="M178.9,308.5h-9.3v-1.9c0-1.1,0.9-2,2-2h7.3V308.5z"/>
				</g>
			</g>
			<g>
				<g>
					<path fill="#E95470" d="M185.3,308.5h9.3v-1.9c0-1.1-0.9-2-2-2h-7.3V308.5z"/>
				</g>
			</g>
		</g>
		<g>
			<g>
				<polyline fill="#E95470" points="178.9,193.6 178.9,304.6 175.3,304.6 175.3,193.6 				"/>
			</g>
		</g>
		<g>
			<g>
				<polyline fill="#E95470" points="188.9,193.6 188.9,304.6 185.3,304.6 185.3,193.6 				"/>
			</g>
		</g>
		<g>
			<g>
				<ellipse fill="#58595B" cx="183.5" cy="111.4" rx="60.5" ry="41.6"/>
			</g>
		</g>
		<g>
			<g>
				<circle fill="#FECB86" cx="183.5" cy="143.8" r="56.8"/>
			</g>
		</g>
		<g>
			<g>
				<g>
					<ellipse fill="#58595B" cx="179.6" cy="123.4" rx="1.9" ry="3.9"/>
				</g>
			</g>
			<g>
				<g>
					<ellipse fill="#58595B" cx="187.4" cy="123.4" rx="1.9" ry="3.9"/>
				</g>
			</g>
		</g>
		<g>
			<g>
				<path fill="#E95470" d="M136.5,175.7c10.2,15,27.5,24.9,47,24.9c19.6,0,36.8-9.9,47-24.9H136.5z"/>
			</g>
		</g>
		<g>
			<g>
				<g>
					<path fill="#65C296" d="M127.7,154.4c1.5,7.8,4.5,15,8.8,21.3h94c4.3-6.3,7.3-13.5,8.8-21.3H127.7z"/>
				</g>
			</g>
		</g>
		<g>
			<g>
				<rect x="145.5" y="154.4" fill="#E95470" width="3.5" height="23.1"/>
			</g>
		</g>
		<g>
			<g>
				<rect x="216.7" y="154.4" fill="#E95470" width="3.5" height="22.5"/>
			</g>
		</g>
		<g>
			<g>
				<g>
					<circle fill="#E95470" cx="183.5" cy="158.7" r="1.4"/>
				</g>
			</g>
			<g>
				<g>
					<circle fill="#E95470" cx="183.5" cy="165" r="1.4"/>
				</g>
			</g>
			<g>
				<g>
					<circle fill="#E95470" cx="183.5" cy="171.4" r="1.4"/>
				</g>
			</g>
		</g>
		<g>
			<g>
				<path fill="#58595B" d="M143.4,94.7c9.2,8.4,23.7,13.8,40.1,13.8c16.7,0,31.5-5.6,40.6-14.2c0,0-19.2-16.3-42-14.5
					S143.4,94.7,143.4,94.7z"/>
			</g>
		</g>
		<g>
			<g>
				<g>
					<rect x="235.5" y="154.7" fill="#65C296" width="3.6" height="40.9"/>
				</g>
			</g>
			<g>
				<g>
					<ellipse fill="#FECB86" cx="237.3" cy="194.4" rx="4" ry="3.8"/>
				</g>
			</g>
		</g>
		<g>
			<g>
				<g>
					<g>
						<path fill="#65C296" d="M129.5,159c-0.4,0-0.8-0.1-1.1-0.4l-11.8-9.6c-0.6-0.5-0.8-1.2-0.6-1.9l10.9-33.9
							c0.3-0.9,1.3-1.4,2.2-1.1c0.9,0.3,1.4,1.3,1.1,2.2l-10.5,32.8l10.8,8.9c0.7,0.6,0.9,1.7,0.2,2.5
							C130.5,158.8,130,159,129.5,159z"/>
					</g>
				</g>
			</g>
			<g>
				<g>
					<path fill="#FECB86" d="M128.4,109.2c-0.3-0.5-0.4-1.1-0.5-1.6c-1.9,1-2.7,3.3-1.7,5.2c1,1.9,3.3,2.6,5.3,1.6
						c0.8-0.4,1.4-1.1,1.8-1.8C131.2,112.3,129.4,111.1,128.4,109.2z"/>
				</g>
			</g>
		</g>
	</g>
</g>
<g id="Layer_11">
</g>
<g id="Layer_9">
</g>
</svg>
