<?xml version="1.0" encoding="utf-8"?>
<!-- Generator: Adobe Illustrator 19.1.0, SVG Export Plug-In . SVG Version: 6.00 Build 0)  -->
<svg version="1.1" id="Layer_1" xmlns="http://www.w3.org/2000/svg" xmlns:xlink="http://www.w3.org/1999/xlink" x="0px" y="0px"
	 viewBox="317 -82.3 939.6 610.7" enable-background="new 317 -82.3 939.6 610.7" xml:space="preserve">
<pattern  x="317" y="528.4" width="624.4" height="644.6" patternUnits="userSpaceOnUse" id="SVGID_39_" viewBox="8.3 -644.6 624.4 644.6" overflow="visible">
	<g>
		<polygon fill="none" points="8.3,0 632.7,0 632.7,-644.6 8.3,-644.6 		"/>
		<g>
			<polygon fill="none" points="8.3,0 632.8,0 632.8,-644.6 8.3,-644.6 			"/>
			<g>
				<g>
					
						<line fill="none" stroke="#FFFFFF" stroke-width="5" stroke-linecap="round" stroke-linejoin="round" stroke-miterlimit="10" x1="524.2" y1="-589.3" x2="539.9" y2="-604.2"/>
					
						<line fill="none" stroke="#FFFFFF" stroke-width="5" stroke-linecap="round" stroke-linejoin="round" stroke-miterlimit="10" x1="539.5" y1="-588.9" x2="524.6" y2="-604.6"/>
				</g>
				<g>
					
						<line fill="none" stroke="#FFFFFF" stroke-width="5" stroke-linecap="round" stroke-linejoin="round" stroke-miterlimit="10" x1="626.9" y1="-355.2" x2="642.7" y2="-370.1"/>
					
						<line fill="none" stroke="#FFFFFF" stroke-width="5" stroke-linecap="round" stroke-linejoin="round" stroke-miterlimit="10" x1="642.3" y1="-354.8" x2="627.3" y2="-370.5"/>
				</g>
				<g>
					
						<line fill="none" stroke="#FFFFFF" stroke-width="5" stroke-linecap="round" stroke-linejoin="round" stroke-miterlimit="10" x1="572.9" y1="-495.8" x2="588.6" y2="-510.8"/>
					
						<line fill="none" stroke="#FFFFFF" stroke-width="5" stroke-linecap="round" stroke-linejoin="round" stroke-miterlimit="10" x1="588.2" y1="-495.5" x2="573.3" y2="-511.2"/>
				</g>
				<g>
					
						<line fill="none" stroke="#FFFFFF" stroke-width="5" stroke-linecap="round" stroke-linejoin="round" stroke-miterlimit="10" x1="524.2" y1="-394.1" x2="539.9" y2="-409.1"/>
					
						<line fill="none" stroke="#FFFFFF" stroke-width="5" stroke-linecap="round" stroke-linejoin="round" stroke-miterlimit="10" x1="539.5" y1="-393.7" x2="524.6" y2="-409.5"/>
				</g>
			</g>
			<g>
				<g>
					
						<line fill="none" stroke="#FFFFFF" stroke-width="5" stroke-linecap="round" stroke-linejoin="round" stroke-miterlimit="10" x1="378.6" y1="-622.6" x2="394.3" y2="-637.5"/>
					
						<line fill="none" stroke="#FFFFFF" stroke-width="5" stroke-linecap="round" stroke-linejoin="round" stroke-miterlimit="10" x1="393.9" y1="-622.2" x2="379" y2="-637.9"/>
				</g>
				<g>
					
						<line fill="none" stroke="#FFFFFF" stroke-width="5" stroke-linecap="round" stroke-linejoin="round" stroke-miterlimit="10" x1="314.7" y1="-516.4" x2="330.4" y2="-531.3"/>
					
						<line fill="none" stroke="#FFFFFF" stroke-width="5" stroke-linecap="round" stroke-linejoin="round" stroke-miterlimit="10" x1="330" y1="-516" x2="315.1" y2="-531.7"/>
				</g>
				<g>
					
						<line fill="none" stroke="#FFFFFF" stroke-width="5" stroke-linecap="round" stroke-linejoin="round" stroke-miterlimit="10" x1="211.9" y1="-555.3" x2="227.7" y2="-570.2"/>
					
						<line fill="none" stroke="#FFFFFF" stroke-width="5" stroke-linecap="round" stroke-linejoin="round" stroke-miterlimit="10" x1="227.3" y1="-554.9" x2="212.3" y2="-570.6"/>
				</g>
			</g>
			<g>
				<g>
					
						<line fill="none" stroke="#FFFFFF" stroke-width="5" stroke-linecap="round" stroke-linejoin="round" stroke-miterlimit="10" x1="101.2" y1="-596.8" x2="116.9" y2="-611.7"/>
					
						<line fill="none" stroke="#FFFFFF" stroke-width="5" stroke-linecap="round" stroke-linejoin="round" stroke-miterlimit="10" x1="116.5" y1="-596.4" x2="101.6" y2="-612.1"/>
				</g>
				<g>
					
						<line fill="none" stroke="#FFFFFF" stroke-width="5" stroke-linecap="round" stroke-linejoin="round" stroke-miterlimit="10" x1="66.3" y1="-461.4" x2="82.1" y2="-476.3"/>
					
						<line fill="none" stroke="#FFFFFF" stroke-width="5" stroke-linecap="round" stroke-linejoin="round" stroke-miterlimit="10" x1="81.7" y1="-461" x2="66.7" y2="-476.7"/>
				</g>
				<g>
					
						<line fill="none" stroke="#FFFFFF" stroke-width="5" stroke-linecap="round" stroke-linejoin="round" stroke-miterlimit="10" x1="2.5" y1="-355.2" x2="18.2" y2="-370.1"/>
					
						<line fill="none" stroke="#FFFFFF" stroke-width="5" stroke-linecap="round" stroke-linejoin="round" stroke-miterlimit="10" x1="17.8" y1="-354.8" x2="2.9" y2="-370.5"/>
				</g>
			</g>
			<g>
				<g>
					
						<line fill="none" stroke="#FFFFFF" stroke-width="5" stroke-linecap="round" stroke-linejoin="round" stroke-miterlimit="10" x1="524.2" y1="-267" x2="539.9" y2="-281.9"/>
					
						<line fill="none" stroke="#FFFFFF" stroke-width="5" stroke-linecap="round" stroke-linejoin="round" stroke-miterlimit="10" x1="539.5" y1="-266.6" x2="524.6" y2="-282.3"/>
				</g>
				<g>
					
						<line fill="none" stroke="#FFFFFF" stroke-width="5" stroke-linecap="round" stroke-linejoin="round" stroke-miterlimit="10" x1="626.9" y1="-32.9" x2="642.7" y2="-47.9"/>
					
						<line fill="none" stroke="#FFFFFF" stroke-width="5" stroke-linecap="round" stroke-linejoin="round" stroke-miterlimit="10" x1="642.3" y1="-32.5" x2="627.3" y2="-48.2"/>
				</g>
				<g>
					
						<line fill="none" stroke="#FFFFFF" stroke-width="5" stroke-linecap="round" stroke-linejoin="round" stroke-miterlimit="10" x1="572.9" y1="-173.6" x2="588.6" y2="-188.5"/>
					
						<line fill="none" stroke="#FFFFFF" stroke-width="5" stroke-linecap="round" stroke-linejoin="round" stroke-miterlimit="10" x1="588.2" y1="-173.2" x2="573.3" y2="-188.9"/>
				</g>
				<g>
					
						<line fill="none" stroke="#FFFFFF" stroke-width="5" stroke-linecap="round" stroke-linejoin="round" stroke-miterlimit="10" x1="524.2" y1="-71.8" x2="539.9" y2="-86.8"/>
					
						<line fill="none" stroke="#FFFFFF" stroke-width="5" stroke-linecap="round" stroke-linejoin="round" stroke-miterlimit="10" x1="539.5" y1="-71.4" x2="524.6" y2="-87.2"/>
				</g>
			</g>
			<g>
				<g>
					
						<line fill="none" stroke="#FFFFFF" stroke-width="5" stroke-linecap="round" stroke-linejoin="round" stroke-miterlimit="10" x1="413.4" y1="-435.6" x2="429.2" y2="-450.6"/>
					
						<line fill="none" stroke="#FFFFFF" stroke-width="5" stroke-linecap="round" stroke-linejoin="round" stroke-miterlimit="10" x1="428.8" y1="-435.2" x2="413.8" y2="-451"/>
				</g>
				<g>
					
						<line fill="none" stroke="#FFFFFF" stroke-width="5" stroke-linecap="round" stroke-linejoin="round" stroke-miterlimit="10" x1="211.9" y1="-428.2" x2="227.7" y2="-443.1"/>
					
						<line fill="none" stroke="#FFFFFF" stroke-width="5" stroke-linecap="round" stroke-linejoin="round" stroke-miterlimit="10" x1="227.3" y1="-427.8" x2="212.3" y2="-443.5"/>
				</g>
				<g>
					
						<line fill="none" stroke="#FFFFFF" stroke-width="5" stroke-linecap="round" stroke-linejoin="round" stroke-miterlimit="10" x1="378.6" y1="-300.3" x2="394.3" y2="-315.2"/>
					
						<line fill="none" stroke="#FFFFFF" stroke-width="5" stroke-linecap="round" stroke-linejoin="round" stroke-miterlimit="10" x1="393.9" y1="-299.9" x2="379" y2="-315.6"/>
				</g>
				<g>
					
						<line fill="none" stroke="#FFFFFF" stroke-width="5" stroke-linecap="round" stroke-linejoin="round" stroke-miterlimit="10" x1="314.7" y1="-194.1" x2="330.4" y2="-209"/>
					
						<line fill="none" stroke="#FFFFFF" stroke-width="5" stroke-linecap="round" stroke-linejoin="round" stroke-miterlimit="10" x1="330" y1="-193.7" x2="315.1" y2="-209.4"/>
				</g>
				<g>
					
						<line fill="none" stroke="#FFFFFF" stroke-width="5" stroke-linecap="round" stroke-linejoin="round" stroke-miterlimit="10" x1="260.7" y1="-334.7" x2="276.4" y2="-349.6"/>
					
						<line fill="none" stroke="#FFFFFF" stroke-width="5" stroke-linecap="round" stroke-linejoin="round" stroke-miterlimit="10" x1="276" y1="-334.3" x2="261.1" y2="-350"/>
				</g>
				<g>
					
						<line fill="none" stroke="#FFFFFF" stroke-width="5" stroke-linecap="round" stroke-linejoin="round" stroke-miterlimit="10" x1="211.9" y1="-233" x2="227.7" y2="-247.9"/>
					
						<line fill="none" stroke="#FFFFFF" stroke-width="5" stroke-linecap="round" stroke-linejoin="round" stroke-miterlimit="10" x1="227.3" y1="-232.6" x2="212.3" y2="-248.3"/>
				</g>
			</g>
			<g>
				<g>
					
						<line fill="none" stroke="#FFFFFF" stroke-width="5" stroke-linecap="round" stroke-linejoin="round" stroke-miterlimit="10" x1="101.2" y1="-274.5" x2="116.9" y2="-289.4"/>
					
						<line fill="none" stroke="#FFFFFF" stroke-width="5" stroke-linecap="round" stroke-linejoin="round" stroke-miterlimit="10" x1="116.5" y1="-274.1" x2="101.6" y2="-289.8"/>
				</g>
				<g>
					
						<line fill="none" stroke="#FFFFFF" stroke-width="5" stroke-linecap="round" stroke-linejoin="round" stroke-miterlimit="10" x1="66.3" y1="-139.1" x2="82.1" y2="-154"/>
					
						<line fill="none" stroke="#FFFFFF" stroke-width="5" stroke-linecap="round" stroke-linejoin="round" stroke-miterlimit="10" x1="81.7" y1="-138.7" x2="66.7" y2="-154.4"/>
				</g>
				<g>
					
						<line fill="none" stroke="#FFFFFF" stroke-width="5" stroke-linecap="round" stroke-linejoin="round" stroke-miterlimit="10" x1="2.5" y1="-32.9" x2="18.2" y2="-47.9"/>
					
						<line fill="none" stroke="#FFFFFF" stroke-width="5" stroke-linecap="round" stroke-linejoin="round" stroke-miterlimit="10" x1="17.8" y1="-32.5" x2="2.9" y2="-48.2"/>
				</g>
			</g>
			<g>
				<g>
					
						<line fill="none" stroke="#FFFFFF" stroke-width="5" stroke-linecap="round" stroke-linejoin="round" stroke-miterlimit="10" x1="413.4" y1="-113.3" x2="429.2" y2="-128.3"/>
					
						<line fill="none" stroke="#FFFFFF" stroke-width="5" stroke-linecap="round" stroke-linejoin="round" stroke-miterlimit="10" x1="428.8" y1="-112.9" x2="413.8" y2="-128.7"/>
				</g>
				<g>
					
						<line fill="none" stroke="#FFFFFF" stroke-width="5" stroke-linecap="round" stroke-linejoin="round" stroke-miterlimit="10" x1="211.9" y1="-105.9" x2="227.7" y2="-120.8"/>
					
						<line fill="none" stroke="#FFFFFF" stroke-width="5" stroke-linecap="round" stroke-linejoin="round" stroke-miterlimit="10" x1="227.3" y1="-105.5" x2="212.3" y2="-121.2"/>
				</g>
				<g>
					
						<line fill="none" stroke="#FFFFFF" stroke-width="5" stroke-linecap="round" stroke-linejoin="round" stroke-miterlimit="10" x1="260.7" y1="-12.4" x2="276.4" y2="-27.3"/>
					
						<line fill="none" stroke="#FFFFFF" stroke-width="5" stroke-linecap="round" stroke-linejoin="round" stroke-miterlimit="10" x1="276" y1="-12" x2="261.1" y2="-27.7"/>
				</g>
			</g>
		</g>
	</g>
</pattern>
<g id="Layer_2">
</g>
<g id="Layer_9">
	<rect x="315.6" y="-83.2" fill="#65C296" width="941" height="611.6"/>
	<pattern  id="SVGID_1_" xlink:href="#SVGID_39_" patternTransform="matrix(1.0548 0 0 -1.055 1194.645 -19921.3203)">
	</pattern>
	<rect x="315.6" y="-83.2" opacity="0.2" fill="url(#SVGID_1_)" enable-background="new    " width="941" height="611.6"/>
	<g>
		<path fill="#65C297" d="M608.6,222.4c0.1,0.1,0.2,0.3,0.3,0.5l0,0C608.8,222.7,608.7,222.6,608.6,222.4z"/>
		<path fill="#65C297" d="M909.6,240.9c0.1-0.7,0.2-1.5,0.3-2.2c0.7-4.1,1.3-8.2,2.1-12.3c3.5-19.3,7.8-38.6,8.5-58.2
			c0.4-11.1,0.6-24.4-5-34.3c-10-17.7-34.7-19.9-49-6.3c-8.6,8.1-12.1,20.4-14.3,31.7c-2.1,10.7-3.2,21.6-2.8,32.5
			c0.3,9.1,5.5,17.9,13.3,22.4c-0.7,3.9-1.4,7.9-2,11.8c-16.8-4.5-33.7-8.7-50.3-14c-1.6-0.5-3.3-1.4-5-1.8
			c-0.2-0.1-0.5-0.2-0.7-0.4c-0.5-0.2-0.9-0.5-1.4-0.9c0.4,0.5-0.2,0.5-1.2-0.5c-0.1-0.1-0.4-0.4-0.6-0.7c-0.1,0-0.2-0.1-0.2-0.1
			v-0.1c0.1,0,0.1,0.1,0.2,0.1c-0.1-0.2-0.3-0.3-0.4-0.5c-0.2-0.3-0.4-0.6-0.5-0.8c-0.1-0.3-0.2-0.6-0.3-0.8
			c-1.2-3.5-2-7.1-3.2-10.7c-3.9-12-9.9-21.8-20.4-29.1c-9-6.3-21-8.2-31.7-7.1c-21.7,2.3-43.1,10.4-63.1,18.7
			c-10.7,4.4-21.2,9.2-31.5,14.4c-3.4-5.5-7.5-10.5-11.5-15.6c-1.6-2-3.2-4.1-4.9-6.1c-0.8-1-1.5-2.1-2.2-3.1
			c-6.3-8.9-11.6-18.5-16.2-28.4c-0.5-1.2-1-2.5-1.4-3.7c-1-2.7-1.9-5.3-2.8-8c-1.7-5.4-3.1-10.9-4.3-16.4
			c-2.7-13.1-18.8-21.9-31.4-17.8C561.9,97.1,555,110,557.9,124c4.7,22.2,13.6,44.1,25.9,63.1c3.2,5,6.7,9.7,10.4,14.3
			c2,2.6,4,5.1,6,7.6c0.6,0.8,1.3,1.6,1.9,2.4l0.1,0.1c2.5,3.4,4.3,7.3,6.6,10.8c-1.7-2.7-0.4-1.9,0.2,0.2c0,0.1,0,0.2,0.1,0.2
			c0.1,0.2,0.2,0.3,0.3,0.5l0,0c-0.1-0.2-0.2-0.3-0.3-0.5c0.1,0.4,0.2,0.9,0.3,1.4c-1.7,9.8,1.3,19.3,9.4,25.6
			c7.9,6.1,19.6,7.4,28.3,2c9.2-5.7,18.6-11,28.2-15.9c4.8-2.4,9.7-4.8,14.6-7c2.2-1,4.4-2,6.6-2.9c1-0.4,1.5-0.7,1.7-0.7
			c0.8-0.3,1.5-0.5,2.2-0.8c10-4,20.2-7.5,30.6-10.6c4.9-1.5,9.8-2.9,14.8-4c0.5-0.1,0.9-0.2,1.4-0.3c0.3,0,0.6,0,0.9-0.1
			c0.4,1,0.8,2,1,3c3.3,11.5,7.4,22.5,16,31.2c16.4,16.5,42,20.5,63.5,26.5c10.5,2.9,21.1,5.5,31.6,8.6c1.5,5.4,3.9,10.5,8.1,14.8
			c6.9,7,16.4,10.4,26.1,9.1c8.9-1.2,17.8-6.1,22.1-14.4c5.3-10.2,3.5-20.8-1.3-30.5c-1.6-3.3-3.7-6.3-6-8.9c0-0.2,0-0.5,0-0.7
			C909.2,245.6,909.4,243.2,909.6,240.9z M904,162.2c0.1-0.4,0.2-0.7,0.3-1.1c0-0.1,0.1-0.2,0.1-0.3l0.1-0.1c0,0,0,0-0.1,0
			c0.2-0.6,0.6-1.4,0.6-2C904.8,161.3,904.2,162.2,904,162.2z M869,152.1c-0.1,1.2,0,2.5,0.1,3.8C869,155.6,868.8,154.4,869,152.1z"
			/>
		<path fill="#65C297" d="M803.1,209c-0.2-0.3-0.8-0.7-1.9-1.3l0.1,0.1C801.9,208.2,802.5,208.6,803.1,209z"/>
	</g>
	<g>
		<path fill="#FFFFFF" stroke="#FFFFFF" stroke-linecap="round" stroke-linejoin="round" stroke-miterlimit="10" d="M596,173.7
			l-0.1,0.2c-0.2,0.9-0.3,2.2-0.3,4s-0.3,3.7-0.7,5.8c-0.4,2.1-1,7-1.6,14.9c-0.6,7.8-0.9,13.2-0.9,16.1c0,0.2-0.2,0.4-0.5,0.8
			c-0.3,0.3-0.6,0.5-1,0.5c-0.4,0-0.7-0.2-1-0.5c-0.3-0.4-0.5-0.9-0.6-1.5s-0.2-1.2-0.3-1.7c-0.1-0.9-0.1-1.9-0.1-3
			c0-1.2-0.1-2.4-0.3-3.6c-0.2-1.2-0.4-2.6-0.7-4.1c-0.3-1.5-0.5-2.8-0.6-3.8s-0.6-5.1-1.5-12.2c-2.2-18.8-3.6-28.7-4.2-29.6
			c0.4-0.7,0.9-1.1,1.5-1.1s1.2,0.5,1.5,1.5s0.7,2.3,0.9,3.8c0.2,1.6,0.3,3.1,0.4,4.6s0.2,2.9,0.3,4.4s0.2,3.3,0.4,5.3
			c0.2,2.1,0.8,6.6,1.8,13.7s1.7,12,2.1,14.8h0.2c0-2.5,0.2-5.4,0.6-8.7c0.4-3.3,0.6-5.3,0.7-6.2c0.1-0.8,0.2-1.9,0.5-3.1
			c0.2-1.2,0.4-2.2,0.4-2.9c0.1-0.7,0.2-2.7,0.3-5.9c0.2-3.3,0.3-5.4,0.4-6.4c0.1-1,0.2-2.1,0.4-3.3s0.3-2.1,0.3-2.8l-0.1-1.4
			c0-0.7,0.4-1.2,1.1-1.6c1.6,0,2.4,0.5,2.4,1.4l-0.4,1.1c0,5.9,1.1,13,3.3,21.3c2.2,8.2,3.3,15.2,3.3,20.8l0.2,0.2
			c0.2-0.6,0.3-2.2,0.4-4.8c0.1-2.6,0.6-6.6,1.2-12c0.7-5.4,1.1-9.2,1.2-11.4c0.1-2.2,0.5-5.7,1-10.3c0.6-4.7,0.8-8.3,0.8-10.8
			l-0.1-1.5c0-1.3,0.7-1.9,2.1-1.9c0.3,0,0.7,0.1,1,0.4c0.3,0.2,0.5,0.6,0.5,1s-0.3,0.9-0.9,1.4c0.1,0.1,0.1,0.3,0.1,0.5
			c0,0.3-0.1,0.9-0.3,1.8c-0.4,3.1-0.9,9-1.6,17.6c-0.7,8.7-1.6,16.1-2.6,22.3s-1.6,11.2-1.6,15.1v1.2c0,0.6-0.1,1.1-0.3,1.4
			s-0.6,0.5-1.2,0.5c-1.2,0-2.2-4.1-2.9-12.3c-0.2-2.5-1-7.2-2.5-14.2c-1.4-7-2.4-12.2-2.8-15.5L596,173.7z M604.4,205.6
			c-0.1,0-0.2,0-0.2,0.1L604.4,205.6z"/>
		<path fill="#FFFFFF" stroke="#FFFFFF" stroke-linecap="round" stroke-linejoin="round" stroke-miterlimit="10" d="M630.9,161.8
			c0,0,0.1-0.1,0.4-0.4c0.3-0.2,0.5-0.4,0.7-0.4s0.7,0.2,1.7,0.5c0,4.2,0.2,10.4,0.5,18.7c0.3,8.3,0.5,15,0.5,20
			c0,5.1,0.2,9.9,0.5,14.5c0,0-1.4,0.1-3,0.1c-0.3-11.8-0.4-19-0.4-21.4l0.1-1c0-0.8-0.1-1.8-0.3-3l-1.2-0.3c-0.5,0.2-1,0.2-1.6,0.2
			l-5.1-0.8l-0.8,0.3l-0.2,10.1l0.2,0.4l0.5,13.4c0,1.4-0.4,2.1-1.3,2.1c-1.2,0-1.8-1.6-1.8-4.8l0.2-14.6c0-4.8-0.1-7.4-0.2-7.8
			c0.3-0.5,0.4-2.3,0.4-5.3l-0.6-18.7c0-0.4,0.1-0.7,0.4-1c0.3-0.3,0.6-0.5,1-0.5c1.1,0,1.6,1.5,1.6,4.6l-0.3,19.5
			c0,0.6,2.1,0.9,6.4,0.9c1,0,1.8-0.2,2.2-0.6c0.5-0.4,0.7-1.4,0.7-3.1s-0.2-5-0.5-9.9c-0.4-4.9-0.5-8.6-0.5-11
			C630.9,162,630.9,161.8,630.9,161.8z"/>
		<path fill="#FFFFFF" stroke="#FFFFFF" stroke-linecap="round" stroke-linejoin="round" stroke-miterlimit="10" d="M653.9,202.9
			l-2.1,0.1c-0.8-0.3-1.6-0.5-2.5-0.5s-1.4,0-1.5,0.1s-0.1,0.1-0.2,0.3c0,0.1-0.1,0.2-0.1,0.3l-0.2,1.6c-0.1,1.4-0.4,3-0.7,4.9
			c-0.7,3.7-1.5,5.6-2.3,5.6c-0.3,0-0.7-0.1-1.1-0.4s-0.5-0.6-0.5-0.9c0.7-2,1.4-5,2.1-9.1c0.7-4.1,1.2-6.6,1.4-7.6
			c0.2-1,0.5-3,1-6.1c0.5-3,0.8-5.1,1-6c0.2-1,0.6-3,1.3-6.2s1.1-5.3,1.2-6.3s0.3-2.3,0.5-4c0.4-4.2,0.8-6.5,1.1-7l1.1,0.1
			c0.7,0,1.1-0.2,1.4-0.5c0.3,0,0.7,0.1,1,0.3c0.3,0.2,0.5,0.5,0.5,0.9c0,2.6,0.3,7.5,1,14.8c0.7,7.3,1.2,12.1,1.5,14.2
			c0.4,2.1,0.8,4.3,1.3,6.3c0.5,2.1,0.7,3.7,0.7,4.7l-0.4,1.1c0,1.2,0.2,3,0.7,5.3c0.4,2.3,0.7,4,0.7,4.9c0,1-0.2,1.5-0.6,1.8
			c-1.1,0-1.8-0.2-2-0.5c-0.2-0.3-0.4-0.8-0.4-1.5s0-1.5-0.1-2.5c-0.1-1-0.2-1.8-0.3-2.4c-0.1-0.6-0.2-1.5-0.5-2.8
			c-0.2-1.3-0.4-2.1-0.4-2.5C656.5,203,655.3,202.9,653.9,202.9z M648.3,198.9c0,0.5,0.6,1,1.9,1.4c2,0.5,4.1,0.8,6.5,0.8h0.8
			c-0.3-1-0.5-2.2-0.5-3.6v-1.8c0-3.3-0.4-8.1-1.2-14.5c-0.8-6.4-1.3-11-1.3-14.1c-2.8,13.8-4.5,22.3-5.2,25.5
			C648.6,195.8,648.3,198,648.3,198.9z"/>
		<path fill="#FFFFFF" stroke="#FFFFFF" stroke-linecap="round" stroke-linejoin="round" stroke-miterlimit="10" d="M682,164.6
			l-4.3-0.5l-0.4,0.5l0.2,0.3c-0.1,0.2-0.2,1.7-0.2,4.6c0,2.8,0.4,9.5,1.3,19.9c0.9,10.4,1.3,18.2,1.3,23.5c0,0.4-0.2,0.7-0.5,1.1
			c-0.3,0.4-0.7,0.5-1.1,0.5l-0.9-0.7l-0.2-5.8l0.2-2.8c0-0.7-0.1-1.4-0.3-1.9c0-4.5-0.3-11.1-1-19.8c-0.6-8.7-1-15.1-1-19.2
			c-4.2,0-6.4-0.5-6.7-1.5c0.2-0.6,0.7-0.9,1.5-0.9l10.9,0.7l1.4-0.1c1,0,1.4,0.3,1.4,1c0,0.4-0.2,0.7-0.6,0.9
			C682.8,164.5,682.4,164.6,682,164.6z"/>
		<path fill="#FFFFFF" stroke="#FFFFFF" stroke-linecap="round" stroke-linejoin="round" stroke-miterlimit="10" d="M726.9,166.1
			l-0.2-2c0-1.1,0.4-1.7,1.1-1.7c0.5,0,0.9,0.2,1.3,0.7c0.3,0.5,0.5,1,0.5,1.6v5.4l-0.4,0.7c0,4.2-0.3,12.2-0.9,24.2
			s-1.1,18.5-1.7,19.6c-0.1,0-0.5,0.1-1.2,0.3c-0.6,0.2-1.1,0.3-1.3,0.3c-0.3,0-0.5-0.2-0.7-0.5c-0.2-0.4-0.4-0.8-0.5-1.4
			s-0.2-1-0.3-1.1l0.1-0.2c-0.3-2.2-1-4.7-2.1-7.6s-1.7-4.8-2.1-5.8c-0.2-0.2-0.9-2.2-2.1-6c-4.8-14.9-7.8-22.9-9.1-24.1
			c-0.4,1.6-0.6,3.5-0.6,5.6l0.2,6.3l-0.2,3.9c0,0.6,0.1,2.5,0.3,5.6h-0.2c0,8.9,0.2,13.8,0.5,14.7v7.2c0.2,0.4,0.3,0.8,0.3,1.4
			c0,1.2-0.5,1.9-1.5,1.9c-1.1,0-1.7-1.4-1.7-4.3l0.3-5.2l-0.5-23l0.5-14.2V167c0-0.7,0-1.2,0.1-1.4c0.1-0.2,0.1-0.5,0.1-0.8
			s0.1-0.6,0.2-0.8s0.2-0.4,0.3-0.6c0.2-0.5,0.5-0.8,0.8-1.1l0.2,0.3l0.8-0.2c0.6,0.2,1,0.6,1.1,1.2c0,0.1,0,0.2,0.1,0.4
			s0.1,0.4,0.1,0.4c0.9,3.8,2.8,9.1,5.7,15.9c2.9,6.8,4.7,11.2,5.3,13.1c0.6,1.9,1.2,4,1.7,6.2c1.1,4.8,2.3,8.3,3.6,10.5l0.2-0.2
			C726.3,198,726.9,183.5,726.9,166.1z M725.2,214.9C725.2,214.9,725.3,214.9,725.2,214.9L725.2,214.9z"/>
		<path fill="#FFFFFF" stroke="#FFFFFF" stroke-linecap="round" stroke-linejoin="round" stroke-miterlimit="10" d="M755.7,183.9
			l0.2,9.5c0,12-1.9,19.3-5.8,21.9c-0.9,0.7-2,1-3.2,1c-6.2,0-9.4-9.8-9.4-29.5c0-7.6,0.5-14.2,1.6-19.7c0.8-4.1,2-6.1,3.6-6.1
			c0.4,0,0.7,0.1,1,0.4c0.3,0.3,0.8,0.5,1.3,0.7c0.6,0.2,1.3,0.4,2.3,0.6c1,0.2,1.7,0.3,2.1,0.4c1.1,0.2,2.1,1.2,3.1,3.1
			c2.2,3.8,3.4,9.6,3.4,17.3L755.7,183.9z M740.1,186.8l0.2,6.3c0,5.1,0.6,9.9,1.7,14.5c0.4,1.7,1,3.2,1.9,4.5
			c0.8,1.3,1.8,1.9,2.8,1.9s2-0.4,2.8-1.2c0.8-0.8,1.4-1.9,1.9-3.3s0.9-2.8,1.2-4.3c0.3-1.5,0.5-3.1,0.7-4.9
			c0.2-2.9,0.3-5.4,0.3-7.7l-0.9-18.9l-0.3-0.6l0.2-0.4c0-2.3-0.7-4.3-2-6.1c-1.3-1.7-2.9-2.6-4.8-2.6h-3.4c-0.4,0-0.8,2.4-1.2,7.1
			c-0.3,4.8-0.6,7.4-0.7,7.9L740.1,186.8z"/>
		<path fill="#FFFFFF" stroke="#FFFFFF" stroke-linecap="round" stroke-linejoin="round" stroke-miterlimit="10" d="M776.5,164.6
			l-4.3-0.5l-0.4,0.5l0.2,0.3c-0.1,0.2-0.2,1.7-0.2,4.6c0,2.8,0.4,9.5,1.3,19.9c0.9,10.4,1.3,18.2,1.3,23.5c0,0.4-0.2,0.7-0.5,1.1
			c-0.3,0.4-0.7,0.5-1.1,0.5l-0.8-0.8l-0.2-5.8l0.2-2.8c0-0.7-0.1-1.4-0.3-1.9c0-4.5-0.3-11.1-1-19.8c-0.6-8.7-1-15.1-1-19.2
			c-4.2,0-6.4-0.5-6.7-1.5c0.2-0.6,0.7-0.9,1.5-0.9l10.9,0.7l1.4-0.1c1,0,1.4,0.3,1.4,1c0,0.4-0.2,0.7-0.6,0.9
			C777.3,164.5,776.9,164.6,776.5,164.6z"/>
		<path fill="#FFFFFF" stroke="#FFFFFF" stroke-linecap="round" stroke-linejoin="round" stroke-miterlimit="10" d="M812.1,164.6
			l-4.3-0.5l-0.4,0.5l0.2,0.3c-0.1,0.2-0.2,1.7-0.2,4.6c0,2.8,0.4,9.5,1.3,19.9c0.9,10.4,1.3,18.2,1.3,23.5c0,0.4-0.2,0.7-0.5,1.1
			s-0.7,0.5-1.1,0.5l-0.9-0.7l-0.2-5.8l0.2-2.8c0-0.7-0.1-1.4-0.3-1.9c0-4.5-0.3-11.1-1-19.8c-0.6-8.7-1-15.1-1-19.2
			c-4.2,0-6.4-0.5-6.7-1.5c0.2-0.6,0.7-0.9,1.5-0.9l10.9,0.7l1.4-0.1c1,0,1.4,0.3,1.4,1c0,0.4-0.2,0.7-0.6,0.9
			C812.9,164.5,812.5,164.6,812.1,164.6z"/>
		<path fill="#FFFFFF" stroke="#FFFFFF" stroke-linecap="round" stroke-linejoin="round" stroke-miterlimit="10" d="M838.9,183.9
			l0.2,9.5c0,12-1.9,19.3-5.8,21.9c-0.9,0.7-2,1-3.2,1c-6.3,0-9.4-9.8-9.4-29.5c0-7.6,0.5-14.2,1.6-19.7c0.8-4.1,2-6.1,3.6-6.1
			c0.4,0,0.7,0.1,1,0.4c0.3,0.3,0.8,0.5,1.3,0.7c0.6,0.2,1.3,0.4,2.3,0.6c1,0.2,1.7,0.3,2.1,0.4c1.1,0.2,2.1,1.2,3.1,3.1
			c2.2,3.8,3.4,9.6,3.4,17.3L838.9,183.9z M823.2,186.8l0.2,6.3c0,5.1,0.6,9.9,1.7,14.5c0.4,1.7,1,3.2,1.9,4.5
			c0.8,1.3,1.8,1.9,2.8,1.9c1.1,0,2-0.4,2.8-1.2c0.8-0.8,1.4-1.9,1.9-3.3s0.9-2.8,1.2-4.3s0.5-3.1,0.7-4.9c0.2-2.9,0.3-5.4,0.3-7.7
			l-0.9-18.9l-0.3-0.6l0.2-0.4c0-2.3-0.7-4.3-2-6.1c-1.3-1.7-2.9-2.6-4.8-2.6h-3.4c-0.4,0-0.8,2.4-1.2,7.1c-0.3,4.8-0.6,7.4-0.7,7.9
			L823.2,186.8z"/>
		<path fill="#FFFFFF" stroke="#FFFFFF" stroke-linecap="round" stroke-linejoin="round" stroke-miterlimit="10" d="M872.5,163.8
			l-1.7-0.5c-0.8,0-1.6,0.3-2.2,1s-1.1,1.5-1.4,2.5c-0.7,1.9-1,3.4-1,4.5s0,1.9,0.1,2.3c0.1,0.5,0.1,1,0.3,1.6
			c0.1,0.6,0.2,1.1,0.3,1.3c0.1,0.3,0.2,0.8,0.4,1.6c0.2,0.8,0.4,1.3,0.4,1.4l0.6,1.4c0.5,0.9,1.2,2.1,2,3.5s1.5,2.5,1.9,3.2
			s0.9,1.7,1.4,2.9c0.5,1.2,0.9,2.3,1.2,3.2c0.7,2.5,1,4.7,1,6.7s-0.1,3.5-0.2,4.7c-0.2,1.2-0.4,2.4-0.9,3.7s-1,2.3-1.6,3.3
			c-1.4,2.2-3.4,3.3-6,3.3l-0.4,0.2c-1.6-0.3-2.4-0.9-2.6-2l0.4-0.6l2.9,0.5c1.2,0,2.3-0.5,3.2-1.4c0.9-1,1.5-2.2,2-3.6
			c0.8-2.7,1.2-5.2,1.2-7.5s-0.3-4.5-1-6.5s-1.5-3.9-2.4-5.6s-1.9-3.4-2.8-5.1c-2.3-4.1-3.4-8.1-3.4-12.1c0-2,0.4-4,1.1-5.8
			c1.3-3.4,3.1-5.1,5.2-5.1c0.6,0,1.3,0.2,2,0.7s1.1,1,1.1,1.5C873.5,163.6,873.2,163.8,872.5,163.8z M873,163.5L873,163.5
			L873,163.5C873.1,163.5,873.1,163.5,873,163.5z"/>
		<path fill="#FFFFFF" stroke="#FFFFFF" stroke-linecap="round" stroke-linejoin="round" stroke-miterlimit="10" d="M894.1,202.9
			L892,203c-0.8-0.3-1.6-0.5-2.5-0.5s-1.4,0-1.5,0.1s-0.1,0.1-0.2,0.3c0,0.1-0.1,0.2-0.1,0.3l-0.2,1.6c-0.1,1.4-0.4,3-0.7,4.9
			c-0.7,3.7-1.5,5.6-2.3,5.6c-0.3,0-0.7-0.1-1.1-0.4c-0.4-0.3-0.5-0.6-0.5-0.9c0.7-2,1.4-5,2.1-9.1c0.7-4.1,1.2-6.6,1.4-7.6
			s0.5-3,1-6.1c0.5-3,0.8-5.1,1-6c0.2-1,0.6-3,1.3-6.2s1.1-5.3,1.2-6.3c0.1-1,0.3-2.3,0.5-4c0.4-4.2,0.8-6.5,1.1-7l1.1,0.1
			c0.7,0,1.1-0.2,1.4-0.5c0.3,0,0.7,0.1,1,0.3s0.5,0.5,0.5,0.9c0,2.6,0.3,7.5,1,14.8s1.2,12.1,1.5,14.2c0.4,2.1,0.8,4.3,1.3,6.3
			c0.5,2.1,0.7,3.7,0.7,4.7l-0.4,1.1c0,1.2,0.2,3,0.7,5.3c0.4,2.3,0.7,4,0.7,4.9c0,1-0.2,1.5-0.6,1.8c-1.1,0-1.8-0.2-2-0.5
			s-0.4-0.8-0.4-1.5s0-1.5-0.1-2.5s-0.2-1.8-0.3-2.4s-0.2-1.5-0.5-2.8c-0.2-1.3-0.4-2.1-0.4-2.5C896.7,203,895.5,202.9,894.1,202.9z
			 M888.4,198.9c0,0.5,0.6,1,1.9,1.4c2,0.5,4.1,0.8,6.5,0.8h0.8c-0.3-1-0.5-2.2-0.5-3.6v-1.8c0-3.3-0.4-8.1-1.2-14.5
			s-1.3-11-1.3-14.1c-2.8,13.8-4.5,22.3-5.2,25.5S888.4,198,888.4,198.9z"/>
		<path fill="#FFFFFF" stroke="#FFFFFF" stroke-linecap="round" stroke-linejoin="round" stroke-miterlimit="10" d="M919.5,197.5
			l0.1,12.7c0,3.9-0.6,5.8-1.7,5.8c-0.2,0-0.4-0.1-0.7-0.3c-0.3-0.2-0.4-0.4-0.5-0.6c0.5-1.3,0.8-6,0.8-14c0-1.6-0.1-3.8-0.3-6.7
			s-0.3-4.8-0.3-5.7l-0.5-1l0.2-1c-0.7-1.6-1.9-4.9-3.8-10.1c-2.7-7.4-4-11.7-4.1-12.9l1.1-0.9c0.5,0.1,1.3,1.8,2.3,5.1
			s2.1,6.6,3.1,10c1,3.3,1.7,5.1,2.1,5.2l0.3-1.4l-0.2-0.4c0.4-0.5,0.9-2.4,1.5-5.7c0.6-3.3,1.3-6.5,2.1-9.5c0.7-3,1.4-4.5,2.1-4.5
			c0.7,0,1,0.3,1,0.9c0,0.6-0.3,1.9-0.9,3.9c-0.6,2-1.1,3.9-1.6,5.5c-0.5,1.7-0.9,3-1.1,3.9c-0.2,0.9-0.5,2.1-0.8,3.4
			c-0.6,2.6-0.9,5-0.9,7.3c0.3,0.7,0.4,1.1,0.4,1.4l-0.5,2.3L919.5,197.5z"/>
		<path fill="#FFFFFF" stroke="#FFFFFF" stroke-linecap="round" stroke-linejoin="round" stroke-miterlimit="10" d="M957.6,214.2
			l-2.7-0.3c-0.4,0-0.9,0.2-1.5,0.4c-0.6,0.3-1.3,0.4-2.1,0.4s-1.3-0.3-1.5-0.8l-1.3,0.1c-1.1,0-1.9-0.3-2.2-0.8
			c0-0.3,0.1-0.6,0.4-0.8c0.3-0.2,0.5-0.4,0.6-0.5h2.3l0.3-0.3l0.3-1.7l-0.6-17.5l0.4-18.7c0-3.6-0.1-6.7-0.4-9.3
			c-0.5-0.2-1.3-0.2-2.4-0.2l-1.9,0.2c-1,0-1.5-0.5-1.5-1.4c0-0.2,0.2-0.5,0.7-0.7s0.9-0.3,1.2-0.3c7.4,0,11.1,0.8,11.1,2.4
			c0,0.2-0.1,0.4-0.2,0.6l-1.8,0.2c-0.4-0.3-1.2-0.5-2.3-0.5l-0.4,0.2c0.2,0.5,0.2,1.9,0.2,4.3l-0.2,19l0.5,17.5l-0.1,2.5
			c0,1.2,0.1,2,0.2,2.2l-0.1,0.2c0,0.5,0.6,0.8,1.8,0.8l2.3-0.1c1.6,0,2.4,0.4,2.4,1.1c0,0.5-0.2,0.9-0.5,1.2
			C958.5,214,958.1,214.2,957.6,214.2z"/>
		<path fill="#FFFFFF" stroke="#FFFFFF" stroke-linecap="round" stroke-linejoin="round" stroke-miterlimit="10" d="M989.2,166.1
			l-0.2-2c0-1.1,0.4-1.7,1.1-1.7c0.5,0,0.9,0.2,1.3,0.7c0.3,0.5,0.5,1,0.5,1.6v5.4l-0.4,0.7c0,4.2-0.3,12.2-0.9,24.2
			c-0.6,12-1.1,18.5-1.7,19.6c-0.1,0-0.5,0.1-1.2,0.3c-0.6,0.2-1.1,0.3-1.3,0.3c-0.3,0-0.5-0.2-0.7-0.5c-0.2-0.4-0.4-0.8-0.5-1.4
			s-0.2-1-0.3-1.1l0.1-0.2c-0.3-2.2-1-4.7-2.1-7.6s-1.7-4.8-2.1-5.8c-0.2-0.2-0.9-2.2-2.1-6c-4.8-14.9-7.8-22.9-9.1-24.1
			c-0.4,1.6-0.6,3.5-0.6,5.6l0.2,6.3l-0.2,3.9c0,0.6,0.1,2.5,0.3,5.6h-0.2c0,8.9,0.2,13.8,0.5,14.7v7.2c0.2,0.4,0.3,0.8,0.3,1.4
			c0,1.2-0.5,1.9-1.5,1.9c-1.1,0-1.7-1.4-1.7-4.3l0.3-5.2l-0.5-23l0.5-14.2V167c0-0.7,0-1.2,0.1-1.4s0.1-0.5,0.1-0.8
			s0.1-0.6,0.2-0.8c0.1-0.2,0.2-0.4,0.3-0.6c0.2-0.5,0.5-0.8,0.8-1.1l0.2,0.3l0.8-0.2c0.6,0.2,1,0.6,1.1,1.2c0,0.1,0,0.2,0.1,0.4
			s0.1,0.4,0.1,0.4c0.9,3.8,2.8,9.1,5.7,15.9s4.7,11.2,5.3,13.1s1.2,4,1.7,6.2c1.1,4.8,2.3,8.3,3.6,10.5l0.2-0.2
			C988.5,198,989.2,183.5,989.2,166.1z M987.5,214.9C987.5,214.9,987.6,214.9,987.5,214.9L987.5,214.9z"/>
		<path fill="#FFFFFF" stroke="#FFFFFF" stroke-linecap="round" stroke-linejoin="round" stroke-miterlimit="10" d="M649.5,278.9
			l-2.1,0.1c-0.8-0.3-1.6-0.5-2.5-0.5c-0.9,0-1.4,0-1.5,0.1c-0.1,0.1-0.1,0.1-0.2,0.3c0,0.1-0.1,0.2-0.1,0.3l-0.1,1.5
			c-0.1,1.4-0.4,3-0.7,4.9c-0.7,3.7-1.5,5.6-2.3,5.6c-0.3,0-0.7-0.1-1.1-0.4c-0.4-0.3-0.5-0.6-0.5-0.9c0.7-2,1.4-5,2.1-9.1
			s1.2-6.6,1.4-7.6c0.2-1,0.5-3,1-6.1c0.5-3,0.8-5.1,1-6c0.2-1,0.6-3,1.3-6.2c0.7-3.2,1.1-5.3,1.2-6.3c0.1-1,0.3-2.3,0.5-4
			c0.4-4.2,0.8-6.5,1.1-7l1.1,0.1c0.7,0,1.1-0.2,1.4-0.5c0.3,0,0.7,0.1,1,0.3c0.3,0.2,0.5,0.5,0.5,0.9c0,2.6,0.3,7.5,1,14.8
			s1.2,12.1,1.5,14.2c0.4,2.1,0.8,4.3,1.3,6.3c0.5,2.1,0.7,3.7,0.7,4.7l-0.4,1.1c0,1.2,0.2,3,0.7,5.3c0.4,2.3,0.7,4,0.7,4.9
			c0,1-0.2,1.5-0.6,1.8c-1.1,0-1.8-0.2-2-0.5s-0.4-0.8-0.4-1.5s0-1.5-0.1-2.5s-0.2-1.8-0.3-2.4c-0.1-0.6-0.2-1.5-0.5-2.8
			c-0.2-1.3-0.4-2.1-0.4-2.5C652,279,650.8,278.9,649.5,278.9z M643.8,274.9c0,0.5,0.6,1,1.9,1.4c2,0.5,4.1,0.8,6.5,0.8h0.8
			c-0.3-1-0.5-2.2-0.5-3.6v-1.8c0-3.3-0.4-8.1-1.2-14.5c-0.8-6.4-1.3-11-1.3-14.1c-2.8,13.8-4.5,22.3-5.2,25.5
			C644.1,271.8,643.8,274,643.8,274.9z"/>
		<path fill="#FFFFFF" stroke="#FFFFFF" stroke-linecap="round" stroke-linejoin="round" stroke-miterlimit="10" d="M687.8,242.1
			l-0.2-2c0-1.1,0.4-1.7,1.1-1.7c0.5,0,0.9,0.2,1.3,0.7c0.3,0.5,0.5,1,0.5,1.6v5.4l-0.4,0.7c0,4.2-0.3,12.2-0.9,24.2
			c-0.6,12-1.1,18.5-1.7,19.6c-0.1,0-0.5,0.1-1.2,0.3c-0.6,0.2-1.1,0.3-1.3,0.3c-0.3,0-0.5-0.2-0.7-0.5c-0.2-0.4-0.4-0.8-0.5-1.4
			c-0.1-0.6-0.2-1-0.3-1.1l0.1-0.2c-0.3-2.2-1-4.7-2.1-7.6c-1.1-2.9-1.7-4.8-2.1-5.8c-0.2-0.2-0.9-2.2-2.1-6
			c-4.8-14.9-7.8-22.9-9.1-24.1c-0.4,1.6-0.6,3.5-0.6,5.6l0.2,6.3l-0.2,3.9c0,0.6,0.1,2.5,0.3,5.6h-0.2c0,8.9,0.2,13.8,0.5,14.7v7.2
			c0.2,0.4,0.3,0.8,0.3,1.4c0,1.2-0.5,1.9-1.5,1.9c-1.1,0-1.7-1.4-1.7-4.3l0.3-5.2l-0.5-23l0.5-14.2V243c0-0.7,0-1.2,0.1-1.4
			s0.1-0.5,0.1-0.8s0.1-0.6,0.2-0.8c0.1-0.2,0.2-0.4,0.3-0.6c0.2-0.5,0.5-0.8,0.8-1.1l0.2,0.3l0.8-0.2c0.6,0.2,1,0.6,1.1,1.2
			c0,0.1,0,0.2,0.1,0.4c0.1,0.2,0.1,0.4,0.1,0.4c0.9,3.8,2.8,9.1,5.7,15.9c2.9,6.8,4.7,11.2,5.3,13.1s1.2,4,1.7,6.2
			c1.1,4.8,2.3,8.3,3.6,10.5l0.2-0.2C687.2,274,687.8,259.5,687.8,242.1z M686.1,290.9C686.2,290.9,686.2,290.9,686.1,290.9
			L686.1,290.9z"/>
		<path fill="#FFFFFF" stroke="#FFFFFF" stroke-linecap="round" stroke-linejoin="round" stroke-miterlimit="10" d="M727.7,290.2
			l-2.7-0.3c-0.4,0-0.9,0.2-1.5,0.4c-0.6,0.3-1.3,0.4-2.1,0.4c-0.8,0-1.3-0.3-1.5-0.8l-1.3,0.1c-1.1,0-1.9-0.3-2.2-0.8
			c0-0.3,0.1-0.6,0.4-0.8c0.3-0.2,0.5-0.4,0.6-0.5h2.3l0.3-0.3l0.3-1.7l-0.6-17.5l0.4-18.7c0-3.6-0.1-6.7-0.4-9.3
			c-0.5-0.2-1.3-0.2-2.4-0.2l-1.9,0.2c-1,0-1.5-0.5-1.5-1.4c0-0.2,0.2-0.5,0.7-0.7s0.9-0.3,1.2-0.3c7.4,0,11.1,0.8,11.1,2.4
			c0,0.2-0.1,0.4-0.2,0.6l-1.8,0.2c-0.4-0.3-1.2-0.5-2.3-0.5l-0.4,0.2c0.2,0.5,0.2,1.9,0.2,4.3l-0.2,19l0.5,17.5l-0.1,2.5
			c0,1.2,0.1,2,0.2,2.2l0.2,0.3c0,0.5,0.6,0.8,1.8,0.8l2.3-0.1c1.6,0,2.4,0.4,2.4,1.1c0,0.5-0.2,0.9-0.5,1.2
			C728.6,290,728.2,290.2,727.7,290.2z"/>
		<path fill="#FFFFFF" stroke="#FFFFFF" stroke-linecap="round" stroke-linejoin="round" stroke-miterlimit="10" d="M759.3,242.1
			l-0.2-2c0-1.1,0.4-1.7,1.1-1.7c0.5,0,0.9,0.2,1.3,0.7c0.3,0.5,0.5,1,0.5,1.6v5.4l-0.4,0.7c0,4.2-0.3,12.2-0.9,24.2
			c-0.6,12-1.1,18.5-1.7,19.6c-0.1,0-0.5,0.1-1.2,0.3c-0.6,0.2-1.1,0.3-1.3,0.3c-0.3,0-0.5-0.2-0.7-0.5c-0.2-0.4-0.4-0.8-0.5-1.4
			c-0.1-0.6-0.2-1-0.3-1.1l0.1-0.2c-0.3-2.2-1-4.7-2.1-7.6c-1.1-2.9-1.7-4.8-2.1-5.8c-0.2-0.2-0.9-2.2-2.1-6
			c-4.8-14.9-7.8-22.9-9.1-24.1c-0.4,1.6-0.6,3.5-0.6,5.6l0.2,6.3l-0.2,3.9c0,0.6,0.1,2.5,0.3,5.6h-0.2c0,8.9,0.2,13.8,0.5,14.7v7.2
			c0.2,0.4,0.3,0.8,0.3,1.4c0,1.2-0.5,1.9-1.5,1.9c-1.1,0-1.7-1.4-1.7-4.3l0.3-5.2l-0.5-23l0.5-14.2V243c0-0.7,0-1.2,0.1-1.4
			s0.1-0.5,0.1-0.8s0.1-0.6,0.2-0.8c0.1-0.2,0.2-0.4,0.3-0.6c0.2-0.5,0.5-0.8,0.8-1.1l0.2,0.3l0.8-0.2c0.6,0.2,1,0.6,1.1,1.2
			c0,0.1,0,0.2,0.1,0.4c0.1,0.2,0.1,0.4,0.1,0.4c0.9,3.8,2.8,9.1,5.7,15.9c2.9,6.8,4.7,11.2,5.3,13.1s1.2,4,1.7,6.2
			c1.1,4.8,2.3,8.3,3.6,10.5l0.2-0.2C758.7,274,759.3,259.5,759.3,242.1z M757.6,290.9C757.7,290.9,757.7,290.9,757.6,290.9
			L757.6,290.9z"/>
		<path fill="#FFFFFF" stroke="#FFFFFF" stroke-linecap="round" stroke-linejoin="round" stroke-miterlimit="10" d="M782.7,240.6
			l-4.3-0.5l-0.4,0.5l0.2,0.3c-0.1,0.2-0.2,1.7-0.2,4.6c0,2.8,0.4,9.5,1.3,19.9c0.9,10.4,1.3,18.2,1.3,23.5c0,0.4-0.2,0.7-0.5,1.1
			c-0.3,0.4-0.7,0.5-1.1,0.5l-0.9-0.7l-0.2-5.8l0.2-2.8c0-0.7-0.1-1.4-0.3-1.9c0-4.5-0.3-11.1-1-19.8c-0.6-8.7-1-15.1-1-19.2
			c-4.2,0-6.4-0.5-6.7-1.5c0.2-0.6,0.7-0.9,1.5-0.9l10.9,0.7l1.4-0.1c1,0,1.4,0.3,1.4,1c0,0.4-0.2,0.7-0.6,0.9
			C783.4,240.5,783.1,240.6,782.7,240.6z"/>
		<path fill="#FFFFFF" stroke="#FFFFFF" stroke-linecap="round" stroke-linejoin="round" stroke-miterlimit="10" d="M791.8,290.2
			l0.1-2l-0.3-0.3c0.4-1.1,0.6-2.2,0.6-3.3l-0.4-10.5l0.5-24.1l-0.3-9.6c0-1.5,0.8-2.3,2.3-2.3c0.6,0,1,0.2,1.3,0.5
			c0.2,0.1,1,0.2,2.3,0.3c3.3,0.4,5,1,5,2c0,0.4-0.5,0.9-1.5,1.5c-2.9-1-5.1-1.5-6.5-1.5l-0.4,0.5c0.1,0.8,0.1,1.9,0.1,3.4
			l-0.3,12.4c0,1.5,0.4,2.2,1.1,2.2l2.7-0.2c2,0,3.1,0.5,3.1,1.4c0,0.5-0.1,1-0.4,1.4s-0.8,0.6-1.5,0.6s-1.2-0.2-1.6-0.6l-2.6-0.4
			h-0.4l-0.4,0.4v0.2c0.1,1.4,0.2,3.5,0.2,6.3l-0.2,11.4c0,5.3,0.4,8.3,1.1,8.8c0.5,0.4,1.3,0.6,2.6,0.6l3-0.2
			c1.6,0,2.3,0.4,2.3,1.1c0,1-1.2,1.4-3.5,1.4h-6.6C792.5,291.8,791.9,291.3,791.8,290.2z"/>
		<path fill="#FFFFFF" stroke="#FFFFFF" stroke-linecap="round" stroke-linejoin="round" stroke-miterlimit="10" d="M810.7,240.5
			c0-2,0.6-3,1.8-3c2.6,0,4.8,0.7,6.4,2c1.7,1.3,2.5,3.2,2.5,5.8v5.8c0,2.1-1,5-3.1,8.8c-0.7,1.3-1.1,2-1.1,2.1s1,4.3,3,12.7
			c2,8.3,3.1,12.6,3.2,12.9c0.1,0.3,0.4,0.8,0.8,1.6c0.4,0.8,0.6,1.5,0.6,2.1s-0.3,0.9-0.9,0.9l-1.2-0.4c-1.2-1.4-2.6-6.6-4.1-15.6
			c-1.4-8.7-2.7-13-3.7-13h-0.3c-1.2,0-1.8,0.4-1.8,1.1c0,2.9,0.2,7.8,0.5,14.6c0.3,6.8,0.6,10.6,0.9,11.4l-0.6,1.3h-1.2l-0.6-0.6
			C811.2,267.8,810.7,251,810.7,240.5z M813,241.6l0.3,19.4l0.2,0.2c1,0,1.9-0.5,2.7-1.6s1.4-2.3,1.8-3.8c0.9-3.1,1.3-5.5,1.3-7.1
			s-0.1-2.8-0.2-3.7c-0.1-0.8-0.3-1.7-0.7-2.6c-0.7-1.9-2.2-2.8-4.6-2.8c-0.3,0-0.5,0.2-0.7,0.7C813.1,240.7,813,241.2,813,241.6z"
			/>
		<path fill="#FFFFFF" stroke="#FFFFFF" stroke-linecap="round" stroke-linejoin="round" stroke-miterlimit="10" d="M851.8,236.3
			c0.6,0.2,0.9,0.5,0.9,1s-0.1,1.1-0.2,1.9c-0.1,0.8-0.3,1.7-0.5,2.7s-0.4,1.8-0.5,2.3c-0.1,0.6-0.6,2.6-1.4,6.1
			c-0.8,3.5-1.3,6.2-1.6,8.1s-0.6,4.6-0.9,8c-0.3,3.5-0.6,5.8-0.7,6.9c-0.2,1.1-0.5,2.7-1,4.7s-0.8,3.2-0.9,3.8
			c-0.1,0.6-0.2,1.3-0.2,2.2c-0.1,0.9-0.1,1.7-0.2,2.5c-0.1,0.8-0.3,1.6-0.5,2.4c-0.4,1.8-1.2,2.7-2.5,2.7l-0.9-0.7
			c0-8.7-2.4-23.5-7.1-44.4c-0.1-0.4-0.3-1.2-0.7-2.5c-1-3.5-1.5-5.4-1.5-5.7s0.1-0.5,0.4-0.7s0.5-0.4,0.8-0.4s0.6,0.2,0.9,0.7
			c0.3,0.5,0.6,1.1,0.8,1.8c0.2,0.7,0.4,1.5,0.5,2.2s0.3,1.4,0.4,2.1c0.1,0.7,0.3,1.5,0.5,2.2c0.2,0.8,0.4,1.8,0.8,3.2
			c0.3,1.4,0.6,2.7,0.8,3.8c0.2,1.1,0.5,2.5,0.8,4.1s0.5,2.9,0.7,3.8s0.4,2.3,0.7,4.1c0.3,1.8,0.5,3.1,0.6,3.8
			c0.1,0.7,0.3,2.1,0.6,4.1s0.5,3.3,0.5,3.8c0.1,0.5,0.3,1.9,0.6,4.1s0.5,3.5,0.6,3.9c1.1-3.6,2-8.7,2.7-15.4
			c0.7-6.6,1.8-13.4,3.2-20.4s2.2-11.2,2.5-12.6L851.8,236.3z M840,247.6v0.2h-0.1C839.9,247.6,840,247.6,840,247.6z M842.2,285.3
			l-0.1,0.2l0.1,0.2V285.3z"/>
		<path fill="#FFFFFF" stroke="#FFFFFF" stroke-linecap="round" stroke-linejoin="round" stroke-miterlimit="10" d="M872.7,290.2
			l-2.7-0.3c-0.4,0-0.9,0.2-1.5,0.4c-0.6,0.3-1.3,0.4-2.1,0.4s-1.3-0.3-1.5-0.8l-1.3,0.1c-1.1,0-1.9-0.3-2.2-0.8
			c0-0.3,0.1-0.6,0.4-0.8c0.3-0.2,0.5-0.4,0.6-0.5h2.3l0.3-0.3l0.3-1.7l-0.6-17.5l0.4-18.7c0-3.6-0.1-6.7-0.4-9.3
			c-0.5-0.2-1.3-0.2-2.4-0.2l-1.9,0.2c-1,0-1.5-0.5-1.5-1.4c0-0.2,0.2-0.5,0.7-0.7s0.9-0.3,1.2-0.3c7.4,0,11.1,0.8,11.1,2.4
			c0,0.2-0.1,0.4-0.2,0.6l-1.8,0.2c-0.4-0.3-1.2-0.5-2.3-0.5l-0.4,0.2c0.2,0.5,0.2,1.9,0.2,4.3l-0.2,19l0.5,17.5l-0.1,2.5
			c0,1.2,0.1,2,0.2,2.2l0.2,0.3c0,0.5,0.6,0.8,1.8,0.8l2.3-0.1c1.6,0,2.4,0.4,2.4,1.1c0,0.5-0.2,0.9-0.5,1.2
			C873.6,290,873.2,290.2,872.7,290.2z"/>
		<path fill="#FFFFFF" stroke="#FFFFFF" stroke-linecap="round" stroke-linejoin="round" stroke-miterlimit="10" d="M881.9,290.2
			l0.1-2l-0.3-0.3c0.4-1.1,0.6-2.2,0.6-3.3l-0.4-10.5l0.5-24.1l-0.3-9.6c0-1.5,0.8-2.3,2.3-2.3c0.6,0,1,0.2,1.3,0.5
			c0.2,0.1,1,0.2,2.3,0.3c3.3,0.4,5,1,5,2c0,0.4-0.5,0.9-1.5,1.5c-2.9-1-5.1-1.5-6.5-1.5l-0.4,0.5c0.1,0.8,0.1,1.9,0.1,3.4
			l-0.3,12.4c0,1.5,0.4,2.2,1.1,2.2l2.7-0.2c2,0,3.1,0.5,3.1,1.4c0,0.5-0.1,1-0.4,1.4c-0.3,0.4-0.8,0.6-1.5,0.6s-1.2-0.2-1.6-0.6
			l-2.6-0.4H885l-0.4,0.4v0.2c0.1,1.4,0.2,3.5,0.2,6.3l-0.2,11.4c0,5.3,0.4,8.3,1.1,8.8c0.5,0.4,1.3,0.6,2.6,0.6l3-0.2
			c1.6,0,2.3,0.4,2.3,1.1c0,1-1.2,1.4-3.5,1.4h-6.6C882.5,291.8,882,291.3,881.9,290.2z"/>
		<path fill="#FFFFFF" stroke="#FFFFFF" stroke-linecap="round" stroke-linejoin="round" stroke-miterlimit="10" d="M919.9,293.4
			c-0.9,0-1.4-1.2-1.4-3.6c-0.1-1.4-0.4-3.4-0.9-6s-0.8-4.3-0.9-5.1c-0.1-0.8-0.4-3.7-0.8-8.8c-1-12.6-2-19.4-2.9-20.3
			c-0.5,6-0.8,9.7-0.8,11.1s-0.1,3.1-0.3,5.4c-0.2,2.2-0.6,5.1-1.2,8.7s-0.9,5.6-0.9,6.1c-0.1,0.5-0.2,1.2-0.3,2.3
			c-0.1,1-0.2,2-0.4,2.9c-0.1,0.9-0.3,1.9-0.5,3c-0.4,2.3-1,3.5-1.6,3.5c-0.8,0-1.4-1.2-1.9-3.6s-0.8-5.8-1-10.2
			c-0.3-4.4-0.4-7.1-0.5-8s-0.4-2.9-0.9-6.1s-0.7-5.4-0.8-6.7c-0.1-1.3-0.2-2.9-0.3-4.9s-0.2-3.6-0.3-4.8c-0.2-3.5-0.7-6.3-1.6-8.6
			c0.2-0.4,0.6-0.6,1.1-0.6s0.8,0.2,1.1,0.5c0.2,0.3,0.4,0.8,0.5,1.3c0.1,0.6,0.1,1.1,0.2,1.6c0.1,1,0.1,2.1,0.2,3.2
			c0.1,1.2,0.7,6.3,1.8,15.3c1.1,9.1,1.7,16,1.8,20.9c0.2,0.4,0.3,1.1,0.4,2.2s0.3,1.8,0.4,2.1h0.1c0.6-3.9,1-6.5,1.1-7.7
			s0.3-2.7,0.6-4.6s0.4-3.3,0.5-4.4c0.1-1,0.2-2.4,0.4-3.9c0.2-2.4,0.4-5.3,0.5-8.8c0.1-3.4,0.3-6.1,0.6-8.2s0.4-3.4,0.4-4.1
			l1.4-0.6c0.3,0,0.7,0.1,0.9,0.3c0.3,0.2,0.4,0.4,0.4,0.7c0,0.3-0.1,0.5-0.2,0.8c2.4,8.3,3.9,17.9,4.5,28.8
			c0.2,4.2,0.7,7.2,1.4,9.2c0.7-2,1.3-6.6,1.7-14s0.6-12.5,0.6-15.4s0.2-5.7,0.5-8.5c0.4-2.8,0.5-4.6,0.5-5.6s-0.1-1.6-0.3-2
			c0-0.8,0.5-1.2,1.6-1.2c0.4,0,0.7,0.1,0.9,0.2c0.1,0.1,0.2,0.6,0.2,1.5s-0.1,1.8-0.4,2.7l0.2,0.5c-0.5,2.1-0.7,4-0.7,5.7
			s0.1,2.6,0.2,2.7l-0.5,1.6l0.2,0.5c-0.2,0.3-0.2,0.6-0.2,0.8s0.1,0.8,0.2,1.7l-0.2,0.4c0,1.9-0.2,6.1-0.6,12.6
			c-0.4,6.5-0.7,10.2-0.8,11.2s-0.3,2-0.6,3.2c-0.3,1.1-0.4,2-0.4,2.6C922.1,290.5,921.4,293.4,919.9,293.4z M920.1,283.8
			L920.1,283.8L920.1,283.8C920.2,283.9,920.1,283.8,920.1,283.8z"/>
		<g>
			<path fill="#FFFFFF" d="M700.9,224.4c27.8-0.9,55.6-2,83.4-3.3c1.9-0.1,1.9-3.1,0-3c-27.8,1.3-55.6,2.4-83.4,3.3
				C699,221.4,699,224.4,700.9,224.4L700.9,224.4z"/>
		</g>
	</g>
</g>
</svg>
