<?xml version="1.0" encoding="utf-8"?>
<!-- Generator: Adobe Illustrator 19.1.0, SVG Export Plug-In . SVG Version: 6.00 Build 0)  -->
<svg version="1.1" xmlns="http://www.w3.org/2000/svg" xmlns:xlink="http://www.w3.org/1999/xlink" x="0px" y="0px"
	 viewBox="0 0 360 360" enable-background="new 0 0 360 360" xml:space="preserve">
<g id="bg">
	<g>
		<g>
			<rect x="0" fill="#FDF7E5" width="360" height="360"/>
		</g>
	</g>
</g>
<g id="Layer_2">
</g>
<g id="Layer_3">
	<g opacity="0.8">
		<defs>
			<rect id="SVGID_3_" x="0" opacity="0.8" width="360" height="360"/>
		</defs>
		<clipPath id="SVGID_2_">
			<use xlink:href="#SVGID_3_"  overflow="visible"/>
		</clipPath>
		<g clip-path="url(#SVGID_2_)">
			<g>
				<g>
					<circle fill="#F4EEDE" cx="156" cy="12.2" r="12.2"/>
				</g>
			</g>
			<g>
				<g>
					<circle fill="#F4EEDE" cx="210.3" cy="12.2" r="12.2"/>
				</g>
			</g>
			<g>
				<g>
					<circle fill="#F4EEDE" cx="269.7" cy="12.2" r="12.2"/>
				</g>
			</g>
			<g>
				<g>
					<circle fill="#F4EEDE" cx="324" cy="12.2" r="12.2"/>
				</g>
			</g>
			<g>
				<g>
					<circle fill="#F4EEDE" cx="-6.9" cy="12.2" r="12.2"/>
				</g>
			</g>
			<g>
				<g>
					<circle fill="#F4EEDE" cx="51" cy="12.2" r="12.2"/>
				</g>
			</g>
			<g>
				<g>
					<circle fill="#F4EEDE" cx="105.2" cy="12.2" r="12.2"/>
				</g>
			</g>
		</g>
		<g clip-path="url(#SVGID_2_)">
			<g>
				<g>
					<circle fill="#F4EEDE" cx="129.7" cy="60.4" r="12.2"/>
				</g>
			</g>
			<g>
				<g>
					<circle fill="#F4EEDE" cx="184" cy="60.4" r="12.2"/>
				</g>
			</g>
			<g>
				<g>
					<circle fill="#F4EEDE" cx="243.4" cy="60.4" r="12.2"/>
				</g>
			</g>
			<g>
				<g>
					<circle fill="#F4EEDE" cx="297.7" cy="60.4" r="12.2"/>
				</g>
			</g>
			<g>
				<g>
					<circle fill="#F4EEDE" cx="355.5" cy="60.4" r="12.2"/>
				</g>
			</g>
			<g>
				<g>
					<circle fill="#F4EEDE" cx="24.7" cy="60.4" r="12.2"/>
				</g>
			</g>
			<g>
				<g>
					<circle fill="#F4EEDE" cx="78.9" cy="60.4" r="12.2"/>
				</g>
			</g>
		</g>
		<g clip-path="url(#SVGID_2_)">
			<g>
				<g>
					<circle fill="#F4EEDE" cx="156" cy="108.5" r="12.2"/>
				</g>
			</g>
			<g>
				<g>
					<circle fill="#F4EEDE" cx="210.3" cy="108.5" r="12.2"/>
				</g>
			</g>
			<g>
				<g>
					<circle fill="#F4EEDE" cx="269.7" cy="108.5" r="12.2"/>
				</g>
			</g>
			<g>
				<g>
					<circle fill="#F4EEDE" cx="324" cy="108.5" r="12.2"/>
				</g>
			</g>
			<g>
				<g>
					<circle fill="#F4EEDE" cx="-6.9" cy="108.5" r="12.2"/>
				</g>
			</g>
			<g>
				<g>
					<circle fill="#F4EEDE" cx="51" cy="108.5" r="12.2"/>
				</g>
			</g>
			<g>
				<g>
					<circle fill="#F4EEDE" cx="105.2" cy="108.5" r="12.2"/>
				</g>
			</g>
		</g>
		<g clip-path="url(#SVGID_2_)">
			<g>
				<g>
					<circle fill="#F4EEDE" cx="129.7" cy="156.6" r="12.2"/>
				</g>
			</g>
			<g>
				<g>
					<circle fill="#F4EEDE" cx="184" cy="156.6" r="12.2"/>
				</g>
			</g>
			<g>
				<g>
					<circle fill="#F4EEDE" cx="243.4" cy="156.6" r="12.2"/>
				</g>
			</g>
			<g>
				<g>
					<circle fill="#F4EEDE" cx="297.7" cy="156.6" r="12.2"/>
				</g>
			</g>
			<g>
				<g>
					<circle fill="#F4EEDE" cx="355.5" cy="156.6" r="12.2"/>
				</g>
			</g>
			<g>
				<g>
					<circle fill="#F4EEDE" cx="24.7" cy="156.6" r="12.2"/>
				</g>
			</g>
			<g>
				<g>
					<circle fill="#F4EEDE" cx="78.9" cy="156.6" r="12.2"/>
				</g>
			</g>
		</g>
		<g clip-path="url(#SVGID_2_)">
			<g>
				<g>
					<circle fill="#F4EEDE" cx="156" cy="204.7" r="12.2"/>
				</g>
			</g>
			<g>
				<g>
					<circle fill="#F4EEDE" cx="210.3" cy="204.7" r="12.2"/>
				</g>
			</g>
			<g>
				<g>
					<circle fill="#F4EEDE" cx="269.7" cy="204.7" r="12.2"/>
				</g>
			</g>
			<g>
				<g>
					<circle fill="#F4EEDE" cx="324" cy="204.7" r="12.2"/>
				</g>
			</g>
			<g>
				<g>
					<circle fill="#F4EEDE" cx="-6.9" cy="204.7" r="12.2"/>
				</g>
			</g>
			<g>
				<g>
					<circle fill="#F4EEDE" cx="51" cy="204.7" r="12.2"/>
				</g>
			</g>
			<g>
				<g>
					<circle fill="#F4EEDE" cx="105.2" cy="204.7" r="12.2"/>
				</g>
			</g>
		</g>
		<g clip-path="url(#SVGID_2_)">
			<g>
				<g>
					<circle fill="#F4EEDE" cx="129.7" cy="252.8" r="12.2"/>
				</g>
			</g>
			<g>
				<g>
					<circle fill="#F4EEDE" cx="184" cy="252.8" r="12.2"/>
				</g>
			</g>
			<g>
				<g>
					<circle fill="#F4EEDE" cx="243.4" cy="252.8" r="12.2"/>
				</g>
			</g>
			<g>
				<g>
					<circle fill="#F4EEDE" cx="297.7" cy="252.8" r="12.2"/>
				</g>
			</g>
			<g>
				<g>
					<circle fill="#F4EEDE" cx="355.5" cy="252.8" r="12.2"/>
				</g>
			</g>
			<g>
				<g>
					<circle fill="#F4EEDE" cx="24.7" cy="252.8" r="12.2"/>
				</g>
			</g>
			<g>
				<g>
					<circle fill="#F4EEDE" cx="78.9" cy="252.8" r="12.2"/>
				</g>
			</g>
		</g>
		<g clip-path="url(#SVGID_2_)">
			<g>
				<g>
					<circle fill="#F4EEDE" cx="156" cy="300.9" r="12.2"/>
				</g>
			</g>
			<g>
				<g>
					<circle fill="#F4EEDE" cx="210.3" cy="300.9" r="12.2"/>
				</g>
			</g>
			<g>
				<g>
					<circle fill="#F4EEDE" cx="269.7" cy="300.9" r="12.2"/>
				</g>
			</g>
			<g>
				<g>
					<circle fill="#F4EEDE" cx="324" cy="300.9" r="12.2"/>
				</g>
			</g>
			<g>
				<g>
					<circle fill="#F4EEDE" cx="-6.9" cy="300.9" r="12.2"/>
				</g>
			</g>
			<g>
				<g>
					<circle fill="#F4EEDE" cx="51" cy="300.9" r="12.2"/>
				</g>
			</g>
			<g>
				<g>
					<circle fill="#F4EEDE" cx="105.2" cy="300.9" r="12.2"/>
				</g>
			</g>
		</g>
		<g clip-path="url(#SVGID_2_)">
			<g>
				<g>
					<circle fill="#F4EEDE" cx="129.7" cy="349" r="12.2"/>
				</g>
			</g>
			<g>
				<g>
					<circle fill="#F4EEDE" cx="184" cy="349" r="12.2"/>
				</g>
			</g>
			<g>
				<g>
					<circle fill="#F4EEDE" cx="243.4" cy="349" r="12.2"/>
				</g>
			</g>
			<g>
				<g>
					<circle fill="#F4EEDE" cx="297.7" cy="349" r="12.2"/>
				</g>
			</g>
			<g>
				<g>
					<circle fill="#F4EEDE" cx="355.5" cy="349" r="12.2"/>
				</g>
			</g>
			<g>
				<g>
					<circle fill="#F4EEDE" cx="24.7" cy="349" r="12.2"/>
				</g>
			</g>
			<g>
				<g>
					<circle fill="#F4EEDE" cx="78.9" cy="349" r="12.2"/>
				</g>
			</g>
		</g>
	</g>
	<g opacity="0.1">
		<g>
			<ellipse cx="180" cy="308.4" rx="44.8" ry="4.4"/>
		</g>
	</g>
	<g>
		<g>
			<g>
				<circle fill="#58595B" cx="182.1" cy="109.2" r="50.9"/>
			</g>
		</g>
		<g>
			<g>
				<path fill="#F7C155" d="M183,241.2L183,241.2c-17.9,0-32.6-14.7-32.6-32.6v-83.7c0-17.9,14.7-32.6,32.6-32.6h0
					c17.9,0,32.6,14.7,32.6,32.6v83.7C215.6,226.5,200.9,241.2,183,241.2z"/>
			</g>
		</g>
		<g>
			<g>
				<g>
					<rect x="212.1" y="207.9" fill="#F05074" width="3.6" height="40.9"/>
				</g>
			</g>
			<g>
				<g>
					<ellipse fill="#F7C155" cx="213.9" cy="247.6" rx="4" ry="3.8"/>
				</g>
			</g>
		</g>
		<g>
			<g>
				<g>
					<rect x="150.5" y="207.9" fill="#F05074" width="3.6" height="40.9"/>
				</g>
			</g>
			<g>
				<g>
					<ellipse fill="#F7C155" cx="152.3" cy="247.6" rx="4" ry="3.8"/>
				</g>
			</g>
		</g>
		<g>
			<g>
				<g>
					<g>
						<path fill="#FFFFFF" d="M152.8,220.8c0,0,0.4,3.3,1.9,3.9h56.6c0,0,1.9-1.5,1.9-3.9H152.8z"/>
					</g>
				</g>
			</g>
			<g>
				<g>
					<g>
						<g>
							<path fill="#1A1A1A" d="M155.9,226.6c-0.2-0.3-0.8-1.1-1.2-1.8h56.6c-0.2,0.4-0.9,1.5-1.2,1.8H155.9z"/>
						</g>
					</g>
				</g>
			</g>
			<g>
				<defs>
					<path id="SVGID_5_" d="M152.8,220.8c0,0-0.3,3.4,2.3,3.9h56.2c0,0,1.5-0.8,1.9-3.9H152.8z"/>
				</defs>
				<clipPath id="SVGID_4_">
					<use xlink:href="#SVGID_5_"  overflow="visible"/>
				</clipPath>
				<g clip-path="url(#SVGID_4_)">
					<g>
						<g>
							<g>
								<rect x="154.7" y="220.8" fill="#F16265" width="1.3" height="4.2"/>
							</g>
						</g>
					</g>
					<g>
						<g>
							<g>
								<rect x="160.9" y="220.8" fill="#F16265" width="1.3" height="4.2"/>
							</g>
						</g>
					</g>
					<g>
						<g>
							<g>
								<rect x="167.1" y="220.8" fill="#F16265" width="1.3" height="4.2"/>
							</g>
						</g>
					</g>
					<g>
						<g>
							<g>
								<rect x="173.3" y="220.8" fill="#F16265" width="1.3" height="4.2"/>
							</g>
						</g>
					</g>
					<g>
						<g>
							<g>
								<rect x="179.5" y="220.8" fill="#F16265" width="1.3" height="4.2"/>
							</g>
						</g>
					</g>
					<g>
						<g>
							<g>
								<rect x="185.7" y="220.8" fill="#F16265" width="1.3" height="4.2"/>
							</g>
						</g>
					</g>
					<g>
						<g>
							<g>
								<rect x="191.9" y="220.8" fill="#F16265" width="1.3" height="4.2"/>
							</g>
						</g>
					</g>
					<g>
						<g>
							<g>
								<rect x="198.1" y="220.8" fill="#F16265" width="1.3" height="4.2"/>
							</g>
						</g>
					</g>
					<g>
						<g>
							<g>
								<rect x="204.6" y="220.8" fill="#F16265" width="1.2" height="4.2"/>
							</g>
						</g>
					</g>
					<g>
						<g>
							<g>
								<rect x="210.1" y="220.8" fill="#F16265" width="1.2" height="4.2"/>
							</g>
						</g>
					</g>
				</g>
			</g>
			<g>
				<g>
					<g>
						<g>
							<path fill="#58595B" d="M155.9,226.6c5.9,8.8,15.8,14.6,27.1,14.6h0c11.3,0,21.3-5.8,27.1-14.6H155.9z"/>
						</g>
					</g>
				</g>
			</g>
			<g>
				<defs>
					<path id="SVGID_7_" d="M215.6,208.6c0,17.9-14.7,32.6-32.6,32.6h0c-17.9,0-32.5-14-32.6-32.6l-5-18.9h73.4L215.6,208.6z"/>
				</defs>
				<clipPath id="SVGID_6_">
					<use xlink:href="#SVGID_7_"  overflow="visible"/>
				</clipPath>
				<g clip-path="url(#SVGID_6_)">
					<g>
						<g>
							<g>
								<path fill="#F05074" d="M215.6,219.1h-65.2l-0.1-19.8c0,0-1.2-1.4-1.2-2.8c0-1.4,0.4-2.8,0.4-2.8l0.8,0.8
									c0,0,1.4,2.1,11.6,3.2c5.8,0.6,20.9,7.5,20.9,7.5s14.4-6.9,19.5-6.8c11.6,0.1,13.3-3.1,13.3-3.1l0.6-1.3c0,0,0.1,1.3,0,2.2
									c-0.1,0.9-0.7,1.7-0.7,1.7V219.1z"/>
							</g>
						</g>
					</g>
					<g>
						<g>
							<g>
								<path fill="#B44B39" d="M169.6,205.1c-1.1-0.4-2.3-0.7-3.4-1c-1.2-0.3-2.3-0.5-3.5-0.7c-1.2-0.2-2.3-0.4-3.5-0.6l-1.8-0.3
									c-0.6-0.1-1.2-0.2-1.8-0.4c-0.6-0.1-1.2-0.3-1.7-0.5c-0.6-0.2-1.1-0.5-1.7-0.7c-1-0.6-2.1-1.4-2.7-2.5
									c-0.7-1.1-0.9-2.4-0.7-3.6c0.1-0.6,0.2-1.2,0.4-1.8c0.2-0.6,0.5-1.1,0.8-1.7l0.5,0.5c-0.5,0.4-0.8,1.1-0.5,1.7
									c0.3,0.6,0.9,1,1.6,1.3c1.4,0.6,2.9,1,4.4,1.3c1.5,0.3,3.1,0.5,4.6,0.8c1.6,0.3,3.1,0.7,4.6,1.1c3.1,0.8,6.1,1.8,9,2.9
									c3,1.1,5.9,2.4,8.7,3.8l-0.4,0c2.9-1.4,5.9-2.6,8.9-3.8c3-1.1,6.1-2.2,9.3-2.8c0.8-0.2,1.6-0.3,2.4-0.4
									c0.8-0.1,1.7,0,2.4-0.1c1.6,0,3.2-0.2,4.7-0.5c1.5-0.3,3.1-0.7,4.3-1.6c0.6-0.4,1-1.1,1.1-1.7c0.1-0.7-0.2-1.4-0.6-2.1
									l0.6-0.4c0.3,0.6,0.5,1.2,0.7,1.8c0.1,0.6,0.2,1.3,0.2,1.9c0,1.3-0.5,2.6-1.4,3.6c-0.8,1-1.9,1.8-3,2.3
									c-0.6,0.3-1.1,0.5-1.7,0.7c-0.6,0.2-1.2,0.4-1.8,0.5c-1.2,0.3-2.4,0.5-3.7,0.7c-1.2,0.2-2.5,0.3-3.7,0.5
									c-1.2,0.2-2.4,0.5-3.6,0.8c-0.6,0.2-1.2,0.4-1.7,0.6c-0.5,0.3-1.1,0.5-1.5,1c0.3-0.5,0.9-0.8,1.5-1.1
									c0.6-0.3,1.1-0.5,1.7-0.7c0.6-0.2,1.2-0.4,1.8-0.5c0.6-0.2,1.2-0.3,1.8-0.4c1.2-0.2,2.5-0.4,3.7-0.6
									c1.2-0.2,2.4-0.4,3.6-0.8c0.6-0.2,1.2-0.4,1.7-0.6c0.6-0.2,1.1-0.5,1.7-0.7c1.1-0.6,2.1-1.3,2.8-2.2
									c0.7-0.9,1.2-2.1,1.2-3.3c0-0.6-0.1-1.2-0.2-1.8c-0.1-0.6-0.4-1.2-0.6-1.6l0,0c-0.1-0.2,0-0.4,0.1-0.5
									c0.2-0.1,0.4,0,0.5,0.1c0.4,0.7,0.8,1.6,0.7,2.5c-0.1,0.9-0.6,1.8-1.3,2.3c-0.7,0.5-1.4,0.9-2.2,1.2
									c-0.8,0.3-1.6,0.5-2.4,0.6c-1.6,0.3-3.2,0.5-4.9,0.5c-0.8,0-1.6,0-2.4,0.1c-0.8,0.1-1.6,0.2-2.3,0.4
									c-3.1,0.6-6.1,1.7-9.1,2.8c-3,1.1-5.9,2.4-8.8,3.8c-0.1,0.1-0.3,0.1-0.4,0c-2.8-1.4-5.7-2.6-8.6-3.8
									c-2.9-1.1-5.9-2.1-8.9-2.9c-1.5-0.4-3-0.8-4.6-1.1c-0.8-0.2-1.5-0.3-2.3-0.4c-0.8-0.1-1.6-0.2-2.3-0.4
									c-1.6-0.3-3.1-0.7-4.6-1.4c-0.7-0.4-1.5-0.8-1.9-1.7c-0.2-0.4-0.2-1,0-1.4c0.2-0.4,0.4-0.8,0.8-1.1c0.1-0.1,0.4-0.1,0.5,0
									c0.1,0.1,0.1,0.3,0,0.4l0,0c-0.3,0.5-0.6,1-0.8,1.5c-0.2,0.5-0.4,1.1-0.4,1.6c-0.2,1.1,0,2.3,0.6,3.2c0.5,1,1.5,1.7,2.4,2.3
									c0.5,0.3,1,0.5,1.6,0.7c0.5,0.2,1.1,0.4,1.7,0.6c0.6,0.1,1.1,0.3,1.7,0.4l1.7,0.3c1.2,0.2,2.3,0.4,3.5,0.7
									c1.2,0.2,2.3,0.5,3.5,0.8C167.4,204.4,168.5,204.7,169.6,205.1z"/>
							</g>
						</g>
					</g>
					<g>
						<g>
							<g>
								<g>
									<path fill="#FFFFFF" d="M191,212v-4.4c0-0.4-0.2-0.6-0.5-0.6s-0.5,0.3-0.5,0.6v4.4c-0.3,0.2-0.5,0.6-0.5,1
										c0,0.7,0.5,1.2,1,1.2c0.6,0,1-0.5,1-1.2C191.5,212.6,191.3,212.2,191,212z"/>
								</g>
							</g>
						</g>
						<g>
							<g>
								<g>
									<path fill="#FFFFFF" d="M176.2,212v-4.4c0-0.4-0.2-0.6-0.5-0.6s-0.5,0.3-0.5,0.6v4.4c-0.3,0.2-0.5,0.6-0.5,1
										c0,0.7,0.5,1.2,1,1.2s1-0.5,1-1.2C176.7,212.6,176.5,212.2,176.2,212z"/>
								</g>
							</g>
						</g>
					</g>
				</g>
				<g clip-path="url(#SVGID_6_)">
					<g>
						<g>
							<rect x="151.8" y="220.6" fill="#E6E7E8" width="61.4" height="0.5"/>
						</g>
					</g>
				</g>
				<g clip-path="url(#SVGID_6_)">
					<g>
						<g>
							<rect x="151.7" y="219.1" fill="#FFFFFF" width="63.3" height="1.7"/>
						</g>
					</g>
				</g>
			</g>
		</g>
		<g>
			<g>
				<g>
					<path fill="#58595B" d="M180.1,308.6h-9.3v-1.9c0-1.1,0.9-2,2-2h7.3V308.6z"/>
				</g>
			</g>
			<g>
				<g>
					<path fill="#58595B" d="M186.5,308.6h9.3v-1.9c0-1.1-0.9-2-2-2h-7.3V308.6z"/>
				</g>
			</g>
		</g>
		<g>
			<g>
				<g>
					<rect x="176.5" y="233.8" fill="#58595B" width="3.6" height="72.9"/>
				</g>
			</g>
			<g>
				<g>
					<rect x="186.5" y="233.8" fill="#58595B" width="3.6" height="72.9"/>
				</g>
			</g>
		</g>
		<g>
			<g>
				<circle fill="#58595B" cx="167.6" cy="96.1" r="40.7"/>
			</g>
		</g>
		<g>
			<g>
				<g>
					<ellipse fill="#414042" cx="176.6" cy="146" rx="2.4" ry="3.8"/>
				</g>
			</g>
			<g>
				<g>
					<ellipse fill="#414042" cx="187.6" cy="146" rx="2.4" ry="3.8"/>
				</g>
			</g>
		</g>
	</g>
</g>
<g id="Layer_10">
	<g opacity="0.8">
		<defs>
			<rect id="SVGID_9_" x="496.5" opacity="0.8" width="360" height="360"/>
		</defs>
		<clipPath id="SVGID_8_">
			<use xlink:href="#SVGID_9_"  overflow="visible"/>
		</clipPath>
		<g clip-path="url(#SVGID_8_)">
			<g>
				<g>
					
						<rect x="470.7" y="-311.9" transform="matrix(0.7071 0.7071 -0.7071 0.7071 122.1215 -341.4128)" fill="#E8F0F6" width="5" height="577.3"/>
				</g>
			</g>
			<g>
				<g>
					
						<rect x="487.6" y="-295" transform="matrix(0.7071 0.7071 -0.7071 0.7071 139.0625 -348.4297)" fill="#E8F0F6" width="5" height="577.3"/>
				</g>
			</g>
			<g>
				<g>
					
						<rect x="504.6" y="-278" transform="matrix(0.7071 0.7071 -0.7071 0.7071 156.0033 -355.4471)" fill="#E8F0F6" width="5" height="577.3"/>
				</g>
			</g>
			<g>
				<g>
					
						<rect x="521.5" y="-261.1" transform="matrix(0.7071 0.7071 -0.7071 0.7071 172.9447 -362.4643)" fill="#E8F0F6" width="5" height="577.3"/>
				</g>
			</g>
			<g>
				<g>
					
						<rect x="538.4" y="-244.2" transform="matrix(0.7071 0.7071 -0.7071 0.7071 189.8857 -369.4814)" fill="#E8F0F6" width="5" height="577.3"/>
				</g>
			</g>
			<g>
				<g>
					
						<rect x="555.4" y="-227.2" transform="matrix(0.7071 0.7071 -0.7071 0.7071 206.8266 -376.4988)" fill="#E8F0F6" width="5" height="577.3"/>
				</g>
			</g>
		</g>
	</g>
</g>
<g id="Layer_4">
</g>
<g id="Layer_5">
	<g opacity="0.8">
		<defs>
			<rect id="SVGID_13_" y="478" opacity="0.8" width="360" height="360"/>
		</defs>
		<clipPath id="SVGID_10_">
			<use xlink:href="#SVGID_13_"  overflow="visible"/>
		</clipPath>
		<g clip-path="url(#SVGID_10_)">
			<g>
				<g>
					<g>
						<polygon fill="#F5E3DD" points="70.3,341.3 52.9,371 70.3,400.6 87.7,371 						"/>
					</g>
				</g>
			</g>
		</g>
		<g clip-path="url(#SVGID_10_)">
			<g>
				<g>
					<g>
						<polygon fill="#F5E3DD" points="216.4,341.3 199,371 216.4,400.6 233.8,371 						"/>
					</g>
				</g>
			</g>
		</g>
	</g>
</g>
<g id="Layer_6">
</g>
<g id="Layer_7">
</g>
<g id="Layer_8">
</g>
<g id="Layer_11">
</g>
<g id="Layer_9">
</g>
</svg>
