<?xml version="1.0" encoding="utf-8"?>
<!-- Generator: Adobe Illustrator 19.1.0, SVG Export Plug-In . SVG Version: 6.00 Build 0)  -->
<svg version="1.1" xmlns="http://www.w3.org/2000/svg" xmlns:xlink="http://www.w3.org/1999/xlink" x="0px" y="0px"
	 viewBox="0 0 360 360" enable-background="new 0 0 360 360" xml:space="preserve">
<g id="bg">
	<g>
		<g>
			<rect x="0" fill="#D9E1D9" width="360" height="360"/>
		</g>
	</g>
	<g opacity="0.8">
		<defs>
			<rect id="SVGID_1_" x="0" opacity="0.8" width="360" height="360"/>
		</defs>
		<clipPath id="SVGID_2_">
			<use xlink:href="#SVGID_1_"  overflow="visible"/>
		</clipPath>
		<g clip-path="url(#SVGID_2_)">
			<g>
				<path fill="#D4DBD3" d="M439.5,24.6c-0.5,0-0.9-0.2-1.2-0.6l-34.8-48.3l-34.8,48.3c-0.6,0.8-1.9,0.8-2.4,0l-34.8-48.3
					l-34.8,48.3c-0.6,0.8-1.9,0.8-2.4,0l-34.8-48.3l-34.8,48.3c-0.6,0.8-1.9,0.8-2.4,0l-34.8-48.3l-34.8,48.3
					c-0.6,0.8-1.9,0.8-2.4,0l-34.8-48.3L80.7,23.9c-0.6,0.8-1.9,0.8-2.4,0L43.5-24.4L8.7,23.9c-0.6,0.8-1.9,0.8-2.4,0l-34.8-48.3
					l-34.8,48.3c-0.6,0.8-1.9,0.8-2.4,0l-36-50l2.4-1.8l34.8,48.3l34.8-48.3c0.6-0.8,1.9-0.8,2.4,0L7.5,20.5l34.8-48.3
					c0.6-0.8,1.9-0.8,2.4,0l34.8,48.3l34.8-48.3c0.6-0.8,1.9-0.8,2.4,0l34.8,48.3l34.8-48.3c0.6-0.8,1.9-0.8,2.4,0l34.8,48.3
					l34.8-48.3c0.6-0.8,1.9-0.8,2.4,0l34.8,48.3l34.8-48.3c0.6-0.8,1.9-0.8,2.4,0l34.8,48.3l34.8-48.3c0.6-0.8,1.9-0.8,2.4,0
					l34.8,48.3l34.8-48.3l2.4,1.8l-36,50C440.4,24.3,440,24.6,439.5,24.6z"/>
			</g>
		</g>
		<g clip-path="url(#SVGID_2_)">
			<g>
				<path fill="#D4DBD3" d="M439.5,52.6c-0.5,0-0.9-0.2-1.2-0.6L403.5,3.6l-34.8,48.3c-0.6,0.8-1.9,0.8-2.4,0L331.5,3.6l-34.8,48.3
					c-0.6,0.8-1.9,0.8-2.4,0L259.5,3.6l-34.8,48.3c-0.6,0.8-1.9,0.8-2.4,0L187.5,3.6l-34.8,48.3c-0.6,0.8-1.9,0.8-2.4,0L115.5,3.6
					L80.7,51.9c-0.6,0.8-1.9,0.8-2.4,0L43.5,3.6L8.7,51.9c-0.6,0.8-1.9,0.8-2.4,0L-28.5,3.6l-34.8,48.3c-0.6,0.8-1.9,0.8-2.4,0
					l-36-50l2.4-1.8l34.8,48.3l34.8-48.3c0.6-0.8,1.9-0.8,2.4,0L7.5,48.5L42.3,0.2c0.6-0.8,1.9-0.8,2.4,0l34.8,48.3l34.8-48.3
					c0.6-0.8,1.9-0.8,2.4,0l34.8,48.3l34.8-48.3c0.6-0.8,1.9-0.8,2.4,0l34.8,48.3l34.8-48.3c0.6-0.8,1.9-0.8,2.4,0l34.8,48.3
					l34.8-48.3c0.6-0.8,1.9-0.8,2.4,0l34.8,48.3l34.8-48.3c0.6-0.8,1.9-0.8,2.4,0l34.8,48.3l34.8-48.3l2.4,1.8l-36,50
					C440.4,52.3,440,52.6,439.5,52.6z"/>
			</g>
		</g>
		<g clip-path="url(#SVGID_2_)">
			<g>
				<path fill="#D4DBD3" d="M439.5,80.6c-0.5,0-0.9-0.2-1.2-0.6l-34.8-48.3l-34.8,48.3c-0.6,0.8-1.9,0.8-2.4,0l-34.8-48.3
					l-34.8,48.3c-0.6,0.8-1.9,0.8-2.4,0l-34.8-48.3l-34.8,48.3c-0.6,0.8-1.9,0.8-2.4,0l-34.8-48.3l-34.8,48.3
					c-0.6,0.8-1.9,0.8-2.4,0l-34.8-48.3L80.7,79.9c-0.6,0.8-1.9,0.8-2.4,0L43.5,31.6L8.7,79.9c-0.6,0.8-1.9,0.8-2.4,0l-34.8-48.3
					l-34.8,48.3c-0.6,0.8-1.9,0.8-2.4,0l-36-50l2.4-1.8l34.8,48.3l34.8-48.3c0.6-0.8,1.9-0.8,2.4,0L7.5,76.5l34.8-48.3
					c0.6-0.8,1.9-0.8,2.4,0l34.8,48.3l34.8-48.3c0.6-0.8,1.9-0.8,2.4,0l34.8,48.3l34.8-48.3c0.6-0.8,1.9-0.8,2.4,0l34.8,48.3
					l34.8-48.3c0.6-0.8,1.9-0.8,2.4,0l34.8,48.3l34.8-48.3c0.6-0.8,1.9-0.8,2.4,0l34.8,48.3l34.8-48.3c0.6-0.8,1.9-0.8,2.4,0
					l34.8,48.3l34.8-48.3l2.4,1.8l-36,50C440.4,80.3,440,80.6,439.5,80.6z"/>
			</g>
		</g>
		<g clip-path="url(#SVGID_2_)">
			<g>
				<path fill="#D4DBD3" d="M439.5,108.6c-0.5,0-0.9-0.2-1.2-0.6l-34.8-48.3l-34.8,48.3c-0.6,0.8-1.9,0.8-2.4,0l-34.8-48.3
					l-34.8,48.3c-0.6,0.8-1.9,0.8-2.4,0l-34.8-48.3l-34.8,48.3c-0.6,0.8-1.9,0.8-2.4,0l-34.8-48.3l-34.8,48.3
					c-0.6,0.8-1.9,0.8-2.4,0l-34.8-48.3l-34.8,48.3c-0.6,0.8-1.9,0.8-2.4,0L43.5,59.6L8.7,107.9c-0.6,0.8-1.9,0.8-2.4,0l-34.8-48.3
					l-34.8,48.3c-0.6,0.8-1.9,0.8-2.4,0l-36-50l2.4-1.8l34.8,48.3l34.8-48.3c0.6-0.8,1.9-0.8,2.4,0l34.8,48.3l34.8-48.3
					c0.6-0.8,1.9-0.8,2.4,0l34.8,48.3l34.8-48.3c0.6-0.8,1.9-0.8,2.4,0l34.8,48.3l34.8-48.3c0.6-0.8,1.9-0.8,2.4,0l34.8,48.3
					l34.8-48.3c0.6-0.8,1.9-0.8,2.4,0l34.8,48.3l34.8-48.3c0.6-0.8,1.9-0.8,2.4,0l34.8,48.3l34.8-48.3c0.6-0.8,1.9-0.8,2.4,0
					l34.8,48.3l34.8-48.3l2.4,1.8l-36,50C440.4,108.3,440,108.6,439.5,108.6z"/>
			</g>
		</g>
		<g clip-path="url(#SVGID_2_)">
			<g>
				<path fill="#D4DBD3" d="M439.5,136.6c-0.5,0-0.9-0.2-1.2-0.6l-34.8-48.3l-34.8,48.3c-0.6,0.8-1.9,0.8-2.4,0l-34.8-48.3
					l-34.8,48.3c-0.6,0.8-1.9,0.8-2.4,0l-34.8-48.3l-34.8,48.3c-0.6,0.8-1.9,0.8-2.4,0l-34.8-48.3l-34.8,48.3
					c-0.6,0.8-1.9,0.8-2.4,0l-34.8-48.3l-34.8,48.3c-0.6,0.8-1.9,0.8-2.4,0L43.5,87.6L8.7,135.9c-0.6,0.8-1.9,0.8-2.4,0l-34.8-48.3
					l-34.8,48.3c-0.6,0.8-1.9,0.8-2.4,0l-36-50l2.4-1.8l34.8,48.3l34.8-48.3c0.6-0.8,1.9-0.8,2.4,0l34.8,48.3l34.8-48.3
					c0.6-0.8,1.9-0.8,2.4,0l34.8,48.3l34.8-48.3c0.6-0.8,1.9-0.8,2.4,0l34.8,48.3l34.8-48.3c0.6-0.8,1.9-0.8,2.4,0l34.8,48.3
					l34.8-48.3c0.6-0.8,1.9-0.8,2.4,0l34.8,48.3l34.8-48.3c0.6-0.8,1.9-0.8,2.4,0l34.8,48.3l34.8-48.3c0.6-0.8,1.9-0.8,2.4,0
					l34.8,48.3l34.8-48.3l2.4,1.8l-36,50C440.4,136.3,440,136.6,439.5,136.6z"/>
			</g>
		</g>
		<g clip-path="url(#SVGID_2_)">
			<g>
				<path fill="#D4DBD3" d="M439.5,164.6c-0.5,0-0.9-0.2-1.2-0.6l-34.8-48.3L368.7,164c-0.6,0.8-1.9,0.8-2.4,0l-34.8-48.3L296.7,164
					c-0.6,0.8-1.9,0.8-2.4,0l-34.8-48.3L224.7,164c-0.6,0.8-1.9,0.8-2.4,0l-34.8-48.3L152.7,164c-0.6,0.8-1.9,0.8-2.4,0l-34.8-48.3
					L80.7,164c-0.6,0.8-1.9,0.8-2.4,0l-34.8-48.3L8.7,164c-0.6,0.8-1.9,0.8-2.4,0l-34.8-48.3L-63.3,164c-0.6,0.8-1.9,0.8-2.4,0
					l-36-50l2.4-1.8l34.8,48.3l34.8-48.3c0.6-0.8,1.9-0.8,2.4,0l34.8,48.3l34.8-48.3c0.6-0.8,1.9-0.8,2.4,0l34.8,48.3l34.8-48.3
					c0.6-0.8,1.9-0.8,2.4,0l34.8,48.3l34.8-48.3c0.6-0.8,1.9-0.8,2.4,0l34.8,48.3l34.8-48.3c0.6-0.8,1.9-0.8,2.4,0l34.8,48.3
					l34.8-48.3c0.6-0.8,1.9-0.8,2.4,0l34.8,48.3l34.8-48.3c0.6-0.8,1.9-0.8,2.4,0l34.8,48.3l34.8-48.3l2.4,1.8l-36,50
					C440.4,164.3,440,164.6,439.5,164.6z"/>
			</g>
		</g>
		<g clip-path="url(#SVGID_2_)">
			<g>
				<path fill="#D4DBD3" d="M439.5,192.6c-0.5,0-0.9-0.2-1.2-0.6l-34.8-48.3L368.7,192c-0.6,0.8-1.9,0.8-2.4,0l-34.8-48.3L296.7,192
					c-0.6,0.8-1.9,0.8-2.4,0l-34.8-48.3L224.7,192c-0.6,0.8-1.9,0.8-2.4,0l-34.8-48.3L152.7,192c-0.6,0.8-1.9,0.8-2.4,0l-34.8-48.3
					L80.7,192c-0.6,0.8-1.9,0.8-2.4,0l-34.8-48.3L8.7,192c-0.6,0.8-1.9,0.8-2.4,0l-34.8-48.3L-63.3,192c-0.6,0.8-1.9,0.8-2.4,0
					l-36-50l2.4-1.8l34.8,48.3l34.8-48.3c0.6-0.8,1.9-0.8,2.4,0l34.8,48.3l34.8-48.3c0.6-0.8,1.9-0.8,2.4,0l34.8,48.3l34.8-48.3
					c0.6-0.8,1.9-0.8,2.4,0l34.8,48.3l34.8-48.3c0.6-0.8,1.9-0.8,2.4,0l34.8,48.3l34.8-48.3c0.6-0.8,1.9-0.8,2.4,0l34.8,48.3
					l34.8-48.3c0.6-0.8,1.9-0.8,2.4,0l34.8,48.3l34.8-48.3c0.6-0.8,1.9-0.8,2.4,0l34.8,48.3l34.8-48.3l2.4,1.8l-36,50
					C440.4,192.3,440,192.6,439.5,192.6z"/>
			</g>
		</g>
		<g clip-path="url(#SVGID_2_)">
			<g>
				<path fill="#D4DBD3" d="M439.5,220.6c-0.5,0-0.9-0.2-1.2-0.6l-34.8-48.3L368.7,220c-0.6,0.8-1.9,0.8-2.4,0l-34.8-48.3L296.7,220
					c-0.6,0.8-1.9,0.8-2.4,0l-34.8-48.3L224.7,220c-0.6,0.8-1.9,0.8-2.4,0l-34.8-48.3L152.7,220c-0.6,0.8-1.9,0.8-2.4,0l-34.8-48.3
					L80.7,220c-0.6,0.8-1.9,0.8-2.4,0l-34.8-48.3L8.7,220c-0.6,0.8-1.9,0.8-2.4,0l-34.8-48.3L-63.3,220c-0.6,0.8-1.9,0.8-2.4,0
					l-36-50l2.4-1.8l34.8,48.3l34.8-48.3c0.6-0.8,1.9-0.8,2.4,0l34.8,48.3l34.8-48.3c0.6-0.8,1.9-0.8,2.4,0l34.8,48.3l34.8-48.3
					c0.6-0.8,1.9-0.8,2.4,0l34.8,48.3l34.8-48.3c0.6-0.8,1.9-0.8,2.4,0l34.8,48.3l34.8-48.3c0.6-0.8,1.9-0.8,2.4,0l34.8,48.3
					l34.8-48.3c0.6-0.8,1.9-0.8,2.4,0l34.8,48.3l34.8-48.3c0.6-0.8,1.9-0.8,2.4,0l34.8,48.3l34.8-48.3l2.4,1.8l-36,50
					C440.4,220.4,440,220.6,439.5,220.6z"/>
			</g>
		</g>
		<g clip-path="url(#SVGID_2_)">
			<g>
				<path fill="#D4DBD3" d="M439.5,248.6c-0.5,0-0.9-0.2-1.2-0.6l-34.8-48.3L368.7,248c-0.6,0.8-1.9,0.8-2.4,0l-34.8-48.3L296.7,248
					c-0.6,0.8-1.9,0.8-2.4,0l-34.8-48.3L224.7,248c-0.6,0.8-1.9,0.8-2.4,0l-34.8-48.3L152.7,248c-0.6,0.8-1.9,0.8-2.4,0l-34.8-48.3
					L80.7,248c-0.6,0.8-1.9,0.8-2.4,0l-34.8-48.3L8.7,248c-0.6,0.8-1.9,0.8-2.4,0l-34.8-48.3L-63.3,248c-0.6,0.8-1.9,0.8-2.4,0
					l-36-50l2.4-1.8l34.8,48.3l34.8-48.3c0.6-0.8,1.9-0.8,2.4,0l34.8,48.3l34.8-48.3c0.6-0.8,1.9-0.8,2.4,0l34.8,48.3l34.8-48.3
					c0.6-0.8,1.9-0.8,2.4,0l34.8,48.3l34.8-48.3c0.6-0.8,1.9-0.8,2.4,0l34.8,48.3l34.8-48.3c0.6-0.8,1.9-0.8,2.4,0l34.8,48.3
					l34.8-48.3c0.6-0.8,1.9-0.8,2.4,0l34.8,48.3l34.8-48.3c0.6-0.8,1.9-0.8,2.4,0l34.8,48.3l34.8-48.3l2.4,1.8l-36,50
					C440.4,248.4,440,248.6,439.5,248.6z"/>
			</g>
		</g>
		<g clip-path="url(#SVGID_2_)">
			<g>
				<path fill="#D4DBD3" d="M439.5,276.6c-0.5,0-0.9-0.2-1.2-0.6l-34.8-48.3L368.7,276c-0.6,0.8-1.9,0.8-2.4,0l-34.8-48.3L296.7,276
					c-0.6,0.8-1.9,0.8-2.4,0l-34.8-48.3L224.7,276c-0.6,0.8-1.9,0.8-2.4,0l-34.8-48.3L152.7,276c-0.6,0.8-1.9,0.8-2.4,0l-34.8-48.3
					L80.7,276c-0.6,0.8-1.9,0.8-2.4,0l-34.8-48.3L8.7,276c-0.6,0.8-1.9,0.8-2.4,0l-34.8-48.3L-63.3,276c-0.6,0.8-1.9,0.8-2.4,0
					l-36-50l2.4-1.8l34.8,48.3l34.8-48.3c0.6-0.8,1.9-0.8,2.4,0l34.8,48.3l34.8-48.3c0.6-0.8,1.9-0.8,2.4,0l34.8,48.3l34.8-48.3
					c0.6-0.8,1.9-0.8,2.4,0l34.8,48.3l34.8-48.3c0.6-0.8,1.9-0.8,2.4,0l34.8,48.3l34.8-48.3c0.6-0.8,1.9-0.8,2.4,0l34.8,48.3
					l34.8-48.3c0.6-0.8,1.9-0.8,2.4,0l34.8,48.3l34.8-48.3c0.6-0.8,1.9-0.8,2.4,0l34.8,48.3l34.8-48.3l2.4,1.8l-36,50
					C440.4,276.4,440,276.6,439.5,276.6z"/>
			</g>
		</g>
		<g clip-path="url(#SVGID_2_)">
			<g>
				<path fill="#D4DBD3" d="M439.5,304.6c-0.5,0-0.9-0.2-1.2-0.6l-34.8-48.3L368.7,304c-0.6,0.8-1.9,0.8-2.4,0l-34.8-48.3L296.7,304
					c-0.6,0.8-1.9,0.8-2.4,0l-34.8-48.3L224.7,304c-0.6,0.8-1.9,0.8-2.4,0l-34.8-48.3L152.7,304c-0.6,0.8-1.9,0.8-2.4,0l-34.8-48.3
					L80.7,304c-0.6,0.8-1.9,0.8-2.4,0l-34.8-48.3L8.7,304c-0.6,0.8-1.9,0.8-2.4,0l-34.8-48.3L-63.3,304c-0.6,0.8-1.9,0.8-2.4,0
					l-36-50l2.4-1.8l34.8,48.3l34.8-48.3c0.6-0.8,1.9-0.8,2.4,0l34.8,48.3l34.8-48.3c0.6-0.8,1.9-0.8,2.4,0l34.8,48.3l34.8-48.3
					c0.6-0.8,1.9-0.8,2.4,0l34.8,48.3l34.8-48.3c0.6-0.8,1.9-0.8,2.4,0l34.8,48.3l34.8-48.3c0.6-0.8,1.9-0.8,2.4,0l34.8,48.3
					l34.8-48.3c0.6-0.8,1.9-0.8,2.4,0l34.8,48.3l34.8-48.3c0.6-0.8,1.9-0.8,2.4,0l34.8,48.3l34.8-48.3l2.4,1.8l-36,50
					C440.4,304.4,440,304.6,439.5,304.6z"/>
			</g>
		</g>
		<g clip-path="url(#SVGID_2_)">
			<g>
				<path fill="#D4DBD3" d="M439.5,332.6c-0.5,0-0.9-0.2-1.2-0.6l-34.8-48.3L368.7,332c-0.6,0.8-1.9,0.8-2.4,0l-34.8-48.3L296.7,332
					c-0.6,0.8-1.9,0.8-2.4,0l-34.8-48.3L224.7,332c-0.6,0.8-1.9,0.8-2.4,0l-34.8-48.3L152.7,332c-0.6,0.8-1.9,0.8-2.4,0l-34.8-48.3
					L80.7,332c-0.6,0.8-1.9,0.8-2.4,0l-34.8-48.3L8.7,332c-0.6,0.8-1.9,0.8-2.4,0l-34.8-48.3L-63.3,332c-0.6,0.8-1.9,0.8-2.4,0
					l-36-50l2.4-1.8l34.8,48.3l34.8-48.3c0.6-0.8,1.9-0.8,2.4,0l34.8,48.3l34.8-48.3c0.6-0.8,1.9-0.8,2.4,0l34.8,48.3l34.8-48.3
					c0.6-0.8,1.9-0.8,2.4,0l34.8,48.3l34.8-48.3c0.6-0.8,1.9-0.8,2.4,0l34.8,48.3l34.8-48.3c0.6-0.8,1.9-0.8,2.4,0l34.8,48.3
					l34.8-48.3c0.6-0.8,1.9-0.8,2.4,0l34.8,48.3l34.8-48.3c0.6-0.8,1.9-0.8,2.4,0l34.8,48.3l34.8-48.3l2.4,1.8l-36,50
					C440.4,332.4,440,332.6,439.5,332.6z"/>
			</g>
		</g>
		<g clip-path="url(#SVGID_2_)">
			<g>
				<path fill="#D4DBD3" d="M439.5,360.6c-0.5,0-0.9-0.2-1.2-0.6l-34.8-48.3L368.7,360c-0.6,0.8-1.9,0.8-2.4,0l-34.8-48.3L296.7,360
					c-0.6,0.8-1.9,0.8-2.4,0l-34.8-48.3L224.7,360c-0.6,0.8-1.9,0.8-2.4,0l-34.8-48.3L152.7,360c-0.6,0.8-1.9,0.8-2.4,0l-34.8-48.3
					L80.7,360c-0.6,0.8-1.9,0.8-2.4,0l-34.8-48.3L8.7,360c-0.6,0.8-1.9,0.8-2.4,0l-34.8-48.3L-63.3,360c-0.6,0.8-1.9,0.8-2.4,0
					l-36-50l2.4-1.8l34.8,48.3l34.8-48.3c0.6-0.8,1.9-0.8,2.4,0l34.8,48.3l34.8-48.3c0.6-0.8,1.9-0.8,2.4,0l34.8,48.3l34.8-48.3
					c0.6-0.8,1.9-0.8,2.4,0l34.8,48.3l34.8-48.3c0.6-0.8,1.9-0.8,2.4,0l34.8,48.3l34.8-48.3c0.6-0.8,1.9-0.8,2.4,0l34.8,48.3
					l34.8-48.3c0.6-0.8,1.9-0.8,2.4,0l34.8,48.3l34.8-48.3c0.6-0.8,1.9-0.8,2.4,0l34.8,48.3l34.8-48.3l2.4,1.8l-36,50
					C440.4,360.4,440,360.6,439.5,360.6z"/>
			</g>
		</g>
		<g clip-path="url(#SVGID_2_)">
			<g>
				<path fill="#D4DBD3" d="M439.5,388.6c-0.5,0-0.9-0.2-1.2-0.6l-34.8-48.3L368.7,388c-0.6,0.8-1.9,0.8-2.4,0l-34.8-48.3L296.7,388
					c-0.6,0.8-1.9,0.8-2.4,0l-34.8-48.3L224.7,388c-0.6,0.8-1.9,0.8-2.4,0l-34.8-48.3L152.7,388c-0.6,0.8-1.9,0.8-2.4,0l-34.8-48.3
					L80.7,388c-0.6,0.8-1.9,0.8-2.4,0l-34.8-48.3L8.7,388c-0.6,0.8-1.9,0.8-2.4,0l-34.8-48.3L-63.3,388c-0.6,0.8-1.9,0.8-2.4,0
					l-36-50l2.4-1.8l34.8,48.3l34.8-48.3c0.6-0.8,1.9-0.8,2.4,0l34.8,48.3l34.8-48.3c0.6-0.8,1.9-0.8,2.4,0l34.8,48.3l34.8-48.3
					c0.6-0.8,1.9-0.8,2.4,0l34.8,48.3l34.8-48.3c0.6-0.8,1.9-0.8,2.4,0l34.8,48.3l34.8-48.3c0.6-0.8,1.9-0.8,2.4,0l34.8,48.3
					l34.8-48.3c0.6-0.8,1.9-0.8,2.4,0l34.8,48.3l34.8-48.3c0.6-0.8,1.9-0.8,2.4,0l34.8,48.3l34.8-48.3l2.4,1.8l-36,50
					C440.4,388.4,440,388.6,439.5,388.6z"/>
			</g>
		</g>
	</g>
</g>
<g id="Layer_2">
</g>
<g id="Layer_3">
</g>
<g id="Layer_10">
</g>
<g id="Layer_4">
	<g opacity="0.1">
		<g>
			<ellipse cx="180" cy="308.4" rx="49.8" ry="4.4"/>
		</g>
	</g>
	<g>
		<g>
			<g>
				<path fill="#98CA4A" d="M147.6,109c-5.1,12.4-8.2,29.8-8.2,53.6c0,57.3,19,75.8,41.4,75.8s39.7-18.5,39.7-75.8
					c0-23.7-3.2-41.2-8.5-53.6H147.6z"/>
			</g>
		</g>
		<g>
			<g>
				<g>
					<ellipse fill="#414042" cx="175.8" cy="128.9" rx="2.5" ry="4"/>
				</g>
			</g>
			<g>
				<g>
					<ellipse fill="#414042" cx="184.2" cy="128.9" rx="2.5" ry="4"/>
				</g>
			</g>
		</g>
		<g>
			<g>
				<g>
					<rect x="182.6" y="235" fill="#98CA4A" width="2.8" height="72.9"/>
				</g>
			</g>
			<g>
				<g>
					<rect x="174.9" y="235" fill="#98CA4A" width="2.8" height="72.9"/>
				</g>
			</g>
		</g>
		<g>
			<g>
				<g>
					<rect x="213.4" y="213.2" fill="#98CA4A" width="3.6" height="40.9"/>
				</g>
			</g>
			<g>
				<g>
					<ellipse fill="#98CA4A" cx="215.2" cy="252.9" rx="4" ry="3.8"/>
				</g>
			</g>
		</g>
		<g>
			<g>
				<g>
					<rect x="142.6" y="213.1" fill="#98CA4A" width="3.6" height="40.9"/>
				</g>
			</g>
			<g>
				<g>
					<ellipse fill="#98CA4A" cx="144.4" cy="252.8" rx="4" ry="3.8"/>
				</g>
			</g>
		</g>
		<g>
			<g>
				<g>
					<path d="M174.9,308.4h-6.1v-0.6c0-1.1,0.9-2,2-2h4.1V308.4z"/>
				</g>
			</g>
			<g>
				<g>
					<path d="M185.4,308.4h6.1v-0.6c0-1.1-0.9-2-2-2h-4.1V308.4z"/>
				</g>
			</g>
			<g>
				<g>
					<rect x="174.9" y="305.5" width="2.8" height="3.3"/>
				</g>
			</g>
			<g>
				<g>
					<rect x="182.6" y="305.5" width="2.8" height="3.3"/>
				</g>
			</g>
		</g>
		<g>
			<g>
				<g>
					<rect x="182.6" y="279.1" fill="#FFFFFF" width="2.8" height="26.4"/>
				</g>
			</g>
			<g>
				<g>
					<rect x="174.9" y="279.1" fill="#FFFFFF" width="2.8" height="26.4"/>
				</g>
			</g>
		</g>
		<g>
			<g>
				<g>
					<rect x="139.4" y="107" fill="#414042" width="81.1" height="4"/>
				</g>
			</g>
			<g>
				<g>
					<path fill="#414042" d="M180,51.2L180,51.2c10,0,18.1,8.1,18.1,18.1V109h-36.1V69.3C161.9,59.3,170,51.2,180,51.2z"/>
				</g>
			</g>
		</g>
		<g>
			<g>
				<g>
					<path fill="#414042" d="M180.2,144.6c-14.2,0-25.8,11.5-25.8,25.8C168.7,170.4,180.2,158.8,180.2,144.6z"/>
				</g>
			</g>
			<g>
				<g>
					<path fill="#414042" d="M179.8,144.6c14.2,0,25.8,11.5,25.8,25.8C191.3,170.4,179.8,158.8,179.8,144.6z"/>
				</g>
			</g>
		</g>
		<g>
			<g>
				<rect x="152.8" y="220.1" fill="#FFFFFF" width="54.4" height="44.7"/>
			</g>
		</g>
		<g>
			<g>
				<path fill="#414042" d="M207.8,191.9h-19l-8.8,24.2l-8.8-24.2h-19.2c-7.9,0-14.2,6.4-14.2,14.2v39h84.3v-38.9
					C222.1,198.3,215.7,191.9,207.8,191.9z"/>
			</g>
		</g>
		<g>
			<g>
				<g>
					<polygon fill="#9D2D38" points="150.2,212 150.2,204.1 165.8,212 					"/>
				</g>
			</g>
			<g>
				<g>
					<polygon fill="#9D2D38" points="154.6,212.8 165,205.3 165,212.8 					"/>
				</g>
			</g>
			<g>
				<g>
					<rect x="149.4" y="210.8" fill="#FFFFFF" width="17.3" height="4"/>
				</g>
			</g>
		</g>
		<g>
			<g>
				<polygon fill="#E6E7E8" points="180.5,264.7 179.5,264.7 179.5,257 175.3,254.6 175.8,253.7 180.5,256.4 				"/>
			</g>
		</g>
		<g>
			<g>
				
					<rect x="181.7" y="252.9" transform="matrix(0.5079 0.8614 -0.8614 0.5079 309.6897 -31.2467)" fill="#E6E7E8" width="1" height="5.1"/>
			</g>
		</g>
	</g>
</g>
<g id="Layer_5">
</g>
<g id="Layer_6">
</g>
<g id="Layer_7">
</g>
<g id="Layer_8">
</g>
<g id="Layer_11">
</g>
<g id="Layer_9">
</g>
</svg>
