<?xml version="1.0" encoding="utf-8"?>
<!-- Generator: Adobe Illustrator 19.1.0, SVG Export Plug-In . SVG Version: 6.00 Build 0)  -->
<svg version="1.1" xmlns="http://www.w3.org/2000/svg" xmlns:xlink="http://www.w3.org/1999/xlink" x="0px" y="0px"
	 viewBox="0 0 360 360" enable-background="new 0 0 360 360" xml:space="preserve">
<pattern  x="496.5" y="-478" width="15.6" height="20.9" patternUnits="userSpaceOnUse" id="New_Pattern_2" viewBox="1.3 -23.1 15.6 20.9" overflow="visible">
	<g>
		<polygon fill="none" points="1.3,-23.1 16.9,-23.1 16.9,-2.2 1.3,-2.2 		"/>
		<polygon fill="#EEE5AC" points="16.9,-4.4 15.6,-2.2 16.9,0 18.2,-2.2 		"/>
		<polygon fill="#EEE5AC" points="1.3,-4.4 0,-2.2 1.3,0 2.6,-2.2 		"/>
		<polygon fill="#EEE5AC" points="9.1,-14.9 7.8,-12.6 9.1,-10.4 10.4,-12.6 		"/>
		<polygon fill="#EEE5AC" points="16.9,-25.3 15.6,-23.1 16.9,-20.9 18.2,-23.1 		"/>
		<polygon fill="#EEE5AC" points="1.3,-25.3 0,-23.1 1.3,-20.9 2.6,-23.1 		"/>
	</g>
</pattern>
<g id="bg">
	<rect fill="#FEECE5" width="360" height="360"/>
</g>
<g id="Layer_2">
</g>
<g id="Layer_3">
</g>
<g id="Layer_10">
	<g opacity="0.8">
		<defs>
			<rect id="SVGID_9_" x="496.5" y="-478" opacity="0.8" width="360" height="360"/>
		</defs>
		<clipPath id="SVGID_2_">
			<use xlink:href="#SVGID_9_"  overflow="visible"/>
		</clipPath>
		<g clip-path="url(#SVGID_2_)">
		</g>
	</g>
</g>
<g id="Layer_4">
</g>
<g id="Layer_5">
	<g opacity="0.8">
		<defs>
			<rect id="SVGID_13_" y="0" opacity="0.8" width="360" height="360"/>
		</defs>
		<clipPath id="SVGID_4_">
			<use xlink:href="#SVGID_13_"  overflow="visible"/>
		</clipPath>
		<g clip-path="url(#SVGID_4_)">
			<polygon fill="#F5E3DD" points="-2.7,43.4 -20.2,73 -2.7,102.7 14.7,73 			"/>
			<polygon fill="#F5E3DD" points="-2.7,157.9 -20.2,187.5 -2.7,217.1 14.7,187.5 			"/>
			<polygon fill="#F5E3DD" points="-2.7,272.3 -20.2,301.9 -2.7,331.6 14.7,301.9 			"/>
		</g>
		<g clip-path="url(#SVGID_4_)">
			<polygon fill="#F5E3DD" points="70.3,-22.2 52.9,7.4 70.3,37 87.7,7.4 			"/>
			<polygon fill="#F5E3DD" points="70.3,92.2 52.9,121.9 70.3,151.5 87.7,121.9 			"/>
			<polygon fill="#F5E3DD" points="70.3,206.7 52.9,236.3 70.3,265.9 87.7,236.3 			"/>
			<polygon fill="#F5E3DD" points="70.3,321.1 52.9,350.8 70.3,380.4 87.7,350.8 			"/>
		</g>
		<g clip-path="url(#SVGID_4_)">
			<polygon fill="#F5E3DD" points="143.4,43.4 125.9,73 143.4,102.7 160.8,73 			"/>
			<polygon fill="#F5E3DD" points="143.4,157.9 125.9,187.5 143.4,217.1 160.8,187.5 			"/>
			<polygon fill="#F5E3DD" points="143.4,272.3 125.9,301.9 143.4,331.6 160.8,301.9 			"/>
		</g>
		<g clip-path="url(#SVGID_4_)">
			<polygon fill="#F5E3DD" points="216.4,-22.2 199,7.4 216.4,37 233.8,7.4 			"/>
			<polygon fill="#F5E3DD" points="216.4,92.2 199,121.9 216.4,151.5 233.8,121.9 			"/>
			<polygon fill="#F5E3DD" points="216.4,206.7 199,236.3 216.4,265.9 233.8,236.3 			"/>
			<polygon fill="#F5E3DD" points="216.4,321.1 199,350.8 216.4,380.4 233.8,350.8 			"/>
		</g>
		<g clip-path="url(#SVGID_4_)">
			<polygon fill="#F5E3DD" points="289.5,43.4 272,73 289.5,102.7 306.9,73 			"/>
			<polygon fill="#F5E3DD" points="289.5,157.9 272,187.5 289.5,217.1 306.9,187.5 			"/>
			<polygon fill="#F5E3DD" points="289.5,272.3 272,301.9 289.5,331.6 306.9,301.9 			"/>
		</g>
		<g clip-path="url(#SVGID_4_)">
			<polygon fill="#F5E3DD" points="362.5,43.4 345.1,73 362.5,102.7 379.9,73 			"/>
			<polygon fill="#F5E3DD" points="362.5,157.9 345.1,187.5 362.5,217.1 379.9,187.5 			"/>
			<polygon fill="#F5E3DD" points="362.5,272.3 345.1,301.9 362.5,331.6 379.9,301.9 			"/>
		</g>
	</g>
	<ellipse opacity="0.1" cx="180" cy="308.4" rx="45.1" ry="4.4"/>
	<g>
		<g>
			<ellipse id="XMLID_7_" fill="#B9D532" cx="119.9" cy="315.7" rx="9.4" ry="8.2"/>
			<g>
				<path fill="none" stroke="#A7A9AC" stroke-width="3" stroke-miterlimit="10" d="M135.9,235.2h-5.5c-9.8,0-10.6,7.5-10.6,16.7
					v58.8"/>
				<g>
					<defs>
						<ellipse id="XMLID_6_" cx="119.9" cy="315.7" rx="9.4" ry="8.2"/>
					</defs>
					<clipPath id="XMLID_3_">
						<use xlink:href="#XMLID_6_"  overflow="visible"/>
					</clipPath>
					<path clip-path="url(#XMLID_3_)" fill="none" stroke="#FFFFFF" stroke-miterlimit="10" d="M125.8,308.5c0,0-5.3,7.4,0.5,14.1"
						/>
					<path clip-path="url(#XMLID_3_)" fill="none" stroke="#FFFFFF" stroke-miterlimit="10" d="M113.6,308.6c0,0,5.3,7.4-0.5,14.1"
						/>
				</g>
			</g>
			<path fill="#B9D532" d="M117.5,309.2c0,0,0.9,0.5,2.1,0.7c0.7,0.1,1.5,0.3,2.5-0.1l0.4,1.6h-5.2L117.5,309.2z"/>
			<path fill="none" stroke="#98B129" stroke-width="0.5" stroke-miterlimit="10" d="M117.5,309c0,0,2.9,1.6,4.6,0.6"/>
		</g>
		<g>
			<rect x="126.4" y="200.5" fill="#CE80B6" width="3.6" height="31.8"/>
			<ellipse fill="#F4CD87" cx="128.2" cy="235.2" rx="4" ry="3.8"/>
		</g>
		<g>
			<rect x="231.9" y="200.5" fill="#CE80B6" width="3.6" height="40.9"/>
			<ellipse fill="#F4CD87" cx="233.7" cy="240.2" rx="4" ry="3.8"/>
		</g>
		<path fill="#F4CD87" d="M243.2,148.6c0,57.3-27.9,86.6-62.3,86.6s-62.3-29.3-62.3-86.6s27.9-87.2,62.3-87.2
			S243.2,91.3,243.2,148.6z"/>
		<g>
			<path fill="none" stroke="#6D6E71" stroke-miterlimit="10" d="M147.7,78c0.9-6.4-5.2-12.3-11.6-12.7c-1.5-0.1-3,0.1-4.2,0.9
				s-1.9,2.5-1.4,3.8c0.6,1.3,2.4,1.3,3.6,0.6c0.8-0.6,0.9-1.8,0.3-2.5c-1.3-1.4-3.6-1.1-5.6-0.4c-2.8,1-6.3,3.6-6.1,6.5
				c0.1,1,0.7,2.1,1.6,2.2c1,0.2,1.9-1.2,1.2-1.9c-2.2-1.7-5.9-0.9-7.1,1.6c-1.3,2.5,1.9,7.7,2.9,6.7c0.6-1.9-6.7-1.3-7.8,1.7
				c-1.1,3,2.7,7.4,3.6,5.7c0.3-1.5-2.8-2.7-5.7-1.6c-1.8,0.7-3.3,2.4-3.7,4.3c-0.3,1.2-0.3,2.6,0.4,3.6c0.7,1.1,2,1.7,3.2,1.3"/>
			<path fill="none" stroke="#6D6E71" stroke-miterlimit="10" d="M145.2,79.8c-1.5-2.1-4.1-3.5-6.6-3.2s-4.8,2.7-4.6,5.3
				c0.2,2.6,3.2,4.7,5.5,3.7c1.2-0.9,0.1-3.1-1.4-3.2c-1.5-0.1-2.8,1-3.8,2.1c-1.3,1.4-2.4,3.1-2.5,5c-0.1,1.9,1,4,2.8,4.4
				c0.9,0.2,2-0.3,1.9-1.1c0.2-2-4.7-1.6-6.4,0.1c-1.7,1.7-2,4.5-0.9,6.6c0.5,0.9,1.3,1.8,2.3,2.1c1,0.3,2.3-0.1,2.7-1.1
				c0.2-2.2-6.8-1.1-8,1.9c-1.2,3,1.3,6.8,4.5,6.8"/>
			<path fill="none" stroke="#6D6E71" stroke-miterlimit="10" d="M145.2,78.3c-0.2-2.3-3.8-5.6-10.1-4.8c-2.1,0.3-4.9,1.2-5.6,3.1
				c-0.5,1.2,0,2.8,1.1,3.5c0.6,0.4,1.5,0.5,2,0c0.8-0.8-0.3-2.2-1.4-2.6c-1.9-0.6-4.1-0.2-5.5,1.2s-2.1,3.5-1.5,5.4
				c0.2,0.7,0.5,1.4,1.1,1.7c0.6,0.4,1.5,0.3,1.9-0.4c0.4-0.7-0.1-1.7-0.8-2.1c-1.1-0.6-2.6-0.5-3.6,0.1s-1.8,1.8-2.2,3
				c-0.7,2.5,1.5,6.7,3.1,6.1c0.4-0.6,0.8-1.2-0.3-1.9c-0.6-0.4-1.3-0.6-2-0.6c-2,0.2-3.8,1.9-4.1,4c-0.3,2,0.6,4.2,2.2,5.4
				c1.6,1.2,5,1.7,5.7,0.3c0.7-1.7-3-2.6-4.9-2.4c-1.9,0.2-3.7,1.5-4.5,3.2c-0.5,1.1-0.7,2.4-0.3,3.5c0.9,2.5,5.1,2.3,5.1,0.8
				c0-1-7.8-3.9-8.3,5.4c0,0,0,5,3.6,5.6c3.6,0.6-2.8-2.2-4.1,1.4c-1,2.7,1.4,4.1,2.4,4.1"/>
		</g>
		<g>
			<path fill="none" stroke="#6D6E71" stroke-miterlimit="10" d="M215,78.2c7.4-3.2,10.3-0.2,10.6,1.6c0.2,1.6-0.6,3.2-1.8,4.2
				c-1.2,1-4,1.6-4.4,0.7c-0.7-1.3,1.5-3,3-3.5c5.5-2,6.6,1.9,6.7,2.3c0.7,3.7-3.1,7.7-5.4,6.2c-0.9-0.6,0.1-2.1,1.4-2.4
				c1.7-0.4,3.6,0.9,4.4,2.4c0.8,1.5,0.6,3.5-0.5,4.8c-0.9,1.2-3.3,2.8-4,2c-0.2-0.7,0.3-1.3,1-1.7c0.7-0.4,1.4-0.4,2.2-0.5
				c2-0.2,4.6-0.1,5.5,1.8c0.6,1.1,0.2,2.5-0.2,3.7c-0.8,2.2-4,5.5-4.9,4.4c-0.3-1.4,1.7-2.1,3.1-2.1c1.6,0,3.4,0.2,4.3,1.6
				c0.8,1.3,0.3,3-0.7,4.1c-1,1.1-2.5,1.7-3.9,2.2"/>
			<path fill="none" stroke="#6D6E71" stroke-miterlimit="10" d="M213,72.6c2.7-2.8,6.4-4.6,10.2-5.1c1.5-0.2,3.1-0.2,4.4,0.6
				c1.3,0.8,1.9,2.4,1.1,3.7c-0.2,0.6-0.7,0.7-1.2,0.3c-0.3-0.7,0.6-1.4,1.4-1.6c1.9-0.5,3.5-0.4,5,0.9c1.5,1.3,1.9,5.6,0.4,4.8
				c-0.6-0.8,1.1-2,3.4-1.9c2.1,0.1,4.1,1.8,4.3,3.8c0.3,2-3.1,4.7-3.8,3.5c0.2-1.3,1.6-2,2.9-2.3c1.1-0.3,2.2-0.4,3.3-0.1
				c2.5,0.8,3.4,4.2,2.1,6.4c-1.2,2.3-3.9,3.5-4.4,2.3c-0.2-0.7,5.2-4.4,6.8,0.5c1.1,3.3-3.2,7.6-4.2,6.5c-0.7-1.5,6.1-2.7,7.4,0.3
				c0.7,1.6-0.3,3.9-1.4,4.2"/>
			<path fill="none" stroke="#6D6E71" stroke-miterlimit="10" d="M210.2,75.7c3.5-2.4,7.9-2.8,12.1-2.7c2.2,0.1,4.7,0,6.4,1.4
				c2,1.6-1.4,4.2-2,3.5c-0.7-0.7,2.7-2.2,5.4-1.2c1.9,0.7,3.1,3,3.1,5.1c0,3.4-1.7,4.2-2.4,3.9c-0.8-1,1.7-2.1,3.3-1.4
				c1.6,0.7,2.3,2.6,2.4,4.4c0.1,1.9-0.5,3.8-1.5,5.5c-0.4,0.6-1.1,1.2-1.8,0.9c-0.3-0.2-0.5-0.5-0.5-0.8c-0.4-1.7,1.5-3.3,3.2-3
				c1.7,0.3,2.9,2.1,2.9,3.8c0.1,1.8-1.7,4.3-2.9,3.8c-0.7-1.3,2.7-2.9,4.2-1.8c1.5,1.1,1.8,3.4,1,5.1c-0.7,1.6-4.4,3.4-4.2,2
				c2.4-1.8,6.3-0.6,7.3,2.2c1,2.8-1.2,6.2-4.2,6.4"/>
		</g>
		<g>
			<ellipse fill="#414042" cx="166.6" cy="115" rx="2.5" ry="4"/>
			<ellipse fill="#414042" cx="195.4" cy="115" rx="2.5" ry="4"/>
		</g>
		<g>
			<path fill="#7AC8A3" d="M181,235.3c18,0,34.2-7.4,46.1-21.7h-92.1C146.7,228,163,235.3,181,235.3z"/>
		</g>
		<g>
			<defs>
				<path id="XMLID_2_" d="M125.4,191.9c-0.5,3.8-1.6,9.2,1.8,14.1c1.2,1.7,4.5,4.8,5.7,6.5c1,1.4,6.3,2.2,16.8,3
					c5.2,0.4,9.5,0,10.6,0.3c9.9,2.7,27.9,4.9,42.6-0.6c1.1-0.4,22.1-1.2,24.1-1.6c4.9-1.2,7.1-7,7.4-7.4c3.9-5.6,2.1-11.7,2.1-14.2
					L125.4,191.9z"/>
			</defs>
			<use xlink:href="#XMLID_2_"  overflow="visible" fill="#CE80B6"/>
			<clipPath id="XMLID_4_">
				<use xlink:href="#XMLID_2_"  overflow="visible"/>
			</clipPath>
			<g clip-path="url(#XMLID_4_)">
				<pattern  id="SVGID_6_" xlink:href="#New_Pattern_2" patternTransform="matrix(1 0 0 1 127.733 -232.4335)">
				</pattern>
				<polygon fill="#EEE5AC" stroke="url(#SVGID_6_)" stroke-miterlimit="10" points="140.9,197.9 139.6,200.1 140.9,202.3 
					142.2,200.1 				"/>
				<pattern  id="SVGID_8_" xlink:href="#New_Pattern_2" patternTransform="matrix(1 0 0 1 127.733 -222.5849)">
				</pattern>
				<polygon fill="#EEE5AC" stroke="url(#SVGID_8_)" stroke-miterlimit="10" points="140.9,207.7 139.6,210 140.9,212.2 142.2,210 
									"/>
				<pattern  id="SVGID_10_" xlink:href="#New_Pattern_2" patternTransform="matrix(1 0 0 1 129.8428 -231.4335)">
				</pattern>
				<polygon fill="#EEE5AC" stroke="url(#SVGID_10_)" stroke-miterlimit="10" points="158.6,198.9 157.3,201.1 158.6,203.3 
					159.9,201.1 				"/>
				<pattern  id="SVGID_12_" xlink:href="#New_Pattern_2" patternTransform="matrix(1 0 0 1 129.8428 -221.5849)">
				</pattern>
				<polygon fill="#EEE5AC" stroke="url(#SVGID_12_)" stroke-miterlimit="10" points="158.6,208.7 157.3,211 158.6,213.2 159.9,211 
									"/>
				<g>
					<pattern  id="SVGID_14_" xlink:href="#New_Pattern_2" patternTransform="matrix(1 0 0 1 120.9852 -228.5092)">
					</pattern>
					<polygon fill="#EEE5AC" stroke="url(#SVGID_14_)" stroke-miterlimit="10" points="149.7,201.8 148.4,204 149.7,206.2 151,204 
											"/>
					<pattern  id="SVGID_16_" xlink:href="#New_Pattern_2" patternTransform="matrix(1 0 0 1 120.9852 -218.6606)">
					</pattern>
					<polygon fill="#EEE5AC" stroke="url(#SVGID_16_)" stroke-miterlimit="10" points="149.7,211.7 148.4,213.9 149.7,216.1 
						151,213.9 					"/>
				</g>
			</g>
			<g clip-path="url(#XMLID_4_)">
				
					<pattern  id="SVGID_17_" xlink:href="#New_Pattern_2" patternTransform="matrix(-1 -4.489700e-11 -4.489700e-11 1 -16886.3359 -232.4335)">
				</pattern>
				<polygon fill="#EEE5AC" stroke="url(#SVGID_17_)" stroke-miterlimit="10" points="221.1,197.9 222.4,200.1 221.1,202.3 
					219.8,200.1 				"/>
				
					<pattern  id="SVGID_18_" xlink:href="#New_Pattern_2" patternTransform="matrix(-1 -4.489700e-11 -4.489700e-11 1 -16886.3359 -222.5849)">
				</pattern>
				<polygon fill="#EEE5AC" stroke="url(#SVGID_18_)" stroke-miterlimit="10" points="221.1,207.7 222.4,210 221.1,212.2 219.8,210 
									"/>
				
					<pattern  id="SVGID_19_" xlink:href="#New_Pattern_2" patternTransform="matrix(-1 -4.489700e-11 -4.489700e-11 1 -16888.4453 -231.4335)">
				</pattern>
				<polygon fill="#EEE5AC" stroke="url(#SVGID_19_)" stroke-miterlimit="10" points="203.4,198.9 204.7,201.1 203.4,203.3 
					202,201.1 				"/>
				
					<pattern  id="SVGID_20_" xlink:href="#New_Pattern_2" patternTransform="matrix(-1 -4.489700e-11 -4.489700e-11 1 -16888.4453 -221.5849)">
				</pattern>
				<polygon fill="#EEE5AC" stroke="url(#SVGID_20_)" stroke-miterlimit="10" points="203.4,208.7 204.7,211 203.4,213.2 202,211 
									"/>
				<g>
					
						<pattern  id="SVGID_21_" xlink:href="#New_Pattern_2" patternTransform="matrix(-1 -4.489700e-11 -4.489700e-11 1 -16879.5879 -228.5092)">
					</pattern>
					<polygon fill="#EEE5AC" stroke="url(#SVGID_21_)" stroke-miterlimit="10" points="212.2,201.8 213.5,204 212.2,206.2 
						210.9,204 					"/>
					
						<pattern  id="SVGID_22_" xlink:href="#New_Pattern_2" patternTransform="matrix(-1 -4.489700e-11 -4.489700e-11 1 -16879.5879 -218.6606)">
					</pattern>
					<polygon fill="#EEE5AC" stroke="url(#SVGID_22_)" stroke-miterlimit="10" points="212.2,211.7 213.5,213.9 212.2,216.1 
						210.9,213.9 					"/>
				</g>
			</g>
		</g>
		<polygon fill="#FFFFFF" points="152.2,191.9 181,200.5 209.7,191.9 		"/>
		<g>
			<path fill="#AB6A98" d="M152.2,193c2.4,0.7,4.8,1.5,7.3,2.2l7.2,2.3c2.4,0.7,4.8,1.5,7.2,2.3l7.2,2.4l-0.3,0l7.6-2.4
				c2.5-0.8,5.1-1.6,7.6-2.3l7.6-2.3c2.6-0.7,5.1-1.5,7.7-2.2c-2.5,0.9-5,1.8-7.5,2.6l-7.6,2.5c-2.5,0.9-5.1,1.6-7.6,2.5l-7.6,2.4
				l-0.2,0l-0.2-0.1l-7.2-2.4c-2.4-0.8-4.8-1.6-7.2-2.5l-7.1-2.5C157,194.8,154.6,193.9,152.2,193z"/>
		</g>
		<g>
			<g>
				<path fill="#AE7C3C" d="M174.6,138.4h-52V95.8h52V138.4z M125.6,135.4h46V98.8h-46V135.4z"/>
			</g>
			<g>
				<path fill="#AE7C3C" d="M239.4,138.4h-52V95.8h52V138.4z M190.3,135.4h46V98.8h-46V135.4z"/>
			</g>
			<rect x="173.4" y="105.3" fill="#AE7C3C" width="15.5" height="7.9"/>
		</g>
		<g>
			<path fill="#A7A9AC" d="M176.6,309h-8.1v-1.4c0-1.1,0.9-2,2-2h6.1V309z"/>
			<path fill="#A7A9AC" d="M182.9,309h8.1v-1.4c0-1.1-0.9-2-2-2h-6.1V309z"/>
		</g>
		<g>
			<polyline fill="#7AC8A3" points="186.6,231.4 186.6,305.5 182.9,305.5 182.9,231.4 			"/>
			<polyline fill="#7AC8A3" points="176.6,231.4 176.6,305.5 173,305.5 173,231.4 			"/>
		</g>
	</g>
</g>
<g id="Layer_6">
</g>
<g id="Layer_7">
	
		<text transform="matrix(1 0 0 1 100.034 21.5907)" display="none" fill="#A7A9AC" font-family="'MyriadPro-Regular'" font-size="12px">May I use Coral for my position?</text>
</g>
<g id="Layer_8">
</g>
<g id="Layer_11">
</g>
<g id="Layer_9">
</g>
</svg>
