<?xml version="1.0" encoding="utf-8"?>
<!-- Generator: Adobe Illustrator 19.1.0, SVG Export Plug-In . SVG Version: 6.00 Build 0)  -->
<svg version="1.1" xmlns="http://www.w3.org/2000/svg" xmlns:xlink="http://www.w3.org/1999/xlink" x="0px" y="0px"
	 viewBox="0 0 360 360" enable-background="new 0 0 360 360" xml:space="preserve">
<g id="bg">
	<rect fill="#FFC2DE" width="360" height="360"/>
	<radialGradient id="SVGID_1_" cx="180.5758" cy="307.6555" r="99.4506" gradientUnits="userSpaceOnUse">
		<stop  offset="0" style="stop-color:#603813"/>
		<stop  offset="1" style="stop-color:#FFFFFF"/>
	</radialGradient>
	<ellipse opacity="0.1" fill="url(#SVGID_1_)" cx="180.6" cy="307.7" rx="93.3" ry="4.4"/>
	<radialGradient id="SVGID_2_" cx="180.8971" cy="309.383" r="99.4506" gradientUnits="userSpaceOnUse">
		<stop  offset="0" style="stop-color:#603813"/>
		<stop  offset="1" style="stop-color:#FFFFFF"/>
	</radialGradient>
	<ellipse opacity="0.1" fill="url(#SVGID_2_)" cx="180.9" cy="309.4" rx="93.3" ry="4.4"/>
</g>
<g id="Layer_2">
</g>
<g id="Layer_3">
</g>
<g id="Layer_10">
</g>
<g id="Layer_4">
</g>
<g id="Layer_5">
</g>
<g id="Layer_6">
</g>
<g id="Layer_7">
</g>
<g id="Layer_8">
	<g>
		<path fill="#FF6300" d="M178.9,308.5h-9.3v-1.9c0-1.1,0.9-2,2-2h7.3V308.5z"/>
		<path fill="#FF6300" d="M185.3,308.5h9.3v-1.9c0-1.1-0.9-2-2-2h-7.3V308.5z"/>
	</g>
	<g>
		<rect x="175.3" y="193.6" fill="#FF6300" width="3.6" height="110.9"/>
		<rect x="185.3" y="193.6" fill="#FF6300" width="3.6" height="110.9"/>
	</g>
	<ellipse fill="#5E5E5E" cx="183.5" cy="111.4" rx="60.5" ry="41.6"/>
	<circle fill="#FFFEE6" cx="183.5" cy="143.8" r="56.8"/>
	<g>
		<ellipse fill="#58595B" cx="179.6" cy="123.4" rx="1.9" ry="3.9"/>
		<ellipse fill="#58595B" cx="187.4" cy="123.4" rx="1.9" ry="3.9"/>
	</g>
	<path fill="#FF6300" d="M136.5,175.7c10.2,15,27.5,24.9,47,24.9c19.6,0,36.8-9.9,47-24.9H136.5z"/>
	<g>
		<path fill="#F9E531" d="M127.7,154.4c1.5,7.8,4.5,15,8.8,21.3h94c4.3-6.3,7.3-13.5,8.8-21.3H127.7z"/>
	</g>
	<rect x="145.5" y="154.4" fill="#005CFF" width="3.5" height="21.1"/>
	<rect x="216.7" y="154.4" fill="#005CFF" width="3.5" height="21.5"/>
	<g>
		<circle fill="#005CFF" cx="183.5" cy="158.7" r="1.4"/>
		<circle fill="#005CFF" cx="183.5" cy="165" r="1.4"/>
		<circle fill="#005CFF" cx="183.5" cy="171.4" r="1.4"/>
	</g>
	<path fill="#5E5E5E" d="M143.4,94.7c9.2,8.4,23.7,13.8,40.1,13.8c16.7,0,31.5-5.6,40.6-14.2c0,0-19.2-16.3-42-14.5
		S143.4,94.7,143.4,94.7z"/>
	<g>
		<rect x="235.5" y="154.7" fill="#F9E531" width="3.6" height="40.9"/>
		<ellipse fill="#FFFEE6" cx="237.3" cy="194.4" rx="4" ry="3.8"/>
	</g>
	<g>
		<g>
			<path fill="#F9E531" d="M129.5,159c-0.4,0-0.8-0.1-1.1-0.4l-11.8-9.6c-0.6-0.5-0.8-1.2-0.6-1.9l10.9-33.9
				c0.3-0.9,1.3-1.4,2.2-1.1c0.9,0.3,1.4,1.3,1.1,2.2l-10.5,32.8l10.8,8.9c0.7,0.6,0.9,1.7,0.2,2.5C130.5,158.8,130,159,129.5,159z"
				/>
		</g>
		<path fill="#FFFEE6" d="M128.4,109.2c-0.3-0.5-0.4-1.1-0.5-1.6c-1.9,1-2.7,3.3-1.7,5.2c1,1.9,3.3,2.6,5.3,1.6
			c0.8-0.4,1.4-1.1,1.8-1.8C131.2,112.3,129.4,111.1,128.4,109.2z"/>
	</g>
</g>
<g id="Layer_11">
</g>
<g id="Layer_9">
</g>
</svg>
