<?xml version="1.0" encoding="utf-8"?>
<!-- Generator: Adobe Illustrator 19.1.0, SVG Export Plug-In . SVG Version: 6.00 Build 0)  -->
<svg version="1.1" xmlns="http://www.w3.org/2000/svg" xmlns:xlink="http://www.w3.org/1999/xlink" x="0px" y="0px"
	 viewBox="0 0 360 360" enable-background="new 0 0 360 360" xml:space="preserve">
<g id="bg">
	<rect x="0.5" fill="#FFFEE6" width="360" height="360"/>
	<radialGradient id="SVGID_1_" cx="178.0206" cy="308.6555" r="99.4506" gradientUnits="userSpaceOnUse">
		<stop  offset="0" style="stop-color:#808184"/>
		<stop  offset="1" style="stop-color:#FFFFFF"/>
	</radialGradient>
	<ellipse opacity="0.1" fill="url(#SVGID_1_)" cx="178" cy="308.7" rx="93.3" ry="4.4"/>
	<radialGradient id="SVGID_2_" cx="180.8971" cy="309.383" r="99.4506" gradientUnits="userSpaceOnUse">
		<stop  offset="0" style="stop-color:#603813"/>
		<stop  offset="1" style="stop-color:#FFFFFF"/>
	</radialGradient>
	<ellipse opacity="0.1" fill="url(#SVGID_2_)" cx="180.9" cy="309.4" rx="93.3" ry="4.4"/>
</g>
<g id="Layer_2">
</g>
<g id="Layer_3">
</g>
<g id="Layer_10">
</g>
<g id="Layer_4">
</g>
<g id="Layer_5">
</g>
<g id="Layer_6">
</g>
<g id="Layer_7">
	<g>
		<g>
			<g>
				<ellipse fill="#F9E531" cx="177.2" cy="137.7" rx="44.4" ry="53.7"/>
			</g>
		</g>
	</g>
	<g>
		<g>
			<g>
				<g>
					<g>
						<path fill="#F9E531" d="M175.9,309.2h-9.3v-1.9c0-1.1,0.9-2,2-2h7.3V309.2z"/>
					</g>
				</g>
			</g>
			<g>
				<g>
					<g>
						<path fill="#F9E531" d="M182.2,309.2h9.3v-1.9c0-1.1-0.9-2-2-2h-7.3V309.2z"/>
					</g>
				</g>
			</g>
		</g>
		<g>
			<g>
				<g>
					<polyline fill="#F9E531" points="175.9,194.4 175.9,305.3 172.2,305.3 172.2,194.4 					"/>
				</g>
			</g>
		</g>
		<g>
			<g>
				<g>
					<polyline fill="#F9E531" points="185.8,194.4 185.8,305.3 182.2,305.3 182.2,194.4 					"/>
				</g>
			</g>
		</g>
		<g>
			<g>
				<g>
					<g>
						<path fill="#5E5E5E" d="M180.5,210.6c0,1.6,1.3,2.8,2.8,2.8"/>
					</g>
				</g>
			</g>
			<g>
				<g>
					<g>
						<path fill="#5E5E5E" d="M184.5,223.3c0,0.6-0.7,1.1-1.5,1.1"/>
					</g>
				</g>
			</g>
			<g>
				<g>
					<g>
						<path fill="#5E5E5E" d="M184.7,217.3c0,1.5,1.3,2.7,2.9,2.7"/>
					</g>
				</g>
			</g>
			<g>
				<g>
					<g>
						<path fill="#5E5E5E" d="M182.6,230.4c0,0.7-1,1.3-2.1,1.3"/>
					</g>
				</g>
			</g>
			<g>
				<g>
					<g>
						<path fill="#5E5E5E" d="M183.9,236.1c0,0.8,0.6,1.4,1.2,1.4"/>
					</g>
				</g>
			</g>
			<g>
				<g>
					<g>
						<path fill="#5E5E5E" d="M185.1,245.1c1-0.2,2,0.5,2.1,1.4"/>
					</g>
				</g>
			</g>
		</g>
		<g>
			<g>
				<g>
					<g>
						<path fill="#5E5E5E" d="M170.4,258.6c0,1.6,1.3,2.8,2.8,2.8"/>
					</g>
				</g>
			</g>
			<g>
				<g>
					<g>
						<path fill="#5E5E5E" d="M174.4,271.3c0,0.6-0.7,1.1-1.5,1.1"/>
					</g>
				</g>
			</g>
			<g>
				<g>
					<g>
						<path fill="#5E5E5E" d="M174.6,265.4c0,1.5,1.3,2.7,2.9,2.7"/>
					</g>
				</g>
			</g>
			<g>
				<g>
					<g>
						<path fill="#5E5E5E" d="M172.5,278.4c0,0.7-1,1.3-2.1,1.3"/>
					</g>
				</g>
			</g>
			<g>
				<g>
					<g>
						<path fill="#5E5E5E" d="M173.8,284.1c0,0.8,0.6,1.4,1.2,1.4"/>
					</g>
				</g>
			</g>
			<g>
				<g>
					<g>
						<path fill="#5E5E5E" d="M175,293.2c1-0.2,2,0.5,2.1,1.4"/>
					</g>
				</g>
			</g>
		</g>
		<g>
			<g>
				<g>
					<g>
						<path fill="#5E5E5E" d="M174.4,233.2c0,0.6-0.7,1.1-1.5,1.1"/>
					</g>
				</g>
			</g>
			<g>
				<g>
					<g>
						<path fill="#5E5E5E" d="M174.4,241.2c0,1.5,1.3,2.7,2.9,2.7"/>
					</g>
				</g>
			</g>
			<g>
				<g>
					<g>
						<path fill="#5E5E5E" d="M172.5,246.8c0,0.7-1,1.3-2.1,1.3"/>
					</g>
				</g>
			</g>
			<g>
				<g>
					<g>
						<path fill="#5E5E5E" d="M173.6,253.3c0,0.8,0.6,1.4,1.2,1.4"/>
					</g>
				</g>
			</g>
			<g>
				<g>
					<g>
						<path fill="#5E5E5E" d="M173.6,219.8c0,1.5-1.2,2.8-2.8,2.8"/>
					</g>
				</g>
			</g>
		</g>
		<g>
			<g>
				<g>
					<g>
						<path fill="#5E5E5E" d="M184.8,260.6c0,1.6,1.3,2.8,2.8,2.8"/>
					</g>
				</g>
			</g>
			<g>
				<g>
					<g>
						<path fill="#5E5E5E" d="M184.3,267.3c0,0.6-0.7,1.1-1.5,1.1"/>
					</g>
				</g>
			</g>
			<g>
				<g>
					<g>
						<path fill="#5E5E5E" d="M184.3,275.3c0,1.5,1.3,2.7,2.9,2.7"/>
					</g>
				</g>
			</g>
			<g>
				<g>
					<g>
						<path fill="#5E5E5E" d="M182.5,280.9c0,0.7-1,1.3-2.1,1.3"/>
					</g>
				</g>
			</g>
			<g>
				<g>
					<g>
						<path fill="#5E5E5E" d="M183.6,287.4c0,0.8,0.6,1.4,1.2,1.4"/>
					</g>
				</g>
			</g>
			<g>
				<g>
					<g>
						<path fill="#5E5E5E" d="M183.6,253.9c0,1.5-1.2,2.8-2.8,2.8"/>
					</g>
				</g>
			</g>
		</g>
	</g>
	<g>
		<g>
			<g>
				<g>
					<ellipse fill="#58595B" cx="173.5" cy="118.3" rx="1.8" ry="3.7"/>
				</g>
			</g>
		</g>
		<g>
			<g>
				<g>
					<ellipse fill="#58595B" cx="180.9" cy="118.3" rx="1.8" ry="3.7"/>
				</g>
			</g>
		</g>
	</g>
	<g>
		<g>
			<g>
				<ellipse fill="#5E5E5E" cx="177.2" cy="180.6" rx="44.4" ry="53.7"/>
			</g>
		</g>
	</g>
	<g>
		<g>
			<g>
				<g>
					<path fill="#FF6300" d="M238.2,179l1.1-2c-2.1-0.9-4.4-1.8-4.4-1.8c2.2-4.2,3.8-7.4,3.8-7.4l-2-0.7c-1.3,2.2-4.6,9.1-4.6,9.1
						l-17.8,3.6l-0.5,3.4l8.9-2.7l3.9,1.5l1.4-0.4l-3.3-1.7l9.3-2.8C237.1,178.9,238.2,179,238.2,179z"/>
				</g>
			</g>
		</g>
		<g>
			<g>
				<g>
					<polygon fill="#FF6300" points="187.6,190 190.5,189.2 189.9,190.1 191,190.1 192,188.8 206.3,185.1 206.7,181.5 197.9,184.5 
						195.3,184.1 193.9,184.5 195.8,185.2 186.6,188.1 					"/>
				</g>
			</g>
		</g>
	</g>
	<g>
		<g>
			<g>
				<path fill="#F9E531" d="M173.6,149c-0.7,0-1.3-0.4-1.4-1.1c-0.2-0.8,0.2-1.6,1-1.8l10.9-3c0.8-0.2,1.6,0.2,1.8,1
					c0.2,0.8-0.2,1.6-1,1.8l-10.9,3C173.8,149,173.7,149,173.6,149z"/>
			</g>
		</g>
	</g>
</g>
<g id="Layer_8">
</g>
<g id="Layer_11">
</g>
<g id="Layer_9">
</g>
</svg>
