<?xml version="1.0" encoding="utf-8"?>
<!-- Generator: Adobe Illustrator 19.1.0, SVG Export Plug-In . SVG Version: 6.00 Build 0)  -->
<svg version="1.1" xmlns="http://www.w3.org/2000/svg" xmlns:xlink="http://www.w3.org/1999/xlink" x="0px" y="0px"
	 viewBox="0 0 360 360" enable-background="new 0 0 360 360" xml:space="preserve">
<g id="bg">
	<g>
		<g>
			<rect fill="#FDE6E4" width="360" height="360"/>
		</g>
	</g>
</g>
<g id="Layer_2">
</g>
<g id="Layer_3">
</g>
<g id="Layer_10">
	<g opacity="0.8">
		<defs>
			<rect id="SVGID_9_" x="-474" y="-478" opacity="0.8" width="360" height="360"/>
		</defs>
		<clipPath id="SVGID_2_">
			<use xlink:href="#SVGID_9_"  overflow="visible"/>
		</clipPath>
		<g clip-path="url(#SVGID_2_)">
			<g>
				<g>
					
						<rect x="-194.9" y="-485" transform="matrix(0.7071 0.7071 -0.7071 0.7071 -195.1855 78.5436)" fill="#E8F0F6" width="5" height="577.3"/>
				</g>
			</g>
			<g>
				<g>
					
						<rect x="-178" y="-468" transform="matrix(0.7071 0.7071 -0.7071 0.7071 -178.2446 71.5265)" fill="#E8F0F6" width="5" height="577.3"/>
				</g>
			</g>
			<g>
				<g>
					
						<rect x="-161" y="-451.1" transform="matrix(0.7071 0.7071 -0.7071 0.7071 -161.3035 64.5092)" fill="#E8F0F6" width="5" height="577.3"/>
				</g>
			</g>
			<g>
				<g>
					
						<rect x="-144.1" y="-434.2" transform="matrix(0.7071 0.7071 -0.7071 0.7071 -144.3623 57.492)" fill="#E8F0F6" width="5" height="577.3"/>
				</g>
			</g>
			<g>
				<g>
					
						<rect x="-127.1" y="-417.2" transform="matrix(0.7071 0.7071 -0.7071 0.7071 -127.4214 50.4748)" fill="#E8F0F6" width="5" height="577.3"/>
				</g>
			</g>
			<g>
				<g>
					
						<rect x="-110.2" y="-400.3" transform="matrix(0.7071 0.7071 -0.7071 0.7071 -110.4802 43.4575)" fill="#E8F0F6" width="5" height="577.3"/>
				</g>
			</g>
			<g>
				<g>
					
						<rect x="-93.3" y="-383.3" transform="matrix(0.7071 0.7071 -0.7071 0.7071 -93.5391 36.4403)" fill="#E8F0F6" width="5" height="577.3"/>
				</g>
			</g>
		</g>
	</g>
</g>
<g id="Layer_4">
</g>
<g id="Layer_5">
</g>
<g id="Layer_6">
	<g opacity="0.8">
		<defs>
			<rect id="SVGID_141_" y="0" opacity="0.8" width="360" height="360"/>
		</defs>
		<clipPath id="SVGID_4_">
			<use xlink:href="#SVGID_141_"  overflow="visible"/>
		</clipPath>
		<g clip-path="url(#SVGID_4_)">
			<g>
				<g>
					<rect x="318.5" y="-18.2" fill="#F4DEDD" width="21.9" height="396.4"/>
				</g>
			</g>
			<g>
				<g>
					<rect x="348.5" y="-18.2" fill="#F4DEDD" width="22" height="396.4"/>
				</g>
			</g>
			<g>
				<g>
					<rect x="198" y="-18.2" fill="#F4DEDD" width="21.9" height="396.4"/>
				</g>
			</g>
			<g>
				<g>
					<rect x="228.1" y="-18.2" fill="#F4DEDD" width="22" height="396.4"/>
				</g>
			</g>
			<g>
				<g>
					<rect x="258.2" y="-18.2" fill="#F4DEDD" width="21.9" height="396.4"/>
				</g>
			</g>
			<g>
				<g>
					<rect x="288.3" y="-18.2" fill="#F4DEDD" width="22" height="396.4"/>
				</g>
			</g>
			<g>
				<g>
					<rect x="77.5" y="-18.2" fill="#F4DEDD" width="21.9" height="396.4"/>
				</g>
			</g>
			<g>
				<g>
					<rect x="107.6" y="-18.2" fill="#F4DEDD" width="22" height="396.4"/>
				</g>
			</g>
			<g>
				<g>
					<rect x="137.8" y="-18.2" fill="#F4DEDD" width="21.9" height="396.4"/>
				</g>
			</g>
			<g>
				<g>
					<rect x="167.9" y="-18.2" fill="#F4DEDD" width="22" height="396.4"/>
				</g>
			</g>
			<g>
				<g>
					<rect x="-12.8" y="-18.2" fill="#F4DEDD" width="22" height="396.4"/>
				</g>
			</g>
			<g>
				<g>
					<rect x="17.3" y="-18.2" fill="#F4DEDD" width="21.9" height="396.4"/>
				</g>
			</g>
			<g>
				<g>
					<rect x="47.4" y="-18.2" fill="#F4DEDD" width="22" height="396.4"/>
				</g>
			</g>
		</g>
	</g>
	<g opacity="0.1">
		<g>
			<ellipse cx="180" cy="308.4" rx="35.1" ry="4.4"/>
		</g>
	</g>
	<g>
		<g>
			<g>
				<path fill="#EC6567" d="M220.6,162.6c0,57.3-17.3,75.8-39.7,75.8s-41.4-18.5-41.4-75.8s17.7-78.3,40.1-78.3
					S220.6,105.3,220.6,162.6z"/>
			</g>
		</g>
		<g>
			<g>
				<g>
					<ellipse fill="#414042" cx="175.8" cy="128.9" rx="2.5" ry="4"/>
				</g>
			</g>
			<g>
				<g>
					<ellipse fill="#414042" cx="184.2" cy="128.9" rx="2.5" ry="4"/>
				</g>
			</g>
		</g>
		<g>
			<g>
				<g>
					<rect x="182.6" y="235" fill="#EC6567" width="2.8" height="72.9"/>
				</g>
			</g>
			<g>
				<g>
					<rect x="174.9" y="235" fill="#EC6567" width="2.8" height="72.9"/>
				</g>
			</g>
		</g>
		<g>
			<g>
				<g>
					<rect x="209.3" y="213.2" fill="#EC6567" width="3.6" height="40.9"/>
				</g>
			</g>
			<g>
				<g>
					<ellipse fill="#EC6567" cx="211.1" cy="252.9" rx="4" ry="3.8"/>
				</g>
			</g>
		</g>
		<g>
			<g>
				<g>
					<rect x="147.6" y="213.2" fill="#EC6567" width="3.6" height="40.9"/>
				</g>
			</g>
			<g>
				<g>
					<ellipse fill="#EC6567" cx="149.4" cy="252.9" rx="4" ry="3.8"/>
				</g>
			</g>
		</g>
		<g>
			<g>
				<g>
					<rect x="175.3" y="159.9" fill="#F1F2F2" width="4" height="6.2"/>
				</g>
			</g>
			<g>
				<g>
					<rect x="180.7" y="159.9" fill="#F1F2F2" width="4" height="6.2"/>
				</g>
			</g>
		</g>
		<g>
			<g>
				<g>
					<path d="M174.9,308.5h-6.1v-0.6c0-1.1,0.9-2,2-2h4.1V308.5z"/>
				</g>
			</g>
			<g>
				<g>
					<path d="M185.4,308.5h6.1v-0.6c0-1.1-0.9-2-2-2h-4.1V308.5z"/>
				</g>
			</g>
			<g>
				<g>
					<rect x="174.9" y="305.5" width="2.8" height="3.3"/>
				</g>
			</g>
			<g>
				<g>
					<rect x="182.6" y="305.5" width="2.8" height="3.3"/>
				</g>
			</g>
		</g>
		<g>
			<g>
				<g>
					<rect x="182.6" y="276.4" fill="#FFFFFF" width="2.8" height="29.2"/>
				</g>
			</g>
			<g>
				<g>
					<rect x="174.9" y="276.4" fill="#FFFFFF" width="2.8" height="29.2"/>
				</g>
			</g>
		</g>
	</g>
</g>
<g id="Layer_7">
</g>
<g id="Layer_8">
</g>
<g id="Layer_11">
</g>
<g id="Layer_9">
</g>
</svg>
