<?xml version="1.0" encoding="utf-8"?>
<!-- Generator: Adobe Illustrator 19.1.0, SVG Export Plug-In . SVG Version: 6.00 Build 0)  -->
<svg version="1.1" xmlns="http://www.w3.org/2000/svg" xmlns:xlink="http://www.w3.org/1999/xlink" x="0px" y="0px"
	 viewBox="0 0 360 360" enable-background="new 0 0 360 360" xml:space="preserve">
<g id="bg">
	<rect x="0" fill="#005CFF" width="360" height="360"/>
	<radialGradient id="SVGID_1_" cx="180.8971" cy="309.383" r="99.4506" gradientUnits="userSpaceOnUse">
		<stop  offset="0" style="stop-color:#603813"/>
		<stop  offset="1" style="stop-color:#FFFFFF"/>
	</radialGradient>
	<ellipse opacity="0.1" fill="url(#SVGID_1_)" cx="180.9" cy="309.4" rx="93.3" ry="4.4"/>
</g>
<g id="Layer_2">
</g>
<g id="Layer_3">
</g>
<g id="Layer_10">
</g>
<g id="Layer_4">
	<path fill="#FFFEE6" d="M147.6,109c-5.1,12.4-8.2,29.8-8.2,53.6c0,57.3,19,75.8,41.4,75.8s39.7-18.5,39.7-75.8
		c0-23.7-3.2-41.2-8.5-53.6H147.6z"/>
	<g>
		<ellipse fill="#5E5E5E" cx="175.8" cy="128.9" rx="2.5" ry="4"/>
		<ellipse fill="#5E5E5E" cx="184.2" cy="128.9" rx="2.5" ry="4"/>
	</g>
	<g>
		<rect x="182.6" y="235" fill="#FFFEE6" width="2.8" height="72.9"/>
		<rect x="174.9" y="235" fill="#FFFEE6" width="2.8" height="72.9"/>
	</g>
	<g>
		<rect x="213.4" y="213.2" fill="#FFFEE6" width="3.6" height="40.9"/>
		<ellipse fill="#FFFEE6" cx="215.2" cy="252.9" rx="4" ry="3.8"/>
	</g>
	<g>
		<rect x="142.6" y="213.1" fill="#FFFEE6" width="3.6" height="40.9"/>
		<ellipse fill="#FFFEE6" cx="144.4" cy="252.8" rx="4" ry="3.8"/>
	</g>
	<g>
		<path fill="#F9E531" d="M174.9,308.4h-6.1v-0.6c0-1.1,0.9-2,2-2h4.1V308.4z"/>
		<path fill="#F9E531" d="M185.4,308.4h6.1v-0.6c0-1.1-0.9-2-2-2h-4.1V308.4z"/>
		<rect x="174.9" y="305.5" fill="#F9E531" width="2.8" height="3.3"/>
		<rect x="182.6" y="305.5" fill="#F9E531" width="2.8" height="3.3"/>
	</g>
	<g>
		<rect x="182.6" y="279.1" fill="#FFC2DE" width="2.8" height="26.4"/>
		<rect x="174.9" y="279.1" fill="#FFC2DE" width="2.8" height="26.4"/>
	</g>
	<g>
		<path fill="#5E5E5E" d="M180.2,144.6c-14.2,0-25.8,11.5-25.8,25.8C168.7,170.4,180.2,158.8,180.2,144.6z"/>
		<path fill="#5E5E5E" d="M179.8,144.6c14.2,0,25.8,11.5,25.8,25.8C191.3,170.4,179.8,158.8,179.8,144.6z"/>
	</g>
	<rect x="152.8" y="220.1" fill="#FF6300" width="54.4" height="44.7"/>
	<path fill="#F9E531" d="M207.8,191.9h-19l-8.8,24.2l-8.8-24.2h-19.2c-7.9,0-14.2,6.4-14.2,14.2v39h84.3v-38.9
		C222.1,198.3,215.7,191.9,207.8,191.9z"/>
	<polygon fill="#FFC2DE" points="150.2,212 150.2,204.1 165.8,212 	"/>
	<polygon fill="#FFC2DE" points="154.6,212.8 165,205.3 165,212.8 	"/>
	<rect x="149.4" y="210.8" fill="#FF6300" width="17.3" height="4"/>
	<polyline fill="none" stroke="#005CFF" stroke-width="2" stroke-linecap="round" stroke-miterlimit="10" points="180,264.7 
		180,256.7 175.6,254.1 	"/>
	
		<line fill="none" stroke="#005CFF" stroke-width="2" stroke-linecap="round" stroke-miterlimit="10" x1="184.4" y1="254.1" x2="180" y2="256.7"/>
	<path fill="#FF6300" d="M180,51.2L180,51.2c10,0,18.1,8.1,18.1,18.1V109h-36.1V69.3C161.9,59.3,170,51.2,180,51.2z"/>
	
		<line fill="none" stroke="#FF6300" stroke-width="3" stroke-linecap="round" stroke-miterlimit="10" x1="139.4" y1="109" x2="220.6" y2="109"/>
</g>
<g id="Layer_5">
</g>
<g id="Layer_6">
</g>
<g id="Layer_7">
</g>
<g id="Layer_8">
</g>
<g id="Layer_11">
</g>
<g id="Layer_9">
</g>
</svg>
